<?xml version="1.0" encoding="utf-8"?>
<!-- Generator: Adobe Illustrator 25.0.1, SVG Export Plug-In . SVG Version: 6.00 Build 0)  -->
<svg version="1.1" id="Calque_1" xmlns="http://www.w3.org/2000/svg" xmlns:xlink="http://www.w3.org/1999/xlink" x="0px" y="0px"
	 viewBox="0 0 255 187" style="enable-background:new 0 0 255 187;" xml:space="preserve">
<style type="text/css">
	.st0{fill:#00FFFF;}
	.st1{opacity:0.3;}
	.st2{fill:#FF00FF;}
	.st3{fill:none;stroke:#000000;stroke-width:0.3568;stroke-linejoin:bevel;stroke-miterlimit:10;}
	.st4{fill:#FFFF00;stroke:#000000;stroke-width:0.3568;stroke-linejoin:bevel;stroke-miterlimit:10;}
	.st5{fill:#FFFFFF;stroke:#000000;stroke-width:0.3568;stroke-linejoin:bevel;stroke-miterlimit:10;}
	.st6{fill:#FA5FE7;stroke:#000000;stroke-width:0.3568;stroke-linejoin:bevel;stroke-miterlimit:10;}
	.st7{fill:#1B1464;stroke:#000000;stroke-width:0.3568;stroke-linejoin:bevel;stroke-miterlimit:10;}
	.st8{fill:#1643FE;stroke:#000000;stroke-width:0.3078;stroke-linejoin:round;stroke-miterlimit:10;}
	.st9{fill:#FFC000;stroke:#000000;stroke-width:0.3568;stroke-linejoin:bevel;stroke-miterlimit:10;}
	.st10{fill:#3FA9F5;stroke:#000000;stroke-width:0.3568;stroke-linejoin:bevel;stroke-miterlimit:10;}
	.st11{fill:#FFFF00;}
	.st12{fill:#FC65A2;}
	.st13{fill:none;stroke:#000000;stroke-width:0.2409;stroke-linejoin:round;stroke-miterlimit:10;}
	.st14{fill:none;stroke:#000000;stroke-width:0.2409;stroke-linejoin:bevel;stroke-miterlimit:10;}
	.st15{fill:#DBC2F2;stroke:#000000;stroke-width:0.3078;stroke-linejoin:bevel;stroke-miterlimit:10;}
	.st16{stroke:#000000;stroke-width:0.3078;stroke-linejoin:round;stroke-miterlimit:10;}
	.st17{fill:#7017FC;stroke:#000000;stroke-width:0.3568;stroke-linejoin:bevel;stroke-miterlimit:10;}
	.st18{fill:none;stroke:#000000;stroke-width:0.3372;stroke-linejoin:round;stroke-miterlimit:10;}
	.st19{fill:#5ADBFF;stroke:#000000;stroke-width:0.3078;stroke-linejoin:bevel;stroke-miterlimit:10;}
	.st20{fill:#FFC4FF;stroke:#000000;stroke-width:0.3568;stroke-linejoin:bevel;stroke-miterlimit:10;}
	.st21{enable-background:new    ;}
	.st22{clip-path:url(#SVGID_2_);}
	.st23{fill:#FFFFFF;}
	.st24{clip-path:url(#SVGID_4_);}
	.st25{clip-path:url(#SVGID_6_);}
	.st26{clip-path:url(#SVGID_10_);}
	.st27{clip-path:url(#SVGID_14_);}
	.st28{clip-path:url(#SVGID_18_);}
	.st29{clip-path:url(#SVGID_22_);}
	.st30{fill:#FFCFDE;}
	.st31{fill:#6279BF;}
	.st32{clip-path:url(#SVGID_26_);}
	.st33{fill:none;stroke:#00FFFF;stroke-width:0.9234;stroke-linecap:round;stroke-linejoin:round;stroke-miterlimit:10;}
	.st34{fill:#DBC2F2;stroke:#000000;stroke-width:0.3078;stroke-linejoin:round;stroke-miterlimit:10;}
	.st35{fill:#1B1464;stroke:#000000;stroke-width:0.3078;stroke-linejoin:bevel;stroke-miterlimit:10;}
	.st36{fill:#9DE3EA;stroke:#000000;stroke-width:0.3078;stroke-linejoin:round;stroke-miterlimit:10;}
	.st37{fill:#1643FE;stroke:#000000;stroke-width:0.3078;stroke-miterlimit:10;}
	.st38{fill:#FC65A2;stroke:#000000;stroke-width:0.3078;stroke-miterlimit:10;}
	.st39{fill:#FFC4FF;stroke:#000000;stroke-width:0.3078;stroke-miterlimit:10;}
	.st40{fill:#5ADBFF;stroke:#000000;stroke-width:0.3078;stroke-miterlimit:10;}
	.st41{fill:#FFC000;stroke:#000000;stroke-width:0.3078;stroke-miterlimit:10;}
	.st42{fill:#7017FC;stroke:#000000;stroke-width:0.3078;stroke-miterlimit:10;}
	.st43{fill:#FF931E;stroke:#000000;stroke-width:0.3078;stroke-linejoin:round;stroke-miterlimit:10;}
	.st44{fill:#6279BF;stroke:#000000;stroke-width:0.3078;stroke-linejoin:round;stroke-miterlimit:10;}
	.st45{opacity:0.6;fill:#00FFFF;stroke:#00FFFF;stroke-width:0.3078;stroke-linejoin:round;stroke-miterlimit:10;}
	.st46{opacity:0.5;}
	.st47{fill:none;stroke:#00FFFF;stroke-width:0.3078;stroke-linejoin:round;stroke-miterlimit:10;}
	.st48{opacity:0.47;}
	.st49{fill:none;stroke:#FFFFFF;stroke-width:0.3078;stroke-linecap:round;stroke-linejoin:round;stroke-miterlimit:10;}
	.st50{fill:#FFCFDE;stroke:#000000;stroke-width:0.3078;stroke-linejoin:round;stroke-miterlimit:10;}
	.st51{fill:#7017FC;stroke:#000000;stroke-width:0.3078;stroke-linejoin:round;stroke-miterlimit:10;}
	.st52{fill:#FFCFDE;stroke:#000000;stroke-width:0.3078;stroke-linejoin:bevel;stroke-miterlimit:10;}
	.st53{fill:#FC65A2;stroke:#000000;stroke-width:0.3078;stroke-linejoin:round;stroke-miterlimit:10;}
	.st54{fill:#FC65A2;stroke:#000000;stroke-width:0.3078;stroke-linejoin:bevel;stroke-miterlimit:10;}
	.st55{fill:#9DE3EA;stroke:#000000;stroke-width:0.3078;stroke-linejoin:bevel;stroke-miterlimit:10;}
	.st56{fill:#FFFF00;stroke:#000000;stroke-width:0.3078;stroke-linejoin:bevel;stroke-miterlimit:10;}
	.st57{opacity:0.87;}
	.st58{opacity:0.6;}
	.st59{fill:#00FFFF;stroke:#00FFFF;stroke-width:0.3078;stroke-linecap:round;stroke-linejoin:round;stroke-miterlimit:10;}
	.st60{fill:#FFC000;stroke:#000000;stroke-width:0.3078;stroke-linejoin:round;stroke-miterlimit:10;}
	
		.st61{opacity:0.6;fill:#00FFFF;stroke:#00FFFF;stroke-width:0.3078;stroke-linecap:round;stroke-linejoin:round;stroke-miterlimit:10;}
	.st62{fill:none;stroke:#FFFFFF;stroke-width:0.2309;stroke-linecap:round;stroke-linejoin:round;stroke-miterlimit:10;}
	.st63{fill:#FA5FE7;}
	.st64{fill:#3FA9F5;stroke:#000000;stroke-width:0.3078;stroke-linejoin:round;stroke-miterlimit:10;}
	.st65{fill:#FFF592;stroke:#000000;stroke-width:0.3568;stroke-linejoin:bevel;stroke-miterlimit:10;}
	.st66{fill:#9DE3EA;stroke:#000000;stroke-width:0.3568;stroke-linejoin:bevel;stroke-miterlimit:10;}
	.st67{fill:#FC65A2;stroke:#000000;stroke-width:0.3568;stroke-linejoin:bevel;stroke-miterlimit:10;}
	.st68{fill:#6279BF;stroke:#000000;stroke-width:0.3568;stroke-linejoin:bevel;stroke-miterlimit:10;}
	.st69{fill:#FF4A20;stroke:#000000;stroke-width:0.3568;stroke-linejoin:bevel;stroke-miterlimit:10;}
	.st70{fill:#FFC4FF;}
	.st71{stroke:#000000;stroke-width:0.3568;stroke-linejoin:bevel;stroke-miterlimit:10;}
	.st72{fill:#DBC2F2;stroke:#000000;stroke-width:0.3568;stroke-linejoin:bevel;stroke-miterlimit:10;}
	.st73{fill:none;stroke:#FFFFFF;stroke-width:0.7133;stroke-miterlimit:10;}
	.st74{fill:none;stroke:#00FFFF;stroke-width:0.2172;stroke-miterlimit:10;}
	.st75{fill:none;stroke:#FFFFFF;stroke-width:5.431009e-02;}
	.st76{opacity:0.4;}
	.st77{fill:#0000FF;}
	.st78{fill:none;stroke:#000000;stroke-width:0.2876;stroke-linejoin:bevel;stroke-miterlimit:10;}
	.st79{fill:#5ADBFF;}
	.st80{stroke:#FFFFFF;stroke-width:0.3078;stroke-linejoin:bevel;stroke-miterlimit:10;}
	.st81{fill:#FFFFFF;stroke:#000000;stroke-width:0.3078;stroke-linejoin:round;stroke-miterlimit:10;}
	.st82{fill:#5ADBFF;stroke:#000000;stroke-width:0.3078;stroke-linejoin:round;stroke-miterlimit:10;}
	.st83{fill:#FFC4FF;stroke:#000000;stroke-width:0.3078;stroke-linejoin:bevel;stroke-miterlimit:10;}
	.st84{fill:#1643FE;stroke:#000000;stroke-width:0.3078;stroke-linejoin:bevel;stroke-miterlimit:10;}
	.st85{fill:#289AE0;stroke:#000000;stroke-width:0.3078;stroke-linejoin:bevel;stroke-miterlimit:10;}
	.st86{fill:#FA5FE7;stroke:#000000;stroke-width:0.3078;stroke-linejoin:bevel;stroke-miterlimit:10;}
	.st87{fill:#1B1464;stroke:#000000;stroke-width:0.3078;stroke-linejoin:round;stroke-miterlimit:10;}
	
		.st88{opacity:0.4;fill:#00FFFF;stroke:#00FFFF;stroke-width:0.6153;stroke-linecap:round;stroke-linejoin:round;stroke-miterlimit:10;}
	.st89{fill:none;stroke:#FFFFFF;stroke-width:0.6153;stroke-linecap:round;stroke-linejoin:round;stroke-miterlimit:10;}
	.st90{opacity:0.75;}
	.st91{opacity:0.4;fill:#00FFFF;stroke:#00FFFF;stroke-width:0.3078;stroke-linejoin:round;stroke-miterlimit:10;}
	.st92{fill:#00FFFF;stroke:#00FFFF;stroke-width:0.3078;stroke-linejoin:round;stroke-miterlimit:10;}
	.st93{fill:none;stroke:#FFFFFF;stroke-width:4.685921e-02;}
	.st94{fill:#FFFFFF;stroke:#000000;stroke-width:0.1117;stroke-linejoin:bevel;stroke-miterlimit:10;}
	.st95{fill:#FA5FE7;stroke:#000000;stroke-width:0.1117;stroke-miterlimit:10;}
	.st96{fill:#FFFFFF;stroke:#000000;stroke-width:0.1117;stroke-miterlimit:10;}
	.st97{fill:#FFCFDE;stroke:#000000;stroke-width:0.1117;stroke-miterlimit:10;}
	.st98{fill:#325AFE;stroke:#000000;stroke-width:0.1117;stroke-miterlimit:10;}
	.st99{stroke:#000000;stroke-width:0.1117;stroke-miterlimit:10;}
	.st100{fill:#325AFE;stroke:#000000;stroke-width:0.1117;stroke-linejoin:bevel;stroke-miterlimit:10;}
	.st101{fill:#FFCFDE;stroke:#000000;stroke-width:0.1117;stroke-linejoin:bevel;stroke-miterlimit:10;}
	.st102{stroke:#000000;stroke-width:0.1117;stroke-linejoin:bevel;stroke-miterlimit:10;}
	.st103{fill:#73E0FF;stroke:#FFFFFF;stroke-width:0.1117;stroke-linejoin:bevel;stroke-miterlimit:10;}
	.st104{fill:#73E0FF;}
	.st105{fill:none;stroke:#000000;stroke-width:0.1117;stroke-miterlimit:10;}
	.st106{fill:#1643FE;stroke:#000000;stroke-width:0.1117;stroke-linejoin:bevel;stroke-miterlimit:10;}
	.st107{fill:#FA5FE7;stroke:#000000;stroke-width:0.1117;stroke-linejoin:bevel;stroke-miterlimit:10;}
	.st108{fill:#FFC000;}
	.st109{fill:#325AFE;}
	.st110{fill:none;stroke:#000000;stroke-width:0.1117;stroke-linejoin:bevel;stroke-miterlimit:10;}
	.st111{fill:#73E0FF;stroke:#000000;stroke-width:0.1117;stroke-linejoin:bevel;stroke-miterlimit:10;}
	.st112{stroke:#FFFFFF;stroke-width:1.340595e-02;stroke-miterlimit:10;}
	.st113{fill:#73E0FF;stroke:#FFFFFF;stroke-width:1.340595e-02;stroke-miterlimit:10;}
	.st114{fill:#FFFFFF;stroke:#FFFFFF;stroke-width:1.340595e-02;stroke-miterlimit:10;}
	.st115{fill:#FFC4FF;stroke:#000000;stroke-width:0.1117;stroke-linejoin:bevel;stroke-miterlimit:10;}
	.st116{fill:#00B0F0;stroke:#000000;stroke-width:0.1117;stroke-linejoin:bevel;stroke-miterlimit:10;}
	.st117{fill:#FBFF7A;stroke:#000000;stroke-width:0.3078;stroke-linejoin:round;stroke-miterlimit:10;}
	.st118{fill:none;stroke:#000000;stroke-width:0.3078;stroke-linejoin:round;stroke-miterlimit:10;}
	.st119{fill:#FA5FE7;stroke:#000000;stroke-width:0.3078;stroke-linejoin:round;stroke-miterlimit:10;}
	.st120{fill:#3FA9F5;}
	.st121{stroke:#FBFF7A;stroke-width:0.3078;stroke-linejoin:round;stroke-miterlimit:10;}
	.st122{fill:#FBFF7A;stroke:#000000;stroke-width:0.2511;stroke-linejoin:round;stroke-miterlimit:10;}
	.st123{fill:#FF7BAC;stroke:#000000;stroke-width:0.3078;stroke-linejoin:round;stroke-miterlimit:10;}
	.st124{fill:#FFC4FF;stroke:#000000;stroke-width:0.3078;stroke-linejoin:round;stroke-miterlimit:10;}
	.st125{fill:#C97DFF;stroke:#000000;stroke-width:0.3078;stroke-linejoin:round;stroke-miterlimit:10;}
	.st126{fill:none;stroke:#FFFFFF;stroke-width:0.6156;stroke-linecap:round;stroke-linejoin:round;stroke-miterlimit:10;}
	.st127{fill:none;stroke:#FFFFFF;stroke-width:0.9234;stroke-linecap:round;stroke-linejoin:round;stroke-miterlimit:10;}
	.st128{fill:none;stroke:#FFFFFF;stroke-width:0.1539;stroke-linecap:round;stroke-linejoin:round;stroke-miterlimit:10;}
	.st129{fill:none;stroke:#00FFFF;stroke-linecap:round;stroke-linejoin:round;}
	.st130{stroke:#000000;stroke-width:0.3078;stroke-miterlimit:10;}
	.st131{fill:#FFFFFF;stroke:#000000;stroke-width:0.3078;stroke-miterlimit:10;}
	.st132{fill:url(#);stroke:#000000;stroke-width:0.3078;stroke-miterlimit:10;}
	.st133{fill:#FF931E;stroke:#000000;stroke-width:0.3078;stroke-miterlimit:10;}
	.st134{fill:#FFFF00;stroke:#000000;stroke-width:0.3078;stroke-miterlimit:10;}
	.st135{stroke:#000000;stroke-width:0.3078;stroke-linejoin:bevel;stroke-miterlimit:10;}
	.st136{fill:#FFFFFF;stroke:#000000;stroke-width:0.3078;stroke-linejoin:bevel;stroke-miterlimit:10;}
	.st137{fill:#FF931E;stroke:#000000;stroke-width:0.3078;stroke-linejoin:bevel;stroke-miterlimit:10;}
	.st138{fill:#7AC943;stroke:#000000;stroke-width:0.3078;stroke-linejoin:bevel;stroke-miterlimit:10;}
	.st139{fill:none;stroke:#000000;stroke-width:0.3078;stroke-miterlimit:10;}
	.st140{fill:#FA5FE7;stroke:#000000;stroke-width:0.3078;stroke-miterlimit:10;}
	.st141{fill:#7017FC;}
	.st142{fill:#00FFFF;stroke:#000000;stroke-width:0.3078;stroke-miterlimit:10;}
	.st143{fill:#3FA9F5;stroke:#000000;stroke-width:0.3078;stroke-linejoin:bevel;stroke-miterlimit:10;}
	.st144{fill:#DBC2F2;}
	.st145{fill:#7AC943;}
	.st146{clip-path:url(#SVGID_28_);}
	.st147{fill:#FFC000;stroke:#000000;stroke-width:0.3078;stroke-linejoin:bevel;stroke-miterlimit:10;}
	.st148{fill:url(#);stroke:#000000;stroke-width:0.3078;stroke-linejoin:bevel;stroke-miterlimit:10;}
	.st149{fill:none;stroke:#000000;stroke-width:0.3078;stroke-linejoin:bevel;stroke-miterlimit:10;}
	.st150{fill:url(#);}
	.st151{fill:#00B0F0;stroke:#000000;stroke-width:0.3078;stroke-miterlimit:10;}
	.st152{fill:#3FA9F5;stroke:#000000;stroke-width:0.3078;stroke-miterlimit:10;}
	.st153{fill:#FCEE21;stroke:#000000;stroke-width:0.3078;stroke-miterlimit:10;}
	.st154{fill:#9DE3EA;stroke:#000000;stroke-width:0.3078;stroke-miterlimit:10;}
	.st155{fill:none;stroke:#000000;stroke-width:0.1925;stroke-linejoin:bevel;stroke-miterlimit:10;}
	.st156{stroke:#000000;stroke-width:0.2686;stroke-miterlimit:10;}
	.st157{stroke:#000000;stroke-width:0.1903;stroke-miterlimit:10;}
	.st158{fill-rule:evenodd;clip-rule:evenodd;fill:#FFFFFF;}
	.st159{fill:none;stroke:#FFFFFF;stroke-width:1.0103;stroke-miterlimit:10;}
	.st160{fill:none;stroke:#FFFFFF;stroke-width:0.9533;stroke-miterlimit:10;}
	.st161{fill:none;stroke:#FFFFFF;stroke-width:0.9224;stroke-miterlimit:10;}
	.st162{fill:none;stroke:#FFFFFF;stroke-width:0.866;stroke-miterlimit:10;}
	.st163{fill:none;stroke:#FFFFFF;stroke-width:0.8788;stroke-miterlimit:10;}
	.st164{fill:none;stroke:#FFFFFF;stroke-width:1.2288;stroke-miterlimit:10;}
	.st165{fill:none;stroke:#FFFFFF;stroke-width:1.3999;stroke-miterlimit:10;}
	.st166{fill:none;stroke:#000000;stroke-width:0.3559;stroke-linejoin:bevel;stroke-miterlimit:10;}
	.st167{fill:#FFFF00;stroke:#000000;stroke-width:0.3559;stroke-linejoin:bevel;stroke-miterlimit:10;}
	.st168{fill:#FFFFFF;stroke:#000000;stroke-width:0.3559;stroke-linejoin:bevel;stroke-miterlimit:10;}
	.st169{fill:#FA5FE7;stroke:#000000;stroke-width:0.3559;stroke-linejoin:bevel;stroke-miterlimit:10;}
	.st170{fill:#1B1464;stroke:#000000;stroke-width:0.3559;stroke-linejoin:bevel;stroke-miterlimit:10;}
	.st171{fill:#1643FE;stroke:#000000;stroke-width:0.3071;stroke-linejoin:round;stroke-miterlimit:10;}
	.st172{fill:#FFC000;stroke:#000000;stroke-width:0.3559;stroke-linejoin:bevel;stroke-miterlimit:10;}
	.st173{fill:#3FA9F5;stroke:#000000;stroke-width:0.3559;stroke-linejoin:bevel;stroke-miterlimit:10;}
	.st174{fill:none;stroke:#000000;stroke-width:0.2403;stroke-linejoin:round;stroke-miterlimit:10;}
	.st175{fill:none;stroke:#000000;stroke-width:0.2403;stroke-linejoin:bevel;stroke-miterlimit:10;}
	.st176{fill:#DBC2F2;stroke:#000000;stroke-width:0.3071;stroke-linejoin:bevel;stroke-miterlimit:10;}
	.st177{stroke:#000000;stroke-width:0.3071;stroke-linejoin:round;stroke-miterlimit:10;}
	.st178{fill:#7017FC;stroke:#000000;stroke-width:0.3559;stroke-linejoin:bevel;stroke-miterlimit:10;}
	.st179{fill:none;stroke:#000000;stroke-width:0.3364;stroke-linejoin:round;stroke-miterlimit:10;}
	.st180{fill:#5ADBFF;stroke:#000000;stroke-width:0.3071;stroke-linejoin:bevel;stroke-miterlimit:10;}
	.st181{fill:#FFC4FF;stroke:#000000;stroke-width:0.3559;stroke-linejoin:bevel;stroke-miterlimit:10;}
	.st182{fill:none;}
	.st183{fill:#DBC2F2;stroke:#000000;stroke-width:0.3065;stroke-linejoin:bevel;stroke-miterlimit:10;}
	.st184{fill:#DBC2F2;stroke:#000000;stroke-width:0.3065;stroke-linejoin:round;stroke-miterlimit:10;}
	.st185{fill:#1B1464;stroke:#000000;stroke-width:0.3065;stroke-linejoin:bevel;stroke-miterlimit:10;}
	.st186{fill:#9DE3EA;stroke:#000000;stroke-width:0.3065;stroke-linejoin:round;stroke-miterlimit:10;}
	.st187{fill:#1643FE;stroke:#000000;stroke-width:0.3065;stroke-miterlimit:10;}
	.st188{fill:#5ADBFF;stroke:#000000;stroke-width:0.3065;stroke-linejoin:bevel;stroke-miterlimit:10;}
	.st189{fill:#FC65A2;stroke:#000000;stroke-width:0.3065;stroke-miterlimit:10;}
	.st190{fill:#FFC4FF;stroke:#000000;stroke-width:0.3065;stroke-miterlimit:10;}
	.st191{fill:#5ADBFF;stroke:#000000;stroke-width:0.3065;stroke-miterlimit:10;}
	.st192{fill:#FFC000;stroke:#000000;stroke-width:0.3065;stroke-miterlimit:10;}
	.st193{fill:#7017FC;stroke:#000000;stroke-width:0.3065;stroke-miterlimit:10;}
	.st194{fill:#FF931E;stroke:#000000;stroke-width:0.3065;stroke-linejoin:round;stroke-miterlimit:10;}
	.st195{fill:#6279BF;stroke:#000000;stroke-width:0.3065;stroke-linejoin:round;stroke-miterlimit:10;}
	.st196{opacity:0.6;fill:#00FFFF;stroke:#00FFFF;stroke-width:0.3065;stroke-linejoin:round;stroke-miterlimit:10;}
	.st197{fill:none;stroke:#00FFFF;stroke-width:0.3065;stroke-linejoin:round;stroke-miterlimit:10;}
	.st198{fill:none;stroke:#FFFFFF;stroke-width:0.3065;stroke-linecap:round;stroke-linejoin:round;stroke-miterlimit:10;}
	.st199{fill:#FFCFDE;stroke:#000000;stroke-width:0.3065;stroke-linejoin:round;stroke-miterlimit:10;}
	.st200{fill:#7017FC;stroke:#000000;stroke-width:0.3065;stroke-linejoin:round;stroke-miterlimit:10;}
	.st201{fill:#FFCFDE;stroke:#000000;stroke-width:0.3065;stroke-linejoin:bevel;stroke-miterlimit:10;}
	.st202{fill:#FC65A2;stroke:#000000;stroke-width:0.3065;stroke-linejoin:round;stroke-miterlimit:10;}
	.st203{fill:#FC65A2;stroke:#000000;stroke-width:0.3065;stroke-linejoin:bevel;stroke-miterlimit:10;}
	.st204{fill:#9DE3EA;stroke:#000000;stroke-width:0.3065;stroke-linejoin:bevel;stroke-miterlimit:10;}
	.st205{fill:#FFFF00;stroke:#000000;stroke-width:0.3065;stroke-linejoin:bevel;stroke-miterlimit:10;}
	.st206{fill:#FFC000;stroke:#000000;stroke-width:0.3065;stroke-linejoin:round;stroke-miterlimit:10;}
	.st207{fill:#1643FE;stroke:#000000;stroke-width:0.3065;stroke-linejoin:round;stroke-miterlimit:10;}
	.st208{fill:#00FFFF;stroke:#00FFFF;stroke-width:0.3065;stroke-linecap:round;stroke-linejoin:round;stroke-miterlimit:10;}
	
		.st209{opacity:0.6;fill:#00FFFF;stroke:#00FFFF;stroke-width:0.3065;stroke-linecap:round;stroke-linejoin:round;stroke-miterlimit:10;}
	.st210{fill:none;stroke:#FFFFFF;stroke-width:0.2299;stroke-linecap:round;stroke-linejoin:round;stroke-miterlimit:10;}
	.st211{fill:#FFFFFF;stroke:#000000;stroke-width:0.3566;stroke-linejoin:bevel;stroke-miterlimit:10;}
	.st212{fill:#3FA9F5;stroke:#000000;stroke-width:0.3077;stroke-linejoin:round;stroke-miterlimit:10;}
	.st213{fill:#FFF592;stroke:#000000;stroke-width:0.3566;stroke-linejoin:bevel;stroke-miterlimit:10;}
	.st214{fill:#1B1464;stroke:#000000;stroke-width:0.3566;stroke-linejoin:bevel;stroke-miterlimit:10;}
	.st215{fill:#9DE3EA;stroke:#000000;stroke-width:0.3566;stroke-linejoin:bevel;stroke-miterlimit:10;}
	.st216{fill:#FFC000;stroke:#000000;stroke-width:0.3566;stroke-linejoin:bevel;stroke-miterlimit:10;}
	.st217{fill:#FC65A2;stroke:#000000;stroke-width:0.3566;stroke-linejoin:bevel;stroke-miterlimit:10;}
	.st218{fill:#FFC4FF;stroke:#000000;stroke-width:0.3566;stroke-linejoin:bevel;stroke-miterlimit:10;}
	.st219{fill:#6279BF;stroke:#000000;stroke-width:0.3566;stroke-linejoin:bevel;stroke-miterlimit:10;}
	.st220{fill:#3FA9F5;stroke:#000000;stroke-width:0.3566;stroke-linejoin:bevel;stroke-miterlimit:10;}
	.st221{fill:#FF4A20;stroke:#000000;stroke-width:0.3566;stroke-linejoin:bevel;stroke-miterlimit:10;}
	.st222{fill:none;stroke:#000000;stroke-width:0.3566;stroke-linejoin:bevel;stroke-miterlimit:10;}
	.st223{stroke:#000000;stroke-width:0.3566;stroke-linejoin:bevel;stroke-miterlimit:10;}
	.st224{fill:#FFCFDE;stroke:#000000;stroke-width:0.3077;stroke-linejoin:round;stroke-miterlimit:10;}
	.st225{fill:#DBC2F2;stroke:#000000;stroke-width:0.3566;stroke-linejoin:bevel;stroke-miterlimit:10;}
	.st226{fill:#FFFF00;stroke:#000000;stroke-width:0.3566;stroke-linejoin:bevel;stroke-miterlimit:10;}
	.st227{fill:none;stroke:#000000;stroke-width:0.2885;stroke-linejoin:bevel;stroke-miterlimit:10;}
	.st228{fill:#FFC000;stroke:#000000;stroke-width:0.3088;stroke-linejoin:round;stroke-miterlimit:10;}
	.st229{stroke:#FFFFFF;stroke-width:0.3088;stroke-linejoin:bevel;stroke-miterlimit:10;}
	.st230{fill:#FFFFFF;stroke:#000000;stroke-width:0.3088;stroke-linejoin:round;stroke-miterlimit:10;}
	.st231{stroke:#000000;stroke-width:0.3088;stroke-linejoin:round;stroke-miterlimit:10;}
	.st232{fill:#5ADBFF;stroke:#000000;stroke-width:0.3088;stroke-linejoin:round;stroke-miterlimit:10;}
	.st233{fill:#9DE3EA;stroke:#000000;stroke-width:0.3088;stroke-linejoin:bevel;stroke-miterlimit:10;}
	.st234{fill:#7017FC;stroke:#000000;stroke-width:0.3088;stroke-linejoin:round;stroke-miterlimit:10;}
	.st235{fill:#FFC4FF;stroke:#000000;stroke-width:0.3088;stroke-linejoin:bevel;stroke-miterlimit:10;}
	.st236{fill:#1643FE;stroke:#000000;stroke-width:0.3088;stroke-linejoin:bevel;stroke-miterlimit:10;}
	.st237{fill:#FFCFDE;stroke:#000000;stroke-width:0.3088;stroke-linejoin:round;stroke-miterlimit:10;}
	.st238{fill:#289AE0;stroke:#000000;stroke-width:0.3088;stroke-linejoin:bevel;stroke-miterlimit:10;}
	.st239{fill:#FA5FE7;stroke:#000000;stroke-width:0.3088;stroke-linejoin:bevel;stroke-miterlimit:10;}
	.st240{fill:#1B1464;stroke:#000000;stroke-width:0.3088;stroke-linejoin:round;stroke-miterlimit:10;}
	.st241{fill:#FC65A2;stroke:#000000;stroke-width:0.3579;stroke-linejoin:bevel;stroke-miterlimit:10;}
	.st242{fill:#6279BF;stroke:#000000;stroke-width:0.3088;stroke-linejoin:round;stroke-miterlimit:10;}
	.st243{fill:#FFCFDE;stroke:#000000;stroke-width:0.3088;stroke-linejoin:bevel;stroke-miterlimit:10;}
	.st244{fill:#FFFF00;stroke:#000000;stroke-width:0.3579;stroke-linejoin:bevel;stroke-miterlimit:10;}
	.st245{fill:#1643FE;stroke:#000000;stroke-width:0.3088;stroke-linejoin:round;stroke-miterlimit:10;}
	.st246{stroke:#FFFFFF;stroke-width:1.340739e-02;stroke-miterlimit:10;}
	.st247{fill:#73E0FF;stroke:#FFFFFF;stroke-width:1.340739e-02;stroke-miterlimit:10;}
	.st248{fill:#FFFFFF;stroke:#FFFFFF;stroke-width:1.340739e-02;stroke-miterlimit:10;}
	.st249{fill:none;stroke:#000000;stroke-width:0.2874;stroke-linejoin:bevel;stroke-miterlimit:10;}
	.st250{fill:#FFFFFF;stroke:#000000;stroke-width:0.3076;stroke-linejoin:round;stroke-miterlimit:10;}
	.st251{fill:#FFCFDE;stroke:#000000;stroke-width:0.3076;stroke-linejoin:round;stroke-miterlimit:10;}
	.st252{fill:#9DE3EA;stroke:#000000;stroke-width:0.3076;stroke-linejoin:round;stroke-miterlimit:10;}
	.st253{fill:#6279BF;stroke:#000000;stroke-width:0.3076;stroke-linejoin:round;stroke-miterlimit:10;}
	.st254{fill:#1B1464;stroke:#000000;stroke-width:0.3076;stroke-linejoin:round;stroke-miterlimit:10;}
	.st255{fill:#FFC000;stroke:#000000;stroke-width:0.3076;stroke-linejoin:round;stroke-miterlimit:10;}
	.st256{fill:#3FA9F5;stroke:#000000;stroke-width:0.3076;stroke-linejoin:round;stroke-miterlimit:10;}
	.st257{fill:#FBFF7A;stroke:#000000;stroke-width:0.3076;stroke-linejoin:round;stroke-miterlimit:10;}
	.st258{fill:#1643FE;stroke:#000000;stroke-width:0.3076;stroke-linejoin:round;stroke-miterlimit:10;}
	.st259{fill:#DBC2F2;stroke:#000000;stroke-width:0.3076;stroke-linejoin:round;stroke-miterlimit:10;}
	.st260{fill:none;stroke:#000000;stroke-width:0.3076;stroke-linejoin:round;stroke-miterlimit:10;}
	.st261{fill:#FA5FE7;stroke:#000000;stroke-width:0.3076;stroke-linejoin:round;stroke-miterlimit:10;}
	.st262{stroke:#000000;stroke-width:0.3076;stroke-linejoin:round;stroke-miterlimit:10;}
	.st263{fill:none;stroke:#000000;stroke-width:0.337;stroke-linejoin:round;stroke-miterlimit:10;}
	.st264{stroke:#FBFF7A;stroke-width:0.3076;stroke-linejoin:round;stroke-miterlimit:10;}
	.st265{fill:#FBFF7A;stroke:#000000;stroke-width:0.2509;stroke-linejoin:round;stroke-miterlimit:10;}
	.st266{fill:#FF7BAC;stroke:#000000;stroke-width:0.3076;stroke-linejoin:round;stroke-miterlimit:10;}
	.st267{fill:#7017FC;stroke:#000000;stroke-width:0.3076;stroke-linejoin:round;stroke-miterlimit:10;}
	.st268{fill:#FFC4FF;stroke:#000000;stroke-width:0.3076;stroke-linejoin:round;stroke-miterlimit:10;}
	.st269{fill:#C97DFF;stroke:#000000;stroke-width:0.3076;stroke-linejoin:round;stroke-miterlimit:10;}
	.st270{clip-path:url(#SVGID_30_);}
	.st271{fill:none;stroke:#FFFFFF;stroke-width:0.3088;stroke-linecap:round;stroke-linejoin:round;stroke-miterlimit:10;}
	
		.st272{opacity:0.4;fill:#00FFFF;stroke:#00FFFF;stroke-width:0.6172;stroke-linecap:round;stroke-linejoin:round;stroke-miterlimit:10;}
	.st273{fill:none;stroke:#FFFFFF;stroke-width:0.6172;stroke-linecap:round;stroke-linejoin:round;stroke-miterlimit:10;}
	.st274{opacity:0.4;fill:#00FFFF;stroke:#00FFFF;stroke-width:0.3088;stroke-linejoin:round;stroke-miterlimit:10;}
	.st275{fill:#00FFFF;stroke:#00FFFF;stroke-width:0.3088;stroke-linejoin:round;stroke-miterlimit:10;}
	.st276{fill:none;stroke:#FFFFFF;stroke-width:4.700277e-02;}
	.st277{fill:none;stroke:#FFFFFF;stroke-width:0.713;stroke-miterlimit:10;}
	.st278{fill:none;stroke:#00FFFF;stroke-width:0.2171;stroke-miterlimit:10;}
	.st279{fill:none;stroke:#FFFFFF;stroke-width:5.428520e-02;}
	.st280{clip-path:url(#SVGID_32_);}
	.st281{clip-path:url(#SVGID_34_);}
	.st282{clip-path:url(#SVGID_36_);}
	.st283{clip-path:url(#SVGID_40_);}
	.st284{clip-path:url(#SVGID_44_);}
	.st285{clip-path:url(#SVGID_48_);}
	.st286{clip-path:url(#SVGID_52_);}
	.st287{clip-path:url(#SVGID_56_);}
	.st288{fill:none;stroke:#00FFFF;stroke-width:0.9195;stroke-linecap:round;stroke-linejoin:round;stroke-miterlimit:10;}
</style>
<g>
	<g>
		<g>
			<g>
				<path class="st0" d="M139.8,110.1c-1.7,0-3.3-0.4-4.8-1.3c-0.8-0.5-1.3-1.4-1.2-2.3c0.5-8.1,9.6-11.1,20.2-14.7
					c5.7-1.9,12.1-4.1,18-7.3c0.4-0.2,0.8-0.3,1.2-0.3c0.9,0,1.7,0.5,2.2,1.3c0.3,0.6,0.4,1.2,0.2,1.9c-0.2,0.6-0.6,1.1-1.2,1.5
					c-5.9,3.2-11.2,7.4-15.9,11.1C151.4,105.4,145.5,110.1,139.8,110.1z"/>
				<path class="st0" d="M173,84.7c0.7,0,1.4,0.4,1.8,1c0.5,1,0.2,2.2-0.8,2.7c-5.9,3.2-11.3,7.4-16,11.1c-6.8,5.4-12.7,10-18.2,10
					c0,0,0,0,0,0c-1.6,0-3.2-0.4-4.6-1.2c-0.7-0.4-1.1-1.1-1-1.9c0.5-7.8,9.5-10.8,19.8-14.3c5.7-1.9,12.2-4.1,18.1-7.3
					C172.4,84.8,172.7,84.7,173,84.7 M173,83.8c-0.5,0-1,0.1-1.4,0.4c-5.8,3.2-12.3,5.3-17.9,7.2c-10.7,3.6-19.9,6.7-20.5,15.1
					c-0.1,1.1,0.5,2.2,1.5,2.7c1.6,0.9,3.3,1.3,5,1.3c5.8,0,11.8-4.7,18.8-10.2c4.7-3.7,10-7.9,15.9-11.1c1.4-0.8,1.9-2.5,1.2-4
					C175.1,84.4,174.1,83.8,173,83.8L173,83.8z"/>
			</g>
			<g>
				<path class="st0" d="M38.6,149.1c-0.2,0-0.4,0-0.7-0.1c-0.2,0-0.4-0.1-0.5-0.2l-5.4-3.1c-0.4-0.2-0.6-0.5-0.8-0.8
					c-0.2-0.4-0.3-0.8-0.3-1.2v-3.4c0-0.7,0.3-1.3,0.8-1.7c0.1-0.1,0.3-0.2,0.4-0.3l3.1-1.8c0.3-0.2,0.7-0.3,1.2-0.3
					s0.8,0.1,1.2,0.3c0.1,0.1,0.2,0.1,0.3,0.2l0.2,0.1l3.2-1.9l2.1-5.5c0.3-0.8,1-1.3,1.8-1.4c0.1,0,0.2,0,0.3,0
					c0.7,0,1.4,0.3,1.8,0.9l0.3,0.4c0-0.1,0.1-0.2,0.2-0.4c0.3-2,1.5-3.5,3.3-4l3.5-1l-0.3-2.6l-0.4,0.2c-0.1,0-0.1,0.1-0.2,0.1
					l-0.1,0.1l-2.1,1.2c-0.5,0.3-1.1,0.5-1.7,0.5c-1.2,0-2.2-0.6-2.6-1.6c-0.5-1-0.3-2.1,0.3-3c-0.2,0.1-0.3,0.1-0.5,0.1
					c-0.3,0.4-0.8,0.6-1.2,0.8c0,0-0.1,0-0.1,0c0,0,0,0,0,0c-0.9,0.3-3.1,1-9.3,2.8c-0.2,0.1-0.4,0.1-0.6,0.1c-0.8,0-1.6-0.4-2-1.2
					c-0.5-0.9-0.4-2.1,0.4-2.8c4.5-4.2,6.3-5.9,7-6.6c0,0,0-0.1,0.1-0.1c0.4-0.3,0.9-0.6,1.4-0.7c0.2-0.3,0.5-0.5,0.9-0.6l0,0
					l2.1-4.8l-0.5-8.3c-0.1-0.8,0.4-1.7,1.1-2.1c0.4-0.2,0.8-0.3,1.2-0.3c0.4,0,0.8,0.1,1.2,0.3l11.6,6.7c0.2-1.2,0.8-2.2,1.8-2.6
					c0.1,0,0.2-0.1,0.3-0.2c0.1-0.1,0.2-0.1,0.3-0.2c0.1-0.1,0.2-0.1,0.3-0.2c0.1,0,0.2-0.1,0.3-0.2c0.1-0.1,0.2-0.1,0.3-0.2
					c0.1,0,0.2-0.1,0.3-0.2c0.1-0.1,0.2-0.1,0.3-0.2c0.1-0.1,0.2-0.1,0.3-0.2c0.1-0.1,0.2-0.1,0.3-0.2c0.1-0.1,0.2-0.1,0.3-0.2
					c0.1-0.1,0.2-0.1,0.3-0.2c0.1-0.1,0.2-0.1,0.3-0.2c0.1,0,0.2-0.1,0.3-0.2c0.1-0.1,0.2-0.1,0.3-0.2c0.1-0.1,0.2-0.1,0.3-0.2
					c0.1-0.1,0.2-0.1,0.3-0.2c0.1-0.1,0.2-0.1,0.3-0.2c0.1-0.1,0.2-0.1,0.3-0.2c0.1,0,0.2-0.1,0.3-0.2c0.1-0.1,0.2-0.1,0.3-0.2
					c0.1-0.1,0.2-0.1,0.3-0.2c0.1,0,0.2-0.1,0.3-0.2c0.1-0.1,0.2-0.1,0.3-0.2c0.1,0,0.2-0.1,0.3-0.2c0.1-0.1,0.2-0.1,0.3-0.2
					c0.1-0.1,0.2-0.1,0.3-0.2c0.1-0.1,0.2-0.1,0.3-0.2c0.1-0.1,0.2-0.1,0.3-0.2c0.1-0.1,0.2-0.1,0.3-0.2c0.1-0.1,0.2-0.1,0.3-0.2
					c0.1-0.1,0.2-0.1,0.3-0.2c0.1-0.1,0.2-0.1,0.3-0.2c0.1-0.1,0.2-0.1,0.3-0.2c0.1-0.1,0.2-0.1,0.3-0.2c0.1-0.1,0.2-0.1,0.3-0.2
					c0.1-0.1,0.2-0.1,0.3-0.2c0.1-0.1,0.2-0.1,0.3-0.2c0.1-0.1,0.2-0.1,0.3-0.2c0.1-0.1,0.2-0.1,0.3-0.2c0.1-0.1,0.2-0.1,0.3-0.2
					c0.1-0.1,0.2-0.1,0.3-0.2c0.1-0.1,0.2-0.1,0.3-0.2c0.1-0.1,0.2-0.1,0.3-0.2c0.1-0.1,0.2-0.1,0.3-0.2c0,0,0,0,0.1,0
					c0,0,0-0.1,0-0.1c0-0.1,0.1-0.2,0.1-0.3c0-0.1,0.1-0.2,0.1-0.2c0.1-0.1,0.1-0.2,0.2-0.3c0,0,0.1-0.1,0.1-0.2
					c0.1-0.1,0.1-0.2,0.2-0.3l0,0c0-0.2,0-0.4,0-0.6c0-3,1.6-5.2,4-5.7c0.1,0,0.2,0,0.3-0.1l15.2-1.7c1.8-6.6,10.1-9.4,19.7-12.6
					c5.7-1.9,12.1-4.1,18-7.3c0.3-0.2,0.7-0.3,1.1-0.3c0.8,0,1.6,0.5,2,1.2c0.6,1.1,0.2,2.5-0.9,3.1c-5.9,3.2-11.2,7.4-15.9,11.1
					c-6.9,5.4-12.8,10.1-18.4,10.1c-1,0-1.9-0.1-2.8-0.4l-9.1,12.3c-0.1,0.1-0.1,0.2-0.2,0.2c-0.9,1-2.2,1.5-3.6,1.5
					c-1.1,0-2.2-0.3-3.4-1l-0.1-0.1c-0.1,0-0.3,0.1-0.3,0.1c-0.1,0-0.2,0-0.4,0.1l-0.2,0c0.5,0.2,1,0.5,1.3,1
					c0.5,0.9,0.4,2.1-0.4,2.8l-8,7.9c-0.2,0.2-0.4,0.4-0.7,0.5l0.4,0.2l1-0.6c0.5-1.3,1.4-2.4,2.6-2.9c0.4-0.3,0.9-0.5,1.4-0.7
					l10.1-2.9c0.7-1.3,1.9-2.2,3.2-2.8c0,0,0.1,0,0.1-0.1c0.7-0.3,1.4-0.4,2.2-0.4c0,0,0.1,0,0.1,0c0.3-0.7,0.7-1.2,1.3-1.6
					c0.2-0.2,0.5-0.4,0.8-0.5l8.7-2.5c0.4-1.6,1.7-2.7,3.3-2.7c0.1,0,0.1,0,0.2,0c9-11.3,45.2-26.5,77.1-39.9
					c13.4-5.6,26-10.9,33.9-14.9l3-1.6c0.3-0.2,0.7-0.3,1.1-0.3c0.9,0,1.6,0.5,2,1.2c0.6,1.1,0.2,2.5-0.9,3.1L225,43
					c-6.5,3.6-16.6,9.8-28.2,17.1c-30.3,18.9-67.9,42.4-83.4,43.4c-0.6,1-1.6,1.5-2.8,1.5c-0.3,0-0.7,0-1-0.1
					c-6.3,6.2-6.3,6.2-6.3,6.2c-0.7,0.7-1.6,1-2.6,1c-0.2,0-0.3,0-0.5,0c-0.7,1.4-1.9,2.4-3.4,3l-0.2,0.1c-0.6,0.2-1.2,0.3-1.9,0.3
					l-5.9,5.8l3.2-0.1c0-0.1,0.1-0.3,0.1-0.4c0.2-0.9,0.6-1.6,1.3-2.1c0.2-0.2,0.5-0.4,0.8-0.4l11-3.2c0.2-0.1,0.4-0.1,0.6-0.1
					c0.8,0,1.6,0.4,2,1.1c0.2,0.4,0.3,0.8,0.3,1.3c0.1,0,0.1-0.1,0.2-0.1c0.1-0.1,0.2-0.1,0.3-0.2c0.1-0.1,0.2-0.1,0.3-0.2
					c0.1-0.1,0.2-0.1,0.3-0.2c0.1-0.1,0.2-0.1,0.3-0.2c0.1-0.1,0.2-0.1,0.3-0.2c0.1-0.1,0.2-0.1,0.3-0.2c0.1-0.1,0.2-0.1,0.3-0.2
					c0.1-0.1,0.2-0.1,0.3-0.2c0.1-0.1,0.2-0.1,0.3-0.2c0.1,0,0.2-0.1,0.3-0.2c0.1-0.1,0.2-0.1,0.3-0.2c0.1-0.1,0.2-0.1,0.3-0.2
					c0.1-0.1,0.2-0.1,0.3-0.2c0.1-0.1,0.2-0.1,0.3-0.2c0.1-0.1,0.2-0.1,0.3-0.2c0.1-0.1,0.2-0.1,0.3-0.2c0.1-0.1,0.2-0.1,0.3-0.2
					c0,0,0.1-0.1,0.2-0.1c0-0.1,0.1-0.1,0.1-0.2c0,0,0.1-0.2,0.1-0.3c0,0,0.1-0.1,0.1-0.2c0-0.1,0.1-0.2,0.2-0.3
					c0-0.1,0.1-0.2,0.2-0.2c0.1-0.1,0.1-0.2,0.2-0.2c0,0,0,0,0,0c0-0.2,0-0.4,0-0.6c0-3,1.6-5.2,4-5.7c0.1,0,0.2,0,0.3-0.1l17-1.9
					c0.1,0,0.2,0,0.3,0c0.8,0,1.6,0.4,2,1.2c0.5,0.8,0.4,1.8-0.1,2.5l-10.2,13.8c-0.1,0.1-0.2,0.2-0.2,0.3c-0.9,1-2.2,1.5-3.5,1.5
					c-1.1,0-2.2-0.3-3.4-1c0,0-0.1,0-0.1-0.1c-0.1,0-0.3,0.1-0.3,0.1c-0.2,0-0.3,0-0.4,0.1c0,0-0.1,0-0.2,0c0,0-0.1,0-0.2,0
					c-0.1,0-0.4,0-0.4,0c-0.1,0-0.2,0-0.3,0c0,0-0.2,0.1-0.3,0.1c-0.1,0.1-0.2,0.1-0.3,0.2c-0.1,0.1-0.2,0.1-0.3,0.2
					c-0.1,0-0.2,0.1-0.3,0.2c-0.1,0.1-0.2,0.1-0.3,0.2c-0.1,0-0.2,0.1-0.3,0.2c-0.1,0-0.2,0.1-0.3,0.2c-0.1,0.1-0.2,0.1-0.3,0.2
					c-0.1,0.1-0.2,0.1-0.3,0.2c-0.1,0-0.2,0.1-0.3,0.2c-0.1,0.1-0.2,0.1-0.3,0.2c-0.1,0.1-0.2,0.1-0.3,0.2c-0.1,0.1-0.2,0.1-0.3,0.2
					c-0.1,0.1-0.2,0.1-0.3,0.2c-0.1,0.1-0.2,0.1-0.3,0.2c-0.1,0.1-0.2,0.1-0.3,0.2c-0.1,0.1-0.2,0.1-0.3,0.2
					c-0.1,0.1-0.2,0.1-0.3,0.2c-0.1,0.1-0.2,0.1-0.3,0.2c-0.1,0.1-0.2,0.1-0.3,0.2c-0.1,0.1-0.2,0.1-0.3,0.2
					c-0.1,0.1-0.2,0.1-0.3,0.2c-0.1,0.1-0.2,0.1-0.3,0.2c-0.1,0.1-0.2,0.1-0.3,0.2c-0.1,0.1-0.2,0.1-0.3,0.2
					c-0.1,0.1-0.2,0.1-0.3,0.2c-0.1,0.1-0.2,0.1-0.3,0.2c-0.1,0.1-0.2,0.1-0.3,0.2c-0.1,0.1-0.2,0.1-0.3,0.2
					c-0.1,0.1-0.2,0.1-0.3,0.2c-0.1,0.1-0.2,0.1-0.3,0.2c-0.1,0.1-0.2,0.1-0.3,0.2c-0.1,0.1-0.2,0.1-0.3,0.2
					c-0.1,0.1-0.2,0.1-0.3,0.2c-0.1,0.1-0.2,0.1-0.3,0.2c-0.1,0.1-0.2,0.1-0.3,0.2c-0.1,0.1-0.2,0.1-0.3,0.2c-0.1,0-0.2,0.1-0.3,0.2
					l8.9,5.1c0.1,0,0.2,0.1,0.2,0.1c0.8,0.6,1.1,1.5,0.9,2.5c-0.3,1-1.1,1.7-2.1,1.7l-16.1,0.8l-3.4,0.3c-0.1,0.3-0.3,0.6-0.5,0.9
					c-0.5,1.1-1.6,1.7-2.9,1.7c-1.3,0-2.5-0.7-3-1.8c-0.1-0.1-0.1-0.2-0.2-0.3l-2.2,0.2c-0.1,0.1-0.2,0.1-0.3,0.2
					c-0.2,0.2-0.5,0.3-0.8,0.4c-0.4,0.4-0.8,0.7-1.3,0.9c0,0-0.1,0-0.1,0c0,0,0,0,0,0c-0.9,0.3-3.1,1-9.2,2.8
					c-0.3,0.1-0.5,0.1-0.7,0.1c-0.8,0-1.6-0.4-2-1.2c-0.5-0.9-0.4-2.1,0.4-2.8c1.3-1.2,2.4-2.3,3.3-3.1c-0.3,0.1-0.6,0.1-0.9,0.1
					c-1.2,0-2.2-0.6-2.6-1.6c-0.1-0.2-0.2-0.4-0.2-0.6l-2,1.2c-0.4,0.2-0.7,0.3-1.2,0.3s-0.8-0.1-1.2-0.3l-1.7-1l-3.1-0.6
					c-3.9,3.9-3.9,3.9-3.9,3.9c-0.8,0.8-1.9,1.3-3.2,1.3c-0.7,0-1.4-0.1-2.1-0.4c-0.6,0-1.3-0.2-1.9-0.6c-0.2,0-0.3,0-0.4,0
					c-1.8,1-5.1,3-7.7,4.4v1.2c0,0.4-0.1,0.8-0.3,1.1c-0.2,0.4-0.5,0.7-0.9,0.9l-3.1,1.8C39.4,149,39,149.1,38.6,149.1z"/>
				<path class="st0" d="M224.1,38.9c0.7,0,1.4,0.4,1.8,1.1c0.5,1,0.1,2.2-0.8,2.7l-0.2,0.1c-6.5,3.6-16.6,9.8-28.2,17.1
					c-30.4,19-68.1,42.5-83.5,43.4c-0.5,0.9-1.5,1.5-2.6,1.5c-0.4,0-0.7-0.1-1.1-0.2c0,0-6.4,6.3-6.4,6.3c-0.6,0.6-1.5,1-2.4,1
					c-0.2,0-0.4,0-0.6-0.1c-0.7,1.4-1.8,2.4-3.3,3c0,0-0.2,0.1-0.2,0.1c-0.6,0.2-1.3,0.3-1.9,0.3l-6.5,6.4l4.2-0.1
					c0-0.2,0.1-0.4,0.2-0.6c0.2-0.8,0.6-1.6,1.2-2c0.2-0.2,0.5-0.3,0.7-0.4l11-3.2c0.2-0.1,0.4-0.1,0.6-0.1c0.7,0,1.4,0.4,1.7,1
					c0.3,0.5,0.4,1.2,0.1,1.7c0.1,0,0.1-0.1,0.2-0.1c0.1-0.1,0.2-0.1,0.3-0.2c0.1-0.1,0.2-0.1,0.3-0.2c0.1-0.1,0.2-0.1,0.3-0.2
					c0.1-0.1,0.2-0.1,0.3-0.2c0.1-0.1,0.2-0.1,0.3-0.2c0.1-0.1,0.2-0.1,0.3-0.2c0.1-0.1,0.2-0.1,0.3-0.2c0.1-0.1,0.2-0.1,0.3-0.2
					c0.1-0.1,0.2-0.1,0.3-0.2c0.1-0.1,0.2-0.1,0.3-0.2c0.1-0.1,0.2-0.1,0.3-0.2c0.1-0.1,0.2-0.1,0.3-0.2c0.1-0.1,0.2-0.1,0.3-0.2
					c0.1-0.1,0.2-0.1,0.3-0.2c0.1-0.1,0.2-0.1,0.3-0.2c0.1-0.1,0.2-0.1,0.3-0.2c0.1-0.1,0.2-0.1,0.3-0.2c0.1-0.1,0.2-0.1,0.3-0.2
					c0.1-0.1,0.2-0.1,0.3-0.2c0.1-0.1,0.2-0.1,0.3-0.2c0,0,0.1-0.2,0.1-0.3c0-0.1,0.1-0.2,0.1-0.3c0,0,0.1-0.1,0.1-0.2
					c0-0.1,0.1-0.2,0.1-0.3c0-0.1,0.1-0.1,0.1-0.2c0.1-0.1,0.1-0.2,0.2-0.2c0,0,0.1-0.1,0.1-0.1c0-0.2,0-0.5,0-0.7
					c0-2.8,1.5-4.9,3.8-5.4c0.1,0,0.2,0,0.3-0.1l17-1.9c0.1,0,0.1,0,0.2,0c0.7,0,1.4,0.4,1.7,1c0.4,0.7,0.3,1.5-0.1,2.2l-10.2,13.8
					c-0.1,0.1-0.1,0.2-0.2,0.2c-0.9,0.9-2,1.4-3.3,1.4c-1,0-2.1-0.3-3.2-0.9c-0.1,0-0.1-0.1-0.2-0.1c-0.1,0-0.2,0.1-0.3,0.1
					c0,0-0.1,0-0.1,0c-0.1,0-0.3,0-0.4,0.1c0,0-0.1,0-0.1,0c0,0-0.1,0-0.2,0c-0.1,0-0.3,0-0.4,0c-0.1,0-0.2,0-0.3,0c0,0-0.1,0-0.1,0
					c0,0,0,0,0,0c-0.1,0.1-0.2,0.1-0.3,0.2c-0.1,0.1-0.2,0.1-0.3,0.2c-0.1,0.1-0.2,0.1-0.3,0.2c-0.1,0.1-0.2,0.1-0.3,0.2
					c-0.1,0.1-0.2,0.1-0.3,0.2c-0.1,0.1-0.2,0.1-0.3,0.2c-0.1,0.1-0.2,0.1-0.3,0.2c-0.1,0.1-0.2,0.1-0.3,0.2
					c-0.1,0.1-0.2,0.1-0.3,0.2c-0.1,0.1-0.2,0.1-0.3,0.2c-0.1,0.1-0.2,0.1-0.3,0.2c-0.1,0.1-0.2,0.1-0.3,0.2
					c-0.1,0.1-0.2,0.1-0.3,0.2c-0.1,0.1-0.2,0.1-0.3,0.2c-0.1,0.1-0.2,0.1-0.3,0.2c-0.1,0.1-0.2,0.1-0.3,0.2
					c-0.1,0.1-0.2,0.1-0.3,0.2c-0.1,0.1-0.2,0.1-0.3,0.2c-0.1,0.1-0.2,0.1-0.3,0.2c-0.1,0.1-0.2,0.1-0.3,0.2
					c-0.1,0.1-0.2,0.1-0.3,0.2c-0.1,0.1-0.2,0.1-0.3,0.2c-0.1,0.1-0.2,0.1-0.3,0.2c-0.1,0.1-0.2,0.1-0.3,0.2
					c-0.1,0.1-0.2,0.1-0.3,0.2c-0.1,0.1-0.2,0.1-0.3,0.2c-0.1,0.1-0.2,0.1-0.3,0.2c-0.1,0.1-0.2,0.1-0.3,0.2
					c-0.1,0.1-0.2,0.1-0.3,0.2c-0.1,0.1-0.2,0.1-0.3,0.2c-0.1,0.1-0.2,0.1-0.3,0.2c-0.1,0.1-0.2,0.1-0.3,0.2
					c-0.1,0.1-0.2,0.1-0.3,0.2c-0.1,0.1-0.2,0.1-0.3,0.2c-0.1,0.1-0.2,0.1-0.3,0.2c-0.1,0.1-0.2,0.1-0.3,0.2
					c-0.1,0.1-0.2,0.1-0.3,0.2c-0.1,0.1-0.2,0.1-0.3,0.2c-0.1,0.1-0.2,0.1-0.3,0.2c0,0-0.1,0.1-0.2,0.1l9.3,5.4
					c0.1,0,0.1,0.1,0.2,0.1c0.7,0.5,1,1.3,0.8,2.1c-0.2,0.8-1,1.5-1.8,1.5l-16.1,0.8l-3.6,0.3c-0.1,0.4-0.2,0.7-0.5,1
					c-0.5,1-1.5,1.6-2.7,1.6c-1.2,0-2.2-0.6-2.7-1.6c-0.1-0.1-0.2-0.3-0.3-0.5l-2.5,0.2c-0.1,0.1-0.2,0.1-0.3,0.2
					c-0.3,0.2-0.6,0.3-0.9,0.4c-0.3,0.4-0.7,0.7-1.2,0.9l0,0c-0.8,0.3-3,0.9-9.3,2.8c-0.2,0.1-0.4,0.1-0.6,0.1c-0.7,0-1.4-0.4-1.7-1
					c-0.5-0.8-0.3-1.8,0.4-2.4c2.3-2.1,3.8-3.6,4.9-4.6l-1.3,0.7c-0.5,0.3-1,0.4-1.5,0.4c-1,0-1.9-0.6-2.4-1.5
					c-0.1-0.3-0.2-0.6-0.2-1l-2.4,1.4c-0.3,0.2-0.7,0.3-1,0.3s-0.7-0.1-1-0.3l-1.7-1l-3.4-0.7c0,0-4,4-4.1,4
					c-0.8,0.8-1.8,1.2-2.9,1.2c-0.7,0-1.3-0.1-2-0.4c-0.6-0.1-1.3-0.3-2-0.6c0,0,0,0,0,0c-0.2,0-0.4,0-0.6,0c-1.8,1-5.3,3.1-7.9,4.6
					v1.4c0,0.3-0.1,0.7-0.3,1c-0.2,0.3-0.5,0.6-0.8,0.8l-3.1,1.8c-0.3,0.2-0.7,0.3-1,0.3c-0.2,0-0.4,0-0.6-0.1
					c-0.2,0-0.3-0.1-0.5-0.2l-5.4-3.1c-0.3-0.2-0.6-0.4-0.7-0.7c-0.2-0.3-0.3-0.7-0.3-1v-3.4c0-0.6,0.2-1.1,0.7-1.5
					c0.1-0.1,0.2-0.2,0.4-0.3l3.1-1.8c0.3-0.2,0.7-0.3,1-0.3c0.3,0,0.7,0.1,1,0.3c0.1,0.1,0.2,0.1,0.3,0.2l0.4,0.2
					c0.9-0.5,2.2-1.2,3.5-2l2.2-5.6c0.3-0.7,0.9-1.2,1.6-1.2c0.1,0,0.2,0,0.3,0c0.6,0,1.2,0.3,1.6,0.8l0.6,0.8
					c0.1-0.3,0.2-0.6,0.3-0.9c0.3-2,1.5-3.4,3.1-3.8l3.8-1.1l-0.4-3.3l-0.8,0.5c-0.1,0-0.1,0.1-0.2,0.1c0,0-0.1,0-0.1,0.1l-2.1,1.2
					c-0.5,0.3-1,0.4-1.5,0.4c-1,0-1.9-0.6-2.4-1.5c-0.6-1.2-0.1-2.6,1-3.5l-0.5,0c-0.1,0-0.1,0.1-0.2,0.1c-0.3,0.2-0.7,0.3-1.1,0.4
					c-0.3,0.4-0.7,0.6-1.2,0.8l0,0c-0.8,0.3-3,0.9-9.3,2.8c-0.2,0.1-0.4,0.1-0.6,0.1c-0.7,0-1.4-0.4-1.7-1c-0.5-0.8-0.3-1.8,0.4-2.4
					c4.8-4.5,6.4-6,7.1-6.6l0,0c0.4-0.3,0.9-0.6,1.4-0.6c0.2-0.3,0.5-0.5,0.8-0.7c0,0,0.1-0.1,0.1-0.1l2.1-5l-0.5-8.3
					c0-0.7,0.3-1.4,0.9-1.8c0.3-0.2,0.7-0.3,1.1-0.3c0.3,0,0.7,0.1,1,0.3l11.9,6.9l0.1,0c0.1-1.3,0.7-2.3,1.7-2.8
					c0.1-0.1,0.2-0.1,0.3-0.2c0.1-0.1,0.2-0.1,0.3-0.2c0.1-0.1,0.2-0.1,0.3-0.2c0.1-0.1,0.2-0.1,0.3-0.2c0.1-0.1,0.2-0.1,0.3-0.2
					c0.1-0.1,0.2-0.1,0.3-0.2c0.1-0.1,0.2-0.1,0.3-0.2c0.1-0.1,0.2-0.1,0.3-0.2c0.1-0.1,0.2-0.1,0.3-0.2c0.1-0.1,0.2-0.1,0.3-0.2
					c0.1-0.1,0.2-0.1,0.3-0.2c0.1-0.1,0.2-0.1,0.3-0.2c0.1-0.1,0.2-0.1,0.3-0.2c0.1-0.1,0.2-0.1,0.3-0.2c0.1-0.1,0.2-0.1,0.3-0.2
					c0.1-0.1,0.2-0.1,0.3-0.2c0.1-0.1,0.2-0.1,0.3-0.2c0.1-0.1,0.2-0.1,0.3-0.2c0.1-0.1,0.2-0.1,0.3-0.2c0.1-0.1,0.2-0.1,0.3-0.2
					c0.1-0.1,0.2-0.1,0.3-0.2c0.1-0.1,0.2-0.1,0.3-0.2c0.1-0.1,0.2-0.1,0.3-0.2c0.1-0.1,0.2-0.1,0.3-0.2c0.1-0.1,0.2-0.1,0.3-0.2
					c0.1-0.1,0.2-0.1,0.3-0.2c0.1-0.1,0.2-0.1,0.3-0.2c0.1-0.1,0.2-0.1,0.3-0.2c0.1-0.1,0.2-0.1,0.3-0.2c0.1-0.1,0.2-0.1,0.3-0.2
					c0.1-0.1,0.2-0.1,0.3-0.2c0.1-0.1,0.2-0.1,0.3-0.2c0.1-0.1,0.2-0.1,0.3-0.2c0.1-0.1,0.2-0.1,0.3-0.2c0.1-0.1,0.2-0.1,0.3-0.2
					c0.1-0.1,0.2-0.1,0.3-0.2c0.1-0.1,0.2-0.1,0.3-0.2c0.1-0.1,0.2-0.1,0.3-0.2c0.1-0.1,0.2-0.1,0.3-0.2c0.1-0.1,0.2-0.1,0.3-0.2
					c0.1-0.1,0.2-0.1,0.3-0.2c0.1-0.1,0.2-0.1,0.3-0.2c0.1-0.1,0.2-0.1,0.3-0.2c0.1-0.1,0.2-0.1,0.3-0.2c0.1,0,0.1-0.1,0.2-0.1
					c0,0,0.1-0.2,0.1-0.2c0-0.1,0.1-0.2,0.1-0.3c0,0,0.1-0.1,0.1-0.2c0.1-0.1,0.1-0.2,0.2-0.3c0,0,0.1-0.1,0.1-0.2
					c0.1-0.1,0.1-0.2,0.2-0.2c0,0,0.1-0.1,0.1-0.1c0-0.2,0-0.5,0-0.7c0-2.8,1.5-4.9,3.8-5.4c0.1,0,0.2,0,0.3-0.1l15.4-1.7
					c1.6-6.6,10-9.4,19.6-12.6c5.7-1.9,12.2-4.1,18.1-7.3c0.3-0.2,0.6-0.2,0.9-0.2c0.7,0,1.4,0.4,1.8,1c0.5,1,0.2,2.2-0.8,2.7
					c-5.9,3.2-11.3,7.4-16,11.1c-6.8,5.4-12.7,10-18.2,10c-1,0-2-0.2-2.9-0.5l-9.2,12.5c-0.1,0.1-0.1,0.1-0.2,0.2
					c-0.9,0.9-2,1.4-3.3,1.4c-1,0-2.1-0.3-3.2-0.9c-0.1,0-0.1-0.1-0.2-0.1c-0.1,0-0.2,0.1-0.3,0.1c0,0-0.1,0-0.1,0
					c-0.1,0-0.2,0-0.3,0c0,0-0.1,0-0.2,0c0,0-0.1,0-0.1,0c0,0-0.3,0-0.4,0c-0.1,0-0.2,0-0.3,0c0,0-0.1,0-0.1,0
					c-0.1,0-0.1,0.1-0.2,0.1c-0.1,0.1-0.2,0.1-0.3,0.2c-0.1,0.1-0.2,0.1-0.3,0.2c-0.1,0.1-0.2,0.1-0.3,0.2c-0.1,0.1-0.2,0.1-0.3,0.2
					c-0.1,0.1-0.2,0.1-0.3,0.2c-0.1,0.1-0.2,0.1-0.3,0.2c0,0,0,0,0,0l1.7-0.5c0.2-0.1,0.4-0.1,0.6-0.1c0.7,0,1.4,0.4,1.7,1
					c0.5,0.8,0.3,1.8-0.3,2.4l-8,7.9c-0.3,0.3-0.7,0.6-1.2,0.7l1.1,0.6l1.3-0.7c0.4-1.3,1.3-2.3,2.4-2.8c0.4-0.3,0.9-0.5,1.4-0.7
					l10.2-3c0.7-1.2,1.8-2.2,3.1-2.7c0,0,0.1,0,0.1,0c0.7-0.2,1.4-0.4,2.1-0.4c0.1,0,0.2,0,0.3,0c0.3-0.7,0.7-1.3,1.3-1.7
					c0.2-0.2,0.5-0.3,0.7-0.4l8.9-2.6c0,0,0,0,0,0c0.3-1.6,1.5-2.6,3-2.6c0.1,0,0.2,0,0.4,0c8.8-11.2,45-26.4,77.1-39.9
					c13.4-5.6,26-10.9,34-14.9l3-1.6C223.5,38.9,223.8,38.9,224.1,38.9 M224.1,38.2c-0.4,0-0.8,0.1-1.2,0.3l-3,1.6
					c-7.9,4-20.5,9.3-33.9,14.9c-31.9,13.4-67.9,28.6-77.2,39.9c0,0,0,0-0.1,0c-1.7,0-3.1,1.1-3.6,2.8l-8.6,2.5
					c-0.4,0.1-0.7,0.3-1,0.5c-0.5,0.4-1,0.9-1.3,1.6c-0.7,0-1.5,0.1-2.2,0.4c0,0-0.2,0.1-0.2,0.1c-1.4,0.5-2.5,1.5-3.3,2.8l-10,2.9
					c-0.2,0.1-0.5,0.1-0.7,0.2l4.3-4.2c0.9-0.8,1-2.1,0.4-3.2c-0.1-0.2-0.3-0.4-0.4-0.5c1.1,0.6,2.2,0.9,3.2,0.9
					c1.5,0,2.8-0.6,3.8-1.6c0.1-0.1,0.2-0.2,0.2-0.3l9-12.1c0.9,0.2,1.8,0.4,2.7,0.4c5.7,0,11.7-4.7,18.6-10.1
					c4.7-3.7,10-7.9,15.9-11.1c0.6-0.3,1.1-0.9,1.3-1.6c0.2-0.7,0.1-1.4-0.2-2c-0.5-0.8-1.3-1.4-2.3-1.4c-0.4,0-0.9,0.1-1.2,0.3
					c-5.9,3.2-12.3,5.3-18,7.3c-9.6,3.2-18,6.1-19.9,12.6l-15,1.7c-0.1,0-0.2,0-0.4,0.1c-2.6,0.5-4.2,2.9-4.2,6c0,0.2,0,0.3,0,0.5
					c-0.1,0.1-0.1,0.1-0.2,0.2c0,0-0.1,0.1-0.1,0.2c-0.1,0.1-0.1,0.2-0.2,0.3c0,0-0.1,0.1-0.1,0.2c-0.1,0.1-0.1,0.2-0.1,0.3
					c0,0,0,0,0,0c-0.1,0.1-0.2,0.1-0.3,0.2c-0.1,0.1-0.2,0.1-0.3,0.2c-0.1,0.1-0.2,0.1-0.3,0.2C74.1,92,74,92,73.9,92.1
					c-0.1,0.1-0.2,0.1-0.3,0.2c-0.1,0.1-0.2,0.1-0.3,0.2c-0.1,0.1-0.2,0.1-0.3,0.2c-0.1,0.1-0.2,0.1-0.3,0.2
					c-0.1,0.1-0.2,0.1-0.3,0.2c-0.1,0.1-0.2,0.1-0.3,0.2c-0.1,0.1-0.2,0.1-0.3,0.2c-0.1,0.1-0.2,0.1-0.3,0.2
					c-0.1,0.1-0.2,0.1-0.3,0.2c-0.1,0.1-0.2,0.1-0.3,0.2c-0.1,0.1-0.2,0.1-0.3,0.2c-0.1,0.1-0.2,0.1-0.3,0.2
					c-0.1,0.1-0.2,0.1-0.3,0.2c-0.1,0.1-0.2,0.1-0.3,0.2c-0.1,0.1-0.2,0.1-0.3,0.2c-0.1,0.1-0.2,0.1-0.3,0.2
					c-0.1,0.1-0.2,0.1-0.3,0.2c-0.1,0.1-0.2,0.1-0.3,0.2c-0.1,0.1-0.2,0.1-0.3,0.2c-0.1,0.1-0.2,0.1-0.3,0.2
					c-0.1,0.1-0.2,0.1-0.3,0.2c-0.1,0.1-0.2,0.1-0.3,0.2C67.2,96,67.1,96,67,96.1c-0.1,0.1-0.2,0.1-0.3,0.2
					c-0.1,0.1-0.2,0.1-0.3,0.2c-0.1,0.1-0.2,0.1-0.3,0.2c-0.1,0.1-0.2,0.1-0.3,0.2c-0.1,0.1-0.2,0.1-0.3,0.2
					c-0.1,0.1-0.2,0.1-0.3,0.2c-0.1,0.1-0.2,0.1-0.3,0.2c-0.1,0.1-0.2,0.1-0.3,0.2c-0.1,0.1-0.2,0.1-0.3,0.2
					c-0.1,0.1-0.2,0.1-0.3,0.2c-0.1,0.1-0.2,0.1-0.3,0.2c-0.1,0.1-0.2,0.1-0.3,0.2c-0.1,0.1-0.2,0.1-0.3,0.2
					c-0.1,0.1-0.2,0.1-0.3,0.2c-0.1,0.1-0.2,0.1-0.3,0.2c-0.1,0.1-0.2,0.1-0.3,0.2c-0.1,0.1-0.2,0.1-0.3,0.2
					c-0.9,0.5-1.6,1.3-1.9,2.4L48.8,95c-0.4-0.2-0.8-0.3-1.3-0.3c-0.5,0-1,0.1-1.4,0.4c-0.8,0.5-1.3,1.4-1.2,2.4l0.5,8.2l-2,4.6
					c-0.3,0.2-0.6,0.4-0.8,0.6c-0.5,0.1-1,0.4-1.5,0.7c0,0-0.1,0.1-0.1,0.1c-0.8,0.7-2.6,2.4-7,6.5c-0.9,0.8-1.1,2.1-0.5,3.2
					c0.5,0.8,1.3,1.3,2.3,1.3c0.2,0,0.5,0,0.7-0.1c6-1.8,8.3-2.4,9.2-2.8c0,0,0.1,0,0.1,0c0.3-0.1,0.7-0.3,0.9-0.5
					c-0.3,0.8-0.2,1.6,0.1,2.4c0.5,1.1,1.6,1.8,2.9,1.8c0.6,0,1.3-0.2,1.8-0.5l2.1-1.2c0,0,0.1,0,0.1-0.1c0.1,0,0.1-0.1,0.2-0.1
					l0.2,1.9l-3.3,1c-1.8,0.5-3.1,2-3.5,4c-0.5-0.6-1.2-0.9-2-0.9c-0.1,0-0.2,0-0.4,0c-0.9,0.1-1.7,0.8-2.1,1.6l-2.1,5.4
					c-1.1,0.6-2.1,1.2-3,1.7l-0.1,0c-0.1-0.1-0.2-0.2-0.3-0.2c-0.4-0.2-0.9-0.4-1.3-0.4s-0.9,0.1-1.3,0.4l-3.1,1.8
					c-0.2,0.1-0.3,0.2-0.5,0.4c-0.5,0.5-0.9,1.2-0.9,1.9v3.4c0,0.4,0.1,0.9,0.4,1.3c0.2,0.4,0.6,0.7,1,1l5.4,3.1
					c0.2,0.1,0.4,0.2,0.6,0.3c0.2,0.1,0.5,0.1,0.7,0.1c0.5,0,0.9-0.1,1.3-0.4l3.1-1.8c0.4-0.2,0.8-0.6,1-1c0.2-0.4,0.3-0.8,0.3-1.3
					v-1.1c2.5-1.4,5.7-3.3,7.4-4.3c0.1,0,0.2,0,0.3,0c0.7,0.3,1.3,0.5,2,0.6c0.7,0.3,1.4,0.4,2.2,0.4c1.3,0,2.5-0.5,3.4-1.4
					c0,0,0,0,0,0c0,0,0.1-0.1,3.8-3.8l3,0.6l1.6,0.9c0.4,0.2,0.8,0.3,1.3,0.3s0.9-0.1,1.3-0.3l1.7-1c0,0.1,0.1,0.2,0.1,0.3
					c0.5,1.1,1.6,1.8,2.9,1.8c0,0,0,0,0,0c-0.7,0.7-1.6,1.5-2.6,2.4c-0.9,0.8-1.1,2.1-0.5,3.2c0.5,0.8,1.3,1.3,2.3,1.3
					c0.2,0,0.5,0,0.7-0.1c6-1.8,8.3-2.4,9.2-2.8c0,0,0.1,0,0.1,0c0.5-0.2,1-0.5,1.4-0.9c0.3-0.1,0.6-0.2,0.8-0.4
					c0.1,0,0.2-0.1,0.2-0.1l2-0.2c0,0,0.1,0.1,0.1,0.1c0.6,1.2,1.8,1.9,3.2,1.9c1.4,0,2.6-0.7,3.2-1.9c0.2-0.2,0.3-0.5,0.4-0.8
					l3.2-0.3l16.1-0.8c1.1-0.1,2.1-0.8,2.4-2c0.3-1-0.1-2.2-1-2.8c-0.1-0.1-0.2-0.1-0.3-0.2l-8.4-4.8c0,0,0.1-0.1,0.1-0.1
					c0.1-0.1,0.2-0.1,0.3-0.2c0.1-0.1,0.2-0.1,0.3-0.2c0.1-0.1,0.2-0.1,0.3-0.2c0.1-0.1,0.2-0.1,0.3-0.2c0.1-0.1,0.2-0.1,0.3-0.2
					c0.1-0.1,0.2-0.1,0.3-0.2c0.1-0.1,0.2-0.1,0.3-0.2c0.1-0.1,0.2-0.1,0.3-0.2c0.1-0.1,0.2-0.1,0.3-0.2c0.1-0.1,0.2-0.1,0.3-0.2
					c0.1-0.1,0.2-0.1,0.3-0.2c0.1-0.1,0.2-0.1,0.3-0.2c0.1-0.1,0.2-0.1,0.3-0.2c0.1-0.1,0.2-0.1,0.3-0.2c0.1-0.1,0.2-0.1,0.3-0.2
					c0.1-0.1,0.2-0.1,0.3-0.2c0.1-0.1,0.2-0.1,0.3-0.2c0.1-0.1,0.2-0.1,0.3-0.2c0.1-0.1,0.2-0.1,0.3-0.2c0.1-0.1,0.2-0.1,0.3-0.2
					c0.1-0.1,0.2-0.1,0.3-0.2c0.1-0.1,0.2-0.1,0.3-0.2c0.1-0.1,0.2-0.1,0.3-0.2c0.1-0.1,0.2-0.1,0.3-0.2c0.1-0.1,0.2-0.1,0.3-0.2
					c0.1-0.1,0.2-0.1,0.3-0.2c0.1-0.1,0.2-0.1,0.3-0.2c0.1-0.1,0.2-0.1,0.3-0.2c0.1-0.1,0.2-0.1,0.3-0.2c0.1-0.1,0.2-0.1,0.3-0.2
					c0.1-0.1,0.2-0.1,0.3-0.2c0.1-0.1,0.2-0.1,0.3-0.2c0.1-0.1,0.2-0.1,0.3-0.2c0.1-0.1,0.2-0.1,0.3-0.2c0.1-0.1,0.2-0.1,0.3-0.2
					c0,0,0.1,0,0.1-0.1c0.1,0,0.2,0,0.3,0c0,0,0.4,0,0.4,0c0,0,0.2,0,0.2,0c0,0,0.1,0,0.2,0c0.1,0,0.3,0,0.4-0.1c0.1,0,0.1,0,0.2,0
					c0,0,0,0,0,0c1.2,0.7,2.4,1,3.5,1c1.5,0,2.8-0.6,3.8-1.6c0.1-0.1,0.2-0.2,0.3-0.3l10.2-13.8c0.6-0.8,0.7-2,0.2-2.9
					c-0.5-0.8-1.3-1.3-2.3-1.3c-0.1,0-0.2,0-0.3,0l-17,1.9c-0.1,0-0.2,0-0.4,0.1c-2.6,0.5-4.2,2.9-4.2,6c0,0.2,0,0.3,0,0.5
					c-0.1,0.1-0.1,0.2-0.2,0.2c0,0-0.1,0.2-0.2,0.2c-0.1,0.1-0.1,0.2-0.2,0.3c0,0-0.1,0.1-0.1,0.2c-0.1,0.1-0.1,0.2-0.1,0.3
					c0,0,0,0,0,0.1c0,0-0.1,0-0.1,0.1c-0.1,0.1-0.2,0.1-0.3,0.2c-0.1,0.1-0.2,0.1-0.3,0.2c-0.1,0.1-0.2,0.1-0.3,0.2
					c-0.1,0.1-0.2,0.1-0.3,0.2c-0.1,0.1-0.2,0.1-0.3,0.2c-0.1,0.1-0.2,0.1-0.3,0.2c-0.1,0.1-0.2,0.1-0.3,0.2
					c-0.1,0.1-0.2,0.1-0.3,0.2c-0.1,0.1-0.2,0.1-0.3,0.2c-0.1,0.1-0.2,0.1-0.3,0.2c-0.1,0.1-0.2,0.1-0.3,0.2
					c-0.1,0.1-0.2,0.1-0.3,0.2c-0.1,0.1-0.2,0.1-0.3,0.2c-0.1,0.1-0.2,0.1-0.3,0.2c-0.1,0.1-0.2,0.1-0.3,0.2
					c-0.1,0.1-0.2,0.1-0.3,0.2c0,0,0,0-0.1,0c0-0.3-0.2-0.6-0.3-0.9c-0.5-0.8-1.3-1.3-2.3-1.3c-0.2,0-0.5,0-0.7,0.1l-11,3.2
					c-0.4,0.1-0.7,0.3-1,0.5c-0.7,0.5-1.2,1.3-1.4,2.3c0,0,0,0.1-0.1,0.1l-2.2,0.1l5.2-5.1c0.6,0,1.2-0.1,1.8-0.4c0,0,0.1,0,0.1-0.1
					l0.1,0c1.5-0.6,2.7-1.6,3.4-2.9c0.1,0,0.2,0,0.3,0c1.1,0,2.1-0.4,2.8-1.1c0,0,0,0,0,0c0,0,0.2-0.2,6.2-6.1
					c0.3,0.1,0.6,0.1,0.9,0.1c1.2,0,2.3-0.5,3-1.5c15.7-1.1,53.2-24.6,83.4-43.5c11.6-7.3,21.7-13.5,28.2-17.1l0.2-0.1
					c1.3-0.7,1.7-2.3,1.1-3.5C225.9,38.8,225.1,38.2,224.1,38.2L224.1,38.2z M74.6,112L74.6,112C74.6,112,74.6,112,74.6,112
					L74.6,112L74.6,112z"/>
			</g>
		</g>
		<g>
			<g>
				<path class="st0" d="M139.8,110.1c-1.7,0-3.3-0.4-4.8-1.3c-0.8-0.5-1.3-1.4-1.2-2.3c0.5-8.1,9.6-11.1,20.2-14.7
					c5.7-1.9,12.1-4.1,18-7.3c0.4-0.2,0.8-0.3,1.2-0.3c0.9,0,1.7,0.5,2.2,1.3c0.3,0.6,0.4,1.2,0.2,1.9c-0.2,0.6-0.6,1.1-1.2,1.5
					c-5.9,3.2-11.2,7.4-15.9,11.1C151.4,105.4,145.5,110.1,139.8,110.1z"/>
				<path class="st0" d="M173,84.7c0.7,0,1.4,0.4,1.8,1c0.5,1,0.2,2.2-0.8,2.7c-5.9,3.2-11.3,7.4-16,11.1c-6.8,5.4-12.7,10-18.2,10
					c0,0,0,0,0,0c-1.6,0-3.2-0.4-4.6-1.2c-0.7-0.4-1.1-1.1-1-1.9c0.5-7.8,9.5-10.8,19.8-14.3c5.7-1.9,12.2-4.1,18.1-7.3
					C172.4,84.8,172.7,84.7,173,84.7 M173,83.8c-0.5,0-1,0.1-1.4,0.4c-5.8,3.2-12.3,5.3-17.9,7.2c-10.7,3.6-19.9,6.7-20.5,15.1
					c-0.1,1.1,0.5,2.2,1.5,2.7c1.6,0.9,3.3,1.3,5,1.3c5.8,0,11.8-4.7,18.8-10.2c4.7-3.7,10-7.9,15.9-11.1c1.4-0.8,1.9-2.5,1.2-4
					C175.1,84.4,174.1,83.8,173,83.8L173,83.8z"/>
			</g>
			<g>
				<path class="st0" d="M38.6,149.1c-0.2,0-0.4,0-0.7-0.1c-0.2,0-0.4-0.1-0.5-0.2l-5.4-3.1c-0.4-0.2-0.6-0.5-0.8-0.8
					c-0.2-0.4-0.3-0.8-0.3-1.2v-3.4c0-0.7,0.3-1.3,0.8-1.7c0.1-0.1,0.3-0.2,0.4-0.3l3.1-1.8c0.3-0.2,0.7-0.3,1.2-0.3
					s0.8,0.1,1.2,0.3c0.1,0.1,0.2,0.1,0.3,0.2l0.2,0.1l3.2-1.9l2.1-5.5c0.3-0.8,1-1.3,1.8-1.4c0.1,0,0.2,0,0.3,0
					c0.7,0,1.4,0.3,1.8,0.9l0.3,0.4c0-0.1,0.1-0.2,0.2-0.4c0.3-2,1.5-3.5,3.3-4l3.5-1l-0.3-2.6l-0.4,0.2c-0.1,0-0.1,0.1-0.2,0.1
					l-0.1,0.1l-2.1,1.2c-0.5,0.3-1.1,0.5-1.7,0.5c-1.2,0-2.2-0.6-2.6-1.6c-0.5-1-0.3-2.1,0.3-3c-0.2,0.1-0.3,0.1-0.5,0.1
					c-0.3,0.4-0.8,0.6-1.2,0.8c0,0-0.1,0-0.1,0c0,0,0,0,0,0c-0.9,0.3-3.1,1-9.3,2.8c-0.2,0.1-0.4,0.1-0.6,0.1c-0.8,0-1.6-0.4-2-1.2
					c-0.5-0.9-0.4-2.1,0.4-2.8c4.5-4.2,6.3-5.9,7-6.6c0,0,0-0.1,0.1-0.1c0.4-0.3,0.9-0.6,1.4-0.7c0.2-0.3,0.5-0.5,0.9-0.6l0,0
					l2.1-4.8l-0.5-8.3c-0.1-0.8,0.4-1.7,1.1-2.1c0.4-0.2,0.8-0.3,1.2-0.3c0.4,0,0.8,0.1,1.2,0.3l11.6,6.7c0.2-1.2,0.8-2.2,1.8-2.6
					c0.1,0,0.2-0.1,0.3-0.2c0.1-0.1,0.2-0.1,0.3-0.2c0.1-0.1,0.2-0.1,0.3-0.2c0.1,0,0.2-0.1,0.3-0.2c0.1-0.1,0.2-0.1,0.3-0.2
					c0.1,0,0.2-0.1,0.3-0.2c0.1-0.1,0.2-0.1,0.3-0.2c0.1-0.1,0.2-0.1,0.3-0.2c0.1-0.1,0.2-0.1,0.3-0.2c0.1-0.1,0.2-0.1,0.3-0.2
					c0.1-0.1,0.2-0.1,0.3-0.2c0.1-0.1,0.2-0.1,0.3-0.2c0.1,0,0.2-0.1,0.3-0.2c0.1-0.1,0.2-0.1,0.3-0.2c0.1-0.1,0.2-0.1,0.3-0.2
					c0.1-0.1,0.2-0.1,0.3-0.2c0.1-0.1,0.2-0.1,0.3-0.2c0.1-0.1,0.2-0.1,0.3-0.2c0.1,0,0.2-0.1,0.3-0.2c0.1-0.1,0.2-0.1,0.3-0.2
					c0.1-0.1,0.2-0.1,0.3-0.2c0.1,0,0.2-0.1,0.3-0.2c0.1-0.1,0.2-0.1,0.3-0.2c0.1,0,0.2-0.1,0.3-0.2c0.1-0.1,0.2-0.1,0.3-0.2
					c0.1-0.1,0.2-0.1,0.3-0.2c0.1-0.1,0.2-0.1,0.3-0.2c0.1-0.1,0.2-0.1,0.3-0.2c0.1-0.1,0.2-0.1,0.3-0.2c0.1-0.1,0.2-0.1,0.3-0.2
					c0.1-0.1,0.2-0.1,0.3-0.2c0.1-0.1,0.2-0.1,0.3-0.2c0.1-0.1,0.2-0.1,0.3-0.2c0.1-0.1,0.2-0.1,0.3-0.2c0.1-0.1,0.2-0.1,0.3-0.2
					c0.1-0.1,0.2-0.1,0.3-0.2c0.1-0.1,0.2-0.1,0.3-0.2c0.1-0.1,0.2-0.1,0.3-0.2c0.1-0.1,0.2-0.1,0.3-0.2c0.1-0.1,0.2-0.1,0.3-0.2
					c0.1-0.1,0.2-0.1,0.3-0.2c0.1-0.1,0.2-0.1,0.3-0.2c0.1-0.1,0.2-0.1,0.3-0.2c0.1-0.1,0.2-0.1,0.3-0.2c0,0,0,0,0.1,0
					c0,0,0-0.1,0-0.1c0-0.1,0.1-0.2,0.1-0.3c0-0.1,0.1-0.2,0.1-0.2c0.1-0.1,0.1-0.2,0.2-0.3c0,0,0.1-0.1,0.1-0.2
					c0.1-0.1,0.1-0.2,0.2-0.3l0,0c0-0.2,0-0.4,0-0.6c0-3,1.6-5.2,4-5.7c0.1,0,0.2,0,0.3-0.1l15.2-1.7c1.8-6.6,10.1-9.4,19.7-12.6
					c5.7-1.9,12.1-4.1,18-7.3c0.3-0.2,0.7-0.3,1.1-0.3c0.8,0,1.6,0.5,2,1.2c0.6,1.1,0.2,2.5-0.9,3.1c-5.9,3.2-11.2,7.4-15.9,11.1
					c-6.9,5.4-12.8,10.1-18.4,10.1c-1,0-1.9-0.1-2.8-0.4l-9.1,12.3c-0.1,0.1-0.1,0.2-0.2,0.2c-0.9,1-2.2,1.5-3.6,1.5
					c-1.1,0-2.2-0.3-3.4-1l-0.1-0.1c-0.1,0-0.3,0.1-0.3,0.1c-0.1,0-0.2,0-0.4,0.1l-0.2,0c0.5,0.2,1,0.5,1.3,1
					c0.5,0.9,0.4,2.1-0.4,2.8l-8,7.9c-0.2,0.2-0.4,0.4-0.7,0.5l0.4,0.2l1-0.6c0.5-1.3,1.4-2.4,2.6-2.9c0.4-0.3,0.9-0.5,1.4-0.7
					l10.1-2.9c0.7-1.3,1.9-2.2,3.2-2.8c0,0,0.1,0,0.1-0.1c0.7-0.3,1.4-0.4,2.2-0.4c0,0,0.1,0,0.1,0c0.3-0.7,0.7-1.2,1.3-1.6
					c0.2-0.2,0.5-0.4,0.8-0.5l8.7-2.5c0.4-1.6,1.7-2.7,3.3-2.7c0.1,0,0.1,0,0.2,0c9-11.3,45.2-26.5,77.1-39.9
					c13.4-5.6,26-10.9,33.9-14.9l3-1.6c0.3-0.2,0.7-0.3,1.1-0.3c0.9,0,1.6,0.5,2,1.2c0.6,1.1,0.2,2.5-0.9,3.1L225,43
					c-6.5,3.6-16.6,9.8-28.2,17.1c-30.3,18.9-67.9,42.4-83.4,43.4c-0.6,1-1.6,1.5-2.8,1.5c-0.3,0-0.7,0-1-0.1
					c-6.3,6.2-6.3,6.2-6.3,6.2c-0.7,0.7-1.6,1-2.6,1c-0.2,0-0.3,0-0.5,0c-0.7,1.4-1.9,2.4-3.4,3l-0.2,0.1c-0.6,0.2-1.2,0.3-1.9,0.3
					l-5.9,5.8l3.2-0.1c0-0.1,0.1-0.3,0.1-0.4c0.2-0.9,0.6-1.6,1.3-2.1c0.2-0.2,0.5-0.4,0.8-0.4l11-3.2c0.2-0.1,0.4-0.1,0.6-0.1
					c0.8,0,1.6,0.4,2,1.1c0.2,0.4,0.3,0.8,0.3,1.3c0.1,0,0.1-0.1,0.2-0.1c0.1-0.1,0.2-0.1,0.3-0.2c0.1-0.1,0.2-0.1,0.3-0.2
					c0.1-0.1,0.2-0.1,0.3-0.2c0.1-0.1,0.2-0.1,0.3-0.2c0.1-0.1,0.2-0.1,0.3-0.2c0.1-0.1,0.2-0.1,0.3-0.2c0.1-0.1,0.2-0.1,0.3-0.2
					c0.1-0.1,0.2-0.1,0.3-0.2c0.1-0.1,0.2-0.1,0.3-0.2c0.1,0,0.2-0.1,0.3-0.2c0.1-0.1,0.2-0.1,0.3-0.2c0.1-0.1,0.2-0.1,0.3-0.2
					c0.1-0.1,0.2-0.1,0.3-0.2c0.1-0.1,0.2-0.1,0.3-0.2c0.1-0.1,0.2-0.1,0.3-0.2c0.1-0.1,0.2-0.1,0.3-0.2c0.1-0.1,0.2-0.1,0.3-0.2
					c0,0,0.1-0.1,0.2-0.1c0-0.1,0.1-0.1,0.1-0.2c0,0,0.1-0.2,0.1-0.3c0,0,0.1-0.1,0.1-0.2c0-0.1,0.1-0.2,0.2-0.3
					c0-0.1,0.1-0.2,0.2-0.2c0.1-0.1,0.1-0.2,0.2-0.2c0,0,0,0,0,0c0-0.2,0-0.4,0-0.6c0-3,1.6-5.2,4-5.7c0.1,0,0.2,0,0.3-0.1l17-1.9
					c0.1,0,0.2,0,0.3,0c0.8,0,1.6,0.4,2,1.2c0.5,0.8,0.4,1.8-0.1,2.5l-10.2,13.8c-0.1,0.1-0.2,0.2-0.2,0.3c-0.9,1-2.2,1.5-3.5,1.5
					c-1.1,0-2.2-0.3-3.4-1c0,0-0.1,0-0.1-0.1c-0.1,0-0.3,0.1-0.3,0.1c-0.2,0-0.3,0-0.4,0.1c0,0-0.1,0-0.2,0c0,0-0.1,0-0.2,0
					c-0.1,0-0.4,0-0.4,0c-0.1,0-0.2,0-0.3,0c0,0-0.2,0.1-0.3,0.1c-0.1,0.1-0.2,0.1-0.3,0.2c-0.1,0.1-0.2,0.1-0.3,0.2
					c-0.1,0-0.2,0.1-0.3,0.2c-0.1,0.1-0.2,0.1-0.3,0.2c-0.1,0-0.2,0.1-0.3,0.2c-0.1,0-0.2,0.1-0.3,0.2c-0.1,0.1-0.2,0.1-0.3,0.2
					c-0.1,0.1-0.2,0.1-0.3,0.2c-0.1,0-0.2,0.1-0.3,0.2c-0.1,0.1-0.2,0.1-0.3,0.2c-0.1,0.1-0.2,0.1-0.3,0.2c-0.1,0.1-0.2,0.1-0.3,0.2
					c-0.1,0.1-0.2,0.1-0.3,0.2c-0.1,0.1-0.2,0.1-0.3,0.2c-0.1,0.1-0.2,0.1-0.3,0.2c-0.1,0.1-0.2,0.1-0.3,0.2
					c-0.1,0.1-0.2,0.1-0.3,0.2c-0.1,0.1-0.2,0.1-0.3,0.2c-0.1,0.1-0.2,0.1-0.3,0.2c-0.1,0.1-0.2,0.1-0.3,0.2
					c-0.1,0.1-0.2,0.1-0.3,0.2c-0.1,0.1-0.2,0.1-0.3,0.2c-0.1,0.1-0.2,0.1-0.3,0.2c-0.1,0.1-0.2,0.1-0.3,0.2
					c-0.1,0.1-0.2,0.1-0.3,0.2c-0.1,0.1-0.2,0.1-0.3,0.2c-0.1,0.1-0.2,0.1-0.3,0.2c-0.1,0.1-0.2,0.1-0.3,0.2
					c-0.1,0.1-0.2,0.1-0.3,0.2c-0.1,0.1-0.2,0.1-0.3,0.2c-0.1,0.1-0.2,0.1-0.3,0.2c-0.1,0.1-0.2,0.1-0.3,0.2
					c-0.1,0.1-0.2,0.1-0.3,0.2c-0.1,0.1-0.2,0.1-0.3,0.2c-0.1,0.1-0.2,0.1-0.3,0.2c-0.1,0.1-0.2,0.1-0.3,0.2c-0.1,0-0.2,0.1-0.3,0.2
					l8.9,5.1c0.1,0,0.2,0.1,0.2,0.1c0.8,0.6,1.1,1.5,0.9,2.5c-0.3,1-1.1,1.7-2.1,1.7l-16.1,0.8l-3.4,0.3c-0.1,0.3-0.3,0.6-0.5,0.9
					c-0.5,1.1-1.6,1.7-2.9,1.7c-1.3,0-2.5-0.7-3-1.8c-0.1-0.1-0.1-0.2-0.2-0.3l-2.2,0.2c-0.1,0.1-0.2,0.1-0.3,0.2
					c-0.2,0.2-0.5,0.3-0.8,0.4c-0.4,0.4-0.8,0.7-1.3,0.9c0,0-0.1,0-0.1,0c0,0,0,0,0,0c-0.9,0.3-3.1,1-9.2,2.8
					c-0.3,0.1-0.5,0.1-0.7,0.1c-0.8,0-1.6-0.4-2-1.2c-0.5-0.9-0.4-2.1,0.4-2.8c1.3-1.2,2.4-2.3,3.3-3.1c-0.3,0.1-0.6,0.1-0.9,0.1
					c-1.2,0-2.2-0.6-2.6-1.6c-0.1-0.2-0.2-0.4-0.2-0.6l-2,1.2c-0.4,0.2-0.7,0.3-1.2,0.3s-0.8-0.1-1.2-0.3l-1.7-1l-3.1-0.6
					c-3.9,3.9-3.9,3.9-3.9,3.9c-0.8,0.8-1.9,1.3-3.2,1.3c-0.7,0-1.4-0.1-2.1-0.4c-0.6,0-1.3-0.2-1.9-0.6c-0.2,0-0.3,0-0.4,0
					c-1.8,1-5.1,3-7.7,4.4v1.2c0,0.4-0.1,0.8-0.3,1.1c-0.2,0.4-0.5,0.7-0.9,0.9l-3.1,1.8C39.4,149,39,149.1,38.6,149.1z"/>
				<path class="st0" d="M224.1,38.9c0.7,0,1.4,0.4,1.8,1.1c0.5,1,0.1,2.2-0.8,2.7l-0.2,0.1c-6.5,3.6-16.6,9.8-28.2,17.1
					c-30.4,19-68.1,42.5-83.5,43.4c-0.5,0.9-1.5,1.5-2.6,1.5c-0.4,0-0.7-0.1-1.1-0.2c0,0-6.4,6.3-6.4,6.3c-0.6,0.6-1.5,1-2.4,1
					c-0.2,0-0.4,0-0.6-0.1c-0.7,1.4-1.8,2.4-3.3,3c0,0-0.2,0.1-0.2,0.1c-0.6,0.2-1.3,0.3-1.9,0.3l-6.5,6.4l4.2-0.1
					c0-0.2,0.1-0.4,0.2-0.6c0.2-0.8,0.6-1.6,1.2-2c0.2-0.2,0.5-0.3,0.7-0.4l11-3.2c0.2-0.1,0.4-0.1,0.6-0.1c0.7,0,1.4,0.4,1.7,1
					c0.3,0.5,0.4,1.2,0.1,1.7c0.1,0,0.1-0.1,0.2-0.1c0.1-0.1,0.2-0.1,0.3-0.2c0.1-0.1,0.2-0.1,0.3-0.2c0.1-0.1,0.2-0.1,0.3-0.2
					c0.1-0.1,0.2-0.1,0.3-0.2c0.1-0.1,0.2-0.1,0.3-0.2c0.1-0.1,0.2-0.1,0.3-0.2c0.1-0.1,0.2-0.1,0.3-0.2c0.1-0.1,0.2-0.1,0.3-0.2
					c0.1-0.1,0.2-0.1,0.3-0.2c0.1-0.1,0.2-0.1,0.3-0.2c0.1-0.1,0.2-0.1,0.3-0.2c0.1-0.1,0.2-0.1,0.3-0.2c0.1-0.1,0.2-0.1,0.3-0.2
					c0.1-0.1,0.2-0.1,0.3-0.2c0.1-0.1,0.2-0.1,0.3-0.2c0.1-0.1,0.2-0.1,0.3-0.2c0.1-0.1,0.2-0.1,0.3-0.2c0.1-0.1,0.2-0.1,0.3-0.2
					c0.1-0.1,0.2-0.1,0.3-0.2c0.1-0.1,0.2-0.1,0.3-0.2c0,0,0.1-0.2,0.1-0.3c0-0.1,0.1-0.2,0.1-0.3c0,0,0.1-0.1,0.1-0.2
					c0-0.1,0.1-0.2,0.1-0.3c0-0.1,0.1-0.1,0.1-0.2c0.1-0.1,0.1-0.2,0.2-0.2c0,0,0.1-0.1,0.1-0.1c0-0.2,0-0.5,0-0.7
					c0-2.8,1.5-4.9,3.8-5.4c0.1,0,0.2,0,0.3-0.1l17-1.9c0.1,0,0.1,0,0.2,0c0.7,0,1.4,0.4,1.7,1c0.4,0.7,0.3,1.5-0.1,2.2l-10.2,13.8
					c-0.1,0.1-0.1,0.2-0.2,0.2c-0.9,0.9-2,1.4-3.3,1.4c-1,0-2.1-0.3-3.2-0.9c-0.1,0-0.1-0.1-0.2-0.1c-0.1,0-0.2,0.1-0.3,0.1
					c0,0-0.1,0-0.1,0c-0.1,0-0.3,0-0.4,0.1c0,0-0.1,0-0.1,0c0,0-0.1,0-0.2,0c-0.1,0-0.3,0-0.4,0c-0.1,0-0.2,0-0.3,0c0,0-0.1,0-0.1,0
					c0,0,0,0,0,0c-0.1,0.1-0.2,0.1-0.3,0.2c-0.1,0.1-0.2,0.1-0.3,0.2c-0.1,0.1-0.2,0.1-0.3,0.2c-0.1,0.1-0.2,0.1-0.3,0.2
					c-0.1,0.1-0.2,0.1-0.3,0.2c-0.1,0.1-0.2,0.1-0.3,0.2c-0.1,0.1-0.2,0.1-0.3,0.2c-0.1,0.1-0.2,0.1-0.3,0.2
					c-0.1,0.1-0.2,0.1-0.3,0.2c-0.1,0.1-0.2,0.1-0.3,0.2c-0.1,0.1-0.2,0.1-0.3,0.2c-0.1,0.1-0.2,0.1-0.3,0.2
					c-0.1,0.1-0.2,0.1-0.3,0.2c-0.1,0.1-0.2,0.1-0.3,0.2c-0.1,0.1-0.2,0.1-0.3,0.2c-0.1,0.1-0.2,0.1-0.3,0.2
					c-0.1,0.1-0.2,0.1-0.3,0.2c-0.1,0.1-0.2,0.1-0.3,0.2c-0.1,0.1-0.2,0.1-0.3,0.2c-0.1,0.1-0.2,0.1-0.3,0.2
					c-0.1,0.1-0.2,0.1-0.3,0.2c-0.1,0.1-0.2,0.1-0.3,0.2c-0.1,0.1-0.2,0.1-0.3,0.2c-0.1,0.1-0.2,0.1-0.3,0.2
					c-0.1,0.1-0.2,0.1-0.3,0.2c-0.1,0.1-0.2,0.1-0.3,0.2c-0.1,0.1-0.2,0.1-0.3,0.2c-0.1,0.1-0.2,0.1-0.3,0.2
					c-0.1,0.1-0.2,0.1-0.3,0.2c-0.1,0.1-0.2,0.1-0.3,0.2c-0.1,0.1-0.2,0.1-0.3,0.2c-0.1,0.1-0.2,0.1-0.3,0.2
					c-0.1,0.1-0.2,0.1-0.3,0.2c-0.1,0.1-0.2,0.1-0.3,0.2c-0.1,0.1-0.2,0.1-0.3,0.2c-0.1,0.1-0.2,0.1-0.3,0.2
					c-0.1,0.1-0.2,0.1-0.3,0.2c-0.1,0.1-0.2,0.1-0.3,0.2c-0.1,0.1-0.2,0.1-0.3,0.2c0,0-0.1,0.1-0.2,0.1l9.3,5.4
					c0.1,0,0.1,0.1,0.2,0.1c0.7,0.5,1,1.3,0.8,2.1c-0.2,0.8-1,1.5-1.8,1.5l-16.1,0.8l-3.6,0.3c-0.1,0.4-0.2,0.7-0.5,1
					c-0.5,1-1.5,1.6-2.7,1.6c-1.2,0-2.2-0.6-2.7-1.6c-0.1-0.1-0.2-0.3-0.3-0.5l-2.5,0.2c-0.1,0.1-0.2,0.1-0.3,0.2
					c-0.3,0.2-0.6,0.3-0.9,0.4c-0.3,0.4-0.7,0.7-1.2,0.9l0,0c-0.8,0.3-3,0.9-9.3,2.8c-0.2,0.1-0.4,0.1-0.6,0.1c-0.7,0-1.4-0.4-1.7-1
					c-0.5-0.8-0.3-1.8,0.4-2.4c2.3-2.1,3.8-3.6,4.9-4.6l-1.3,0.7c-0.5,0.3-1,0.4-1.5,0.4c-1,0-1.9-0.6-2.4-1.5
					c-0.1-0.3-0.2-0.6-0.2-1l-2.4,1.4c-0.3,0.2-0.7,0.3-1,0.3s-0.7-0.1-1-0.3l-1.7-1l-3.4-0.7c0,0-4,4-4.1,4
					c-0.8,0.8-1.8,1.2-2.9,1.2c-0.7,0-1.3-0.1-2-0.4c-0.6-0.1-1.3-0.3-2-0.6c0,0,0,0,0,0c-0.2,0-0.4,0-0.6,0c-1.8,1-5.3,3.1-7.9,4.6
					v1.4c0,0.3-0.1,0.7-0.3,1c-0.2,0.3-0.5,0.6-0.8,0.8l-3.1,1.8c-0.3,0.2-0.7,0.3-1,0.3c-0.2,0-0.4,0-0.6-0.1
					c-0.2,0-0.3-0.1-0.5-0.2l-5.4-3.1c-0.3-0.2-0.6-0.4-0.7-0.7c-0.2-0.3-0.3-0.7-0.3-1v-3.4c0-0.6,0.2-1.1,0.7-1.5
					c0.1-0.1,0.2-0.2,0.4-0.3l3.1-1.8c0.3-0.2,0.7-0.3,1-0.3c0.3,0,0.7,0.1,1,0.3c0.1,0.1,0.2,0.1,0.3,0.2l0.4,0.2
					c0.9-0.5,2.2-1.2,3.5-2l2.2-5.6c0.3-0.7,0.9-1.2,1.6-1.2c0.1,0,0.2,0,0.3,0c0.6,0,1.2,0.3,1.6,0.8l0.6,0.8
					c0.1-0.3,0.2-0.6,0.3-0.9c0.3-2,1.5-3.4,3.1-3.8l3.8-1.1l-0.4-3.3l-0.8,0.5c-0.1,0-0.1,0.1-0.2,0.1c0,0-0.1,0-0.1,0.1l-2.1,1.2
					c-0.5,0.3-1,0.4-1.5,0.4c-1,0-1.9-0.6-2.4-1.5c-0.6-1.2-0.1-2.6,1-3.5l-0.5,0c-0.1,0-0.1,0.1-0.2,0.1c-0.3,0.2-0.7,0.3-1.1,0.4
					c-0.3,0.4-0.7,0.6-1.2,0.8l0,0c-0.8,0.3-3,0.9-9.3,2.8c-0.2,0.1-0.4,0.1-0.6,0.1c-0.7,0-1.4-0.4-1.7-1c-0.5-0.8-0.3-1.8,0.4-2.4
					c4.8-4.5,6.4-6,7.1-6.6l0,0c0.4-0.3,0.9-0.6,1.4-0.6c0.2-0.3,0.5-0.5,0.8-0.7c0,0,0.1-0.1,0.1-0.1l2.1-5l-0.5-8.3
					c0-0.7,0.3-1.4,0.9-1.8c0.3-0.2,0.7-0.3,1.1-0.3c0.3,0,0.7,0.1,1,0.3l11.9,6.9l0.1,0c0.1-1.3,0.7-2.3,1.7-2.8
					c0.1-0.1,0.2-0.1,0.3-0.2c0.1-0.1,0.2-0.1,0.3-0.2c0.1-0.1,0.2-0.1,0.3-0.2c0.1-0.1,0.2-0.1,0.3-0.2c0.1-0.1,0.2-0.1,0.3-0.2
					c0.1-0.1,0.2-0.1,0.3-0.2c0.1-0.1,0.2-0.1,0.3-0.2c0.1-0.1,0.2-0.1,0.3-0.2c0.1-0.1,0.2-0.1,0.3-0.2c0.1-0.1,0.2-0.1,0.3-0.2
					c0.1-0.1,0.2-0.1,0.3-0.2c0.1-0.1,0.2-0.1,0.3-0.2c0.1-0.1,0.2-0.1,0.3-0.2c0.1-0.1,0.2-0.1,0.3-0.2c0.1-0.1,0.2-0.1,0.3-0.2
					c0.1-0.1,0.2-0.1,0.3-0.2c0.1-0.1,0.2-0.1,0.3-0.2c0.1-0.1,0.2-0.1,0.3-0.2c0.1-0.1,0.2-0.1,0.3-0.2c0.1-0.1,0.2-0.1,0.3-0.2
					c0.1-0.1,0.2-0.1,0.3-0.2c0.1-0.1,0.2-0.1,0.3-0.2c0.1-0.1,0.2-0.1,0.3-0.2c0.1-0.1,0.2-0.1,0.3-0.2c0.1-0.1,0.2-0.1,0.3-0.2
					c0.1-0.1,0.2-0.1,0.3-0.2c0.1-0.1,0.2-0.1,0.3-0.2c0.1-0.1,0.2-0.1,0.3-0.2c0.1-0.1,0.2-0.1,0.3-0.2c0.1-0.1,0.2-0.1,0.3-0.2
					c0.1-0.1,0.2-0.1,0.3-0.2c0.1-0.1,0.2-0.1,0.3-0.2c0.1-0.1,0.2-0.1,0.3-0.2c0.1-0.1,0.2-0.1,0.3-0.2c0.1-0.1,0.2-0.1,0.3-0.2
					c0.1-0.1,0.2-0.1,0.3-0.2c0.1-0.1,0.2-0.1,0.3-0.2c0.1-0.1,0.2-0.1,0.3-0.2c0.1-0.1,0.2-0.1,0.3-0.2c0.1-0.1,0.2-0.1,0.3-0.2
					c0.1-0.1,0.2-0.1,0.3-0.2c0.1-0.1,0.2-0.1,0.3-0.2c0.1-0.1,0.2-0.1,0.3-0.2c0.1-0.1,0.2-0.1,0.3-0.2c0.1,0,0.1-0.1,0.2-0.1
					c0,0,0.1-0.2,0.1-0.2c0-0.1,0.1-0.2,0.1-0.3c0,0,0.1-0.1,0.1-0.2c0.1-0.1,0.1-0.2,0.2-0.3c0,0,0.1-0.1,0.1-0.2
					c0.1-0.1,0.1-0.2,0.2-0.2c0,0,0.1-0.1,0.1-0.1c0-0.2,0-0.5,0-0.7c0-2.8,1.5-4.9,3.8-5.4c0.1,0,0.2,0,0.3-0.1l15.4-1.7
					c1.6-6.6,10-9.4,19.6-12.6c5.7-1.9,12.2-4.1,18.1-7.3c0.3-0.2,0.6-0.2,0.9-0.2c0.7,0,1.4,0.4,1.8,1c0.5,1,0.2,2.2-0.8,2.7
					c-5.9,3.2-11.3,7.4-16,11.1c-6.8,5.4-12.7,10-18.2,10c-1,0-2-0.2-2.9-0.5l-9.2,12.5c-0.1,0.1-0.1,0.1-0.2,0.2
					c-0.9,0.9-2,1.4-3.3,1.4c-1,0-2.1-0.3-3.2-0.9c-0.1,0-0.1-0.1-0.2-0.1c-0.1,0-0.2,0.1-0.3,0.1c0,0-0.1,0-0.1,0
					c-0.1,0-0.2,0-0.3,0c0,0-0.1,0-0.2,0c0,0-0.1,0-0.1,0c0,0-0.3,0-0.4,0c-0.1,0-0.2,0-0.3,0c0,0-0.1,0-0.1,0
					c-0.1,0-0.1,0.1-0.2,0.1c-0.1,0.1-0.2,0.1-0.3,0.2c-0.1,0.1-0.2,0.1-0.3,0.2c-0.1,0.1-0.2,0.1-0.3,0.2c-0.1,0.1-0.2,0.1-0.3,0.2
					c-0.1,0.1-0.2,0.1-0.3,0.2c-0.1,0.1-0.2,0.1-0.3,0.2c0,0,0,0,0,0l1.7-0.5c0.2-0.1,0.4-0.1,0.6-0.1c0.7,0,1.4,0.4,1.7,1
					c0.5,0.8,0.3,1.8-0.3,2.4l-8,7.9c-0.3,0.3-0.7,0.6-1.2,0.7l1.1,0.6l1.3-0.7c0.4-1.3,1.3-2.3,2.4-2.8c0.4-0.3,0.9-0.5,1.4-0.7
					l10.2-3c0.7-1.2,1.8-2.2,3.1-2.7c0,0,0.1,0,0.1,0c0.7-0.2,1.4-0.4,2.1-0.4c0.1,0,0.2,0,0.3,0c0.3-0.7,0.7-1.3,1.3-1.7
					c0.2-0.2,0.5-0.3,0.7-0.4l8.9-2.6c0,0,0,0,0,0c0.3-1.6,1.5-2.6,3-2.6c0.1,0,0.2,0,0.4,0c8.8-11.2,45-26.4,77.1-39.9
					c13.4-5.6,26-10.9,34-14.9l3-1.6C223.5,38.9,223.8,38.9,224.1,38.9 M224.1,38.2c-0.4,0-0.8,0.1-1.2,0.3l-3,1.6
					c-7.9,4-20.5,9.3-33.9,14.9c-31.9,13.4-67.9,28.6-77.2,39.9c0,0,0,0-0.1,0c-1.7,0-3.1,1.1-3.6,2.8l-8.6,2.5
					c-0.4,0.1-0.7,0.3-1,0.5c-0.5,0.4-1,0.9-1.3,1.6c-0.7,0-1.5,0.1-2.2,0.4c0,0-0.2,0.1-0.2,0.1c-1.4,0.5-2.5,1.5-3.3,2.8l-10,2.9
					c-0.2,0.1-0.5,0.1-0.7,0.2l4.3-4.2c0.9-0.8,1-2.1,0.4-3.2c-0.1-0.2-0.3-0.4-0.4-0.5c1.1,0.6,2.2,0.9,3.2,0.9
					c1.5,0,2.8-0.6,3.8-1.6c0.1-0.1,0.2-0.2,0.2-0.3l9-12.1c0.9,0.2,1.8,0.4,2.7,0.4c5.7,0,11.7-4.7,18.6-10.1
					c4.7-3.7,10-7.9,15.9-11.1c0.6-0.3,1.1-0.9,1.3-1.6c0.2-0.7,0.1-1.4-0.2-2c-0.5-0.8-1.3-1.4-2.3-1.4c-0.4,0-0.9,0.1-1.2,0.3
					c-5.9,3.2-12.3,5.3-18,7.3c-9.6,3.2-18,6.1-19.9,12.6l-15,1.7c-0.1,0-0.2,0-0.4,0.1c-2.6,0.5-4.2,2.9-4.2,6c0,0.2,0,0.3,0,0.5
					c-0.1,0.1-0.1,0.1-0.2,0.2c0,0-0.1,0.1-0.1,0.2c-0.1,0.1-0.1,0.2-0.2,0.3c0,0-0.1,0.1-0.1,0.2c-0.1,0.1-0.1,0.2-0.1,0.3
					c0,0,0,0,0,0c-0.1,0.1-0.2,0.1-0.3,0.2c-0.1,0.1-0.2,0.1-0.3,0.2c-0.1,0.1-0.2,0.1-0.3,0.2C74.1,92,74,92,73.9,92.1
					c-0.1,0.1-0.2,0.1-0.3,0.2c-0.1,0.1-0.2,0.1-0.3,0.2c-0.1,0.1-0.2,0.1-0.3,0.2c-0.1,0.1-0.2,0.1-0.3,0.2
					c-0.1,0.1-0.2,0.1-0.3,0.2c-0.1,0.1-0.2,0.1-0.3,0.2c-0.1,0.1-0.2,0.1-0.3,0.2c-0.1,0.1-0.2,0.1-0.3,0.2
					c-0.1,0.1-0.2,0.1-0.3,0.2c-0.1,0.1-0.2,0.1-0.3,0.2c-0.1,0.1-0.2,0.1-0.3,0.2c-0.1,0.1-0.2,0.1-0.3,0.2
					c-0.1,0.1-0.2,0.1-0.3,0.2c-0.1,0.1-0.2,0.1-0.3,0.2c-0.1,0.1-0.2,0.1-0.3,0.2c-0.1,0.1-0.2,0.1-0.3,0.2
					c-0.1,0.1-0.2,0.1-0.3,0.2c-0.1,0.1-0.2,0.1-0.3,0.2c-0.1,0.1-0.2,0.1-0.3,0.2c-0.1,0.1-0.2,0.1-0.3,0.2
					c-0.1,0.1-0.2,0.1-0.3,0.2c-0.1,0.1-0.2,0.1-0.3,0.2C67.2,96,67.1,96,67,96.1c-0.1,0.1-0.2,0.1-0.3,0.2
					c-0.1,0.1-0.2,0.1-0.3,0.2c-0.1,0.1-0.2,0.1-0.3,0.2c-0.1,0.1-0.2,0.1-0.3,0.2c-0.1,0.1-0.2,0.1-0.3,0.2
					c-0.1,0.1-0.2,0.1-0.3,0.2c-0.1,0.1-0.2,0.1-0.3,0.2c-0.1,0.1-0.2,0.1-0.3,0.2c-0.1,0.1-0.2,0.1-0.3,0.2
					c-0.1,0.1-0.2,0.1-0.3,0.2c-0.1,0.1-0.2,0.1-0.3,0.2c-0.1,0.1-0.2,0.1-0.3,0.2c-0.1,0.1-0.2,0.1-0.3,0.2
					c-0.1,0.1-0.2,0.1-0.3,0.2c-0.1,0.1-0.2,0.1-0.3,0.2c-0.1,0.1-0.2,0.1-0.3,0.2c-0.1,0.1-0.2,0.1-0.3,0.2
					c-0.9,0.5-1.6,1.3-1.9,2.4L48.8,95c-0.4-0.2-0.8-0.3-1.3-0.3c-0.5,0-1,0.1-1.4,0.4c-0.8,0.5-1.3,1.4-1.2,2.4l0.5,8.2l-2,4.6
					c-0.3,0.2-0.6,0.4-0.8,0.6c-0.5,0.1-1,0.4-1.5,0.7c0,0-0.1,0.1-0.1,0.1c-0.8,0.7-2.6,2.4-7,6.5c-0.9,0.8-1.1,2.1-0.5,3.2
					c0.5,0.8,1.3,1.3,2.3,1.3c0.2,0,0.5,0,0.7-0.1c6-1.8,8.3-2.4,9.2-2.8c0,0,0.1,0,0.1,0c0.3-0.1,0.7-0.3,0.9-0.5
					c-0.3,0.8-0.2,1.6,0.1,2.4c0.5,1.1,1.6,1.8,2.9,1.8c0.6,0,1.3-0.2,1.8-0.5l2.1-1.2c0,0,0.1,0,0.1-0.1c0.1,0,0.1-0.1,0.2-0.1
					l0.2,1.9l-3.3,1c-1.8,0.5-3.1,2-3.5,4c-0.5-0.6-1.2-0.9-2-0.9c-0.1,0-0.2,0-0.4,0c-0.9,0.1-1.7,0.8-2.1,1.6l-2.1,5.4
					c-1.1,0.6-2.1,1.2-3,1.7l-0.1,0c-0.1-0.1-0.2-0.2-0.3-0.2c-0.4-0.2-0.9-0.4-1.3-0.4s-0.9,0.1-1.3,0.4l-3.1,1.8
					c-0.2,0.1-0.3,0.2-0.5,0.4c-0.5,0.5-0.9,1.2-0.9,1.9v3.4c0,0.4,0.1,0.9,0.4,1.3c0.2,0.4,0.6,0.7,1,1l5.4,3.1
					c0.2,0.1,0.4,0.2,0.6,0.3c0.2,0.1,0.5,0.1,0.7,0.1c0.5,0,0.9-0.1,1.3-0.4l3.1-1.8c0.4-0.2,0.8-0.6,1-1c0.2-0.4,0.3-0.8,0.3-1.3
					v-1.1c2.5-1.4,5.7-3.3,7.4-4.3c0.1,0,0.2,0,0.3,0c0.7,0.3,1.3,0.5,2,0.6c0.7,0.3,1.4,0.4,2.2,0.4c1.3,0,2.5-0.5,3.4-1.4
					c0,0,0,0,0,0c0,0,0.1-0.1,3.8-3.8l3,0.6l1.6,0.9c0.4,0.2,0.8,0.3,1.3,0.3s0.9-0.1,1.3-0.3l1.7-1c0,0.1,0.1,0.2,0.1,0.3
					c0.5,1.1,1.6,1.8,2.9,1.8c0,0,0,0,0,0c-0.7,0.7-1.6,1.5-2.6,2.4c-0.9,0.8-1.1,2.1-0.5,3.2c0.5,0.8,1.3,1.3,2.3,1.3
					c0.2,0,0.5,0,0.7-0.1c6-1.8,8.3-2.4,9.2-2.8c0,0,0.1,0,0.1,0c0.5-0.2,1-0.5,1.4-0.9c0.3-0.1,0.6-0.2,0.8-0.4
					c0.1,0,0.2-0.1,0.2-0.1l2-0.2c0,0,0.1,0.1,0.1,0.1c0.6,1.2,1.8,1.9,3.2,1.9c1.4,0,2.6-0.7,3.2-1.9c0.2-0.2,0.3-0.5,0.4-0.8
					l3.2-0.3l16.1-0.8c1.1-0.1,2.1-0.8,2.4-2c0.3-1-0.1-2.2-1-2.8c-0.1-0.1-0.2-0.1-0.3-0.2l-8.4-4.8c0,0,0.1-0.1,0.1-0.1
					c0.1-0.1,0.2-0.1,0.3-0.2c0.1-0.1,0.2-0.1,0.3-0.2c0.1-0.1,0.2-0.1,0.3-0.2c0.1-0.1,0.2-0.1,0.3-0.2c0.1-0.1,0.2-0.1,0.3-0.2
					c0.1-0.1,0.2-0.1,0.3-0.2c0.1-0.1,0.2-0.1,0.3-0.2c0.1-0.1,0.2-0.1,0.3-0.2c0.1-0.1,0.2-0.1,0.3-0.2c0.1-0.1,0.2-0.1,0.3-0.2
					c0.1-0.1,0.2-0.1,0.3-0.2c0.1-0.1,0.2-0.1,0.3-0.2c0.1-0.1,0.2-0.1,0.3-0.2c0.1-0.1,0.2-0.1,0.3-0.2c0.1-0.1,0.2-0.1,0.3-0.2
					c0.1-0.1,0.2-0.1,0.3-0.2c0.1-0.1,0.2-0.1,0.3-0.2c0.1-0.1,0.2-0.1,0.3-0.2c0.1-0.1,0.2-0.1,0.3-0.2c0.1-0.1,0.2-0.1,0.3-0.2
					c0.1-0.1,0.2-0.1,0.3-0.2c0.1-0.1,0.2-0.1,0.3-0.2c0.1-0.1,0.2-0.1,0.3-0.2c0.1-0.1,0.2-0.1,0.3-0.2c0.1-0.1,0.2-0.1,0.3-0.2
					c0.1-0.1,0.2-0.1,0.3-0.2c0.1-0.1,0.2-0.1,0.3-0.2c0.1-0.1,0.2-0.1,0.3-0.2c0.1-0.1,0.2-0.1,0.3-0.2c0.1-0.1,0.2-0.1,0.3-0.2
					c0.1-0.1,0.2-0.1,0.3-0.2c0.1-0.1,0.2-0.1,0.3-0.2c0.1-0.1,0.2-0.1,0.3-0.2c0.1-0.1,0.2-0.1,0.3-0.2c0.1-0.1,0.2-0.1,0.3-0.2
					c0,0,0.1,0,0.1-0.1c0.1,0,0.2,0,0.3,0c0,0,0.4,0,0.4,0c0,0,0.2,0,0.2,0c0,0,0.1,0,0.2,0c0.1,0,0.3,0,0.4-0.1c0.1,0,0.1,0,0.2,0
					c0,0,0,0,0,0c1.2,0.7,2.4,1,3.5,1c1.5,0,2.8-0.6,3.8-1.6c0.1-0.1,0.2-0.2,0.3-0.3l10.2-13.8c0.6-0.8,0.7-2,0.2-2.9
					c-0.5-0.8-1.3-1.3-2.3-1.3c-0.1,0-0.2,0-0.3,0l-17,1.9c-0.1,0-0.2,0-0.4,0.1c-2.6,0.5-4.2,2.9-4.2,6c0,0.2,0,0.3,0,0.5
					c-0.1,0.1-0.1,0.2-0.2,0.2c0,0-0.1,0.2-0.2,0.2c-0.1,0.1-0.1,0.2-0.2,0.3c0,0-0.1,0.1-0.1,0.2c-0.1,0.1-0.1,0.2-0.1,0.3
					c0,0,0,0,0,0.1c0,0-0.1,0-0.1,0.1c-0.1,0.1-0.2,0.1-0.3,0.2c-0.1,0.1-0.2,0.1-0.3,0.2c-0.1,0.1-0.2,0.1-0.3,0.2
					c-0.1,0.1-0.2,0.1-0.3,0.2c-0.1,0.1-0.2,0.1-0.3,0.2c-0.1,0.1-0.2,0.1-0.3,0.2c-0.1,0.1-0.2,0.1-0.3,0.2
					c-0.1,0.1-0.2,0.1-0.3,0.2c-0.1,0.1-0.2,0.1-0.3,0.2c-0.1,0.1-0.2,0.1-0.3,0.2c-0.1,0.1-0.2,0.1-0.3,0.2
					c-0.1,0.1-0.2,0.1-0.3,0.2c-0.1,0.1-0.2,0.1-0.3,0.2c-0.1,0.1-0.2,0.1-0.3,0.2c-0.1,0.1-0.2,0.1-0.3,0.2
					c-0.1,0.1-0.2,0.1-0.3,0.2c0,0,0,0-0.1,0c0-0.3-0.2-0.6-0.3-0.9c-0.5-0.8-1.3-1.3-2.3-1.3c-0.2,0-0.5,0-0.7,0.1l-11,3.2
					c-0.4,0.1-0.7,0.3-1,0.5c-0.7,0.5-1.2,1.3-1.4,2.3c0,0,0,0.1-0.1,0.1l-2.2,0.1l5.2-5.1c0.6,0,1.2-0.1,1.8-0.4c0,0,0.1,0,0.1-0.1
					l0.1,0c1.5-0.6,2.7-1.6,3.4-2.9c0.1,0,0.2,0,0.3,0c1.1,0,2.1-0.4,2.8-1.1c0,0,0,0,0,0c0,0,0.2-0.2,6.2-6.1
					c0.3,0.1,0.6,0.1,0.9,0.1c1.2,0,2.3-0.5,3-1.5c15.7-1.1,53.2-24.6,83.4-43.5c11.6-7.3,21.7-13.5,28.2-17.1l0.2-0.1
					c1.3-0.7,1.7-2.3,1.1-3.5C225.9,38.8,225.1,38.2,224.1,38.2L224.1,38.2z M74.6,112L74.6,112C74.6,112,74.6,112,74.6,112
					L74.6,112L74.6,112z"/>
			</g>
		</g>
		
			<image style="overflow:visible;" width="274" height="189" xlink:href="27B1DF98439C3474.png"  transform="matrix(1 0 0 1 -8.3767 -0.5)">
		</image>
	</g>
	<rect class="st182" width="255" height="187"/>
</g>
<g>
	<path class="st23" d="M649.2-416V881.1h-4144.7V-416H649.2 M651.2-418h-4148.7V883.1H651.2V-418L651.2-418z"/>
</g>
</svg>
