<svg id="Calque_1" data-name="Calque 1" xmlns="http://www.w3.org/2000/svg" viewBox="0 0 255 187"><defs><style>.cls-1,.cls-21,.cls-24,.cls-3{fill:#fff;}.cls-1,.cls-13,.cls-14,.cls-15,.cls-19,.cls-2,.cls-20,.cls-26,.cls-27,.cls-3,.cls-4,.cls-5,.cls-6,.cls-7,.cls-8,.cls-9{stroke:#000;}.cls-1,.cls-10,.cls-14,.cls-15,.cls-19,.cls-20,.cls-26,.cls-27,.cls-7,.cls-8,.cls-9{stroke-linejoin:bevel;}.cls-1,.cls-10,.cls-13,.cls-14,.cls-15,.cls-19,.cls-2,.cls-20,.cls-26,.cls-27,.cls-3,.cls-4,.cls-5,.cls-6,.cls-7,.cls-8,.cls-9{stroke-width:0.11px;}.cls-12,.cls-15,.cls-2{fill:#fa5fe7;}.cls-13,.cls-2,.cls-22,.cls-23,.cls-24,.cls-3,.cls-4,.cls-5,.cls-6{stroke-miterlimit:10;}.cls-18,.cls-4,.cls-8{fill:#ffcfde;}.cls-17,.cls-5,.cls-7{fill:#325afe;}.cls-10,.cls-11,.cls-20,.cls-23{fill:#73e0ff;}.cls-10,.cls-22,.cls-23,.cls-24{stroke:#fff;}.cls-13,.cls-19,.cls-28{fill:none;}.cls-14{fill:#1643fe;}.cls-16{fill:#ffc000;}.cls-22,.cls-23,.cls-24{stroke-width:0.01px;}.cls-25{fill:#5adbff;}.cls-26{fill:#ffc4ff;}.cls-27{fill:#00b0f0;}</style></defs><polygon class="cls-1" points="69.08 118.37 67.78 109.16 58.11 113.67 68.88 118.49 69.08 118.37"/><polyline class="cls-2" points="80.57 86.19 97.63 84.26 87.41 98.07"/><path class="cls-3" d="M88.22,95.41c0,3.15-2.23,4.42-5,2.84a11,11,0,0,1-5-8.58c0-3.15,2.23-4.42,5-2.83A10.94,10.94,0,0,1,88.22,95.41Z"/><path class="cls-4" d="M87.26,95c0,2.54-1.8,3.57-4,2.29a8.86,8.86,0,0,1-4-6.93c0-2.54,1.8-3.56,4-2.28A8.83,8.83,0,0,1,87.26,95Z"/><path class="cls-5" d="M86.79,95.28c0,2.54-1.8,3.57-4,2.29a8.84,8.84,0,0,1-4-6.93c0-2.54,1.8-3.56,4-2.28A8.84,8.84,0,0,1,86.79,95.28Z"/><path class="cls-6" d="M81.84,90.56a1.89,1.89,0,0,0-1.74-.22c-.41.19-1.76,1-2.12,1.23a1.78,1.78,0,0,0-.78,1.67,5.69,5.69,0,0,0,2.58,4.45,1.83,1.83,0,0,0,1.83.18c.36-.21,1.72-1,2.09-1.23A1.78,1.78,0,0,0,84.42,95,5.69,5.69,0,0,0,81.84,90.56Z"/><path class="cls-5" d="M82.36,96.22c0,1.63-1.16,2.29-2.58,1.47a5.69,5.69,0,0,1-2.58-4.45c0-1.63,1.16-2.29,2.58-1.47A5.72,5.72,0,0,1,82.36,96.22Z"/><path class="cls-1" d="M81.47,96c0,1.22-.87,1.71-1.92,1.1a4.24,4.24,0,0,1-1.92-3.31c0-1.22.86-1.71,1.92-1.09A4.24,4.24,0,0,1,81.47,96Z"/><path class="cls-1" d="M81.16,96.16c0,1.21-.85,1.7-1.92,1.09a4.24,4.24,0,0,1-1.91-3.31c0-1.21.86-1.7,1.91-1.09A4.19,4.19,0,0,1,81.16,96.16Z"/><path class="cls-1" d="M80.86,96.33c0,1.22-.86,1.71-1.92,1.09A4.21,4.21,0,0,1,77,94.12c0-1.22.85-1.71,1.91-1.09A4.22,4.22,0,0,1,80.86,96.33Z"/><path class="cls-1" d="M80.56,96.5c0,1.22-.86,1.71-1.92,1.1a4.22,4.22,0,0,1-1.92-3.31c0-1.21.86-1.7,1.92-1.09A4.22,4.22,0,0,1,80.56,96.5Z"/><path class="cls-1" d="M80.25,96.68c0,1.22-.85,1.71-1.91,1.09a4.22,4.22,0,0,1-1.92-3.3c0-1.22.86-1.71,1.92-1.1A4.23,4.23,0,0,1,80.25,96.68Z"/><path class="cls-1" d="M80,96.85c0,1.22-.86,1.71-1.92,1.1a4.22,4.22,0,0,1-1.92-3.31c0-1.22.86-1.7,1.92-1.09A4.22,4.22,0,0,1,80,96.85Z"/><path class="cls-1" d="M79.65,97c0,1.21-.86,1.7-1.92,1.09a4.24,4.24,0,0,1-1.91-3.31c0-1.21.86-1.7,1.91-1.09A4.22,4.22,0,0,1,79.65,97Z"/><path class="cls-1" d="M79.35,97.2c0,1.22-.86,1.71-1.92,1.09A4.18,4.18,0,0,1,75.52,95c0-1.22.85-1.7,1.91-1.09A4.22,4.22,0,0,1,79.35,97.2Z"/><path class="cls-1" d="M79.05,97.38c0,1.21-.86,1.7-1.92,1.09a4.22,4.22,0,0,1-1.92-3.31c0-1.21.86-1.7,1.92-1.09A4.22,4.22,0,0,1,79.05,97.38Z"/><path class="cls-1" d="M78.75,97.55c0,1.22-.86,1.71-1.92,1.1a4.24,4.24,0,0,1-1.92-3.31c0-1.22.86-1.71,1.92-1.1A4.24,4.24,0,0,1,78.75,97.55Z"/><path class="cls-1" d="M78.44,97.73c0,1.21-.85,1.7-1.92,1.09a4.24,4.24,0,0,1-1.91-3.31c0-1.21.86-1.7,1.91-1.09A4.19,4.19,0,0,1,78.44,97.73Z"/><path class="cls-1" d="M78.14,97.9c0,1.22-.86,1.7-1.91,1.09a4.19,4.19,0,0,1-1.92-3.31c0-1.21.85-1.7,1.92-1.09A4.25,4.25,0,0,1,78.14,97.9Z"/><path class="cls-1" d="M77.84,98.07c0,1.22-.86,1.71-1.92,1.1A4.22,4.22,0,0,1,74,95.86c0-1.21.86-1.71,1.92-1.09A4.22,4.22,0,0,1,77.84,98.07Z"/><path class="cls-1" d="M77.54,98.25c0,1.22-.86,1.7-1.92,1.09A4.22,4.22,0,0,1,73.7,96c0-1.22.86-1.71,1.92-1.1A4.22,4.22,0,0,1,77.54,98.25Z"/><path class="cls-1" d="M77.24,98.42c0,1.22-.86,1.71-1.92,1.1a4.24,4.24,0,0,1-1.92-3.31c0-1.22.86-1.71,1.92-1.09A4.22,4.22,0,0,1,77.24,98.42Z"/><path class="cls-1" d="M76.93,98.6c0,1.21-.86,1.7-1.91,1.09a4.22,4.22,0,0,1-1.92-3.31c0-1.21.86-1.7,1.92-1.09A4.24,4.24,0,0,1,76.93,98.6Z"/><path class="cls-1" d="M76.63,98.77c0,1.22-.86,1.7-1.92,1.1a4.24,4.24,0,0,1-1.91-3.31c0-1.22.85-1.71,1.91-1.09A4.22,4.22,0,0,1,76.63,98.77Z"/><path class="cls-1" d="M76.33,99c0,1.21-.86,1.7-1.92,1.09a4.23,4.23,0,0,1-1.91-3.31c0-1.21.85-1.7,1.91-1.09A4.22,4.22,0,0,1,76.33,99Z"/><path class="cls-1" d="M76,99.12c0,1.21-.86,1.7-1.92,1.1a4.25,4.25,0,0,1-1.92-3.31c0-1.22.86-1.71,1.92-1.1A4.24,4.24,0,0,1,76,99.12Z"/><path class="cls-1" d="M75.72,99.3c0,1.21-.85,1.7-1.91,1.09a4.25,4.25,0,0,1-1.92-3.31c0-1.22.86-1.7,1.92-1.09A4.21,4.21,0,0,1,75.72,99.3Z"/><path class="cls-1" d="M75.43,99.47c0,1.21-.86,1.7-1.92,1.09a4.19,4.19,0,0,1-1.92-3.31c0-1.21.85-1.7,1.92-1.09A4.22,4.22,0,0,1,75.43,99.47Z"/><path class="cls-1" d="M75.12,99.64c0,1.22-.86,1.71-1.92,1.1a4.27,4.27,0,0,1-1.91-3.31c0-1.21.86-1.71,1.91-1.1A4.25,4.25,0,0,1,75.12,99.64Z"/><path class="cls-1" d="M74.82,99.82c0,1.21-.86,1.7-1.92,1.09A4.22,4.22,0,0,1,71,97.6c0-1.21.86-1.7,1.92-1.09A4.22,4.22,0,0,1,74.82,99.82Z"/><path class="cls-1" d="M74.52,100c0,1.21-.86,1.71-1.92,1.1a4.25,4.25,0,0,1-1.92-3.31c0-1.22.86-1.71,1.92-1.1A4.25,4.25,0,0,1,74.52,100Z"/><path class="cls-1" d="M74.22,100.17c0,1.21-.87,1.7-1.92,1.09A4.22,4.22,0,0,1,70.38,98c0-1.21.86-1.7,1.92-1.09A4.25,4.25,0,0,1,74.22,100.17Z"/><path class="cls-1" d="M73.91,100.34c0,1.21-.85,1.71-1.92,1.09a4.24,4.24,0,0,1-1.91-3.31c0-1.21.86-1.7,1.91-1.09A4.22,4.22,0,0,1,73.91,100.34Z"/><path class="cls-1" d="M73.61,100.51c0,1.22-.86,1.71-1.91,1.1a4.21,4.21,0,0,1-1.92-3.31c0-1.21.85-1.7,1.92-1.1A4.27,4.27,0,0,1,73.61,100.51Z"/><path class="cls-1" d="M73.31,100.69c0,1.21-.86,1.71-1.92,1.09a4.22,4.22,0,0,1-1.92-3.31c0-1.21.86-1.7,1.92-1.09A4.24,4.24,0,0,1,73.31,100.69Z"/><path class="cls-1" d="M73,100.86c0,1.22-.86,1.71-1.92,1.09a4.22,4.22,0,0,1-1.92-3.3c0-1.22.86-1.7,1.92-1.09A4.22,4.22,0,0,1,73,100.86Z"/><path class="cls-1" d="M72.71,101c0,1.22-.86,1.71-1.92,1.1a4.22,4.22,0,0,1-1.92-3.31c0-1.21.86-1.7,1.92-1.09A4.22,4.22,0,0,1,72.71,101Z"/><path class="cls-1" d="M72.4,101.21c0,1.22-.86,1.71-1.91,1.09A4.22,4.22,0,0,1,68.57,99c0-1.22.86-1.71,1.92-1.1A4.25,4.25,0,0,1,72.4,101.21Z"/><path class="cls-1" d="M72.1,101.38c0,1.22-.86,1.71-1.92,1.1a4.22,4.22,0,0,1-1.92-3.31c0-1.22.86-1.7,1.92-1.09A4.22,4.22,0,0,1,72.1,101.38Z"/><path class="cls-1" d="M71.8,101.56c0,1.21-.86,1.71-1.92,1.09A4.22,4.22,0,0,1,68,99.35c0-1.22.86-1.71,1.92-1.1A4.22,4.22,0,0,1,71.8,101.56Z"/><path class="cls-1" d="M71.5,101.73c0,1.22-.86,1.71-1.92,1.1a4.22,4.22,0,0,1-1.92-3.31c0-1.22.86-1.7,1.92-1.09A4.22,4.22,0,0,1,71.5,101.73Z"/><path class="cls-1" d="M71.19,101.91c0,1.22-.85,1.7-1.91,1.09a4.22,4.22,0,0,1-1.92-3.31c0-1.21.86-1.7,1.92-1.09A4.21,4.21,0,0,1,71.19,101.91Z"/><path class="cls-1" d="M70.89,102.08c0,1.22-.86,1.71-1.91,1.1a4.21,4.21,0,0,1-1.92-3.31c0-1.22.85-1.71,1.92-1.09A4.22,4.22,0,0,1,70.89,102.08Z"/><path class="cls-1" d="M70.59,102.26c0,1.21-.86,1.7-1.92,1.09A4.25,4.25,0,0,1,66.75,100c0-1.21.87-1.7,1.92-1.09A4.22,4.22,0,0,1,70.59,102.26Z"/><path class="cls-1" d="M70.29,102.43c0,1.22-.86,1.7-1.92,1.09a4.22,4.22,0,0,1-1.92-3.3c0-1.22.86-1.71,1.92-1.09A4.2,4.2,0,0,1,70.29,102.43Z"/><path class="cls-1" d="M70,102.6c0,1.22-.86,1.71-1.92,1.1a4.22,4.22,0,0,1-1.92-3.31c0-1.21.86-1.71,1.92-1.09A4.22,4.22,0,0,1,70,102.6Z"/><path class="cls-1" d="M69.69,102.78c0,1.22-.87,1.7-1.92,1.09a4.22,4.22,0,0,1-1.92-3.3c0-1.22.86-1.71,1.92-1.1A4.25,4.25,0,0,1,69.69,102.78Z"/><path class="cls-1" d="M69.38,103c0,1.22-.86,1.71-1.92,1.1a4.26,4.26,0,0,1-1.92-3.31c0-1.22.87-1.71,1.92-1.09A4.22,4.22,0,0,1,69.38,103Z"/><path class="cls-1" d="M69.08,103.13c0,1.21-.86,1.7-1.92,1.09a4.21,4.21,0,0,1-1.91-3.3c0-1.22.85-1.71,1.91-1.1A4.22,4.22,0,0,1,69.08,103.13Z"/><path class="cls-1" d="M68.78,103.3c0,1.22-.86,1.71-1.92,1.1a4.25,4.25,0,0,1-1.92-3.31c0-1.22.86-1.71,1.92-1.09A4.22,4.22,0,0,1,68.78,103.3Z"/><path class="cls-1" d="M68.48,103.48c0,1.21-.86,1.7-1.92,1.09a4.22,4.22,0,0,1-1.92-3.31c0-1.21.86-1.7,1.92-1.09A4.22,4.22,0,0,1,68.48,103.48Z"/><path class="cls-1" d="M68.17,103.65c0,1.21-.85,1.71-1.91,1.1a4.25,4.25,0,0,1-1.92-3.31c0-1.22.86-1.71,1.92-1.1A4.24,4.24,0,0,1,68.17,103.65Z"/><path class="cls-1" d="M67.87,103.83c0,1.21-.86,1.7-1.92,1.09A4.25,4.25,0,0,1,64,101.61c0-1.21.86-1.7,1.91-1.09A4.22,4.22,0,0,1,67.87,103.83Z"/><path class="cls-1" d="M67.57,104c0,1.21-.86,1.7-1.92,1.09a4.22,4.22,0,0,1-1.92-3.31c0-1.21.86-1.7,1.92-1.09A4.24,4.24,0,0,1,67.57,104Z"/><path class="cls-1" d="M67.27,104.17c0,1.22-.86,1.71-1.92,1.1A4.24,4.24,0,0,1,63.43,102c0-1.21.86-1.7,1.92-1.1A4.25,4.25,0,0,1,67.27,104.17Z"/><path class="cls-1" d="M67,104.35c0,1.21-.86,1.7-1.92,1.09a4.22,4.22,0,0,1-1.92-3.31c0-1.21.86-1.7,1.92-1.09A4.22,4.22,0,0,1,67,104.35Z"/><path class="cls-1" d="M66.66,104.52c0,1.22-.85,1.71-1.92,1.1a4.27,4.27,0,0,1-1.91-3.31c0-1.22.86-1.71,1.91-1.1A4.22,4.22,0,0,1,66.66,104.52Z"/><path class="cls-1" d="M66.36,104.7c0,1.21-.86,1.7-1.92,1.09a4.21,4.21,0,0,1-1.91-3.31c0-1.21.85-1.7,1.91-1.09A4.22,4.22,0,0,1,66.36,104.7Z"/><path class="cls-7" d="M66.06,104.87c0,1.22-.86,1.71-1.92,1.09a4.22,4.22,0,0,1-1.92-3.31c0-1.21.86-1.7,1.92-1.09A4.25,4.25,0,0,1,66.06,104.87Z"/><path class="cls-8" d="M65.16,104.35c0,.65-.45.91-1,.59a2.28,2.28,0,0,1-1-1.76c0-.65.46-.91,1-.59A2.25,2.25,0,0,1,65.16,104.35Z"/><path class="cls-1" d="M64.54,104.86a.53.53,0,0,0,.3-.55,1.78,1.78,0,0,0-.81-1.4.54.54,0,0,0-.64,0l-6.27,3.62a.53.53,0,0,0-.3.55,1.76,1.76,0,0,0,.81,1.4.54.54,0,0,0,.64,0Z"/><path class="cls-9" d="M58.31,108.08c0,.51-.36.72-.81.46a1.79,1.79,0,0,1-.81-1.4c0-.52.36-.73.81-.47A1.79,1.79,0,0,1,58.31,108.08Z"/><path class="cls-1" d="M59.2,109.21a1,1,0,0,0,.59-1.08,3.51,3.51,0,0,0-1.58-2.73,1,1,0,0,0-1.24,0c-.1,0-12.16,7-12.24,7.06a1,1,0,0,0-.59,1.07,3.5,3.5,0,0,0,1.59,2.74,1,1,0,0,0,1.24,0C47.06,116.23,59.12,109.27,59.2,109.21Z"/><path class="cls-9" d="M47.06,115.48c0,1-.71,1.41-1.58.9a3.48,3.48,0,0,1-1.59-2.73c0-1,.71-1.41,1.59-.9A3.48,3.48,0,0,1,47.06,115.48Z"/><path class="cls-10" d="M46.71,115.28c0,.78-.55,1.1-1.23.7a2.7,2.7,0,0,1-1.24-2.13c0-.79.55-1.1,1.24-.71A2.74,2.74,0,0,1,46.71,115.28Z"/><path class="cls-1" d="M46.28,115c0,.51-.36.71-.8.46a1.78,1.78,0,0,1-.81-1.4c0-.51.36-.71.81-.45A1.77,1.77,0,0,1,46.28,115Z"/><path class="cls-1" d="M45.8,115.54a.47.47,0,0,0,.27-.49,1.57,1.57,0,0,0-.72-1.24.45.45,0,0,0-.56,0S39.26,117,39.23,117a.47.47,0,0,0-.27.49,1.57,1.57,0,0,0,.72,1.24.48.48,0,0,0,.56,0S45.77,115.57,45.8,115.54Z"/><path class="cls-8" d="M40.29,118.39a.44.44,0,0,1-.72.41,1.59,1.59,0,0,1-.72-1.25c0-.45.32-.63.72-.4A1.58,1.58,0,0,1,40.29,118.39Z"/><polygon class="cls-1" points="68.88 119.89 57.08 126.7 55.98 116.76 47.78 107.53 68.88 119.89"/><polygon class="cls-1" points="68.88 118.49 57.08 125.3 55.98 115.97 47.78 106.13 68.88 118.49"/><polygon class="cls-9" points="67.78 109.16 55.98 115.97 54.88 106.64 47.22 97.29 67.78 109.16"/><polygon class="cls-3" points="47.78 107.53 47.78 106.13 55.98 115.97 55.98 116.76 47.78 107.53"/><path class="cls-8" d="M56,116l-8.59.07c.47-.27.43-1.24,0-2.13s-1.24-1.88-2.26-1.73l2.6-6.05Z"/><path class="cls-7" d="M56,116v.79l-8.6-.74c.36-.23.37-.75.32-1.16Z"/><polygon class="cls-1" points="47.22 97.29 54.88 106.64 55.36 110.69 47.78 106.13 47.22 97.29"/><path class="cls-11" d="M54,106a3.52,3.52,0,0,1-1.74.41h0V105h2.46A1.19,1.19,0,0,1,54,106Z"/><path class="cls-12" d="M52.3,106.4h0a3.59,3.59,0,0,1-1.75-.42,1.23,1.23,0,0,1-.72-1h2.46Z"/><path class="cls-12" d="M54.75,105H52.29v-1.42h0A3.59,3.59,0,0,1,54,104,1.22,1.22,0,0,1,54.75,105Z"/><path class="cls-11" d="M52.29,105H49.83a1.21,1.21,0,0,1,.71-1,3.64,3.64,0,0,1,1.74-.41h0Z"/><path class="cls-13" d="M54.75,105a1.19,1.19,0,0,1-.71,1,3.52,3.52,0,0,1-1.74.41,3.59,3.59,0,0,1-1.75-.42,1.23,1.23,0,0,1-.72-1,1.21,1.21,0,0,1,.71-1,3.64,3.64,0,0,1,1.74-.41A3.59,3.59,0,0,1,54,104,1.22,1.22,0,0,1,54.75,105Z"/><polyline class="cls-13" points="52.3 106.4 52.29 104.98 52.28 103.56"/><polyline class="cls-13" points="54.75 104.98 52.29 104.98 49.83 104.97"/><path class="cls-14" d="M56.45,107.49H54v2.82h0a.63.63,0,0,0,.36.5,1.89,1.89,0,0,0,1.7,0,.62.62,0,0,0,.35-.5h0Z"/><path class="cls-1" d="M56.1,108a1.89,1.89,0,0,1-1.7,0,.52.52,0,0,1,0-1,1.89,1.89,0,0,1,1.7,0C56.56,107.28,56.56,107.71,56.1,108Z"/><path class="cls-15" d="M55.93,107.84a1.5,1.5,0,0,1-1.37,0,.47.47,0,0,1-.28-.39,1,1,0,0,1,1.93,0A.45.45,0,0,1,55.93,107.84Z"/><path d="M172.88,86.86l.26-.14c-16.52,9-28.06,25-37,20C143.39,108.71,156.48,95.8,172.88,86.86Z"/><path class="cls-16" d="M173.14,86.72l-.26.14c-16.41,8.91-31.13,18.82-36.72,19.89,3.94-4.1,20.29-11,36.72-19.89Z"/><path class="cls-17" d="M173.14,86.72l-.26.14c-16.45,8.85-34.42,12.76-36.72,19.89C136.82,96.54,156.62,95.67,173.14,86.72Z"/><path class="cls-12" d="M136.16,106.75c2.3-7.13,20.27-11,36.72-19.89C156.45,95.74,140.1,102.65,136.16,106.75Z"/><path class="cls-18" d="M136.16,106.75c5.59-1.07,20.31-11,36.72-19.89C156.48,95.8,143.39,108.71,136.16,106.75Z"/><path class="cls-19" d="M173.14,86.72c-16.52,9-36.32,9.82-37,20"/><path class="cls-19" d="M172.88,86.86c-16.45,8.85-34.42,12.76-36.72,19.89"/><path class="cls-19" d="M173.14,86.72l-.26.14c-16.43,8.88-32.78,15.79-36.72,19.89"/><path class="cls-19" d="M172.88,86.86c-16.41,8.91-31.13,18.82-36.72,19.89"/><path class="cls-19" d="M173.14,86.72l-.26.14c-16.4,8.94-29.49,21.85-36.72,19.89"/><path class="cls-19" d="M173.14,86.72c-16.52,9-28.06,25-37,20"/><path class="cls-11" d="M134.29,64.36l.26-.14c-16.52,9-28.07,25-37,20C104.8,86.22,117.89,73.31,134.29,64.36Z"/><path class="cls-12" d="M134.55,64.22l-.26.14c-16.42,8.91-31.14,18.83-36.72,19.89,3.94-4.09,20.29-11,36.72-19.89Z"/><path class="cls-17" d="M134.55,64.22l-.26.14c-16.45,8.85-34.42,12.77-36.72,19.89C98.23,74,118,73.17,134.55,64.22Z"/><path d="M97.57,84.25c2.3-7.12,20.27-11,36.72-19.89C117.86,73.24,101.51,80.16,97.57,84.25Z"/><path class="cls-18" d="M97.57,84.25c5.58-1.06,20.3-11,36.72-19.89C117.89,73.31,104.8,86.22,97.57,84.25Z"/><path class="cls-19" d="M134.55,64.22c-16.52,9-36.32,9.82-37,20"/><path class="cls-19" d="M134.29,64.36c-16.45,8.85-34.42,12.77-36.72,19.89"/><path class="cls-19" d="M134.55,64.22l-.26.14c-16.43,8.88-32.78,15.8-36.72,19.89"/><path class="cls-19" d="M134.29,64.36c-16.42,8.91-31.14,18.83-36.72,19.89"/><path class="cls-19" d="M134.55,64.22l-.26.14c-16.4,9-29.49,21.86-36.72,19.89"/><path class="cls-19" d="M134.55,64.22c-16.52,9-28.07,25-37,20"/><path class="cls-8" d="M44.81,117.47a1,1,0,0,0,.6-1.07,3.5,3.5,0,0,0-1.59-2.74,1,1,0,0,0-1.24,0c-.09,0-7,6.59-7,6.59S44.74,117.53,44.81,117.47Z"/><polygon class="cls-15" points="57.08 125.3 57.08 126.7 55.98 116.76 55.98 115.97 57.08 125.3"/><polyline class="cls-1" points="97.25 102.66 113.11 98.04 101.56 109.38"/><polyline class="cls-20" points="97.25 102.66 113.11 98.04 101.56 109.38"/><path class="cls-9" d="M102.08,107.81c0,1.8-1.27,2.52-2.84,1.62a6.26,6.26,0,0,1-2.84-4.9c0-1.8,1.27-2.53,2.84-1.62A6.25,6.25,0,0,1,102.08,107.81Z"/><path class="cls-7" d="M100.69,108c0,1.44-1,2-2.28,1.3a5,5,0,0,1-2.27-3.93c0-1.44,1-2,2.27-1.29A5,5,0,0,1,100.69,108Z"/><path class="cls-1" d="M98.66,108.15c0,.89-.63,1.25-1.41.8a3.09,3.09,0,0,1-1.41-2.43c0-.89.63-1.25,1.41-.8A3.11,3.11,0,0,1,98.66,108.15Z"/><path d="M97.92,108.55c.39-.22.39-.94,0-1.61s-1-1-1.4-.81-.38.94,0,1.61S97.54,108.77,97.92,108.55Zm-1.33-.85c-.35-.6-.35-1.26,0-1.46s.92.13,1.27.74.35,1.26,0,1.46S96.94,108.31,96.59,107.7Z"/><path d="M97.79,108.33c.32-.18.32-.77,0-1.32s-.82-.84-1.14-.66-.32.77,0,1.32S97.48,108.51,97.79,108.33Zm-1.08-.7c-.28-.48-.28-1,0-1.17s.74.11,1,.59.28,1,0,1.17S97,108.12,96.71,107.63Z"/><path d="M97.67,108.11c.24-.14.24-.6,0-1s-.65-.66-.89-.52-.25.6,0,1S97.42,108.25,97.67,108.11Zm-.83-.55c-.21-.37-.21-.76,0-.88s.55.08.76.44.21.76,0,.88S97.05,107.92,96.84,107.56Z"/><path d="M97.54,107.89c.18-.1.18-.43,0-.73s-.46-.47-.64-.37-.17.43,0,.73S97.36,108,97.54,107.89Zm-.57-.4c-.14-.25-.14-.51,0-.59s.37,0,.51.3.14.5,0,.58S97.11,107.73,97,107.49Z"/><path d="M97.41,107.67c.11-.06.11-.26,0-.44S97.14,107,97,107s-.1.26,0,.44S97.31,107.73,97.41,107.67Zm-.31-.26c-.07-.12-.07-.25,0-.29s.18,0,.25.15.07.25,0,.29S97.17,107.53,97.1,107.41Z"/><path d="M97.29,107.3c0-.06-.1-.09-.13-.07s0,.09,0,.15.09.09.13.07S97.32,107.37,97.29,107.3Z"/><path d="M98.28,107.61a4.15,4.15,0,0,1-2.42,5.29c1.79-.69,2.6-3,1.83-5.08s-2.9-3.36-4.73-2.7A4.16,4.16,0,0,1,98.28,107.61Z"/><path class="cls-18" d="M97.69,107.82c.77,2.13,0,4.39-1.83,5.08l0,0c1.12-.43,1.4-2.5.62-4.64s-2.34-3.57-3.48-3.16C94.79,104.46,96.9,105.67,97.69,107.82Z"/><path d="M96.44,108.28c.78,2.14.5,4.21-.62,4.64h0c.41-.16.12-2-.66-4.17S93.38,105,93,105.12C94.1,104.71,95.65,106.12,96.44,108.28Z"/><path class="cls-18" d="M95.15,108.75c.78,2.14,1.07,4,.66,4.17h0c-.43.11-1.4-1.5-2.18-3.63s-1.07-4-.66-4.17h0C93.38,105,94.36,106.59,95.15,108.75Z"/><polygon class="cls-21" points="95.81 112.92 95.8 112.93 95.8 112.93 95.8 112.93 95.81 112.92"/><path d="M95.8,112.93h0Z"/><path d="M95.77,112.94h0l-.06,0Z"/><path d="M95.79,112.93h0c-1.13.38-2.67-1-3.45-3.17s-.5-4.23.63-4.64c-.41.16-.12,2,.66,4.17S95.36,113,95.79,112.93Z"/><path class="cls-18" d="M95.77,112.94h0c-1.82.61-3.89-.59-4.67-2.72s0-4.38,1.81-5.08l.07,0c-1.13.41-1.41,2.49-.63,4.64S94.64,113.32,95.77,112.94Z"/><path d="M95.74,113a4.15,4.15,0,0,1-2.86-7.8c-1.77.7-2.58,3-1.81,5.08S93.92,113.56,95.74,113Z"/><path d="M93,105.13h0Z"/><path class="cls-13" d="M95.8,112.93l-.06,0a4.15,4.15,0,0,1-2.86-7.8"/><path class="cls-13" d="M93,105.12a4.15,4.15,0,0,1,2.9,7.78"/><path class="cls-13" d="M95.77,112.94h0c-1.82.61-3.89-.59-4.67-2.72s0-4.38,1.81-5.08l.07,0"/><path class="cls-13" d="M93,105.12c1.83-.66,3.94.55,4.73,2.7s0,4.39-1.83,5.08l0,0"/><path class="cls-13" d="M95.8,112.93h0c-1.13.38-2.67-1-3.45-3.17s-.5-4.23.63-4.64h0"/><path class="cls-13" d="M93,105.12c1.14-.41,2.69,1,3.48,3.16s.5,4.21-.62,4.64h0"/><path class="cls-13" d="M93,105.12c.42-.15,1.4,1.47,2.19,3.63s1.07,4,.66,4.17h0c-.43.11-1.4-1.5-2.18-3.63s-1.07-4-.66-4.17h0Z"/><path class="cls-1" d="M92.09,107.83a1.92,1.92,0,0,0-1.11-.3l-.46.13L79.22,111l6.17,10.32,8.24-8.1.49-.48a2.07,2.07,0,0,0,.22-1A4.93,4.93,0,0,0,92.09,107.83Z"/><path class="cls-15" d="M86.17,118.89c0,2.73-1.93,3.84-4.31,2.46a9.51,9.51,0,0,1-4.32-7.45c0-2.73,1.93-3.84,4.32-2.46A9.52,9.52,0,0,1,86.17,118.89Z"/><path class="cls-7" d="M84.06,119.1c0,2.19-1.55,3.07-3.46,2a7.61,7.61,0,0,1-3.46-6c0-2.19,1.55-3.07,3.46-2A7.61,7.61,0,0,1,84.06,119.1Z"/><path class="cls-1" d="M81,119.41c0,1.35-1,1.9-2.15,1.22a4.74,4.74,0,0,1-2.14-3.7c0-1.35,1-1.9,2.14-1.22A4.71,4.71,0,0,1,81,119.41Z"/><path d="M79.85,120c.59-.34.59-1.43,0-2.44s-1.53-1.56-2.12-1.23-.59,1.43,0,2.44S79.27,120.34,79.85,120Zm-2-1.28c-.54-.92-.54-1.91,0-2.22s1.39.2,1.93,1.12.53,1.91,0,2.21S78.36,119.65,77.83,118.73Z"/><path d="M79.66,119.68c.48-.28.48-1.17,0-2s-1.26-1.28-1.74-1-.48,1.16,0,2S79.18,120,79.66,119.68ZM78,118.62c-.43-.74-.43-1.53,0-1.78s1.12.16,1.54.9.43,1.53,0,1.77S78.45,119.35,78,118.62Z"/><path d="M79.47,119.34c.37-.21.37-.9,0-1.55s-1-1-1.35-.78-.38.91,0,1.55S79.09,119.56,79.47,119.34Zm-1.26-.83c-.32-.56-.32-1.15,0-1.33s.84.11,1.16.67.32,1.14,0,1.33S78.53,119.06,78.21,118.51Z"/><path d="M79.27,119c.27-.15.27-.65,0-1.11s-.69-.71-1-.56-.27.65,0,1.11S79,119.16,79.27,119Zm-.87-.61c-.21-.37-.21-.77,0-.89s.56.08.78.45.21.76,0,.88S78.62,118.76,78.4,118.4Z"/><path d="M79.08,118.68c.16-.1.16-.39,0-.67s-.42-.42-.58-.33-.16.39,0,.66S78.92,118.77,79.08,118.68Zm-.48-.39c-.11-.19-.11-.39,0-.45s.28,0,.38.23.11.38,0,.44S78.7,118.47,78.6,118.29Z"/><path d="M78.89,118.12c-.06-.09-.14-.14-.2-.11s0,.13,0,.22.14.14.2.11S78.94,118.21,78.89,118.12Z"/><path class="cls-9" d="M85.3,119.35c0,2.73-1.92,3.83-4.3,2.45a9.47,9.47,0,0,1-4.31-7.42c0-2.73,1.93-3.83,4.31-2.45A9.46,9.46,0,0,1,85.3,119.35Z"/><path class="cls-7" d="M83.19,119.56c0,2.19-1.54,3.07-3.44,2a7.58,7.58,0,0,1-3.45-6c0-2.18,1.54-3.06,3.45-2A7.6,7.6,0,0,1,83.19,119.56Z"/><path class="cls-1" d="M80.12,119.87c0,1.35-1,1.9-2.13,1.22a4.72,4.72,0,0,1-2.14-3.69c0-1.35,1-1.9,2.14-1.22A4.71,4.71,0,0,1,80.12,119.87Z"/><path d="M79,120.47c.59-.34.59-1.42,0-2.43s-1.53-1.56-2.12-1.22-.58,1.42,0,2.43S78.42,120.8,79,120.47Zm-2-1.28c-.53-.92-.53-1.91,0-2.21s1.39.2,1.93,1.11.53,1.91,0,2.21S77.51,120.11,77,119.19Z"/><path d="M78.81,120.14c.48-.28.48-1.17,0-2s-1.25-1.28-1.73-1-.48,1.16,0,2S78.33,120.41,78.81,120.14Zm-1.64-1.06c-.42-.73-.42-1.52,0-1.77s1.12.16,1.54.89.43,1.53,0,1.77S77.6,119.82,77.17,119.08Z"/><path d="M78.62,119.8c.37-.21.37-.9,0-1.54s-1-1-1.35-.78-.37.9,0,1.55S78.25,120,78.62,119.8ZM77.37,119c-.32-.55-.32-1.14,0-1.32s.83.11,1.15.66.32,1.15,0,1.33S77.69,119.52,77.37,119Z"/><path d="M78.43,119.47c.26-.15.26-.64,0-1.1s-.7-.71-1-.56-.26.65,0,1.11S78.16,119.62,78.43,119.47Zm-.87-.61c-.21-.37-.21-.76,0-.88s.56.08.77.44.21.77,0,.89S77.77,119.23,77.56,118.86Z"/><path d="M78.23,119.14c.16-.09.16-.39,0-.66s-.42-.43-.58-.34-.16.39,0,.67S78.07,119.23,78.23,119.14Zm-.48-.39c-.11-.18-.11-.38,0-.44s.28,0,.39.22.1.38,0,.44S77.86,118.94,77.75,118.75Z"/><path d="M78,118.59c-.05-.09-.14-.14-.19-.11s-.06.13,0,.22.14.14.19.11S78.09,118.68,78,118.59Z"/><path class="cls-3" d="M77.65,116.3a1.94,1.94,0,0,0-1.11-.31l-.46.14-11.69,3.4L71,129.74l8.24-8.1.49-.48a2.07,2.07,0,0,0,.22-1A4.92,4.92,0,0,0,77.65,116.3Z"/><path class="cls-1" d="M71.73,127.35c0,2.74-1.93,3.84-4.32,2.46a9.5,9.5,0,0,1-4.31-7.44c0-2.74,1.93-3.84,4.31-2.46A9.49,9.49,0,0,1,71.73,127.35Z"/><path class="cls-1" d="M69.62,127.57c0,2.19-1.55,3.07-3.46,2a7.64,7.64,0,0,1-3.46-6c0-2.19,1.55-3.07,3.46-2A7.64,7.64,0,0,1,69.62,127.57Z"/><path class="cls-1" d="M66.54,127.87c0,1.36-1,1.9-2.15,1.22a4.71,4.71,0,0,1-2.14-3.69c0-1.36,1-1.91,2.14-1.22A4.69,4.69,0,0,1,66.54,127.87Z"/><path d="M65.41,128.47c.59-.33.59-1.42,0-2.43s-1.53-1.57-2.12-1.23-.59,1.42,0,2.44S64.83,128.81,65.41,128.47Zm-2-1.28c-.53-.92-.53-1.91,0-2.21s1.4.19,1.94,1.11.53,1.91,0,2.22S63.92,128.11,63.38,127.19Z"/><path d="M65.22,128.14c.48-.27.48-1.17,0-2s-1.26-1.28-1.74-1-.48,1.17,0,2S64.74,128.41,65.22,128.14Zm-1.64-1.06c-.43-.73-.43-1.53,0-1.77s1.12.15,1.54.89.43,1.53,0,1.77S64,127.82,63.58,127.08Z"/><path d="M65,127.81c.37-.22.37-.91,0-1.55s-1-1-1.36-.78-.37.9,0,1.55S64.65,128,65,127.81ZM63.77,127c-.32-.55-.32-1.15,0-1.33s.84.12,1.16.67.32,1.15,0,1.33S64.09,127.52,63.77,127Z"/><path d="M64.83,127.47c.27-.15.27-.64,0-1.1s-.7-.71-1-.56-.27.65,0,1.11S64.57,127.63,64.83,127.47Zm-.87-.61c-.21-.37-.21-.76,0-.88s.56.07.78.44.21.77,0,.89S64.18,127.23,64,126.86Z"/><path d="M64.64,127.14c.16-.09.16-.39,0-.66s-.42-.43-.58-.34-.16.39,0,.67S64.48,127.23,64.64,127.14Zm-.48-.39c-.11-.18-.11-.38,0-.44s.28,0,.38.22.11.38,0,.44S64.26,126.94,64.16,126.75Z"/><path d="M64.45,126.59c-.06-.1-.14-.15-.2-.12s0,.13,0,.23.14.14.2.11S64.5,126.68,64.45,126.59Z"/><polygon class="cls-1" points="76.42 125.36 71.45 122.5 71.45 116.81 76.42 119.67 76.42 125.36"/><polygon class="cls-20" points="76.42 119.67 71.45 116.81 76.42 113.94 81.38 116.81 76.42 119.67"/><polygon class="cls-15" points="81.38 122.5 76.42 125.36 76.42 119.67 81.38 116.81 81.38 122.5"/><polygon class="cls-7" points="69.14 134.93 59.53 129.38 59.53 118.35 69.14 123.9 69.14 134.93"/><path class="cls-3" d="M67.8,128.67c0,2.22-1.56,3.11-3.5,2a7.68,7.68,0,0,1-3.49-6c0-2.21,1.56-3.11,3.49-2A7.67,7.67,0,0,1,67.8,128.67Z"/><path class="cls-4" d="M67.17,128.31c0,1.81-1.28,2.54-2.87,1.63A6.31,6.31,0,0,1,61.44,125c0-1.82,1.28-2.55,2.86-1.64A6.32,6.32,0,0,1,67.17,128.31Z"/><path class="cls-3" d="M66.52,127.93c0,1.41-1,2-2.22,1.27a4.9,4.9,0,0,1-2.21-3.83c0-1.4,1-2,2.21-1.26A4.86,4.86,0,0,1,66.52,127.93Z"/><polygon class="cls-8" points="69.14 123.89 59.53 118.34 69.08 112.83 78.7 118.38 69.14 123.89"/><path class="cls-22" d="M72.61,120.38a7.71,7.71,0,0,1-7,0c-1.94-1.12-2-2.92,0-4a7.73,7.73,0,0,1,7,0C74.52,117.47,74.53,119.27,72.61,120.38Z"/><path class="cls-23" d="M72.18,120.13a6.77,6.77,0,0,1-6.12,0c-1.69-1-1.7-2.56,0-3.53a6.75,6.75,0,0,1,6.11,0C73.86,117.58,73.86,119.16,72.18,120.13Z"/><polygon class="cls-9" points="78.73 129.39 69.14 134.93 69.14 123.9 78.73 118.36 78.73 129.39"/><path class="cls-24" d="M77.42,124.63a7.7,7.7,0,0,1-3.5,6c-1.93,1.12-3.5.23-3.5-2a7.7,7.7,0,0,1,3.5-6C75.85,121.52,77.42,122.42,77.42,124.63Z"/><path class="cls-1" d="M64.3,124.07a1.92,1.92,0,0,0-1.11-.3l-.46.13-11.3,3.3,6.17,10.32,8.24-8.1.49-.48a2.07,2.07,0,0,0,.22-1A4.93,4.93,0,0,0,64.3,124.07Z"/><path class="cls-15" d="M58.38,135.13c0,2.73-1.93,3.84-4.31,2.46a9.51,9.51,0,0,1-4.32-7.45c0-2.73,1.93-3.83,4.32-2.46A9.52,9.52,0,0,1,58.38,135.13Z"/><path class="cls-7" d="M56.27,135.34c0,2.19-1.55,3.07-3.46,2a7.61,7.61,0,0,1-3.46-6c0-2.19,1.55-3.07,3.46-2A7.61,7.61,0,0,1,56.27,135.34Z"/><path class="cls-1" d="M53.19,135.65c0,1.35-1,1.9-2.15,1.22a4.73,4.73,0,0,1-2.14-3.7c0-1.35,1-1.9,2.14-1.22A4.73,4.73,0,0,1,53.19,135.65Z"/><path d="M52.06,136.25c.59-.34.59-1.43,0-2.44s-1.53-1.56-2.12-1.22-.59,1.42,0,2.43S51.48,136.58,52.06,136.25ZM50,135c-.54-.92-.54-1.91,0-2.22s1.39.2,1.93,1.12.53,1.91,0,2.21S50.57,135.89,50,135Z"/><path d="M51.87,135.92c.48-.28.48-1.17,0-2s-1.26-1.28-1.74-1-.48,1.16,0,2S51.39,136.19,51.87,135.92Zm-1.64-1.06c-.43-.74-.43-1.53,0-1.77s1.12.15,1.54.89.43,1.53,0,1.77S50.66,135.59,50.23,134.86Z"/><path d="M51.68,135.58c.37-.21.37-.9,0-1.55s-1-1-1.36-.78-.37.91,0,1.55S51.3,135.8,51.68,135.58Zm-1.26-.83c-.32-.55-.32-1.15,0-1.33s.84.12,1.16.67.32,1.14,0,1.33S50.74,135.3,50.42,134.75Z"/><path d="M51.48,135.25c.27-.15.27-.65,0-1.11s-.7-.71-1-.56-.27.65,0,1.11S51.22,135.4,51.48,135.25Zm-.87-.61c-.21-.37-.21-.77,0-.89s.56.08.78.45.21.76,0,.88S50.83,135,50.61,134.64Z"/><path d="M51.29,134.92c.16-.09.16-.39,0-.67s-.42-.42-.58-.33-.16.39,0,.66S51.13,135,51.29,134.92Zm-.48-.39c-.11-.19-.11-.38,0-.45s.28,0,.38.23.11.38,0,.44S50.91,134.71,50.81,134.53Z"/><path d="M51.1,134.36c-.06-.09-.14-.14-.2-.11s0,.13,0,.22.14.14.2.11S51.15,134.45,51.1,134.36Z"/><path class="cls-7" d="M71.19,117.78,69,113.7l-2.18,4c-.38.51-.21,1.11.51,1.52a3.69,3.69,0,0,0,3.36,0C71.34,118.85,71.52,118.27,71.19,117.78Z"/><path class="cls-25" d="M77.42,124.62a7,7,0,0,1-1,3.43h0l-2.46-1.41,2.46-4.26h0A2.44,2.44,0,0,1,77.42,124.62Z"/><path class="cls-12" d="M76.38,128.05h0a7,7,0,0,1-2.47,2.6,2.49,2.49,0,0,1-2.48.26h0l2.47-4.26Z"/><path class="cls-18" d="M76.39,122.37h0l-2.46,4.26-2.47-1.41h0a7.12,7.12,0,0,1,2.47-2.6A2.49,2.49,0,0,1,76.39,122.37Z"/><path class="cls-17" d="M73.92,126.64l-2.47,4.26h0a2.45,2.45,0,0,1-1-2.25,7,7,0,0,1,1-3.43h0Z"/><path class="cls-13" d="M76.39,122.37a2.44,2.44,0,0,1,1,2.25,7.73,7.73,0,0,1-3.5,6,2.49,2.49,0,0,1-2.48.26,2.45,2.45,0,0,1-1-2.25,7,7,0,0,1,1-3.43,7.12,7.12,0,0,1,2.47-2.6A2.49,2.49,0,0,1,76.39,122.37Z"/><polyline class="cls-13" points="76.39 128.05 73.92 126.64 71.45 125.23"/><polyline class="cls-13" points="76.39 122.38 73.92 126.64 71.45 130.9"/><path class="cls-9" d="M66.36,128.83l-8,5.52,8-7.47-9.07,4.31,8.11-6.09-10,3.63,8.5-4.8-11,3.27,7.25-2.55,3-.88a3.32,3.32,0,0,1,2.87,2.29C67,128.35,66.36,128.83,66.36,128.83Z"/><path class="cls-4" d="M51.59,136.71a1,1,0,0,0,.59-1.08,3.51,3.51,0,0,0-1.58-2.73,1,1,0,0,0-1.24,0c-.09,0-12.16,7-12.23,7.06a1,1,0,0,0-.6,1.08,3.49,3.49,0,0,0,1.59,2.73,1,1,0,0,0,1.24,0C39.45,143.74,51.52,136.77,51.59,136.71Z"/><path class="cls-9" d="M39.45,143c0,1-.71,1.41-1.58.9a3.48,3.48,0,0,1-1.59-2.73c0-1,.71-1.41,1.59-.9A3.49,3.49,0,0,1,39.45,143Z"/><polygon class="cls-1" points="32.95 140.39 33.4 140.13 33.4 140.62 32.95 140.88 32.95 140.39"/><polygon class="cls-9" points="33.4 140.13 33.84 139.87 33.84 140.36 33.4 140.62 33.4 140.13"/><polygon class="cls-9" points="32.95 140.88 33.4 140.62 33.4 141.11 32.95 141.37 32.95 140.88"/><polygon class="cls-1" points="33.4 140.62 33.84 140.36 33.84 140.85 33.4 141.11 33.4 140.62"/><polygon class="cls-1" points="32.95 141.37 33.4 141.11 33.4 141.6 32.95 141.86 32.95 141.37"/><polygon class="cls-9" points="33.4 141.11 33.84 140.85 33.84 141.34 33.4 141.6 33.4 141.11"/><polygon class="cls-9" points="32.95 141.86 33.4 141.6 33.4 142.09 32.95 142.35 32.95 141.86"/><polygon class="cls-1" points="33.4 141.6 33.84 141.34 33.84 141.83 33.4 142.09 33.4 141.6"/><polygon class="cls-1" points="32.95 142.35 33.4 142.09 33.4 142.58 32.95 142.84 32.95 142.35"/><polygon class="cls-9" points="33.4 142.09 33.84 141.83 33.84 142.32 33.4 142.58 33.4 142.09"/><polygon class="cls-9" points="32.95 142.84 33.4 142.58 33.4 143.07 32.95 143.33 32.95 142.84"/><polygon class="cls-1" points="33.4 142.58 33.84 142.32 33.84 142.81 33.4 143.07 33.4 142.58"/><polygon class="cls-1" points="32.95 143.33 33.4 143.07 33.4 143.56 32.95 143.82 32.95 143.33"/><polygon class="cls-9" points="33.4 143.07 33.84 142.81 33.84 143.3 33.4 143.56 33.4 143.07"/><polygon class="cls-1" points="33.84 139.87 34.29 139.61 34.29 140.1 33.84 140.36 33.84 139.87"/><polygon class="cls-9" points="34.29 139.61 34.74 139.35 34.74 139.84 34.29 140.1 34.29 139.61"/><polygon class="cls-9" points="33.84 140.36 34.29 140.1 34.29 140.59 33.84 140.85 33.84 140.36"/><polygon class="cls-1" points="34.29 140.1 34.74 139.84 34.74 140.33 34.29 140.59 34.29 140.1"/><polygon class="cls-1" points="33.84 140.85 34.29 140.59 34.29 141.08 33.84 141.34 33.84 140.85"/><polygon class="cls-9" points="34.29 140.59 34.74 140.33 34.74 140.82 34.29 141.08 34.29 140.59"/><polygon class="cls-9" points="33.84 141.34 34.29 141.08 34.29 141.57 33.84 141.83 33.84 141.34"/><polygon class="cls-1" points="34.29 141.08 34.74 140.82 34.74 141.31 34.29 141.57 34.29 141.08"/><polygon class="cls-1" points="33.84 141.83 34.29 141.57 34.29 142.06 33.84 142.32 33.84 141.83"/><polygon class="cls-9" points="34.29 141.57 34.74 141.31 34.74 141.8 34.29 142.06 34.29 141.57"/><polygon class="cls-9" points="33.84 142.32 34.29 142.06 34.29 142.55 33.84 142.81 33.84 142.32"/><polygon class="cls-1" points="34.29 142.06 34.74 141.8 34.74 142.29 34.29 142.55 34.29 142.06"/><polygon class="cls-1" points="33.84 142.81 34.29 142.55 34.29 143.04 33.84 143.3 33.84 142.81"/><polygon class="cls-9" points="34.29 142.55 34.74 142.29 34.74 142.78 34.29 143.04 34.29 142.55"/><polygon class="cls-1" points="34.74 139.35 35.19 139.09 35.19 139.59 34.74 139.84 34.74 139.35"/><polygon class="cls-9" points="35.19 139.09 35.64 138.84 35.64 139.33 35.19 139.59 35.19 139.09"/><polygon class="cls-9" points="34.74 139.84 35.19 139.59 35.19 140.07 34.74 140.33 34.74 139.84"/><polygon class="cls-1" points="35.19 139.59 35.64 139.33 35.64 139.82 35.19 140.07 35.19 139.59"/><polygon class="cls-1" points="34.74 140.33 35.19 140.07 35.19 140.56 34.74 140.82 34.74 140.33"/><polygon class="cls-9" points="35.19 140.07 35.64 139.82 35.64 140.31 35.19 140.56 35.19 140.07"/><polygon class="cls-9" points="34.74 140.82 35.19 140.56 35.19 141.06 34.74 141.31 34.74 140.82"/><polygon class="cls-1" points="35.19 140.56 35.64 140.31 35.64 140.8 35.19 141.06 35.19 140.56"/><polygon class="cls-1" points="34.74 141.31 35.19 141.06 35.19 141.54 34.74 141.8 34.74 141.31"/><polygon class="cls-9" points="35.19 141.06 35.64 140.8 35.64 141.29 35.19 141.54 35.19 141.06"/><polygon class="cls-9" points="34.74 141.8 35.19 141.54 35.19 142.03 34.74 142.29 34.74 141.8"/><polygon class="cls-1" points="35.19 141.54 35.64 141.29 35.64 141.78 35.19 142.03 35.19 141.54"/><polygon class="cls-1" points="34.74 142.29 35.19 142.03 35.19 142.53 34.74 142.78 34.74 142.29"/><polygon class="cls-9" points="35.19 142.03 35.64 141.78 35.64 142.27 35.19 142.53 35.19 142.03"/><polygon class="cls-1" points="35.64 138.84 36.09 138.58 36.09 139.07 35.64 139.33 35.64 138.84"/><polygon class="cls-9" points="35.64 139.33 36.09 139.07 36.09 139.56 35.64 139.82 35.64 139.33"/><polygon class="cls-1" points="35.64 139.82 36.09 139.56 36.09 140.05 35.64 140.31 35.64 139.82"/><polygon class="cls-9" points="35.64 140.31 36.09 140.05 36.09 140.54 35.64 140.8 35.64 140.31"/><polygon class="cls-1" points="35.64 140.8 36.09 140.54 36.09 141.03 35.64 141.29 35.64 140.8"/><polygon class="cls-9" points="35.64 141.29 36.09 141.03 36.09 141.52 35.64 141.78 35.64 141.29"/><polygon class="cls-1" points="35.64 141.78 36.09 141.52 36.09 142.01 35.64 142.27 35.64 141.78"/><polygon class="cls-1" points="32.94 140.38 33.38 140.64 33.38 141.13 32.94 140.87 32.94 140.38"/><polygon class="cls-9" points="33.38 140.64 33.83 140.9 33.83 141.39 33.38 141.13 33.38 140.64"/><polygon class="cls-9" points="32.94 140.87 33.38 141.13 33.38 141.62 32.94 141.36 32.94 140.87"/><polygon class="cls-1" points="33.38 141.13 33.83 141.39 33.83 141.88 33.38 141.62 33.38 141.13"/><polygon class="cls-1" points="32.94 141.36 33.38 141.62 33.38 142.11 32.94 141.85 32.94 141.36"/><polygon class="cls-9" points="33.38 141.62 33.83 141.88 33.83 142.37 33.38 142.11 33.38 141.62"/><polygon class="cls-9" points="32.94 141.85 33.38 142.11 33.38 142.6 32.94 142.34 32.94 141.85"/><polygon class="cls-1" points="33.38 142.11 33.83 142.37 33.83 142.86 33.38 142.6 33.38 142.11"/><polygon class="cls-1" points="32.94 142.34 33.38 142.6 33.38 143.09 32.94 142.83 32.94 142.34"/><polygon class="cls-9" points="33.38 142.6 33.83 142.86 33.83 143.35 33.38 143.09 33.38 142.6"/><polygon class="cls-9" points="32.94 142.83 33.38 143.09 33.38 143.58 32.94 143.32 32.94 142.83"/><polygon class="cls-1" points="33.38 143.09 33.83 143.35 33.83 143.84 33.38 143.58 33.38 143.09"/><polygon class="cls-1" points="32.94 143.32 33.38 143.58 33.38 144.07 32.94 143.81 32.94 143.32"/><polygon class="cls-9" points="33.38 143.58 33.83 143.84 33.83 144.33 33.38 144.07 33.38 143.58"/><polygon class="cls-1" points="33.83 140.9 34.28 141.16 34.28 141.65 33.83 141.39 33.83 140.9"/><polygon class="cls-9" points="34.28 141.16 34.73 141.42 34.73 141.91 34.28 141.65 34.28 141.16"/><polygon class="cls-9" points="33.83 141.39 34.28 141.65 34.28 142.14 33.83 141.88 33.83 141.39"/><polygon class="cls-1" points="34.28 141.65 34.73 141.91 34.73 142.4 34.28 142.14 34.28 141.65"/><polygon class="cls-1" points="33.83 141.88 34.28 142.14 34.28 142.63 33.83 142.37 33.83 141.88"/><polygon class="cls-9" points="34.28 142.14 34.73 142.4 34.73 142.89 34.28 142.63 34.28 142.14"/><polygon class="cls-9" points="33.83 142.37 34.28 142.63 34.28 143.12 33.83 142.86 33.83 142.37"/><polygon class="cls-1" points="34.28 142.63 34.73 142.89 34.73 143.38 34.28 143.12 34.28 142.63"/><polygon class="cls-1" points="33.83 142.86 34.28 143.12 34.28 143.61 33.83 143.35 33.83 142.86"/><polygon class="cls-9" points="34.28 143.12 34.73 143.38 34.73 143.87 34.28 143.61 34.28 143.12"/><polygon class="cls-9" points="33.83 143.35 34.28 143.61 34.28 144.1 33.83 143.84 33.83 143.35"/><polygon class="cls-1" points="34.28 143.61 34.73 143.87 34.73 144.36 34.28 144.1 34.28 143.61"/><polygon class="cls-1" points="33.83 143.84 34.28 144.1 34.28 144.59 33.83 144.33 33.83 143.84"/><polygon class="cls-9" points="34.28 144.1 34.73 144.36 34.73 144.85 34.28 144.59 34.28 144.1"/><polygon class="cls-1" points="34.73 141.42 35.18 141.68 35.18 142.17 34.73 141.91 34.73 141.42"/><polygon class="cls-9" points="35.18 141.68 35.63 141.93 35.63 142.42 35.18 142.17 35.18 141.68"/><polygon class="cls-9" points="34.73 141.91 35.18 142.17 35.18 142.66 34.73 142.4 34.73 141.91"/><polygon class="cls-1" points="35.18 142.17 35.63 142.42 35.63 142.91 35.18 142.66 35.18 142.17"/><polygon class="cls-1" points="34.73 142.4 35.18 142.66 35.18 143.15 34.73 142.89 34.73 142.4"/><polygon class="cls-9" points="35.18 142.66 35.63 142.91 35.63 143.4 35.18 143.15 35.18 142.66"/><polygon class="cls-9" points="34.73 142.89 35.18 143.15 35.18 143.64 34.73 143.38 34.73 142.89"/><polygon class="cls-1" points="35.18 143.15 35.63 143.4 35.63 143.89 35.18 143.64 35.18 143.15"/><polygon class="cls-1" points="34.73 143.38 35.18 143.64 35.18 144.13 34.73 143.87 34.73 143.38"/><polygon class="cls-9" points="35.18 143.64 35.63 143.89 35.63 144.38 35.18 144.13 35.18 143.64"/><polygon class="cls-9" points="34.73 143.87 35.18 144.13 35.18 144.62 34.73 144.36 34.73 143.87"/><polygon class="cls-1" points="35.18 144.13 35.63 144.38 35.63 144.87 35.18 144.62 35.18 144.13"/><polygon class="cls-1" points="34.73 144.36 35.18 144.62 35.18 145.11 34.73 144.85 34.73 144.36"/><polygon class="cls-9" points="35.18 144.62 35.63 144.87 35.63 145.36 35.18 145.11 35.18 144.62"/><polygon class="cls-1" points="35.63 141.93 36.07 142.19 36.07 142.68 35.63 142.42 35.63 141.93"/><polygon class="cls-9" points="36.07 142.19 36.52 142.45 36.52 142.94 36.07 142.68 36.07 142.19"/><polygon class="cls-9" points="35.63 142.42 36.07 142.68 36.07 143.17 35.63 142.91 35.63 142.42"/><polygon class="cls-1" points="36.07 142.68 36.52 142.94 36.52 143.43 36.07 143.17 36.07 142.68"/><polygon class="cls-1" points="35.63 142.91 36.07 143.17 36.07 143.66 35.63 143.4 35.63 142.91"/><polygon class="cls-9" points="36.07 143.17 36.52 143.43 36.52 143.92 36.07 143.66 36.07 143.17"/><polygon class="cls-9" points="35.63 143.4 36.07 143.66 36.07 144.15 35.63 143.89 35.63 143.4"/><polygon class="cls-1" points="36.07 143.66 36.52 143.92 36.52 144.41 36.07 144.15 36.07 143.66"/><polygon class="cls-1" points="35.63 143.89 36.07 144.15 36.07 144.64 35.63 144.38 35.63 143.89"/><polygon class="cls-9" points="36.07 144.15 36.52 144.41 36.52 144.9 36.07 144.64 36.07 144.15"/><polygon class="cls-9" points="35.63 144.38 36.07 144.64 36.07 145.13 35.63 144.87 35.63 144.38"/><polygon class="cls-1" points="36.07 144.64 36.52 144.9 36.52 145.39 36.07 145.13 36.07 144.64"/><polygon class="cls-1" points="35.63 144.87 36.07 145.13 36.07 145.62 35.63 145.36 35.63 144.87"/><polygon class="cls-9" points="36.07 145.13 36.52 145.39 36.52 145.88 36.07 145.62 36.07 145.13"/><polygon class="cls-1" points="36.52 142.45 36.97 142.71 36.97 143.2 36.52 142.94 36.52 142.45"/><polygon class="cls-9" points="36.97 142.71 37.42 142.97 37.42 143.46 36.97 143.2 36.97 142.71"/><polygon class="cls-9" points="36.52 142.94 36.97 143.2 36.97 143.69 36.52 143.43 36.52 142.94"/><polygon class="cls-1" points="36.97 143.2 37.42 143.46 37.42 143.95 36.97 143.69 36.97 143.2"/><polygon class="cls-1" points="36.52 143.43 36.97 143.69 36.97 144.18 36.52 143.92 36.52 143.43"/><polygon class="cls-9" points="36.97 143.69 37.42 143.95 37.42 144.44 36.97 144.18 36.97 143.69"/><polygon class="cls-9" points="36.52 143.92 36.97 144.18 36.97 144.67 36.52 144.41 36.52 143.92"/><polygon class="cls-1" points="36.97 144.18 37.42 144.44 37.42 144.93 36.97 144.67 36.97 144.18"/><polygon class="cls-1" points="36.52 144.41 36.97 144.67 36.97 145.16 36.52 144.9 36.52 144.41"/><polygon class="cls-9" points="36.97 144.67 37.42 144.93 37.42 145.42 36.97 145.16 36.97 144.67"/><polygon class="cls-9" points="36.52 144.9 36.97 145.16 36.97 145.65 36.52 145.39 36.52 144.9"/><polygon class="cls-1" points="36.97 145.16 37.42 145.42 37.42 145.91 36.97 145.65 36.97 145.16"/><polygon class="cls-1" points="36.52 145.39 36.97 145.65 36.97 146.14 36.52 145.88 36.52 145.39"/><polygon class="cls-9" points="36.97 145.65 37.42 145.91 37.42 146.4 36.97 146.14 36.97 145.65"/><polygon class="cls-1" points="37.42 142.97 37.87 143.23 37.87 143.72 37.42 143.46 37.42 142.97"/><polygon class="cls-9" points="37.87 143.23 38.31 143.49 38.31 143.98 37.87 143.72 37.87 143.23"/><polygon class="cls-9" points="37.42 143.46 37.87 143.72 37.87 144.21 37.42 143.95 37.42 143.46"/><polygon class="cls-1" points="37.87 143.72 38.31 143.98 38.31 144.47 37.87 144.21 37.87 143.72"/><polygon class="cls-1" points="37.42 143.95 37.87 144.21 37.87 144.7 37.42 144.44 37.42 143.95"/><polygon class="cls-9" points="37.87 144.21 38.31 144.47 38.31 144.96 37.87 144.7 37.87 144.21"/><polygon class="cls-9" points="37.42 144.44 37.87 144.7 37.87 145.19 37.42 144.93 37.42 144.44"/><polygon class="cls-1" points="37.87 144.7 38.31 144.96 38.31 145.45 37.87 145.19 37.87 144.7"/><polygon class="cls-1" points="37.42 144.93 37.87 145.19 37.87 145.68 37.42 145.42 37.42 144.93"/><polygon class="cls-9" points="37.87 145.19 38.31 145.45 38.31 145.94 37.87 145.68 37.87 145.19"/><polygon class="cls-9" points="37.42 145.42 37.87 145.68 37.87 146.17 37.42 145.91 37.42 145.42"/><polygon class="cls-1" points="37.87 145.68 38.31 145.94 38.31 146.43 37.87 146.17 37.87 145.68"/><polygon class="cls-1" points="37.42 145.91 37.87 146.17 37.87 146.66 37.42 146.4 37.42 145.91"/><polygon class="cls-9" points="37.87 146.17 38.31 146.43 38.31 146.92 37.87 146.66 37.87 146.17"/><polygon class="cls-1" points="35.92 138.68 36.37 138.93 35.94 139.18 35.49 138.92 35.92 138.68"/><polygon class="cls-9" points="36.37 138.93 36.81 139.19 36.39 139.44 35.94 139.18 36.37 138.93"/><polygon class="cls-9" points="35.49 138.92 35.94 139.18 35.52 139.42 35.07 139.17 35.49 138.92"/><polygon class="cls-1" points="35.94 139.18 36.39 139.44 35.97 139.68 35.52 139.42 35.94 139.18"/><polygon class="cls-1" points="35.07 139.17 35.52 139.42 35.09 139.67 34.65 139.41 35.07 139.17"/><polygon class="cls-9" points="35.52 139.42 35.97 139.68 35.54 139.93 35.09 139.67 35.52 139.42"/><polygon class="cls-9" points="34.65 139.41 35.09 139.67 34.67 139.91 34.22 139.66 34.65 139.41"/><polygon class="cls-1" points="35.09 139.67 35.54 139.93 35.12 140.17 34.67 139.91 35.09 139.67"/><polygon class="cls-1" points="34.22 139.66 34.67 139.91 34.24 140.16 33.8 139.9 34.22 139.66"/><polygon class="cls-9" points="34.67 139.91 35.12 140.17 34.69 140.42 34.24 140.16 34.67 139.91"/><polygon class="cls-9" points="33.8 139.9 34.24 140.16 33.82 140.4 33.37 140.15 33.8 139.9"/><polygon class="cls-1" points="34.24 140.16 34.69 140.42 34.27 140.66 33.82 140.4 34.24 140.16"/><polygon class="cls-1" points="33.37 140.15 33.82 140.4 33.4 140.65 32.95 140.39 33.37 140.15"/><polygon class="cls-9" points="33.82 140.4 34.27 140.66 33.84 140.91 33.4 140.65 33.82 140.4"/><polygon class="cls-1" points="36.81 139.19 37.26 139.45 36.84 139.7 36.39 139.44 36.81 139.19"/><polygon class="cls-9" points="37.26 139.45 37.71 139.71 37.29 139.96 36.84 139.7 37.26 139.45"/><polygon class="cls-9" points="36.39 139.44 36.84 139.7 36.41 139.94 35.97 139.68 36.39 139.44"/><polygon class="cls-1" points="36.84 139.7 37.29 139.96 36.86 140.2 36.41 139.94 36.84 139.7"/><polygon class="cls-1" points="35.97 139.68 36.41 139.94 35.99 140.19 35.54 139.93 35.97 139.68"/><polygon class="cls-9" points="36.41 139.94 36.86 140.2 36.44 140.45 35.99 140.19 36.41 139.94"/><polygon class="cls-9" points="35.54 139.93 35.99 140.19 35.57 140.43 35.12 140.17 35.54 139.93"/><polygon class="cls-1" points="35.99 140.19 36.44 140.45 36.01 140.69 35.57 140.43 35.99 140.19"/><polygon class="cls-1" points="35.12 140.17 35.57 140.43 35.14 140.68 34.69 140.42 35.12 140.17"/><polygon class="cls-9" points="35.57 140.43 36.01 140.69 35.59 140.94 35.14 140.68 35.57 140.43"/><polygon class="cls-9" points="34.69 140.42 35.14 140.68 34.72 140.92 34.27 140.66 34.69 140.42"/><polygon class="cls-1" points="35.14 140.68 35.59 140.94 35.16 141.18 34.72 140.92 35.14 140.68"/><polygon class="cls-1" points="34.27 140.66 34.72 140.92 34.29 141.17 33.84 140.91 34.27 140.66"/><polygon class="cls-9" points="34.72 140.92 35.16 141.18 34.74 141.43 34.29 141.17 34.72 140.92"/><polygon class="cls-1" points="37.71 139.71 38.16 139.97 37.74 140.22 37.29 139.96 37.71 139.71"/><polygon class="cls-9" points="38.16 139.97 38.61 140.23 38.18 140.47 37.74 140.22 38.16 139.97"/><polygon class="cls-9" points="37.29 139.96 37.74 140.22 37.31 140.46 36.86 140.2 37.29 139.96"/><polygon class="cls-1" points="37.74 140.22 38.18 140.47 37.76 140.72 37.31 140.46 37.74 140.22"/><polygon class="cls-1" points="36.86 140.2 37.31 140.46 36.89 140.71 36.44 140.45 36.86 140.2"/><polygon class="cls-9" points="37.31 140.46 37.76 140.72 37.34 140.96 36.89 140.71 37.31 140.46"/><polygon class="cls-9" points="36.44 140.45 36.89 140.71 36.46 140.95 36.01 140.69 36.44 140.45"/><polygon class="cls-1" points="36.89 140.71 37.34 140.96 36.91 141.21 36.46 140.95 36.89 140.71"/><polygon class="cls-1" points="36.01 140.69 36.46 140.95 36.04 141.19 35.59 140.94 36.01 140.69"/><polygon class="cls-9" points="36.46 140.95 36.91 141.21 36.49 141.45 36.04 141.19 36.46 140.95"/><polygon class="cls-9" points="35.59 140.94 36.04 141.19 35.61 141.44 35.16 141.18 35.59 140.94"/><polygon class="cls-1" points="36.04 141.19 36.49 141.45 36.06 141.7 35.61 141.44 36.04 141.19"/><polygon class="cls-1" points="35.16 141.18 35.61 141.44 35.19 141.69 34.74 141.43 35.16 141.18"/><polygon class="cls-9" points="35.61 141.44 36.06 141.7 35.64 141.94 35.19 141.69 35.61 141.44"/><polygon class="cls-1" points="38.61 140.23 39.06 140.49 38.63 140.73 38.18 140.47 38.61 140.23"/><polygon class="cls-9" points="39.06 140.49 39.51 140.75 39.08 140.99 38.63 140.73 39.06 140.49"/><polygon class="cls-9" points="38.18 140.47 38.63 140.73 38.21 140.98 37.76 140.72 38.18 140.47"/><polygon class="cls-1" points="38.63 140.73 39.08 140.99 38.66 141.24 38.21 140.98 38.63 140.73"/><polygon class="cls-1" points="37.76 140.72 38.21 140.98 37.78 141.22 37.34 140.96 37.76 140.72"/><polygon class="cls-9" points="38.21 140.98 38.66 141.24 38.23 141.48 37.78 141.22 38.21 140.98"/><polygon class="cls-9" points="37.34 140.96 37.78 141.22 37.36 141.47 36.91 141.21 37.34 140.96"/><polygon class="cls-1" points="37.78 141.22 38.23 141.48 37.81 141.73 37.36 141.47 37.78 141.22"/><polygon class="cls-1" points="36.91 141.21 37.36 141.47 36.93 141.71 36.49 141.45 36.91 141.21"/><polygon class="cls-9" points="37.36 141.47 37.81 141.73 37.38 141.97 36.93 141.71 37.36 141.47"/><polygon class="cls-9" points="36.49 141.45 36.93 141.71 36.51 141.96 36.06 141.7 36.49 141.45"/><polygon class="cls-1" points="36.93 141.71 37.38 141.97 36.96 142.22 36.51 141.96 36.93 141.71"/><polygon class="cls-1" points="36.06 141.7 36.51 141.96 36.09 142.2 35.64 141.94 36.06 141.7"/><polygon class="cls-9" points="36.51 141.96 36.96 142.22 36.53 142.46 36.09 142.2 36.51 141.96"/><polygon class="cls-1" points="39.51 140.75 39.95 141 39.53 141.25 39.08 140.99 39.51 140.75"/><polygon class="cls-9" points="39.95 141 40.4 141.26 39.98 141.51 39.53 141.25 39.95 141"/><polygon class="cls-9" points="39.08 140.99 39.53 141.25 39.1 141.5 38.66 141.24 39.08 140.99"/><polygon class="cls-1" points="39.53 141.25 39.98 141.51 39.55 141.75 39.1 141.5 39.53 141.25"/><polygon class="cls-1" points="38.66 141.24 39.1 141.5 38.68 141.74 38.23 141.48 38.66 141.24"/><polygon class="cls-9" points="39.1 141.5 39.55 141.75 39.13 142 38.68 141.74 39.1 141.5"/><polygon class="cls-9" points="38.23 141.48 38.68 141.74 38.26 141.99 37.81 141.73 38.23 141.48"/><polygon class="cls-1" points="38.68 141.74 39.13 142 38.7 142.24 38.26 141.99 38.68 141.74"/><polygon class="cls-1" points="37.81 141.73 38.26 141.99 37.83 142.23 37.38 141.97 37.81 141.73"/><polygon class="cls-9" points="38.26 141.99 38.7 142.24 38.28 142.49 37.83 142.23 38.26 141.99"/><polygon class="cls-9" points="37.38 141.97 37.83 142.23 37.41 142.47 36.96 142.22 37.38 141.97"/><polygon class="cls-1" points="37.83 142.23 38.28 142.49 37.85 142.73 37.41 142.47 37.83 142.23"/><polygon class="cls-1" points="36.96 142.22 37.41 142.47 36.98 142.72 36.53 142.46 36.96 142.22"/><polygon class="cls-9" points="37.41 142.47 37.85 142.73 37.43 142.98 36.98 142.72 37.41 142.47"/><polygon class="cls-1" points="40.4 141.26 40.85 141.52 40.42 141.77 39.98 141.51 40.4 141.26"/><polygon class="cls-9" points="40.85 141.52 41.3 141.78 40.87 142.03 40.42 141.77 40.85 141.52"/><polygon class="cls-9" points="39.98 141.51 40.42 141.77 40 142.01 39.55 141.75 39.98 141.51"/><polygon class="cls-1" points="40.42 141.77 40.87 142.03 40.45 142.27 40 142.01 40.42 141.77"/><polygon class="cls-1" points="39.55 141.75 40 142.01 39.58 142.26 39.13 142 39.55 141.75"/><polygon class="cls-9" points="40 142.01 40.45 142.27 40.02 142.52 39.58 142.26 40 142.01"/><polygon class="cls-9" points="39.13 142 39.58 142.26 39.15 142.5 38.7 142.24 39.13 142"/><polygon class="cls-1" points="39.58 142.26 40.02 142.52 39.6 142.76 39.15 142.5 39.58 142.26"/><polygon class="cls-1" points="38.7 142.24 39.15 142.5 38.73 142.75 38.28 142.49 38.7 142.24"/><polygon class="cls-9" points="39.15 142.5 39.6 142.76 39.18 143.01 38.73 142.75 39.15 142.5"/><polygon class="cls-9" points="38.28 142.49 38.73 142.75 38.3 142.99 37.85 142.73 38.28 142.49"/><polygon class="cls-1" points="38.73 142.75 39.18 143.01 38.75 143.25 38.3 142.99 38.73 142.75"/><polygon class="cls-1" points="37.85 142.73 38.3 142.99 37.88 143.24 37.43 142.98 37.85 142.73"/><polygon class="cls-9" points="38.3 142.99 38.75 143.25 38.33 143.5 37.88 143.24 38.3 142.99"/><polygon class="cls-1" points="38.31 143.5 38.76 143.24 38.76 143.73 38.31 143.99 38.31 143.5"/><polygon class="cls-9" points="38.76 143.24 39.21 142.98 39.21 143.47 38.76 143.73 38.76 143.24"/><polygon class="cls-9" points="38.31 143.99 38.76 143.73 38.76 144.22 38.31 144.48 38.31 143.99"/><polygon class="cls-1" points="38.76 143.73 39.21 143.47 39.21 143.96 38.76 144.22 38.76 143.73"/><polygon class="cls-1" points="38.31 144.48 38.76 144.22 38.76 144.71 38.31 144.97 38.31 144.48"/><polygon class="cls-9" points="38.76 144.22 39.21 143.96 39.21 144.45 38.76 144.71 38.76 144.22"/><polygon class="cls-9" points="38.31 144.97 38.76 144.71 38.76 145.2 38.31 145.46 38.31 144.97"/><polygon class="cls-1" points="38.76 144.71 39.21 144.45 39.21 144.94 38.76 145.2 38.76 144.71"/><polygon class="cls-1" points="38.31 145.46 38.76 145.2 38.76 145.69 38.31 145.95 38.31 145.46"/><polygon class="cls-9" points="38.76 145.2 39.21 144.94 39.21 145.43 38.76 145.69 38.76 145.2"/><polygon class="cls-9" points="38.31 145.95 38.76 145.69 38.76 146.18 38.31 146.44 38.31 145.95"/><polygon class="cls-1" points="38.76 145.69 39.21 145.43 39.21 145.92 38.76 146.18 38.76 145.69"/><polygon class="cls-1" points="38.31 146.44 38.76 146.18 38.76 146.67 38.31 146.93 38.31 146.44"/><polygon class="cls-9" points="38.76 146.18 39.21 145.92 39.21 146.41 38.76 146.67 38.76 146.18"/><polygon class="cls-1" points="39.21 142.98 39.66 142.72 39.66 143.21 39.21 143.47 39.21 142.98"/><polygon class="cls-9" points="39.66 142.72 40.11 142.47 40.11 142.96 39.66 143.21 39.66 142.72"/><polygon class="cls-9" points="39.21 143.47 39.66 143.21 39.66 143.7 39.21 143.96 39.21 143.47"/><polygon class="cls-1" points="39.66 143.21 40.11 142.96 40.11 143.45 39.66 143.7 39.66 143.21"/><polygon class="cls-1" points="39.21 143.96 39.66 143.7 39.66 144.19 39.21 144.45 39.21 143.96"/><polygon class="cls-9" points="39.66 143.7 40.11 143.45 40.11 143.94 39.66 144.19 39.66 143.7"/><polygon class="cls-9" points="39.21 144.45 39.66 144.19 39.66 144.68 39.21 144.94 39.21 144.45"/><polygon class="cls-1" points="39.66 144.19 40.11 143.94 40.11 144.43 39.66 144.68 39.66 144.19"/><polygon class="cls-1" points="39.21 144.94 39.66 144.68 39.66 145.17 39.21 145.43 39.21 144.94"/><polygon class="cls-9" points="39.66 144.68 40.11 144.43 40.11 144.92 39.66 145.17 39.66 144.68"/><polygon class="cls-9" points="39.21 145.43 39.66 145.17 39.66 145.66 39.21 145.92 39.21 145.43"/><polygon class="cls-1" points="39.66 145.17 40.11 144.92 40.11 145.41 39.66 145.66 39.66 145.17"/><polygon class="cls-1" points="39.21 145.92 39.66 145.66 39.66 146.15 39.21 146.41 39.21 145.92"/><polygon class="cls-9" points="39.66 145.66 40.11 145.41 40.11 145.9 39.66 146.15 39.66 145.66"/><polygon class="cls-1" points="40.11 142.47 40.56 142.21 40.56 142.7 40.11 142.96 40.11 142.47"/><polygon class="cls-9" points="40.56 142.21 41.01 141.95 41.01 142.44 40.56 142.7 40.56 142.21"/><polygon class="cls-9" points="40.11 142.96 40.56 142.7 40.56 143.19 40.11 143.45 40.11 142.96"/><polygon class="cls-1" points="40.56 142.7 41.01 142.44 41.01 142.93 40.56 143.19 40.56 142.7"/><polygon class="cls-1" points="40.11 143.45 40.56 143.19 40.56 143.68 40.11 143.94 40.11 143.45"/><polygon class="cls-9" points="40.56 143.19 41.01 142.93 41.01 143.42 40.56 143.68 40.56 143.19"/><polygon class="cls-9" points="40.11 143.94 40.56 143.68 40.56 144.17 40.11 144.43 40.11 143.94"/><polygon class="cls-1" points="40.56 143.68 41.01 143.42 41.01 143.91 40.56 144.17 40.56 143.68"/><polygon class="cls-1" points="40.11 144.43 40.56 144.17 40.56 144.66 40.11 144.92 40.11 144.43"/><polygon class="cls-9" points="40.56 144.17 41.01 143.91 41.01 144.4 40.56 144.66 40.56 144.17"/><polygon class="cls-9" points="40.11 144.92 40.56 144.66 40.56 145.15 40.11 145.41 40.11 144.92"/><polygon class="cls-1" points="40.56 144.66 41.01 144.4 41.01 144.89 40.56 145.15 40.56 144.66"/><polygon class="cls-1" points="40.11 145.41 40.56 145.15 40.56 145.64 40.11 145.9 40.11 145.41"/><polygon class="cls-9" points="40.56 145.15 41.01 144.89 41.01 145.38 40.56 145.64 40.56 145.15"/><polygon class="cls-1" points="41.01 141.95 41.45 141.69 41.45 142.18 41.01 142.44 41.01 141.95"/><polygon class="cls-9" points="41.01 142.44 41.45 142.18 41.45 142.67 41.01 142.93 41.01 142.44"/><polygon class="cls-1" points="41.01 142.93 41.45 142.67 41.45 143.16 41.01 143.42 41.01 142.93"/><polygon class="cls-9" points="41.01 143.42 41.45 143.16 41.45 143.65 41.01 143.91 41.01 143.42"/><polygon class="cls-1" points="41.01 143.91 41.45 143.65 41.45 144.14 41.01 144.4 41.01 143.91"/><polygon class="cls-9" points="41.01 144.4 41.45 144.14 41.45 144.63 41.01 144.89 41.01 144.4"/><polygon class="cls-1" points="41.01 144.89 41.45 144.63 41.45 145.12 41.01 145.38 41.01 144.89"/><polygon class="cls-26" points="37.51 145.96 33.69 143.76 33.69 141.32 37.51 143.53 37.51 145.96"/><path class="cls-17" d="M224.33,40.71l-.19.1C199,54.45,119.81,103.49,108.88,100.51,117.34,98.9,199.4,54.21,224.33,40.71Z"/><path class="cls-12" d="M224.11,40.82l.22-.11c-24.93,13.5-107,58.19-115.45,59.8C114.84,94.32,198.92,54.43,224.11,40.82Z"/><path d="M224.11,40.82c-25.19,13.61-109.27,53.5-115.23,59.69C112.35,89.74,198.91,54.41,224.11,40.82Z"/><path class="cls-11" d="M108.88,100.51c10.93,3,90.14-46.06,115.26-59.7C199,54.47,122.29,108.07,108.88,100.51Z"/><path class="cls-18" d="M108.88,100.51c1-15.35,90-46.13,115.23-59.69C198.91,54.41,112.35,89.74,108.88,100.51Z"/><path class="cls-19" d="M224.11,40.82C198.9,54.38,109.87,85.16,108.88,100.51"/><path class="cls-19" d="M224.11,40.82c-25.2,13.59-111.76,48.92-115.23,59.69"/><path class="cls-19" d="M224.33,40.71l-.22.11c-25.19,13.61-109.27,53.5-115.23,59.69"/><path class="cls-19" d="M224.33,40.71c-24.93,13.5-107,58.19-115.45,59.8"/><path class="cls-19" d="M224.14,40.81C199,54.45,119.81,103.49,108.88,100.51"/><path class="cls-19" d="M224.33,40.71l-.19.1C199,54.47,122.29,108.07,108.88,100.51"/><path class="cls-18" d="M69.14,123.9v8.75l-2,1.13-4.77-1a2.42,2.42,0,0,0,.61-1.77,6.7,6.7,0,0,0-1.28-3.64Z"/><path class="cls-12" d="M69.14,123.9l-7.43,3.51a6.12,6.12,0,0,0-1.85-1.75,2.44,2.44,0,0,0-1.9-.36l1.57-7Z"/><path class="cls-19" d="M69.14,123.9v8.75l-2,1.13-4.77-1a2.42,2.42,0,0,0,.61-1.77,6.7,6.7,0,0,0-1.28-3.64,6.12,6.12,0,0,0-1.85-1.75,2.44,2.44,0,0,0-1.9-.36l1.57-7Z"/><line class="cls-19" x1="61.71" y1="127.41" x2="69.14" y2="123.9"/><polygon class="cls-6" points="45.28 130.35 42.33 137.92 48.23 134.51 45.28 130.35 42.33 137.92 48.23 134.51 45.28 130.35"/><polygon class="cls-7" points="42.68 138.12 42.33 137.92 45.28 130.35 42.68 138.12"/><polygon class="cls-1" points="45.28 130.35 42.68 138.12 48.58 134.71 45.28 130.35 42.68 138.12 48.58 134.71 45.28 130.35"/><polygon class="cls-15" points="36.09 138.58 41.45 141.69 41.3 141.78 35.92 138.68 36.09 138.58"/><polygon class="cls-8" points="41.45 145.12 41.45 141.69 41.3 141.78 41.3 145.21 41.45 145.12"/><path class="cls-7" d="M65.38,124.41c0,.54-1.2.29-2.68-.57s-2.67-2-2.67-2.52,1.2-.28,2.67.57S65.38,123.87,65.38,124.41Z"/><path class="cls-15" d="M93,138.91a1.54,1.54,0,0,0-1.37,0,.49.49,0,0,0-.29.39,1,1,0,0,0,1.94,0A.47.47,0,0,0,93,138.91Z"/><path class="cls-14" d="M93.5,136.3H91.09v2.82h0a.61.61,0,0,0,.36.5,1.89,1.89,0,0,0,1.7,0,.62.62,0,0,0,.35-.5h0Z"/><path class="cls-1" d="M93.15,136.8a1.92,1.92,0,0,1-1.7,0,.52.52,0,0,1,0-1,1.89,1.89,0,0,1,1.7,0C93.61,136.09,93.61,136.53,93.15,136.8Z"/><polyline class="cls-2" points="119.11 108.67 136.16 106.75 125.94 120.56"/><path class="cls-3" d="M126.75,117.9c0,3.15-2.23,4.42-5,2.84a11,11,0,0,1-5-8.58c0-3.15,2.23-4.42,5-2.84A11,11,0,0,1,126.75,117.9Z"/><path class="cls-4" d="M125.79,117.49c0,2.54-1.8,3.56-4,2.28a8.83,8.83,0,0,1-4-6.92c0-2.54,1.8-3.57,4-2.29A8.86,8.86,0,0,1,125.79,117.49Z"/><path class="cls-5" d="M125.32,117.77c0,2.54-1.79,3.56-4,2.28a8.82,8.82,0,0,1-4-6.92c0-2.54,1.79-3.57,4-2.29A8.83,8.83,0,0,1,125.32,117.77Z"/><path class="cls-6" d="M120.38,113.05a1.89,1.89,0,0,0-1.74-.23c-.41.2-1.77,1.05-2.12,1.24a1.76,1.76,0,0,0-.79,1.67,5.72,5.72,0,0,0,2.58,4.45,1.83,1.83,0,0,0,1.83.18l2.09-1.23a1.8,1.8,0,0,0,.73-1.63A5.69,5.69,0,0,0,120.38,113.05Z"/><path class="cls-5" d="M120.89,118.71c0,1.63-1.15,2.29-2.58,1.47a5.72,5.72,0,0,1-2.58-4.45c0-1.63,1.16-2.29,2.58-1.47A5.66,5.66,0,0,1,120.89,118.71Z"/><path class="cls-1" d="M120.2,118.37c0,1.21-.86,1.7-1.92,1.09a4.22,4.22,0,0,1-1.92-3.31c0-1.21.86-1.7,1.92-1.09A4.22,4.22,0,0,1,120.2,118.37Z"/><path class="cls-1" d="M119.89,118.54c0,1.22-.85,1.71-1.91,1.09a4.22,4.22,0,0,1-1.92-3.3c0-1.22.86-1.71,1.92-1.1A4.24,4.24,0,0,1,119.89,118.54Z"/><path class="cls-1" d="M119.59,118.71c0,1.22-.86,1.71-1.91,1.1a4.21,4.21,0,0,1-1.92-3.31c0-1.21.85-1.7,1.92-1.09A4.23,4.23,0,0,1,119.59,118.71Z"/><path class="cls-1" d="M119.29,118.89c0,1.21-.86,1.71-1.92,1.09a4.22,4.22,0,0,1-1.92-3.3c0-1.22.86-1.71,1.92-1.1A4.24,4.24,0,0,1,119.29,118.89Z"/><path class="cls-1" d="M119,119.06c0,1.22-.86,1.71-1.92,1.09a4.22,4.22,0,0,1-1.92-3.3c0-1.22.86-1.7,1.92-1.09A4.22,4.22,0,0,1,119,119.06Z"/><path class="cls-1" d="M118.69,119.23c0,1.22-.86,1.71-1.92,1.1a4.22,4.22,0,0,1-1.92-3.31c0-1.21.86-1.7,1.92-1.09A4.22,4.22,0,0,1,118.69,119.23Z"/><path class="cls-1" d="M118.38,119.41c0,1.22-.86,1.71-1.91,1.09a4.2,4.2,0,0,1-1.92-3.3c0-1.22.86-1.71,1.92-1.1A4.25,4.25,0,0,1,118.38,119.41Z"/><path class="cls-1" d="M118.08,119.58c0,1.22-.86,1.71-1.92,1.1a4.21,4.21,0,0,1-1.91-3.31c0-1.22.85-1.7,1.91-1.09A4.22,4.22,0,0,1,118.08,119.58Z"/><path class="cls-1" d="M117.78,119.76c0,1.22-.86,1.71-1.92,1.09a4.21,4.21,0,0,1-1.91-3.3c0-1.22.85-1.71,1.91-1.1A4.22,4.22,0,0,1,117.78,119.76Z"/><path class="cls-1" d="M117.48,119.94c0,1.21-.86,1.7-1.92,1.09a4.22,4.22,0,0,1-1.92-3.31c0-1.21.86-1.7,1.92-1.09A4.22,4.22,0,0,1,117.48,119.94Z"/><path class="cls-1" d="M117.17,120.11c0,1.22-.85,1.7-1.91,1.09a4.22,4.22,0,0,1-1.92-3.31c0-1.21.86-1.7,1.92-1.09A4.21,4.21,0,0,1,117.17,120.11Z"/><path class="cls-1" d="M116.88,120.28c0,1.22-.87,1.71-1.92,1.1a4.21,4.21,0,0,1-1.92-3.31c0-1.21.85-1.71,1.92-1.1A4.28,4.28,0,0,1,116.88,120.28Z"/><path class="cls-1" d="M116.57,120.46c0,1.21-.86,1.7-1.92,1.09a4.25,4.25,0,0,1-1.92-3.31c0-1.21.87-1.7,1.92-1.09A4.22,4.22,0,0,1,116.57,120.46Z"/><path class="cls-1" d="M116.27,120.63c0,1.22-.86,1.7-1.92,1.09a4.22,4.22,0,0,1-1.92-3.3c0-1.22.86-1.71,1.92-1.09A4.2,4.2,0,0,1,116.27,120.63Z"/><path class="cls-1" d="M116,120.81c0,1.21-.86,1.7-1.92,1.09a4.22,4.22,0,0,1-1.92-3.31c0-1.21.86-1.7,1.92-1.09A4.22,4.22,0,0,1,116,120.81Z"/><path class="cls-1" d="M115.67,121c0,1.22-.87,1.7-1.92,1.09a4.22,4.22,0,0,1-1.92-3.3c0-1.22.86-1.71,1.92-1.1A4.25,4.25,0,0,1,115.67,121Z"/><path class="cls-1" d="M115.36,121.16c0,1.21-.85,1.7-1.92,1.09a4.25,4.25,0,0,1-1.91-3.31c0-1.22.86-1.7,1.91-1.09A4.19,4.19,0,0,1,115.36,121.16Z"/><path class="cls-1" d="M115.06,121.33c0,1.21-.86,1.7-1.91,1.09a4.19,4.19,0,0,1-1.92-3.3c0-1.22.85-1.71,1.92-1.1A4.24,4.24,0,0,1,115.06,121.33Z"/><path class="cls-1" d="M114.76,121.51c0,1.21-.86,1.7-1.92,1.09a4.25,4.25,0,0,1-1.92-3.31c0-1.22.86-1.7,1.92-1.09A4.22,4.22,0,0,1,114.76,121.51Z"/><path class="cls-1" d="M114.46,121.68c0,1.21-.86,1.7-1.92,1.09a4.22,4.22,0,0,1-1.92-3.31c0-1.21.86-1.7,1.92-1.09A4.22,4.22,0,0,1,114.46,121.68Z"/><path class="cls-1" d="M114.16,121.85c0,1.22-.86,1.71-1.92,1.1a4.25,4.25,0,0,1-1.92-3.31c0-1.22.86-1.71,1.92-1.1A4.25,4.25,0,0,1,114.16,121.85Z"/><path class="cls-1" d="M113.85,122c0,1.21-.86,1.7-1.91,1.09a4.24,4.24,0,0,1-1.92-3.31c0-1.21.86-1.7,1.92-1.09A4.24,4.24,0,0,1,113.85,122Z"/><path class="cls-1" d="M113.55,122.2c0,1.21-.86,1.7-1.92,1.09a4.22,4.22,0,0,1-1.92-3.31c0-1.21.86-1.7,1.92-1.09A4.24,4.24,0,0,1,113.55,122.2Z"/><path class="cls-1" d="M113.25,122.37c0,1.22-.86,1.71-1.92,1.1a4.24,4.24,0,0,1-1.92-3.31c0-1.21.86-1.7,1.92-1.09A4.22,4.22,0,0,1,113.25,122.37Z"/><path class="cls-1" d="M113,122.55c0,1.21-.86,1.7-1.92,1.09a4.22,4.22,0,0,1-1.92-3.31c0-1.21.86-1.7,1.92-1.09A4.24,4.24,0,0,1,113,122.55Z"/><path class="cls-1" d="M112.64,122.72c0,1.22-.85,1.71-1.91,1.1a4.24,4.24,0,0,1-1.92-3.31c0-1.22.86-1.71,1.92-1.1A4.24,4.24,0,0,1,112.64,122.72Z"/><path class="cls-1" d="M112.34,122.9c0,1.21-.86,1.7-1.91,1.09a4.19,4.19,0,0,1-1.92-3.31c0-1.21.85-1.7,1.92-1.09A4.24,4.24,0,0,1,112.34,122.9Z"/><path class="cls-1" d="M112,123.07c0,1.22-.86,1.71-1.92,1.09a4.24,4.24,0,0,1-1.92-3.3c0-1.22.87-1.71,1.92-1.1A4.25,4.25,0,0,1,112,123.07Z"/><path class="cls-1" d="M111.74,123.24c0,1.22-.86,1.71-1.92,1.1A4.22,4.22,0,0,1,107.9,121c0-1.21.86-1.7,1.92-1.09A4.22,4.22,0,0,1,111.74,123.24Z"/><path class="cls-1" d="M111.44,123.42c0,1.22-.86,1.71-1.92,1.09a4.22,4.22,0,0,1-1.92-3.3c0-1.22.86-1.71,1.92-1.1A4.24,4.24,0,0,1,111.44,123.42Z"/><path class="cls-1" d="M111.14,123.59c0,1.22-.87,1.71-1.92,1.1a4.22,4.22,0,0,1-1.92-3.31c0-1.22.86-1.7,1.92-1.09A4.24,4.24,0,0,1,111.14,123.59Z"/><path class="cls-1" d="M110.83,123.77c0,1.21-.85,1.7-1.92,1.09a4.25,4.25,0,0,1-1.92-3.31c0-1.21.87-1.7,1.92-1.09A4.19,4.19,0,0,1,110.83,123.77Z"/><path class="cls-1" d="M110.53,123.94c0,1.22-.86,1.71-1.92,1.09a4.18,4.18,0,0,1-1.91-3.3c0-1.22.85-1.7,1.91-1.09A4.2,4.2,0,0,1,110.53,123.94Z"/><path class="cls-1" d="M110.23,124.12c0,1.21-.86,1.7-1.92,1.09a4.22,4.22,0,0,1-1.92-3.31c0-1.22.86-1.7,1.92-1.09A4.22,4.22,0,0,1,110.23,124.12Z"/><path class="cls-1" d="M109.93,124.29c0,1.22-.86,1.71-1.92,1.09a4.2,4.2,0,0,1-1.92-3.3c0-1.22.86-1.71,1.92-1.1A4.22,4.22,0,0,1,109.93,124.29Z"/><path class="cls-1" d="M109.62,124.47c0,1.21-.85,1.7-1.91,1.09a4.22,4.22,0,0,1-1.92-3.31c0-1.21.86-1.7,1.92-1.09A4.21,4.21,0,0,1,109.62,124.47Z"/><path class="cls-1" d="M109.32,124.64c0,1.22-.86,1.7-1.92,1.09a4.23,4.23,0,0,1-1.91-3.3c0-1.22.86-1.71,1.91-1.1A4.22,4.22,0,0,1,109.32,124.64Z"/><path class="cls-1" d="M109,124.81c0,1.22-.86,1.71-1.92,1.1a4.24,4.24,0,0,1-1.92-3.31c0-1.21.86-1.71,1.92-1.09A4.22,4.22,0,0,1,109,124.81Z"/><path class="cls-1" d="M108.72,125c0,1.21-.86,1.7-1.92,1.09a4.22,4.22,0,0,1-1.92-3.3c0-1.22.86-1.71,1.92-1.1A4.22,4.22,0,0,1,108.72,125Z"/><path class="cls-1" d="M108.42,125.16c0,1.22-.86,1.7-1.92,1.1a4.24,4.24,0,0,1-1.92-3.31c0-1.22.86-1.71,1.92-1.09A4.22,4.22,0,0,1,108.42,125.16Z"/><path class="cls-1" d="M108.11,125.34c0,1.21-.85,1.7-1.92,1.09a4.24,4.24,0,0,1-1.91-3.31c0-1.21.86-1.7,1.91-1.09A4.19,4.19,0,0,1,108.11,125.34Z"/><path class="cls-1" d="M107.81,125.51c0,1.22-.86,1.7-1.92,1.1A4.24,4.24,0,0,1,104,123.3c0-1.22.85-1.71,1.91-1.1A4.24,4.24,0,0,1,107.81,125.51Z"/><path class="cls-1" d="M107.51,125.69c0,1.21-.86,1.7-1.92,1.09a4.24,4.24,0,0,1-1.92-3.31c0-1.21.86-1.71,1.92-1.09A4.22,4.22,0,0,1,107.51,125.69Z"/><path class="cls-1" d="M107.21,125.86c0,1.21-.86,1.7-1.92,1.09a4.22,4.22,0,0,1-1.92-3.3c0-1.22.86-1.71,1.92-1.1A4.22,4.22,0,0,1,107.21,125.86Z"/><path class="cls-1" d="M106.9,126c0,1.21-.85,1.7-1.91,1.09a4.25,4.25,0,0,1-1.92-3.31c0-1.21.86-1.7,1.92-1.09A4.21,4.21,0,0,1,106.9,126Z"/><path class="cls-1" d="M106.6,126.21c0,1.21-.86,1.7-1.91,1.09a4.22,4.22,0,0,1-1.92-3.31c0-1.21.86-1.7,1.92-1.09A4.24,4.24,0,0,1,106.6,126.21Z"/><path class="cls-1" d="M106.3,126.38c0,1.22-.86,1.71-1.92,1.1a4.28,4.28,0,0,1-1.92-3.31c0-1.21.87-1.71,1.92-1.1A4.25,4.25,0,0,1,106.3,126.38Z"/><path class="cls-1" d="M106,126.56c0,1.21-.86,1.7-1.92,1.09a4.21,4.21,0,0,1-1.91-3.31c0-1.21.85-1.7,1.91-1.09A4.22,4.22,0,0,1,106,126.56Z"/><path class="cls-1" d="M105.7,126.73c0,1.21-.86,1.7-1.92,1.09a4.22,4.22,0,0,1-1.92-3.3c0-1.22.86-1.71,1.92-1.1A4.25,4.25,0,0,1,105.7,126.73Z"/><path class="cls-1" d="M105.39,126.91c0,1.21-.85,1.7-1.91,1.09a4.22,4.22,0,0,1-1.92-3.31c0-1.21.86-1.7,1.92-1.09A4.21,4.21,0,0,1,105.39,126.91Z"/><path class="cls-1" d="M105.09,127.08c0,1.21-.85,1.7-1.91,1.09a4.22,4.22,0,0,1-1.92-3.31c0-1.21.86-1.7,1.92-1.09A4.23,4.23,0,0,1,105.09,127.08Z"/><path class="cls-7" d="M104.79,127.25c0,1.22-.86,1.71-1.92,1.1A4.23,4.23,0,0,1,101,125c0-1.22.85-1.7,1.91-1.1A4.25,4.25,0,0,1,104.79,127.25Z"/><path class="cls-8" d="M103.9,126.74c0,.64-.46.9-1,.58a2.26,2.26,0,0,1-1-1.76c0-.65.46-.91,1-.58A2.23,2.23,0,0,1,103.9,126.74Z"/><path class="cls-1" d="M103.27,127.24a.52.52,0,0,0,.31-.55,1.8,1.8,0,0,0-.82-1.4.52.52,0,0,0-.63,0s-6.24,3.58-6.28,3.61a.55.55,0,0,0-.3.56,1.79,1.79,0,0,0,.81,1.4.54.54,0,0,0,.64,0S103.23,127.28,103.27,127.24Z"/><path class="cls-9" d="M97.05,130.46c0,.51-.37.72-.82.46a1.78,1.78,0,0,1-.81-1.4c0-.51.36-.72.81-.47A1.82,1.82,0,0,1,97.05,130.46Z"/><path class="cls-1" d="M97.93,131.59a1,1,0,0,0,.6-1.08,3.49,3.49,0,0,0-1.59-2.73,1,1,0,0,0-1.24,0c-.09,0-12.16,7-12.23,7.06a1,1,0,0,0-.6,1.08,3.49,3.49,0,0,0,1.59,2.73,1,1,0,0,0,1.24,0C85.79,138.62,97.86,131.66,97.93,131.59Z"/><path class="cls-9" d="M85.79,137.86c0,1-.71,1.41-1.58.9A3.48,3.48,0,0,1,82.62,136c0-1,.71-1.41,1.59-.9A3.48,3.48,0,0,1,85.79,137.86Z"/><path class="cls-10" d="M85.45,137.66c0,.78-.56,1.1-1.24.71A2.74,2.74,0,0,1,83,136.23c0-.78.55-1.1,1.24-.7A2.73,2.73,0,0,1,85.45,137.66Z"/><path class="cls-1" d="M85,137.41c0,.51-.36.72-.8.46a1.77,1.77,0,0,1-.81-1.39c0-.51.36-.72.81-.46A1.79,1.79,0,0,1,85,137.41Z"/><path class="cls-1" d="M84.53,137.92a.47.47,0,0,0,.27-.49,1.59,1.59,0,0,0-.72-1.24.46.46,0,0,0-.56,0S78,139.36,78,139.38a.48.48,0,0,0-.27.49,1.59,1.59,0,0,0,.72,1.25.48.48,0,0,0,.56,0S84.5,138,84.53,137.92Z"/><path class="cls-8" d="M79,140.77c0,.46-.33.64-.72.41a1.57,1.57,0,0,1-.72-1.24c0-.46.32-.64.72-.41A1.6,1.6,0,0,1,79,140.77Z"/><path class="cls-8" d="M83.68,139.88a1,1,0,0,0,.6-1.07,3.5,3.5,0,0,0-1.59-2.74,1,1,0,0,0-1.24,0c-.09,0-7,6.59-7,6.59S83.61,140,83.68,139.88Z"/><polygon class="cls-1" points="78.45 125.41 66.65 132.22 82.82 132.85 99.01 137.28 78.45 125.41"/><path class="cls-1" d="M92.18,130.22a1.85,1.85,0,0,1-1.7,0,.52.52,0,0,1,0-1,1.89,1.89,0,0,1,1.7,0A.52.52,0,0,1,92.18,130.22Z"/><polyline class="cls-27" points="82.82 131.46 82.82 132.85 99.01 137.28 99.01 135.88 82.82 131.46"/><polygon class="cls-14" points="82.82 131.46 82.82 132.85 83.47 134.81 83.95 134.53 82.82 131.46"/><polygon class="cls-1" points="78.64 123.9 93.96 123.42 85.79 129.87 78.03 124.25 78.64 123.9"/><polygon class="cls-1" points="78.45 124.01 66.65 130.82 82.82 131.46 99.01 135.88 78.45 124.01"/><polygon class="cls-15" points="66.65 132.22 66.65 130.82 82.82 131.46 82.82 132.85 66.65 132.22"/><polygon class="cls-1" points="99.01 135.88 115.14 136.5 98.95 132.09 91.96 131.81 99.01 135.88"/><polygon class="cls-9" points="94.58 124.64 82.78 131.45 98.95 132.09 115.14 136.51 94.58 124.64"/><path class="cls-11" d="M105.12,134.32a3.64,3.64,0,0,1-1.74.41h0v-1.42h2.46A1.19,1.19,0,0,1,105.12,134.32Z"/><path class="cls-12" d="M103.38,134.73h0a3.59,3.59,0,0,1-1.75-.42,1.23,1.23,0,0,1-.72-1h2.46Z"/><path class="cls-12" d="M105.83,133.31h-2.46v-1.42h0a3.59,3.59,0,0,1,1.75.42A1.21,1.21,0,0,1,105.83,133.31Z"/><path class="cls-11" d="M103.37,133.31h-2.46a1.23,1.23,0,0,1,.71-1,3.52,3.52,0,0,1,1.74-.41h0Z"/><path class="cls-13" d="M105.83,133.31a1.19,1.19,0,0,1-.71,1,3.64,3.64,0,0,1-1.74.41,3.59,3.59,0,0,1-1.75-.42,1.06,1.06,0,0,1,0-2,3.52,3.52,0,0,1,1.74-.41,3.59,3.59,0,0,1,1.75.42A1.21,1.21,0,0,1,105.83,133.31Z"/><polyline class="cls-13" points="103.38 134.72 103.37 133.31 103.36 131.89"/><polyline class="cls-13" points="105.83 133.31 103.37 133.31 100.91 133.3"/><polygon class="cls-20" points="99.01 137.28 99.01 135.88 115.14 136.51 99.01 137.28"/><path class="cls-8" d="M99,135.88l-12.84,2.5c.46-.27.43-1.23,0-2.13S85,134.38,84,134.52l-1.13-3.06Z"/><path class="cls-15" d="M99,135.88v1.4l-12.84,1.1c.46-.27.43-1.23,0-2.13Z"/><path class="cls-14" d="M93.5,129H91.09v2.82h0a.59.59,0,0,0,.36.49,1.85,1.85,0,0,0,1.7,0,.62.62,0,0,0,.35-.5h0Z"/><path class="cls-1" d="M93.15,129.49a1.89,1.89,0,0,1-1.7,0,.52.52,0,0,1,0-1,1.89,1.89,0,0,1,1.7,0C93.61,128.79,93.61,129.22,93.15,129.49Z"/><path class="cls-15" d="M93,129.35a1.5,1.5,0,0,1-1.37,0,.51.51,0,0,1-.29-.39,1,1,0,0,1,1.94,0A.45.45,0,0,1,93,129.35Z"/><polyline class="cls-20" points="94.87 120.4 105.88 117.19 97.86 125.06"/><path class="cls-1" d="M98.22,124c0,1.25-.88,1.75-2,1.12a4.35,4.35,0,0,1-2-3.4c0-1.25.89-1.75,2-1.12A4.32,4.32,0,0,1,98.22,124Z"/><path class="cls-9" d="M97.25,124.07c0,1-.7,1.4-1.58.9a3.51,3.51,0,0,1-1.58-2.73c0-1,.71-1.4,1.58-.9A3.48,3.48,0,0,1,97.25,124.07Z"/><path class="cls-1" d="M95.85,124.21c0,.62-.44.87-1,.55a2.14,2.14,0,0,1-1-1.68c0-.62.44-.87,1-.56A2.16,2.16,0,0,1,95.85,124.21Z"/><path d="M95.33,124.48c.27-.15.27-.65,0-1.11s-.7-.72-1-.56-.27.65,0,1.11S95.06,124.63,95.33,124.48Zm-.92-.58c-.25-.42-.25-.88,0-1s.63.09.88.51.24.88,0,1S94.65,124.32,94.41,123.9Z"/><path d="M95.24,124.33c.22-.13.22-.53,0-.91s-.57-.59-.79-.46-.22.53,0,.91S95,124.45,95.24,124.33Zm-.75-.48c-.19-.34-.19-.7,0-.81s.52.07.71.4.2.7,0,.81S94.69,124.18,94.49,123.85Z"/><path d="M95.16,124.18c.17-.1.17-.42,0-.71s-.45-.46-.62-.36-.17.42,0,.71S95,124.27,95.16,124.18Zm-.58-.38c-.14-.26-.14-.53,0-.61s.39,0,.53.3.15.53,0,.61S94.73,124.05,94.58,123.8Z"/><path d="M95.07,124c.12-.06.12-.29,0-.5s-.32-.33-.44-.26-.13.3,0,.51S95,124.09,95.07,124Zm-.4-.28c-.1-.16-.1-.34,0-.4s.26,0,.35.2.1.35,0,.41S94.77,123.91,94.67,123.74Z"/><path d="M95,123.87c.07,0,.07-.17,0-.3s-.19-.2-.27-.15-.07.17,0,.3S94.91,123.91,95,123.87Zm-.22-.18c-.05-.08-.05-.17,0-.2s.13,0,.18.1,0,.18,0,.21S94.81,123.78,94.76,123.69Z"/><path d="M94.89,123.62s-.06-.07-.09-.05,0,.06,0,.1.07.06.09,0S94.92,123.66,94.89,123.62Z"/><path class="cls-8" d="M92.46,125.88l2.09-1.2a.92.92,0,0,0,.5-1.09c-.16-.35-.65-.43-1.09-.17l-2.09,1.2"/><path class="cls-1" d="M92.46,125.88c-.43.25-.92.18-1.08-.17a.93.93,0,0,1,.49-1.09.75.75,0,0,1,1.09.18A.91.91,0,0,1,92.46,125.88Z"/><path class="cls-14" d="M90.07,127.26l2.09-1.2a.92.92,0,0,0,.49-1.09.73.73,0,0,0-1.08-.17L89.48,126"/><path class="cls-1" d="M90.07,127.26c-.44.25-.92.18-1.09-.17a.92.92,0,0,1,.5-1.09.74.74,0,0,1,1.08.18A.91.91,0,0,1,90.07,127.26Z"/><path class="cls-8" d="M87.67,128.64l2.09-1.2a.92.92,0,0,0,.5-1.09c-.17-.35-.65-.42-1.09-.17l-2.09,1.2"/><path class="cls-1" d="M87.67,128.64c-.44.26-.92.18-1.08-.17a.91.91,0,0,1,.49-1.09.75.75,0,0,1,1.09.18A.91.91,0,0,1,87.67,128.64Z"/><path class="cls-14" d="M85.27,130l2.1-1.2a.93.93,0,0,0,.49-1.09c-.16-.35-.65-.42-1.09-.17l-2.09,1.21"/><path class="cls-1" d="M85.27,130a.73.73,0,0,1-1.08-.17.91.91,0,0,1,.49-1.08c.44-.26.93-.18,1.09.17A.91.91,0,0,1,85.27,130Z"/><path class="cls-8" d="M82.88,131.41,85,130.2a.9.9,0,0,0,.49-1.09.75.75,0,0,0-1.08-.17l-2.09,1.21"/><path class="cls-1" d="M82.88,131.41a.75.75,0,0,1-1.09-.18.91.91,0,0,1,.5-1.08.73.73,0,0,1,1.08.17A.92.92,0,0,1,82.88,131.41Z"/><path class="cls-14" d="M80.48,132.79l2.09-1.21a.92.92,0,0,0,.5-1.09.76.76,0,0,0-1.09-.17l-2.09,1.21"/><path class="cls-1" d="M80.48,132.79a.74.74,0,0,1-1.08-.18.9.9,0,0,1,.49-1.08c.44-.25.92-.18,1.09.17A.92.92,0,0,1,80.48,132.79Z"/><path class="cls-8" d="M78.09,134.17,80.18,133a.92.92,0,0,0,.49-1.08.75.75,0,0,0-1.09-.18l-2.09,1.21"/><path class="cls-1" d="M78.09,134.17A.75.75,0,0,1,77,134a.92.92,0,0,1,.49-1.08c.44-.25.93-.18,1.09.17A.93.93,0,0,1,78.09,134.17Z"/><path class="cls-14" d="M75.69,135.55l2.09-1.21a.9.9,0,0,0,.49-1.08.74.74,0,0,0-1.08-.18l-2.09,1.21"/><path class="cls-15" d="M75.69,135.55a.76.76,0,0,1-1.09-.17.92.92,0,0,1,.5-1.09.75.75,0,0,1,1.08.17A.9.9,0,0,1,75.69,135.55Z"/><polyline class="cls-20" points="69.39 105.75 80.4 102.54 72.38 110.42"/><path class="cls-1" d="M72.74,109.33c0,1.25-.88,1.75-2,1.12a4.34,4.34,0,0,1-2-3.4c0-1.25.88-1.76,2-1.13A4.36,4.36,0,0,1,72.74,109.33Z"/><path class="cls-9" d="M71.78,109.42c0,1-.71,1.41-1.58.9a3.45,3.45,0,0,1-1.58-2.72c0-1,.7-1.4,1.58-.9A3.48,3.48,0,0,1,71.78,109.42Z"/><path class="cls-1" d="M70.37,109.56c0,.62-.44.87-1,.56a2.16,2.16,0,0,1-1-1.69c0-.62.44-.87,1-.55A2.14,2.14,0,0,1,70.37,109.56Z"/><path d="M69.85,109.84c.27-.15.27-.65,0-1.11s-.7-.72-1-.57-.27.66,0,1.12S69.59,110,69.85,109.84Zm-.92-.59c-.25-.42-.25-.87,0-1s.64.09.88.51.24.87,0,1S69.17,109.67,68.93,109.25Z"/><path d="M69.77,109.69c.22-.13.22-.54,0-.91s-.58-.59-.8-.46-.22.53,0,.91S69.55,109.81,69.77,109.69ZM69,109.2c-.2-.33-.2-.7,0-.81s.51.07.7.41.2.7,0,.81S69.21,109.54,69,109.2Z"/><path d="M69.68,109.53c.17-.09.17-.41,0-.7s-.45-.46-.62-.36-.17.41,0,.71S69.51,109.63,69.68,109.53Zm-.58-.38c-.14-.25-.14-.52,0-.6s.39,0,.53.3.15.53,0,.61S69.25,109.41,69.1,109.15Z"/><path d="M69.59,109.38c.12-.07.12-.29,0-.5s-.32-.33-.44-.26-.12.3,0,.51S69.47,109.45,69.59,109.38Zm-.4-.28c-.1-.17-.1-.35,0-.4s.26,0,.35.2.1.35,0,.41S69.29,109.27,69.19,109.1Z"/><path d="M69.5,109.23c.07,0,.07-.18,0-.3s-.19-.2-.26-.16-.08.18,0,.31S69.43,109.27,69.5,109.23Zm-.22-.18c0-.08,0-.17,0-.2s.13,0,.18.1.05.18,0,.2S69.33,109.14,69.28,109.05Z"/><path d="M69.41,109s-.06-.07-.09,0,0,.06,0,.1.07.06.09,0S69.44,109,69.41,109Z"/><path class="cls-8" d="M67,111.24,69.08,110a.92.92,0,0,0,.49-1.08.74.74,0,0,0-1.08-.18L66.39,110"/><path class="cls-1" d="M67,111.24a.76.76,0,0,1-1.09-.17.93.93,0,0,1,.49-1.09.76.76,0,0,1,1.09.17A.93.93,0,0,1,67,111.24Z"/><path class="cls-14" d="M64.59,112.62l2.09-1.21a.89.89,0,0,0,.49-1.08.74.74,0,0,0-1.08-.18L64,111.36"/><path class="cls-1" d="M64.59,112.62a.76.76,0,0,1-1.09-.17.92.92,0,0,1,.5-1.09.75.75,0,0,1,1.08.17A.9.9,0,0,1,64.59,112.62Z"/><path class="cls-8" d="M62.19,114l2.09-1.21a.91.91,0,0,0,.5-1.08.74.74,0,0,0-1.09-.17l-2.09,1.2"/><path class="cls-1" d="M62.19,114c-.43.25-.92.18-1.08-.17a.9.9,0,0,1,.49-1.09.75.75,0,0,1,1.09.18A.91.91,0,0,1,62.19,114Z"/><path class="cls-14" d="M59.8,115.38l2.09-1.2a.93.93,0,0,0,.49-1.09.73.73,0,0,0-1.08-.17l-2.09,1.2"/><path class="cls-1" d="M59.8,115.38c-.44.25-.93.18-1.09-.17a.93.93,0,0,1,.49-1.09.75.75,0,0,1,1.09.18A.92.92,0,0,1,59.8,115.38Z"/><path class="cls-8" d="M57.4,116.76l2.09-1.2a.9.9,0,0,0,.49-1.09c-.16-.35-.64-.42-1.08-.17l-2.09,1.2"/><path class="cls-1" d="M57.4,116.76a.74.74,0,0,1-1.09-.17.92.92,0,0,1,.5-1.09.74.74,0,0,1,1.08.18A.89.89,0,0,1,57.4,116.76Z"/><path class="cls-14" d="M55,118.14l2.09-1.2a.92.92,0,0,0,.5-1.09c-.17-.35-.65-.42-1.09-.17l-2.09,1.21"/><path class="cls-1" d="M55,118.14a.73.73,0,0,1-1.08-.17.9.9,0,0,1,.49-1.08.74.74,0,0,1,1.09.17A.91.91,0,0,1,55,118.14Z"/><path class="cls-8" d="M52.61,119.53l2.09-1.21a.93.93,0,0,0,.49-1.09.75.75,0,0,0-1.08-.17L52,118.27"/><path class="cls-1" d="M52.61,119.53a.75.75,0,0,1-1.09-.18.91.91,0,0,1,.5-1.08.73.73,0,0,1,1.08.17A.93.93,0,0,1,52.61,119.53Z"/><path class="cls-14" d="M50.21,120.91l2.09-1.21a.9.9,0,0,0,.49-1.09c-.16-.34-.64-.42-1.08-.17l-2.09,1.21"/><path class="cls-15" d="M50.21,120.91a.75.75,0,0,1-1.09-.18.91.91,0,0,1,.5-1.08c.44-.25.92-.18,1.08.17A.91.91,0,0,1,50.21,120.91Z"/><path d="M109.58,97.76c-1.06-.62-1.94-.19-2,.95.28-.43.82-.51,1.44-.15a3.58,3.58,0,0,1,1.63,2.8c0,.72-.35,1.14-.87,1.16,1,.5,1.87,0,1.87-1.26A4.48,4.48,0,0,0,109.58,97.76Z"/><path class="cls-1" d="M109,98.56c-.62-.36-1.16-.28-1.44.15a1.44,1.44,0,0,0-.19.77,1.77,1.77,0,0,0,0,.23l.1,0h0l.15-.05a.9.9,0,0,1,.53.14,2.24,2.24,0,0,1,1,1.74.93.93,0,0,1-.14.51l0,0s0,0,0,.05l-.1.09.13.08a1.56,1.56,0,0,0,.76.23c.52,0,.87-.44.87-1.16A3.58,3.58,0,0,0,109,98.56Z"/><polygon class="cls-1" points="69.14 129.38 62.86 129.94 66.65 130.82 69.14 129.38"/><path class="cls-7" d="M66.65,130.82v1.4L63,131.15a8.7,8.7,0,0,0-.12-1.2Z"/><polygon class="cls-8" points="80.54 129.32 76.56 127.03 79.18 125.52 83.15 127.81 80.54 129.32"/><path class="cls-15" d="M79.32,125.92a.32.32,0,0,1-.27,0c-.08,0-.08-.12,0-.16a.34.34,0,0,1,.28,0C79.39,125.8,79.39,125.87,79.32,125.92Z"/><path class="cls-15" d="M77.25,127.11a.32.32,0,0,1-.27,0c-.08,0-.08-.11,0-.16a.34.34,0,0,1,.28,0C77.32,127,77.32,127.07,77.25,127.11Z"/><path class="cls-15" d="M80.67,129.09a.32.32,0,0,1-.27,0c-.08-.05-.08-.12,0-.16a.32.32,0,0,1,.27,0C80.74,129,80.75,129,80.67,129.09Z"/><path class="cls-15" d="M82.74,127.89a.26.26,0,0,1-.27,0c-.08,0-.08-.11,0-.15a.26.26,0,0,1,.27,0C82.82,127.78,82.82,127.85,82.74,127.89Z"/><path class="cls-13" d="M34.66,143.62a2.62,2.62,0,0,0,.78.67c.45.22.67.11.67.11"/><ellipse class="cls-6" cx="36.23" cy="143.62" rx="0.17" ry="0.35"/><ellipse class="cls-6" cx="34.89" cy="142.82" rx="0.17" ry="0.35"/><rect class="cls-28" width="255" height="187"/></svg>