<svg id="Calque_1" data-name="Calque 1" xmlns="http://www.w3.org/2000/svg" xmlns:xlink="http://www.w3.org/1999/xlink" viewBox="0 0 1891.34 1093.02"><defs><style>.cls-1{fill:#fff;}.cls-2{fill:#ff0;}.cls-3{fill:#ffc4ff;}.cls-4{fill:#fc65a2;}</style><symbol id="pt1" data-name="pt1" viewBox="0 0 2.5 2.5"><path class="cls-1" d="M2.5,1.25A1.25,1.25,0,1,1,1.25,0,1.25,1.25,0,0,1,2.5,1.25Z"/></symbol><symbol id="pt2_2" data-name="pt2 2" viewBox="0 0 4.5 4.5"><circle class="cls-2" cx="2.25" cy="2.25" r="2.25"/></symbol></defs><path class="cls-3" d="M885.56,966.73a.72.72,0,1,1-.72-.72A.71.71,0,0,1,885.56,966.73Z"/><path class="cls-3" d="M981.35,1089.74a.72.72,0,1,1-.71-.72A.71.71,0,0,1,981.35,1089.74Z"/><path class="cls-3" d="M1428.26,903.34a.72.72,0,1,1-.72-.72A.72.72,0,0,1,1428.26,903.34Z"/><path class="cls-3" d="M1344.84,673.22a.72.72,0,1,1-.71-.71A.71.71,0,0,1,1344.84,673.22Z"/><path class="cls-3" d="M1369.94,510.75a.72.72,0,1,1-.72-.71A.72.72,0,0,1,1369.94,510.75Z"/><path class="cls-3" d="M592.45,692.77a.72.72,0,1,1-.72-.72A.71.71,0,0,1,592.45,692.77Z"/><path class="cls-3" d="M542.71,1042.06a.72.72,0,1,1-.72-.71A.72.72,0,0,1,542.71,1042.06Z"/><path class="cls-3" d="M566,1059.62a.72.72,0,1,1-.72-.72A.71.71,0,0,1,566,1059.62Z"/><path class="cls-3" d="M412.09,859.48a.72.72,0,1,1-.72-.72A.71.71,0,0,1,412.09,859.48Z"/><path class="cls-3" d="M550.6,741a.72.72,0,1,1-.72-.72A.72.72,0,0,1,550.6,741Z"/><path class="cls-3" d="M661.73,857.73a.72.72,0,0,1-1.44,0,.72.72,0,0,1,1.44,0Z"/><path class="cls-3" d="M747.18,930.7a.72.72,0,1,1-.72-.72A.71.71,0,0,1,747.18,930.7Z"/><path class="cls-3" d="M983.89,862.83a.72.72,0,1,1-.72-.72A.71.71,0,0,1,983.89,862.83Z"/><path class="cls-3" d="M1153.91,767.18a.72.72,0,1,1-.71-.72A.71.71,0,0,1,1153.91,767.18Z"/><path class="cls-3" d="M1082.15,582.82a.72.72,0,1,1-.71-.72A.71.71,0,0,1,1082.15,582.82Z"/><path class="cls-3" d="M831.37,444.67a.72.72,0,1,1-.72-.72A.72.72,0,0,1,831.37,444.67Z"/><path class="cls-3" d="M592,558.41a.72.72,0,1,1-.72-.72A.72.72,0,0,1,592,558.41Z"/><path class="cls-3" d="M477.8,616.38a.72.72,0,1,1-.72-.71A.72.72,0,0,1,477.8,616.38Z"/><path class="cls-3" d="M427,460.74a.72.72,0,1,1-.72-.72A.72.72,0,0,1,427,460.74Z"/><path class="cls-3" d="M465.37,364.62a.72.72,0,1,1-.72-.71A.72.72,0,0,1,465.37,364.62Z"/><path class="cls-3" d="M667.57,387.64a.72.72,0,1,1-.72-.71A.72.72,0,0,1,667.57,387.64Z"/><path class="cls-3" d="M1088.69,385a.72.72,0,1,1-.71-.72A.71.71,0,0,1,1088.69,385Z"/><path class="cls-3" d="M957.21,326.67a.72.72,0,1,1-.71-.71A.71.71,0,0,1,957.21,326.67Z"/><path class="cls-3" d="M765.5,291.65a.72.72,0,1,1-.71-.71A.71.71,0,0,1,765.5,291.65Z"/><path class="cls-3" d="M1134.81,275.46a.72.72,0,0,1-1.44,0,.72.72,0,0,1,1.44,0Z"/><path class="cls-3" d="M1425.81,436.53a.72.72,0,1,1-.71-.72A.71.71,0,0,1,1425.81,436.53Z"/><path class="cls-3" d="M1421.69,271.89a.72.72,0,1,1-1.43,0,.72.72,0,1,1,1.43,0Z"/><path class="cls-3" d="M1314.57,276.7a.72.72,0,1,1-.72-.71A.72.72,0,0,1,1314.57,276.7Z"/><path class="cls-3" d="M1491.73,526.94a.72.72,0,1,1-.71-.72A.71.71,0,0,1,1491.73,526.94Z"/><path class="cls-3" d="M1430.25,885.77a.72.72,0,1,1-.71-.71A.71.71,0,0,1,1430.25,885.77Z"/><path class="cls-3" d="M1547.36,895.22a.72.72,0,1,1-.71-.72A.71.71,0,0,1,1547.36,895.22Z"/><path class="cls-3" d="M1390.71,1066.41a.72.72,0,1,1-.72-.71A.72.72,0,0,1,1390.71,1066.41Z"/><path class="cls-3" d="M1299.05,974.78a.72.72,0,1,1-.72-.72A.72.72,0,0,1,1299.05,974.78Z"/><path class="cls-3" d="M1198.09,1069.83a.72.72,0,1,1-.71-.72A.71.71,0,0,1,1198.09,1069.83Z"/><path class="cls-3" d="M1127,1071.56a.72.72,0,1,1-.71-.72A.72.72,0,0,1,1127,1071.56Z"/><path class="cls-3" d="M925.44,1071.58a.72.72,0,1,1-.71-.71A.71.71,0,0,1,925.44,1071.58Z"/><path class="cls-3" d="M507.54,956.74a.72.72,0,1,1-.71-.72A.72.72,0,0,1,507.54,956.74Z"/><path class="cls-3" d="M356.19,1061.69a.72.72,0,1,1-.71-.71A.71.71,0,0,1,356.19,1061.69Z"/><path class="cls-3" d="M404.81,1092a.72.72,0,1,1-.71-.71A.71.71,0,0,1,404.81,1092Z"/><path class="cls-3" d="M911.28,620.66a.72.72,0,1,1-.72-.72A.71.71,0,0,1,911.28,620.66Z"/><path class="cls-3" d="M850.06,821.53a.72.72,0,1,1-.71-.71A.71.71,0,0,1,850.06,821.53Z"/><path class="cls-3" d="M771.4,699.13a.72.72,0,1,1-.71-.72A.71.71,0,0,1,771.4,699.13Z"/><path class="cls-3" d="M852,526.25a.72.72,0,1,1-.71-.71A.71.71,0,0,1,852,526.25Z"/><path class="cls-3" d="M974,514a.72.72,0,1,1-.72-.71A.72.72,0,0,1,974,514Z"/><path class="cls-3" d="M1045.44,707.23a.72.72,0,1,1-.72-.71A.72.72,0,0,1,1045.44,707.23Z"/><path class="cls-3" d="M1093.66,909.32a.72.72,0,1,1-.71-.72A.71.71,0,0,1,1093.66,909.32Z"/><path class="cls-3" d="M1019.78,1021.42a.72.72,0,1,1-.72-.71A.72.72,0,0,1,1019.78,1021.42Z"/><path class="cls-3" d="M1412.66,325.69a.72.72,0,1,1-.72-.71A.72.72,0,0,1,1412.66,325.69Z"/><path class="cls-3" d="M1378.24,265.09a.72.72,0,1,1-.72-.71A.72.72,0,0,1,1378.24,265.09Z"/><path class="cls-3" d="M1311.8,228.61a.72.72,0,1,1-.72-.72A.71.71,0,0,1,1311.8,228.61Z"/><path class="cls-3" d="M982.42,227.64a.72.72,0,1,1-.72-.72A.71.71,0,0,1,982.42,227.64Z"/><path class="cls-3" d="M658.07,248.12a.72.72,0,1,1-.71-.71A.71.71,0,0,1,658.07,248.12Z"/><path class="cls-3" d="M534.9,285.73a.72.72,0,1,1-.72-.72A.72.72,0,0,1,534.9,285.73Z"/><use width="2.5" height="2.5" transform="translate(749.85 97.31) scale(0.57)" xlink:href="#pt1"/><use width="2.5" height="2.5" transform="translate(840.41 97.56) scale(0.57)" xlink:href="#pt1"/><use width="2.5" height="2.5" transform="translate(1083.17 226.64) scale(0.57)" xlink:href="#pt1"/><use width="2.5" height="2.5" transform="translate(1343.37 201.21) scale(0.57)" xlink:href="#pt1"/><use width="2.5" height="2.5" transform="translate(1233.86 86.79) scale(0.57)" xlink:href="#pt1"/><use width="2.5" height="2.5" transform="translate(1134.09 149.08) scale(0.57)" xlink:href="#pt1"/><use width="2.5" height="2.5" transform="translate(1154.79 277.87) scale(0.57)" xlink:href="#pt1"/><use width="2.5" height="2.5" transform="translate(1033.98 340.13) scale(0.57)" xlink:href="#pt1"/><use width="2.5" height="2.5" transform="translate(933.17 315.69) scale(0.57)" xlink:href="#pt1"/><use width="2.5" height="2.5" transform="translate(994.28 253.34) scale(0.57)" xlink:href="#pt1"/><use width="2.5" height="2.5" transform="translate(1052.48 340.09) scale(0.57)" xlink:href="#pt1"/><use width="2.5" height="2.5" transform="translate(1023.89 431.26) scale(0.57)" xlink:href="#pt1"/><use width="2.5" height="2.5" transform="translate(896.12 346.8) scale(0.57)" xlink:href="#pt1"/><use width="2.5" height="2.5" transform="translate(777.39 464.87) scale(0.57)" xlink:href="#pt1"/><use width="2.5" height="2.5" transform="translate(953.1 352.11) scale(0.57)" xlink:href="#pt1"/><use width="2.5" height="2.5" transform="translate(1028.37 480.82) scale(0.57)" xlink:href="#pt1"/><use width="2.5" height="2.5" transform="translate(1138.37 665.25) scale(0.57)" xlink:href="#pt1"/><use width="2.5" height="2.5" transform="translate(945.52 626.61) scale(0.57)" xlink:href="#pt1"/><use width="2.5" height="2.5" transform="translate(978.09 483.11) scale(0.57)" xlink:href="#pt1"/><use width="2.5" height="2.5" transform="translate(1259.86 328.22) scale(0.57)" xlink:href="#pt1"/><use width="2.5" height="2.5" transform="translate(1436.97 275.71) scale(0.57)" xlink:href="#pt1"/><use width="2.5" height="2.5" transform="translate(1415.62 137.77) scale(0.57)" xlink:href="#pt1"/><use width="2.5" height="2.5" transform="translate(1550.6 158.74) scale(0.57)" xlink:href="#pt1"/><use width="2.5" height="2.5" transform="translate(1593.72 304.39) scale(0.57)" xlink:href="#pt1"/><use width="2.5" height="2.5" transform="translate(1685.86 195.85) scale(0.57)" xlink:href="#pt1"/><use width="2.5" height="2.5" transform="translate(1662.64 108.02) scale(0.57)" xlink:href="#pt1"/><use width="2.5" height="2.5" transform="translate(1647.16 309.59) scale(0.57)" xlink:href="#pt1"/><use width="2.5" height="2.5" transform="translate(1772.78 263.88) scale(0.57)" xlink:href="#pt1"/><use width="2.5" height="2.5" transform="translate(1769.32 139.77) scale(0.57)" xlink:href="#pt1"/><use width="2.5" height="2.5" transform="translate(1832.12 194.96) scale(0.57)" xlink:href="#pt1"/><use width="2.5" height="2.5" transform="translate(1761.55 575.54) scale(0.57)" xlink:href="#pt1"/><use width="2.5" height="2.5" transform="translate(1726.01 586.85) scale(0.57)" xlink:href="#pt1"/><use width="2.5" height="2.5" transform="translate(1524.57 558.59) scale(0.57)" xlink:href="#pt1"/><use width="2.5" height="2.5" transform="translate(1742.37 650.55) scale(0.57)" xlink:href="#pt1"/><use width="2.5" height="2.5" transform="translate(1726.97 541.02) scale(0.57)" xlink:href="#pt1"/><use width="2.5" height="2.5" transform="translate(1582.35 492.34) scale(0.57)" xlink:href="#pt1"/><use width="2.5" height="2.5" transform="translate(1486.14 212.91) scale(0.57)" xlink:href="#pt1"/><use width="2.5" height="2.5" transform="translate(1345.9 89.46) scale(0.57)" xlink:href="#pt1"/><use width="2.5" height="2.5" transform="translate(1134.06 60.07) scale(0.57)" xlink:href="#pt1"/><use width="2.5" height="2.5" transform="translate(961.65 25.69) scale(0.57)" xlink:href="#pt1"/><use width="2.5" height="2.5" transform="translate(825.8 29.49) scale(0.57)" xlink:href="#pt1"/><use width="2.5" height="2.5" transform="translate(822.33 0) scale(0.57)" xlink:href="#pt1"/><use width="2.5" height="2.5" transform="translate(772.47 83.62) scale(0.57)" xlink:href="#pt1"/><use width="2.5" height="2.5" transform="translate(955.58 113.82) scale(0.57)" xlink:href="#pt1"/><use width="2.5" height="2.5" transform="translate(1058.1 124.91) scale(0.57)" xlink:href="#pt1"/><use width="2.5" height="2.5" transform="translate(903.67 265.57) scale(0.57)" xlink:href="#pt1"/><use width="2.5" height="2.5" transform="translate(683.54 282.85) scale(0.57)" xlink:href="#pt1"/><use width="2.5" height="2.5" transform="translate(772.06 314.75) scale(0.57)" xlink:href="#pt1"/><use width="2.5" height="2.5" transform="translate(735.14 390.6) scale(0.57)" xlink:href="#pt1"/><use width="2.5" height="2.5" transform="translate(836.74 362.29) scale(0.57)" xlink:href="#pt1"/><use width="2.5" height="2.5" transform="translate(792.95 434.57) scale(0.57)" xlink:href="#pt1"/><use width="2.5" height="2.5" transform="translate(867.05 515.69) scale(0.57)" xlink:href="#pt1"/><use width="2.5" height="2.5" transform="translate(1104.81 362.59) scale(0.57)" xlink:href="#pt1"/><use width="2.5" height="2.5" transform="translate(1023.87 467.39) scale(0.57)" xlink:href="#pt1"/><use width="2.5" height="2.5" transform="translate(1251.28 265.99) scale(0.57)" xlink:href="#pt1"/><use width="2.5" height="2.5" transform="translate(1263.99 185.15) scale(0.57)" xlink:href="#pt1"/><use width="2.5" height="2.5" transform="translate(1266.78 83.37) scale(0.57)" xlink:href="#pt1"/><use width="2.5" height="2.5" transform="translate(1336.4 244.98) scale(0.57)" xlink:href="#pt1"/><use width="2.5" height="2.5" transform="translate(1439.63 287.61) scale(0.57)" xlink:href="#pt1"/><use width="2.5" height="2.5" transform="translate(1503.64 292.37) scale(0.57)" xlink:href="#pt1"/><use width="2.5" height="2.5" transform="translate(1554.83 382.95) scale(0.57)" xlink:href="#pt1"/><use width="2.5" height="2.5" transform="translate(1557.3 459.54) scale(0.57)" xlink:href="#pt1"/><use width="2.5" height="2.5" transform="translate(1668.24 590.32) scale(0.57)" xlink:href="#pt1"/><use width="2.5" height="2.5" transform="translate(1642.69 452.57) scale(0.57)" xlink:href="#pt1"/><use width="2.5" height="2.5" transform="translate(1697.86 455.07) scale(0.57)" xlink:href="#pt1"/><use width="2.5" height="2.5" transform="translate(1805.46 320.8) scale(0.57)" xlink:href="#pt1"/><use width="2.5" height="2.5" transform="translate(1717.66 276.85) scale(0.57)" xlink:href="#pt1"/><use width="2.5" height="2.5" transform="translate(1600.62 367.38) scale(0.57)" xlink:href="#pt1"/><use width="2.5" height="2.5" transform="translate(1232.92 324.72) scale(0.57)" xlink:href="#pt1"/><use width="2.5" height="2.5" transform="translate(1214.79 272.71) scale(0.57)" xlink:href="#pt1"/><use width="2.5" height="2.5" transform="translate(1244.94 255.04) scale(0.57)" xlink:href="#pt1"/><use width="2.5" height="2.5" transform="translate(1132.56 356.51) scale(0.57)" xlink:href="#pt1"/><use width="2.5" height="2.5" transform="translate(923.69 253.34) scale(0.57)" xlink:href="#pt1"/><use width="2.5" height="2.5" transform="translate(757.58 205.32) scale(0.57)" xlink:href="#pt1"/><use width="2.5" height="2.5" transform="translate(984.11 46.41) scale(0.57)" xlink:href="#pt1"/><use width="2.5" height="2.5" transform="translate(1220.99 127.45) scale(0.57)" xlink:href="#pt1"/><use width="2.5" height="2.5" transform="translate(1295.84 208.49) scale(0.57)" xlink:href="#pt1"/><use width="2.5" height="2.5" transform="translate(1559.33 198.46) scale(0.57)" xlink:href="#pt1"/><use width="4.5" height="4.5" transform="translate(744.02 115.37) scale(0.57)" xlink:href="#pt2_2"/><use width="4.5" height="4.5" transform="translate(1007.77 70.08) scale(0.57)" xlink:href="#pt2_2"/><use width="4.5" height="4.5" transform="translate(1105.85 122.5) scale(0.57)" xlink:href="#pt2_2"/><use width="4.5" height="4.5" transform="translate(1019.07 271.71) scale(0.57)" xlink:href="#pt2_2"/><use width="4.5" height="4.5" transform="translate(1111.08 270.31) scale(0.57)" xlink:href="#pt2_2"/><use width="4.5" height="4.5" transform="translate(1347.27 221.78) scale(0.57)" xlink:href="#pt2_2"/><use width="4.5" height="4.5" transform="translate(1329.32 282.7) scale(0.57)" xlink:href="#pt2_2"/><use width="4.5" height="4.5" transform="translate(1477.81 301.51) scale(0.57)" xlink:href="#pt2_2"/><use width="4.5" height="4.5" transform="translate(1550.84 124.26) scale(0.57)" xlink:href="#pt2_2"/><use width="4.5" height="4.5" transform="translate(1633.47 126.31) scale(0.57)" xlink:href="#pt2_2"/><use width="4.5" height="4.5" transform="translate(1667.25 87.14) scale(0.57)" xlink:href="#pt2_2"/><use width="4.5" height="4.5" transform="translate(1334.66 282.7) scale(0.57)" xlink:href="#pt2_2"/><use width="4.5" height="4.5" transform="translate(975.63 220.74) scale(0.57)" xlink:href="#pt2_2"/><use width="4.5" height="4.5" transform="translate(820.66 298.59) scale(0.57)" xlink:href="#pt2_2"/><use width="4.5" height="4.5" transform="translate(1011 291.3) scale(0.57)" xlink:href="#pt2_2"/><use width="4.5" height="4.5" transform="translate(911.18 433.33) scale(0.57)" xlink:href="#pt2_2"/><use width="4.5" height="4.5" transform="translate(1171.34 196.82) scale(0.57)" xlink:href="#pt2_2"/><use width="2.5" height="2.5" transform="translate(759.01 244.06) scale(0.57)" xlink:href="#pt1"/><use width="2.5" height="2.5" transform="translate(849.57 244.3) scale(0.57)" xlink:href="#pt1"/><use width="2.5" height="2.5" transform="translate(1092.34 373.39) scale(0.57)" xlink:href="#pt1"/><use width="2.5" height="2.5" transform="translate(1352.53 347.95) scale(0.57)" xlink:href="#pt1"/><use width="2.5" height="2.5" transform="translate(1243.03 233.53) scale(0.57)" xlink:href="#pt1"/><use width="2.5" height="2.5" transform="translate(1143.25 295.82) scale(0.57)" xlink:href="#pt1"/><use width="2.5" height="2.5" transform="translate(1163.95 424.62) scale(0.57)" xlink:href="#pt1"/><use width="2.5" height="2.5" transform="translate(1043.14 486.87) scale(0.57)" xlink:href="#pt1"/><use width="2.5" height="2.5" transform="translate(942.33 462.44) scale(0.57)" xlink:href="#pt1"/><use width="2.5" height="2.5" transform="translate(1003.44 400.09) scale(0.57)" xlink:href="#pt1"/><use width="2.5" height="2.5" transform="translate(1061.64 486.84) scale(0.57)" xlink:href="#pt1"/><use width="2.5" height="2.5" transform="translate(1033.05 578.01) scale(0.57)" xlink:href="#pt1"/><use width="2.5" height="2.5" transform="translate(905.28 493.55) scale(0.57)" xlink:href="#pt1"/><use width="2.5" height="2.5" transform="translate(786.55 611.62) scale(0.57)" xlink:href="#pt1"/><use width="2.5" height="2.5" transform="translate(962.26 498.85) scale(0.57)" xlink:href="#pt1"/><use width="2.5" height="2.5" transform="translate(1037.53 627.56) scale(0.57)" xlink:href="#pt1"/><use width="2.5" height="2.5" transform="translate(1147.53 811.99) scale(0.57)" xlink:href="#pt1"/><use width="2.5" height="2.5" transform="translate(954.68 773.35) scale(0.57)" xlink:href="#pt1"/><use width="2.5" height="2.5" transform="translate(987.25 629.86) scale(0.57)" xlink:href="#pt1"/><use width="2.5" height="2.5" transform="translate(1269.02 474.96) scale(0.57)" xlink:href="#pt1"/><use width="2.5" height="2.5" transform="translate(1446.13 422.45) scale(0.57)" xlink:href="#pt1"/><use width="2.5" height="2.5" transform="translate(1424.78 284.52) scale(0.57)" xlink:href="#pt1"/><use width="2.5" height="2.5" transform="translate(1559.76 305.48) scale(0.57)" xlink:href="#pt1"/><use width="2.5" height="2.5" transform="translate(1602.88 451.14) scale(0.57)" xlink:href="#pt1"/><use width="2.5" height="2.5" transform="translate(1695.02 342.6) scale(0.57)" xlink:href="#pt1"/><use width="2.5" height="2.5" transform="translate(1671.8 254.76) scale(0.57)" xlink:href="#pt1"/><use width="2.5" height="2.5" transform="translate(1656.32 456.33) scale(0.57)" xlink:href="#pt1"/><use width="2.5" height="2.5" transform="translate(1781.94 410.63) scale(0.57)" xlink:href="#pt1"/><use width="2.5" height="2.5" transform="translate(1778.48 286.52) scale(0.57)" xlink:href="#pt1"/><use width="2.5" height="2.5" transform="translate(1841.28 341.71) scale(0.57)" xlink:href="#pt1"/><use width="2.5" height="2.5" transform="translate(1770.71 722.29) scale(0.57)" xlink:href="#pt1"/><use width="2.5" height="2.5" transform="translate(1735.17 733.6) scale(0.57)" xlink:href="#pt1"/><use width="2.5" height="2.5" transform="translate(1533.73 705.34) scale(0.57)" xlink:href="#pt1"/><use width="2.5" height="2.5" transform="translate(1751.53 797.3) scale(0.57)" xlink:href="#pt1"/><use width="2.5" height="2.5" transform="translate(1736.13 687.77) scale(0.57)" xlink:href="#pt1"/><use width="2.5" height="2.5" transform="translate(1591.51 639.09) scale(0.57)" xlink:href="#pt1"/><use width="2.5" height="2.5" transform="translate(1495.3 359.65) scale(0.57)" xlink:href="#pt1"/><use width="2.5" height="2.5" transform="translate(1355.06 236.2) scale(0.57)" xlink:href="#pt1"/><use width="2.5" height="2.5" transform="translate(1143.22 206.82) scale(0.57)" xlink:href="#pt1"/><use width="2.5" height="2.5" transform="translate(970.81 172.44) scale(0.57)" xlink:href="#pt1"/><use width="2.5" height="2.5" transform="translate(834.96 176.24) scale(0.57)" xlink:href="#pt1"/><use width="2.5" height="2.5" transform="translate(831.49 146.75) scale(0.57)" xlink:href="#pt1"/><use width="2.5" height="2.5" transform="translate(781.63 230.36) scale(0.57)" xlink:href="#pt1"/><use width="2.5" height="2.5" transform="translate(964.74 260.57) scale(0.57)" xlink:href="#pt1"/><use width="2.5" height="2.5" transform="translate(1067.26 271.66) scale(0.57)" xlink:href="#pt1"/><use width="2.5" height="2.5" transform="translate(912.83 412.32) scale(0.57)" xlink:href="#pt1"/><use width="2.5" height="2.5" transform="translate(692.7 429.6) scale(0.57)" xlink:href="#pt1"/><use width="2.5" height="2.5" transform="translate(781.22 461.5) scale(0.57)" xlink:href="#pt1"/><use width="2.5" height="2.5" transform="translate(744.3 537.35) scale(0.57)" xlink:href="#pt1"/><use width="2.5" height="2.5" transform="translate(845.9 509.04) scale(0.57)" xlink:href="#pt1"/><use width="2.5" height="2.5" transform="translate(802.11 581.32) scale(0.57)" xlink:href="#pt1"/><use width="2.5" height="2.5" transform="translate(876.21 662.44) scale(0.57)" xlink:href="#pt1"/><use width="2.5" height="2.5" transform="translate(1113.97 509.33) scale(0.57)" xlink:href="#pt1"/><use width="2.5" height="2.5" transform="translate(1033.03 614.14) scale(0.57)" xlink:href="#pt1"/><use width="2.5" height="2.5" transform="translate(1260.44 412.74) scale(0.57)" xlink:href="#pt1"/><use width="2.5" height="2.5" transform="translate(1273.15 331.9) scale(0.57)" xlink:href="#pt1"/><use width="2.5" height="2.5" transform="translate(1275.94 230.11) scale(0.57)" xlink:href="#pt1"/><use width="2.5" height="2.5" transform="translate(1345.56 391.73) scale(0.57)" xlink:href="#pt1"/><use width="2.5" height="2.5" transform="translate(1448.79 434.35) scale(0.57)" xlink:href="#pt1"/><use width="2.5" height="2.5" transform="translate(1512.8 439.12) scale(0.57)" xlink:href="#pt1"/><use width="2.5" height="2.5" transform="translate(1563.99 529.7) scale(0.57)" xlink:href="#pt1"/><use width="2.5" height="2.5" transform="translate(1566.47 606.28) scale(0.57)" xlink:href="#pt1"/><use width="2.5" height="2.5" transform="translate(1677.4 737.07) scale(0.57)" xlink:href="#pt1"/><use width="2.5" height="2.5" transform="translate(1651.85 599.31) scale(0.57)" xlink:href="#pt1"/><use width="2.5" height="2.5" transform="translate(1707.02 601.81) scale(0.57)" xlink:href="#pt1"/><use width="2.5" height="2.5" transform="translate(1814.62 467.55) scale(0.57)" xlink:href="#pt1"/><use width="2.5" height="2.5" transform="translate(1726.82 423.6) scale(0.57)" xlink:href="#pt1"/><use width="2.5" height="2.5" transform="translate(1609.78 514.12) scale(0.57)" xlink:href="#pt1"/><use width="2.5" height="2.5" transform="translate(1242.08 471.46) scale(0.57)" xlink:href="#pt1"/><use width="2.5" height="2.5" transform="translate(1223.95 419.46) scale(0.57)" xlink:href="#pt1"/><use width="2.5" height="2.5" transform="translate(1254.1 401.79) scale(0.57)" xlink:href="#pt1"/><use width="2.5" height="2.5" transform="translate(1141.72 503.26) scale(0.57)" xlink:href="#pt1"/><use width="2.5" height="2.5" transform="translate(932.85 400.09) scale(0.57)" xlink:href="#pt1"/><use width="2.5" height="2.5" transform="translate(766.74 352.06) scale(0.57)" xlink:href="#pt1"/><use width="2.5" height="2.5" transform="translate(993.27 193.16) scale(0.57)" xlink:href="#pt1"/><use width="2.5" height="2.5" transform="translate(1230.15 274.19) scale(0.57)" xlink:href="#pt1"/><use width="2.5" height="2.5" transform="translate(1305 355.24) scale(0.57)" xlink:href="#pt1"/><use width="2.5" height="2.5" transform="translate(1568.49 345.21) scale(0.57)" xlink:href="#pt1"/><use width="4.5" height="4.5" transform="translate(753.18 262.12) scale(0.57)" xlink:href="#pt2_2"/><use width="4.5" height="4.5" transform="translate(1016.93 216.82) scale(0.57)" xlink:href="#pt2_2"/><use width="4.5" height="4.5" transform="translate(1115.01 269.25) scale(0.57)" xlink:href="#pt2_2"/><use width="4.5" height="4.5" transform="translate(1028.23 418.45) scale(0.57)" xlink:href="#pt2_2"/><use width="4.5" height="4.5" transform="translate(1120.24 417.06) scale(0.57)" xlink:href="#pt2_2"/><use width="4.5" height="4.5" transform="translate(1356.43 368.53) scale(0.57)" xlink:href="#pt2_2"/><use width="4.5" height="4.5" transform="translate(1338.48 429.45) scale(0.57)" xlink:href="#pt2_2"/><use width="4.5" height="4.5" transform="translate(1486.97 448.26) scale(0.57)" xlink:href="#pt2_2"/><use width="4.5" height="4.5" transform="translate(1560 271.01) scale(0.57)" xlink:href="#pt2_2"/><use width="4.5" height="4.5" transform="translate(1642.63 273.06) scale(0.57)" xlink:href="#pt2_2"/><use width="4.5" height="4.5" transform="translate(1676.41 233.89) scale(0.57)" xlink:href="#pt2_2"/><use width="4.5" height="4.5" transform="translate(1343.82 429.45) scale(0.57)" xlink:href="#pt2_2"/><use width="4.5" height="4.5" transform="translate(984.79 367.48) scale(0.57)" xlink:href="#pt2_2"/><use width="4.5" height="4.5" transform="translate(829.82 445.34) scale(0.57)" xlink:href="#pt2_2"/><use width="4.5" height="4.5" transform="translate(1020.16 438.05) scale(0.57)" xlink:href="#pt2_2"/><use width="4.5" height="4.5" transform="translate(920.34 580.08) scale(0.57)" xlink:href="#pt2_2"/><use width="4.5" height="4.5" transform="translate(1180.51 343.56) scale(0.57)" xlink:href="#pt2_2"/><use width="2.5" height="2.5" transform="translate(693.79 354.15) scale(0.57)" xlink:href="#pt1"/><use width="2.5" height="2.5" transform="translate(784.35 354.4) scale(0.57)" xlink:href="#pt1"/><use width="2.5" height="2.5" transform="translate(1027.12 483.48) scale(0.57)" xlink:href="#pt1"/><use width="2.5" height="2.5" transform="translate(1287.31 458.05) scale(0.57)" xlink:href="#pt1"/><use width="2.5" height="2.5" transform="translate(1177.81 343.63) scale(0.57)" xlink:href="#pt1"/><use width="2.5" height="2.5" transform="translate(1078.03 405.92) scale(0.57)" xlink:href="#pt1"/><use width="2.5" height="2.5" transform="translate(1098.73 534.71) scale(0.57)" xlink:href="#pt1"/><use width="2.5" height="2.5" transform="translate(977.92 596.97) scale(0.57)" xlink:href="#pt1"/><use width="2.5" height="2.5" transform="translate(877.11 572.53) scale(0.57)" xlink:href="#pt1"/><use width="2.5" height="2.5" transform="translate(938.22 510.18) scale(0.57)" xlink:href="#pt1"/><use width="2.5" height="2.5" transform="translate(996.42 596.93) scale(0.57)" xlink:href="#pt1"/><use width="2.5" height="2.5" transform="translate(967.83 688.1) scale(0.57)" xlink:href="#pt1"/><use width="2.5" height="2.5" transform="translate(840.06 603.64) scale(0.57)" xlink:href="#pt1"/><use width="2.5" height="2.5" transform="translate(721.33 721.71) scale(0.57)" xlink:href="#pt1"/><use width="2.5" height="2.5" transform="translate(897.04 608.95) scale(0.57)" xlink:href="#pt1"/><use width="2.5" height="2.5" transform="translate(972.31 737.66) scale(0.57)" xlink:href="#pt1"/><use width="2.5" height="2.5" transform="translate(1082.31 922.09) scale(0.57)" xlink:href="#pt1"/><use width="2.5" height="2.5" transform="translate(889.46 883.45) scale(0.57)" xlink:href="#pt1"/><use width="2.5" height="2.5" transform="translate(922.03 739.95) scale(0.57)" xlink:href="#pt1"/><use width="2.5" height="2.5" transform="translate(1203.8 585.06) scale(0.57)" xlink:href="#pt1"/><use width="2.5" height="2.5" transform="translate(1380.91 532.55) scale(0.57)" xlink:href="#pt1"/><use width="2.5" height="2.5" transform="translate(1359.56 394.61) scale(0.57)" xlink:href="#pt1"/><use width="2.5" height="2.5" transform="translate(1494.54 415.58) scale(0.57)" xlink:href="#pt1"/><use width="2.5" height="2.5" transform="translate(1537.66 561.23) scale(0.57)" xlink:href="#pt1"/><use width="2.5" height="2.5" transform="translate(1629.8 452.7) scale(0.57)" xlink:href="#pt1"/><use width="2.5" height="2.5" transform="translate(1606.58 364.86) scale(0.57)" xlink:href="#pt1"/><use width="2.5" height="2.5" transform="translate(1591.1 566.43) scale(0.57)" xlink:href="#pt1"/><use width="2.5" height="2.5" transform="translate(1716.72 520.72) scale(0.57)" xlink:href="#pt1"/><use width="2.5" height="2.5" transform="translate(1713.26 396.61) scale(0.57)" xlink:href="#pt1"/><use width="2.5" height="2.5" transform="translate(1776.06 451.8) scale(0.57)" xlink:href="#pt1"/><use width="2.5" height="2.5" transform="translate(1705.49 832.38) scale(0.57)" xlink:href="#pt1"/><use width="2.5" height="2.5" transform="translate(1669.95 843.69) scale(0.57)" xlink:href="#pt1"/><use width="2.5" height="2.5" transform="translate(1468.51 815.43) scale(0.57)" xlink:href="#pt1"/><use width="2.5" height="2.5" transform="translate(1686.31 907.39) scale(0.57)" xlink:href="#pt1"/><use width="2.5" height="2.5" transform="translate(1670.91 797.86) scale(0.57)" xlink:href="#pt1"/><use width="2.5" height="2.5" transform="translate(1526.29 749.18) scale(0.57)" xlink:href="#pt1"/><use width="2.5" height="2.5" transform="translate(1430.08 469.75) scale(0.57)" xlink:href="#pt1"/><use width="2.5" height="2.5" transform="translate(1289.84 346.3) scale(0.57)" xlink:href="#pt1"/><use width="2.5" height="2.5" transform="translate(1078.01 316.91) scale(0.57)" xlink:href="#pt1"/><use width="2.5" height="2.5" transform="translate(905.59 282.53) scale(0.57)" xlink:href="#pt1"/><use width="2.5" height="2.5" transform="translate(769.74 286.33) scale(0.57)" xlink:href="#pt1"/><use width="2.5" height="2.5" transform="translate(766.27 256.84) scale(0.57)" xlink:href="#pt1"/><use width="2.5" height="2.5" transform="translate(716.41 340.46) scale(0.57)" xlink:href="#pt1"/><use width="2.5" height="2.5" transform="translate(899.52 370.66) scale(0.57)" xlink:href="#pt1"/><use width="2.5" height="2.5" transform="translate(1002.04 381.75) scale(0.57)" xlink:href="#pt1"/><use width="2.5" height="2.5" transform="translate(847.61 522.41) scale(0.57)" xlink:href="#pt1"/><use width="2.5" height="2.5" transform="translate(627.48 539.69) scale(0.57)" xlink:href="#pt1"/><use width="2.5" height="2.5" transform="translate(716 571.59) scale(0.57)" xlink:href="#pt1"/><use width="2.5" height="2.5" transform="translate(679.08 647.44) scale(0.57)" xlink:href="#pt1"/><use width="2.5" height="2.5" transform="translate(780.68 619.13) scale(0.57)" xlink:href="#pt1"/><use width="2.5" height="2.5" transform="translate(736.89 691.41) scale(0.57)" xlink:href="#pt1"/><use width="2.5" height="2.5" transform="translate(810.99 772.53) scale(0.57)" xlink:href="#pt1"/><use width="2.5" height="2.5" transform="translate(1048.75 619.43) scale(0.57)" xlink:href="#pt1"/><use width="2.5" height="2.5" transform="translate(967.81 724.23) scale(0.57)" xlink:href="#pt1"/><use width="2.5" height="2.5" transform="translate(1195.22 522.83) scale(0.57)" xlink:href="#pt1"/><use width="2.5" height="2.5" transform="translate(1207.93 441.99) scale(0.57)" xlink:href="#pt1"/><use width="2.5" height="2.5" transform="translate(1210.72 340.21) scale(0.57)" xlink:href="#pt1"/><use width="2.5" height="2.5" transform="translate(1280.34 501.82) scale(0.57)" xlink:href="#pt1"/><use width="2.5" height="2.5" transform="translate(1383.57 544.45) scale(0.57)" xlink:href="#pt1"/><use width="2.5" height="2.5" transform="translate(1447.58 549.21) scale(0.57)" xlink:href="#pt1"/><use width="2.5" height="2.5" transform="translate(1498.77 639.79) scale(0.57)" xlink:href="#pt1"/><use width="2.5" height="2.5" transform="translate(1501.25 716.38) scale(0.57)" xlink:href="#pt1"/><use width="2.5" height="2.5" transform="translate(1612.18 847.16) scale(0.57)" xlink:href="#pt1"/><use width="2.5" height="2.5" transform="translate(1586.63 709.41) scale(0.57)" xlink:href="#pt1"/><use width="2.5" height="2.5" transform="translate(1641.8 711.91) scale(0.57)" xlink:href="#pt1"/><use width="2.5" height="2.5" transform="translate(1749.4 577.64) scale(0.57)" xlink:href="#pt1"/><use width="2.5" height="2.5" transform="translate(1661.6 533.69) scale(0.57)" xlink:href="#pt1"/><use width="2.5" height="2.5" transform="translate(1544.56 624.22) scale(0.57)" xlink:href="#pt1"/><use width="2.5" height="2.5" transform="translate(1176.86 581.56) scale(0.57)" xlink:href="#pt1"/><use width="2.5" height="2.5" transform="translate(1158.73 529.55) scale(0.57)" xlink:href="#pt1"/><use width="2.5" height="2.5" transform="translate(1188.88 511.88) scale(0.57)" xlink:href="#pt1"/><use width="2.5" height="2.5" transform="translate(1076.5 613.35) scale(0.57)" xlink:href="#pt1"/><use width="2.5" height="2.5" transform="translate(867.63 510.18) scale(0.57)" xlink:href="#pt1"/><use width="2.5" height="2.5" transform="translate(701.52 462.16) scale(0.57)" xlink:href="#pt1"/><use width="2.5" height="2.5" transform="translate(928.05 303.25) scale(0.57)" xlink:href="#pt1"/><use width="2.5" height="2.5" transform="translate(1164.93 384.29) scale(0.57)" xlink:href="#pt1"/><use width="2.5" height="2.5" transform="translate(1239.78 465.33) scale(0.57)" xlink:href="#pt1"/><use width="2.5" height="2.5" transform="translate(1503.27 455.3) scale(0.57)" xlink:href="#pt1"/><use width="4.5" height="4.5" transform="translate(687.97 372.21) scale(0.57)" xlink:href="#pt2_2"/><use width="4.5" height="4.5" transform="translate(951.71 326.92) scale(0.57)" xlink:href="#pt2_2"/><use width="4.5" height="4.5" transform="translate(1049.79 379.34) scale(0.57)" xlink:href="#pt2_2"/><use width="4.5" height="4.5" transform="translate(963.02 528.55) scale(0.57)" xlink:href="#pt2_2"/><use width="4.5" height="4.5" transform="translate(1055.02 527.15) scale(0.57)" xlink:href="#pt2_2"/><use width="4.5" height="4.5" transform="translate(1291.21 478.62) scale(0.57)" xlink:href="#pt2_2"/><use width="4.5" height="4.5" transform="translate(1273.26 539.54) scale(0.57)" xlink:href="#pt2_2"/><use width="4.5" height="4.5" transform="translate(1421.75 558.35) scale(0.57)" xlink:href="#pt2_2"/><use width="4.5" height="4.5" transform="translate(1494.78 381.1) scale(0.57)" xlink:href="#pt2_2"/><use width="4.5" height="4.5" transform="translate(1577.41 383.15) scale(0.57)" xlink:href="#pt2_2"/><use width="4.5" height="4.5" transform="translate(1611.2 343.98) scale(0.57)" xlink:href="#pt2_2"/><use width="4.5" height="4.5" transform="translate(1278.6 539.54) scale(0.57)" xlink:href="#pt2_2"/><use width="4.5" height="4.5" transform="translate(919.57 477.58) scale(0.57)" xlink:href="#pt2_2"/><use width="4.5" height="4.5" transform="translate(764.6 555.43) scale(0.57)" xlink:href="#pt2_2"/><use width="4.5" height="4.5" transform="translate(954.94 548.14) scale(0.57)" xlink:href="#pt2_2"/><use width="4.5" height="4.5" transform="translate(855.12 690.17) scale(0.57)" xlink:href="#pt2_2"/><use width="4.5" height="4.5" transform="translate(1115.29 453.66) scale(0.57)" xlink:href="#pt2_2"/><use width="2.5" height="2.5" transform="translate(448.1 495.07) scale(0.57)" xlink:href="#pt1"/><use width="2.5" height="2.5" transform="translate(538.65 495.31) scale(0.57)" xlink:href="#pt1"/><use width="2.5" height="2.5" transform="translate(781.42 624.39) scale(0.57)" xlink:href="#pt1"/><use width="2.5" height="2.5" transform="translate(1041.62 598.96) scale(0.57)" xlink:href="#pt1"/><use width="2.5" height="2.5" transform="translate(932.11 484.54) scale(0.57)" xlink:href="#pt1"/><use width="2.5" height="2.5" transform="translate(832.34 546.83) scale(0.57)" xlink:href="#pt1"/><use width="2.5" height="2.5" transform="translate(853.04 675.62) scale(0.57)" xlink:href="#pt1"/><use width="2.5" height="2.5" transform="translate(732.23 737.88) scale(0.57)" xlink:href="#pt1"/><use width="2.5" height="2.5" transform="translate(631.42 713.45) scale(0.57)" xlink:href="#pt1"/><use width="2.5" height="2.5" transform="translate(692.53 651.1) scale(0.57)" xlink:href="#pt1"/><use width="2.5" height="2.5" transform="translate(750.73 737.84) scale(0.57)" xlink:href="#pt1"/><use width="2.5" height="2.5" transform="translate(722.14 829.01) scale(0.57)" xlink:href="#pt1"/><use width="2.5" height="2.5" transform="translate(594.37 744.55) scale(0.57)" xlink:href="#pt1"/><use width="2.5" height="2.5" transform="translate(475.64 862.62) scale(0.57)" xlink:href="#pt1"/><use width="2.5" height="2.5" transform="translate(651.35 749.86) scale(0.57)" xlink:href="#pt1"/><use width="2.5" height="2.5" transform="translate(726.62 878.57) scale(0.57)" xlink:href="#pt1"/><use width="2.5" height="2.5" transform="translate(836.61 1063) scale(0.57)" xlink:href="#pt1"/><use width="2.5" height="2.5" transform="translate(643.77 1024.36) scale(0.57)" xlink:href="#pt1"/><use width="2.5" height="2.5" transform="translate(676.34 880.87) scale(0.57)" xlink:href="#pt1"/><use width="2.5" height="2.5" transform="translate(958.11 725.97) scale(0.57)" xlink:href="#pt1"/><use width="2.5" height="2.5" transform="translate(1135.22 673.46) scale(0.57)" xlink:href="#pt1"/><use width="2.5" height="2.5" transform="translate(1113.87 535.52) scale(0.57)" xlink:href="#pt1"/><use width="2.5" height="2.5" transform="translate(1248.84 556.49) scale(0.57)" xlink:href="#pt1"/><use width="2.5" height="2.5" transform="translate(1291.96 702.15) scale(0.57)" xlink:href="#pt1"/><use width="2.5" height="2.5" transform="translate(1384.11 593.61) scale(0.57)" xlink:href="#pt1"/><use width="2.5" height="2.5" transform="translate(1360.89 505.77) scale(0.57)" xlink:href="#pt1"/><use width="2.5" height="2.5" transform="translate(1345.41 707.34) scale(0.57)" xlink:href="#pt1"/><use width="2.5" height="2.5" transform="translate(1471.03 661.63) scale(0.57)" xlink:href="#pt1"/><use width="2.5" height="2.5" transform="translate(1467.57 537.52) scale(0.57)" xlink:href="#pt1"/><use width="2.5" height="2.5" transform="translate(1530.37 592.71) scale(0.57)" xlink:href="#pt1"/><use width="2.5" height="2.5" transform="translate(1459.8 973.3) scale(0.57)" xlink:href="#pt1"/><use width="2.5" height="2.5" transform="translate(1424.26 984.61) scale(0.57)" xlink:href="#pt1"/><use width="2.5" height="2.5" transform="translate(1222.82 956.35) scale(0.57)" xlink:href="#pt1"/><use width="2.5" height="2.5" transform="translate(1440.62 1048.3) scale(0.57)" xlink:href="#pt1"/><use width="2.5" height="2.5" transform="translate(1425.21 938.78) scale(0.57)" xlink:href="#pt1"/><use width="2.5" height="2.5" transform="translate(1280.6 890.09) scale(0.57)" xlink:href="#pt1"/><use width="2.5" height="2.5" transform="translate(1184.39 610.66) scale(0.57)" xlink:href="#pt1"/><use width="2.5" height="2.5" transform="translate(1044.15 487.21) scale(0.57)" xlink:href="#pt1"/><use width="2.5" height="2.5" transform="translate(832.31 457.83) scale(0.57)" xlink:href="#pt1"/><use width="2.5" height="2.5" transform="translate(659.89 423.45) scale(0.57)" xlink:href="#pt1"/><use width="2.5" height="2.5" transform="translate(524.04 427.24) scale(0.57)" xlink:href="#pt1"/><use width="2.5" height="2.5" transform="translate(520.58 397.75) scale(0.57)" xlink:href="#pt1"/><use width="2.5" height="2.5" transform="translate(470.71 481.37) scale(0.57)" xlink:href="#pt1"/><use width="2.5" height="2.5" transform="translate(653.83 511.58) scale(0.57)" xlink:href="#pt1"/><use width="2.5" height="2.5" transform="translate(756.34 522.66) scale(0.57)" xlink:href="#pt1"/><use width="2.5" height="2.5" transform="translate(601.91 663.32) scale(0.57)" xlink:href="#pt1"/><use width="2.5" height="2.5" transform="translate(381.79 680.6) scale(0.57)" xlink:href="#pt1"/><use width="2.5" height="2.5" transform="translate(470.3 712.51) scale(0.57)" xlink:href="#pt1"/><use width="2.5" height="2.5" transform="translate(433.39 788.36) scale(0.57)" xlink:href="#pt1"/><use width="2.5" height="2.5" transform="translate(534.98 760.05) scale(0.57)" xlink:href="#pt1"/><use width="2.5" height="2.5" transform="translate(491.2 832.32) scale(0.57)" xlink:href="#pt1"/><use width="2.5" height="2.5" transform="translate(565.29 913.44) scale(0.57)" xlink:href="#pt1"/><use width="2.5" height="2.5" transform="translate(803.05 760.34) scale(0.57)" xlink:href="#pt1"/><use width="2.5" height="2.5" transform="translate(722.12 865.14) scale(0.57)" xlink:href="#pt1"/><use width="2.5" height="2.5" transform="translate(949.53 663.75) scale(0.57)" xlink:href="#pt1"/><use width="2.5" height="2.5" transform="translate(962.23 582.9) scale(0.57)" xlink:href="#pt1"/><use width="2.5" height="2.5" transform="translate(965.03 481.12) scale(0.57)" xlink:href="#pt1"/><use width="2.5" height="2.5" transform="translate(1034.65 642.74) scale(0.57)" xlink:href="#pt1"/><use width="2.5" height="2.5" transform="translate(1137.88 685.36) scale(0.57)" xlink:href="#pt1"/><use width="2.5" height="2.5" transform="translate(1201.89 690.12) scale(0.57)" xlink:href="#pt1"/><use width="2.5" height="2.5" transform="translate(1253.08 780.7) scale(0.57)" xlink:href="#pt1"/><use width="2.5" height="2.5" transform="translate(1255.55 857.29) scale(0.57)" xlink:href="#pt1"/><use width="2.5" height="2.5" transform="translate(1366.49 988.08) scale(0.57)" xlink:href="#pt1"/><use width="2.5" height="2.5" transform="translate(1340.93 850.32) scale(0.57)" xlink:href="#pt1"/><use width="2.5" height="2.5" transform="translate(1396.11 852.82) scale(0.57)" xlink:href="#pt1"/><use width="2.5" height="2.5" transform="translate(1503.71 718.55) scale(0.57)" xlink:href="#pt1"/><use width="2.5" height="2.5" transform="translate(1415.91 674.6) scale(0.57)" xlink:href="#pt1"/><use width="2.5" height="2.5" transform="translate(1298.87 765.13) scale(0.57)" xlink:href="#pt1"/><use width="2.5" height="2.5" transform="translate(931.17 722.47) scale(0.57)" xlink:href="#pt1"/><use width="2.5" height="2.5" transform="translate(913.04 670.46) scale(0.57)" xlink:href="#pt1"/><use width="2.5" height="2.5" transform="translate(943.19 652.79) scale(0.57)" xlink:href="#pt1"/><use width="2.5" height="2.5" transform="translate(830.8 754.26) scale(0.57)" xlink:href="#pt1"/><use width="2.5" height="2.5" transform="translate(621.94 651.09) scale(0.57)" xlink:href="#pt1"/><use width="2.5" height="2.5" transform="translate(455.82 603.07) scale(0.57)" xlink:href="#pt1"/><use width="2.5" height="2.5" transform="translate(682.36 444.16) scale(0.57)" xlink:href="#pt1"/><use width="2.5" height="2.5" transform="translate(919.24 525.2) scale(0.57)" xlink:href="#pt1"/><use width="2.5" height="2.5" transform="translate(994.09 606.25) scale(0.57)" xlink:href="#pt1"/><use width="2.5" height="2.5" transform="translate(1257.57 596.21) scale(0.57)" xlink:href="#pt1"/><use width="4.5" height="4.5" transform="translate(442.27 513.12) scale(0.57)" xlink:href="#pt2_2"/><use width="4.5" height="4.5" transform="translate(706.02 467.83) scale(0.57)" xlink:href="#pt2_2"/><use width="4.5" height="4.5" transform="translate(804.1 520.26) scale(0.57)" xlink:href="#pt2_2"/><use width="4.5" height="4.5" transform="translate(717.32 669.46) scale(0.57)" xlink:href="#pt2_2"/><use width="4.5" height="4.5" transform="translate(809.33 668.06) scale(0.57)" xlink:href="#pt2_2"/><use width="4.5" height="4.5" transform="translate(1045.51 619.54) scale(0.57)" xlink:href="#pt2_2"/><use width="4.5" height="4.5" transform="translate(1027.57 680.45) scale(0.57)" xlink:href="#pt2_2"/><use width="4.5" height="4.5" transform="translate(1176.06 699.27) scale(0.57)" xlink:href="#pt2_2"/><use width="4.5" height="4.5" transform="translate(1249.09 522.01) scale(0.57)" xlink:href="#pt2_2"/><use width="4.5" height="4.5" transform="translate(1331.71 524.06) scale(0.57)" xlink:href="#pt2_2"/><use width="4.5" height="4.5" transform="translate(1365.5 484.89) scale(0.57)" xlink:href="#pt2_2"/><use width="4.5" height="4.5" transform="translate(1032.91 680.45) scale(0.57)" xlink:href="#pt2_2"/><use width="4.5" height="4.5" transform="translate(673.88 618.49) scale(0.57)" xlink:href="#pt2_2"/><use width="4.5" height="4.5" transform="translate(518.9 696.34) scale(0.57)" xlink:href="#pt2_2"/><use width="4.5" height="4.5" transform="translate(709.25 689.06) scale(0.57)" xlink:href="#pt2_2"/><use width="4.5" height="4.5" transform="translate(609.43 831.08) scale(0.57)" xlink:href="#pt2_2"/><use width="4.5" height="4.5" transform="translate(869.59 594.57) scale(0.57)" xlink:href="#pt2_2"/><use width="2.5" height="2.5" transform="translate(66.31 618.2) scale(0.57)" xlink:href="#pt1"/><use width="2.5" height="2.5" transform="translate(156.87 618.44) scale(0.57)" xlink:href="#pt1"/><use width="2.5" height="2.5" transform="translate(399.63 747.52) scale(0.57)" xlink:href="#pt1"/><use width="2.5" height="2.5" transform="translate(659.83 722.09) scale(0.57)" xlink:href="#pt1"/><use width="2.5" height="2.5" transform="translate(550.32 607.67) scale(0.57)" xlink:href="#pt1"/><use width="2.5" height="2.5" transform="translate(450.55 669.96) scale(0.57)" xlink:href="#pt1"/><use width="2.5" height="2.5" transform="translate(471.25 798.75) scale(0.57)" xlink:href="#pt1"/><use width="2.5" height="2.5" transform="translate(350.44 861.01) scale(0.57)" xlink:href="#pt1"/><use width="2.5" height="2.5" transform="translate(249.63 836.58) scale(0.57)" xlink:href="#pt1"/><use width="2.5" height="2.5" transform="translate(310.74 774.23) scale(0.57)" xlink:href="#pt1"/><use width="2.5" height="2.5" transform="translate(368.94 860.97) scale(0.57)" xlink:href="#pt1"/><use width="2.5" height="2.5" transform="translate(340.35 952.14) scale(0.57)" xlink:href="#pt1"/><use width="2.5" height="2.5" transform="translate(212.58 867.68) scale(0.57)" xlink:href="#pt1"/><use width="2.5" height="2.5" transform="translate(93.85 985.75) scale(0.57)" xlink:href="#pt1"/><use width="2.5" height="2.5" transform="translate(269.56 872.99) scale(0.57)" xlink:href="#pt1"/><use width="2.5" height="2.5" transform="translate(344.83 1001.7) scale(0.57)" xlink:href="#pt1"/><use width="2.5" height="2.5" transform="translate(294.55 1004) scale(0.57)" xlink:href="#pt1"/><use width="2.5" height="2.5" transform="translate(576.32 849.1) scale(0.57)" xlink:href="#pt1"/><use width="2.5" height="2.5" transform="translate(753.43 796.59) scale(0.57)" xlink:href="#pt1"/><use width="2.5" height="2.5" transform="translate(732.08 658.65) scale(0.57)" xlink:href="#pt1"/><use width="2.5" height="2.5" transform="translate(867.06 679.62) scale(0.57)" xlink:href="#pt1"/><use width="2.5" height="2.5" transform="translate(910.18 825.27) scale(0.57)" xlink:href="#pt1"/><use width="2.5" height="2.5" transform="translate(1002.32 716.74) scale(0.57)" xlink:href="#pt1"/><use width="2.5" height="2.5" transform="translate(979.1 628.9) scale(0.57)" xlink:href="#pt1"/><use width="2.5" height="2.5" transform="translate(963.62 830.47) scale(0.57)" xlink:href="#pt1"/><use width="2.5" height="2.5" transform="translate(1089.24 784.76) scale(0.57)" xlink:href="#pt1"/><use width="2.5" height="2.5" transform="translate(1085.78 660.65) scale(0.57)" xlink:href="#pt1"/><use width="2.5" height="2.5" transform="translate(1148.58 715.84) scale(0.57)" xlink:href="#pt1"/><use width="2.5" height="2.5" transform="translate(841.03 1079.48) scale(0.57)" xlink:href="#pt1"/><use width="2.5" height="2.5" transform="translate(1043.42 1061.9) scale(0.57)" xlink:href="#pt1"/><use width="2.5" height="2.5" transform="translate(898.81 1013.22) scale(0.57)" xlink:href="#pt1"/><use width="2.5" height="2.5" transform="translate(802.6 733.79) scale(0.57)" xlink:href="#pt1"/><use width="2.5" height="2.5" transform="translate(662.36 610.34) scale(0.57)" xlink:href="#pt1"/><use width="2.5" height="2.5" transform="translate(450.52 580.96) scale(0.57)" xlink:href="#pt1"/><use width="2.5" height="2.5" transform="translate(278.11 546.58) scale(0.57)" xlink:href="#pt1"/><use width="2.5" height="2.5" transform="translate(142.25 550.37) scale(0.57)" xlink:href="#pt1"/><use width="2.5" height="2.5" transform="translate(138.79 520.88) scale(0.57)" xlink:href="#pt1"/><use width="2.5" height="2.5" transform="translate(88.93 604.5) scale(0.57)" xlink:href="#pt1"/><use width="2.5" height="2.5" transform="translate(272.04 634.71) scale(0.57)" xlink:href="#pt1"/><use width="2.5" height="2.5" transform="translate(374.55 645.79) scale(0.57)" xlink:href="#pt1"/><use width="2.5" height="2.5" transform="translate(220.13 786.45) scale(0.57)" xlink:href="#pt1"/><use width="2.5" height="2.5" transform="translate(0 803.73) scale(0.57)" xlink:href="#pt1"/><use width="2.5" height="2.5" transform="translate(88.51 835.63) scale(0.57)" xlink:href="#pt1"/><use width="2.5" height="2.5" transform="translate(51.6 911.49) scale(0.57)" xlink:href="#pt1"/><use width="2.5" height="2.5" transform="translate(153.19 883.18) scale(0.57)" xlink:href="#pt1"/><use width="2.5" height="2.5" transform="translate(109.41 955.45) scale(0.57)" xlink:href="#pt1"/><use width="2.5" height="2.5" transform="translate(183.51 1036.57) scale(0.57)" xlink:href="#pt1"/><use width="2.5" height="2.5" transform="translate(421.26 883.47) scale(0.57)" xlink:href="#pt1"/><use width="2.5" height="2.5" transform="translate(340.33 988.27) scale(0.57)" xlink:href="#pt1"/><use width="2.5" height="2.5" transform="translate(567.74 786.88) scale(0.57)" xlink:href="#pt1"/><use width="2.5" height="2.5" transform="translate(580.45 706.03) scale(0.57)" xlink:href="#pt1"/><use width="2.5" height="2.5" transform="translate(583.24 604.25) scale(0.57)" xlink:href="#pt1"/><use width="2.5" height="2.5" transform="translate(652.86 765.87) scale(0.57)" xlink:href="#pt1"/><use width="2.5" height="2.5" transform="translate(756.09 808.49) scale(0.57)" xlink:href="#pt1"/><use width="2.5" height="2.5" transform="translate(820.1 813.25) scale(0.57)" xlink:href="#pt1"/><use width="2.5" height="2.5" transform="translate(871.29 903.83) scale(0.57)" xlink:href="#pt1"/><use width="2.5" height="2.5" transform="translate(873.76 980.42) scale(0.57)" xlink:href="#pt1"/><use width="2.5" height="2.5" transform="translate(959.14 973.45) scale(0.57)" xlink:href="#pt1"/><use width="2.5" height="2.5" transform="translate(1014.32 975.95) scale(0.57)" xlink:href="#pt1"/><use width="2.5" height="2.5" transform="translate(1121.92 841.68) scale(0.57)" xlink:href="#pt1"/><use width="2.5" height="2.5" transform="translate(1034.12 797.73) scale(0.57)" xlink:href="#pt1"/><use width="2.5" height="2.5" transform="translate(917.08 888.26) scale(0.57)" xlink:href="#pt1"/><use width="2.5" height="2.5" transform="translate(549.38 845.6) scale(0.57)" xlink:href="#pt1"/><use width="2.5" height="2.5" transform="translate(531.25 793.59) scale(0.57)" xlink:href="#pt1"/><use width="2.5" height="2.5" transform="translate(561.4 775.92) scale(0.57)" xlink:href="#pt1"/><use width="2.5" height="2.5" transform="translate(449.02 877.39) scale(0.57)" xlink:href="#pt1"/><use width="2.5" height="2.5" transform="translate(240.15 774.22) scale(0.57)" xlink:href="#pt1"/><use width="2.5" height="2.5" transform="translate(74.03 726.2) scale(0.57)" xlink:href="#pt1"/><use width="2.5" height="2.5" transform="translate(300.57 567.29) scale(0.57)" xlink:href="#pt1"/><use width="2.5" height="2.5" transform="translate(537.45 648.33) scale(0.57)" xlink:href="#pt1"/><use width="2.5" height="2.5" transform="translate(612.3 729.38) scale(0.57)" xlink:href="#pt1"/><use width="2.5" height="2.5" transform="translate(875.79 719.34) scale(0.57)" xlink:href="#pt1"/><use width="4.5" height="4.5" transform="translate(60.48 636.25) scale(0.57)" xlink:href="#pt2_2"/><use width="4.5" height="4.5" transform="translate(324.23 590.96) scale(0.57)" xlink:href="#pt2_2"/><use width="4.5" height="4.5" transform="translate(422.31 643.39) scale(0.57)" xlink:href="#pt2_2"/><use width="4.5" height="4.5" transform="translate(335.53 792.59) scale(0.57)" xlink:href="#pt2_2"/><use width="4.5" height="4.5" transform="translate(427.54 791.19) scale(0.57)" xlink:href="#pt2_2"/><use width="4.5" height="4.5" transform="translate(663.73 742.66) scale(0.57)" xlink:href="#pt2_2"/><use width="4.5" height="4.5" transform="translate(645.78 803.58) scale(0.57)" xlink:href="#pt2_2"/><use width="4.5" height="4.5" transform="translate(794.27 822.4) scale(0.57)" xlink:href="#pt2_2"/><use width="4.5" height="4.5" transform="translate(867.3 645.14) scale(0.57)" xlink:href="#pt2_2"/><use width="4.5" height="4.5" transform="translate(949.93 647.19) scale(0.57)" xlink:href="#pt2_2"/><use width="4.5" height="4.5" transform="translate(983.71 608.02) scale(0.57)" xlink:href="#pt2_2"/><use width="4.5" height="4.5" transform="translate(651.12 803.58) scale(0.57)" xlink:href="#pt2_2"/><use width="4.5" height="4.5" transform="translate(292.09 741.62) scale(0.57)" xlink:href="#pt2_2"/><use width="4.5" height="4.5" transform="translate(137.12 819.47) scale(0.57)" xlink:href="#pt2_2"/><use width="4.5" height="4.5" transform="translate(327.46 812.19) scale(0.57)" xlink:href="#pt2_2"/><use width="4.5" height="4.5" transform="translate(227.64 954.21) scale(0.57)" xlink:href="#pt2_2"/><use width="4.5" height="4.5" transform="translate(487.8 717.7) scale(0.57)" xlink:href="#pt2_2"/><use width="2.5" height="2.5" transform="translate(807.63 629.79) scale(0.57)" xlink:href="#pt1"/><use width="2.5" height="2.5" transform="translate(898.19 630.03) scale(0.57)" xlink:href="#pt1"/><use width="2.5" height="2.5" transform="translate(1140.96 759.12) scale(0.57)" xlink:href="#pt1"/><use width="2.5" height="2.5" transform="translate(1401.15 733.68) scale(0.57)" xlink:href="#pt1"/><use width="2.5" height="2.5" transform="translate(1291.65 619.26) scale(0.57)" xlink:href="#pt1"/><use width="2.5" height="2.5" transform="translate(1191.87 681.55) scale(0.57)" xlink:href="#pt1"/><use width="2.5" height="2.5" transform="translate(1212.57 810.35) scale(0.57)" xlink:href="#pt1"/><use width="2.5" height="2.5" transform="translate(1091.76 872.6) scale(0.57)" xlink:href="#pt1"/><use width="2.5" height="2.5" transform="translate(990.95 848.17) scale(0.57)" xlink:href="#pt1"/><use width="2.5" height="2.5" transform="translate(1052.06 785.82) scale(0.57)" xlink:href="#pt1"/><use width="2.5" height="2.5" transform="translate(1110.26 872.57) scale(0.57)" xlink:href="#pt1"/><use width="2.5" height="2.5" transform="translate(1081.67 963.74) scale(0.57)" xlink:href="#pt1"/><use width="2.5" height="2.5" transform="translate(953.9 879.28) scale(0.57)" xlink:href="#pt1"/><use width="2.5" height="2.5" transform="translate(835.17 997.35) scale(0.57)" xlink:href="#pt1"/><use width="2.5" height="2.5" transform="translate(1010.88 884.58) scale(0.57)" xlink:href="#pt1"/><use width="2.5" height="2.5" transform="translate(1086.15 1013.29) scale(0.57)" xlink:href="#pt1"/><use width="2.5" height="2.5" transform="translate(1035.87 1015.59) scale(0.57)" xlink:href="#pt1"/><use width="2.5" height="2.5" transform="translate(1317.64 860.69) scale(0.57)" xlink:href="#pt1"/><use width="2.5" height="2.5" transform="translate(1494.75 808.18) scale(0.57)" xlink:href="#pt1"/><use width="2.5" height="2.5" transform="translate(1473.4 670.25) scale(0.57)" xlink:href="#pt1"/><use width="2.5" height="2.5" transform="translate(1608.38 691.21) scale(0.57)" xlink:href="#pt1"/><use width="2.5" height="2.5" transform="translate(1651.5 836.87) scale(0.57)" xlink:href="#pt1"/><use width="2.5" height="2.5" transform="translate(1743.64 728.33) scale(0.57)" xlink:href="#pt1"/><use width="2.5" height="2.5" transform="translate(1720.42 640.49) scale(0.57)" xlink:href="#pt1"/><use width="2.5" height="2.5" transform="translate(1704.94 842.06) scale(0.57)" xlink:href="#pt1"/><use width="2.5" height="2.5" transform="translate(1830.57 796.36) scale(0.57)" xlink:href="#pt1"/><use width="2.5" height="2.5" transform="translate(1827.1 672.25) scale(0.57)" xlink:href="#pt1"/><use width="2.5" height="2.5" transform="translate(1889.9 727.44) scale(0.57)" xlink:href="#pt1"/><use width="2.5" height="2.5" transform="translate(1582.35 1091.07) scale(0.57)" xlink:href="#pt1"/><use width="2.5" height="2.5" transform="translate(1784.75 1073.5) scale(0.57)" xlink:href="#pt1"/><use width="2.5" height="2.5" transform="translate(1640.13 1024.82) scale(0.57)" xlink:href="#pt1"/><use width="2.5" height="2.5" transform="translate(1543.92 745.38) scale(0.57)" xlink:href="#pt1"/><use width="2.5" height="2.5" transform="translate(1403.68 621.93) scale(0.57)" xlink:href="#pt1"/><use width="2.5" height="2.5" transform="translate(1191.85 592.55) scale(0.57)" xlink:href="#pt1"/><use width="2.5" height="2.5" transform="translate(1019.43 558.17) scale(0.57)" xlink:href="#pt1"/><use width="2.5" height="2.5" transform="translate(883.58 561.97) scale(0.57)" xlink:href="#pt1"/><use width="2.5" height="2.5" transform="translate(880.12 532.48) scale(0.57)" xlink:href="#pt1"/><use width="2.5" height="2.5" transform="translate(830.25 616.09) scale(0.57)" xlink:href="#pt1"/><use width="2.5" height="2.5" transform="translate(1013.36 646.3) scale(0.57)" xlink:href="#pt1"/><use width="2.5" height="2.5" transform="translate(1115.88 657.39) scale(0.57)" xlink:href="#pt1"/><use width="2.5" height="2.5" transform="translate(961.45 798.05) scale(0.57)" xlink:href="#pt1"/><use width="2.5" height="2.5" transform="translate(741.32 815.33) scale(0.57)" xlink:href="#pt1"/><use width="2.5" height="2.5" transform="translate(829.84 847.23) scale(0.57)" xlink:href="#pt1"/><use width="2.5" height="2.5" transform="translate(792.92 923.08) scale(0.57)" xlink:href="#pt1"/><use width="2.5" height="2.5" transform="translate(894.52 894.77) scale(0.57)" xlink:href="#pt1"/><use width="2.5" height="2.5" transform="translate(850.73 967.05) scale(0.57)" xlink:href="#pt1"/><use width="2.5" height="2.5" transform="translate(924.83 1048.17) scale(0.57)" xlink:href="#pt1"/><use width="2.5" height="2.5" transform="translate(1162.59 895.06) scale(0.57)" xlink:href="#pt1"/><use width="2.5" height="2.5" transform="translate(1081.65 999.87) scale(0.57)" xlink:href="#pt1"/><use width="2.5" height="2.5" transform="translate(1309.06 798.47) scale(0.57)" xlink:href="#pt1"/><use width="2.5" height="2.5" transform="translate(1321.77 717.63) scale(0.57)" xlink:href="#pt1"/><use width="2.5" height="2.5" transform="translate(1324.56 615.84) scale(0.57)" xlink:href="#pt1"/><use width="2.5" height="2.5" transform="translate(1394.18 777.46) scale(0.57)" xlink:href="#pt1"/><use width="2.5" height="2.5" transform="translate(1497.41 820.08) scale(0.57)" xlink:href="#pt1"/><use width="2.5" height="2.5" transform="translate(1561.42 824.85) scale(0.57)" xlink:href="#pt1"/><use width="2.5" height="2.5" transform="translate(1612.61 915.43) scale(0.57)" xlink:href="#pt1"/><use width="2.5" height="2.5" transform="translate(1615.09 992.01) scale(0.57)" xlink:href="#pt1"/><use width="2.5" height="2.5" transform="translate(1700.47 985.04) scale(0.57)" xlink:href="#pt1"/><use width="2.5" height="2.5" transform="translate(1755.64 987.54) scale(0.57)" xlink:href="#pt1"/><use width="2.5" height="2.5" transform="translate(1863.24 853.27) scale(0.57)" xlink:href="#pt1"/><use width="2.5" height="2.5" transform="translate(1775.44 809.33) scale(0.57)" xlink:href="#pt1"/><use width="2.5" height="2.5" transform="translate(1658.4 899.85) scale(0.57)" xlink:href="#pt1"/><use width="2.5" height="2.5" transform="translate(1290.71 857.19) scale(0.57)" xlink:href="#pt1"/><use width="2.5" height="2.5" transform="translate(1272.57 805.19) scale(0.57)" xlink:href="#pt1"/><use width="2.5" height="2.5" transform="translate(1302.72 787.52) scale(0.57)" xlink:href="#pt1"/><use width="2.5" height="2.5" transform="translate(1190.34 888.99) scale(0.57)" xlink:href="#pt1"/><use width="2.5" height="2.5" transform="translate(981.47 785.82) scale(0.57)" xlink:href="#pt1"/><use width="2.5" height="2.5" transform="translate(815.36 737.79) scale(0.57)" xlink:href="#pt1"/><use width="2.5" height="2.5" transform="translate(1041.89 578.89) scale(0.57)" xlink:href="#pt1"/><use width="2.5" height="2.5" transform="translate(1278.77 659.92) scale(0.57)" xlink:href="#pt1"/><use width="2.5" height="2.5" transform="translate(1353.62 740.97) scale(0.57)" xlink:href="#pt1"/><use width="2.5" height="2.5" transform="translate(1617.11 730.94) scale(0.57)" xlink:href="#pt1"/><use width="4.5" height="4.5" transform="translate(801.81 647.85) scale(0.57)" xlink:href="#pt2_2"/><use width="4.5" height="4.5" transform="translate(1065.55 602.55) scale(0.57)" xlink:href="#pt2_2"/><use width="4.5" height="4.5" transform="translate(1163.63 654.98) scale(0.57)" xlink:href="#pt2_2"/><use width="4.5" height="4.5" transform="translate(1076.86 804.18) scale(0.57)" xlink:href="#pt2_2"/><use width="4.5" height="4.5" transform="translate(1168.86 802.79) scale(0.57)" xlink:href="#pt2_2"/><use width="4.5" height="4.5" transform="translate(1405.05 754.26) scale(0.57)" xlink:href="#pt2_2"/><use width="4.5" height="4.5" transform="translate(1387.1 815.17) scale(0.57)" xlink:href="#pt2_2"/><use width="4.5" height="4.5" transform="translate(1535.59 833.99) scale(0.57)" xlink:href="#pt2_2"/><use width="4.5" height="4.5" transform="translate(1608.62 656.74) scale(0.57)" xlink:href="#pt2_2"/><use width="4.5" height="4.5" transform="translate(1691.25 658.79) scale(0.57)" xlink:href="#pt2_2"/><use width="4.5" height="4.5" transform="translate(1725.04 619.62) scale(0.57)" xlink:href="#pt2_2"/><use width="4.5" height="4.5" transform="translate(1392.44 815.18) scale(0.57)" xlink:href="#pt2_2"/><use width="4.5" height="4.5" transform="translate(1033.41 753.21) scale(0.57)" xlink:href="#pt2_2"/><use width="4.5" height="4.5" transform="translate(878.44 831.07) scale(0.57)" xlink:href="#pt2_2"/><use width="4.5" height="4.5" transform="translate(1068.78 823.78) scale(0.57)" xlink:href="#pt2_2"/><use width="4.5" height="4.5" transform="translate(968.96 965.81) scale(0.57)" xlink:href="#pt2_2"/><use width="4.5" height="4.5" transform="translate(1229.13 729.29) scale(0.57)" xlink:href="#pt2_2"/><polygon class="cls-4" points="860.11 598.11 860.42 605.2 865.66 600.41 860.87 605.64 867.96 605.96 860.87 606.27 865.66 611.51 860.42 606.72 860.11 613.81 859.79 606.72 854.56 611.51 859.35 606.27 852.26 605.96 859.35 605.64 854.56 600.41 859.79 605.2 860.11 598.11"/><polygon class="cls-4" points="1104.43 568.99 1104.74 576.08 1109.98 571.29 1105.19 576.53 1112.28 576.84 1105.19 577.16 1109.98 582.39 1104.74 577.6 1104.43 584.69 1104.11 577.6 1098.88 582.39 1103.67 577.16 1096.58 576.84 1103.67 576.53 1098.88 571.29 1104.11 576.08 1104.43 568.99"/><polygon class="cls-4" points="1022.19 628.08 1022.5 635.17 1027.74 630.38 1022.95 635.61 1030.04 635.93 1022.95 636.24 1027.74 641.48 1022.5 636.69 1022.19 643.78 1021.87 636.69 1016.64 641.48 1021.43 636.24 1014.34 635.93 1021.43 635.61 1016.64 630.38 1021.87 635.17 1022.19 628.08"/><polygon class="cls-4" points="964.64 848.46 964.96 855.55 970.19 850.76 965.4 855.99 972.49 856.31 965.4 856.62 970.19 861.86 964.96 857.07 964.64 864.15 964.33 857.07 959.09 861.86 963.88 856.62 956.79 856.31 963.88 855.99 959.09 850.76 964.33 855.55 964.64 848.46"/><polygon class="cls-4" points="553.85 644.81 554.16 651.9 559.4 647.11 554.61 652.34 561.7 652.66 554.61 652.97 559.4 658.21 554.16 653.42 553.85 660.51 553.53 653.42 548.3 658.21 553.09 652.97 546 652.66 553.09 652.34 548.3 647.11 553.53 651.9 553.85 644.81"/><polygon class="cls-4" points="790.55 715.07 790.87 722.16 796.1 717.37 791.31 722.6 798.4 722.92 791.31 723.23 796.1 728.47 790.87 723.68 790.55 730.77 790.24 723.68 785 728.47 789.79 723.23 782.7 722.92 789.79 722.6 785 717.37 790.24 722.16 790.55 715.07"/><polygon class="cls-4" points="1230.63 749.49 1230.94 756.58 1236.17 751.79 1231.39 757.03 1238.47 757.34 1231.39 757.66 1236.17 762.89 1230.94 758.1 1230.63 765.19 1230.31 758.1 1225.08 762.89 1229.87 757.66 1222.78 757.34 1229.87 757.03 1225.08 751.79 1230.31 756.58 1230.63 749.49"/><polygon class="cls-4" points="1093.58 359.41 1093.89 366.5 1099.13 361.71 1094.34 366.94 1101.43 367.26 1094.34 367.57 1099.13 372.81 1093.89 368.02 1093.58 375.11 1093.26 368.02 1088.03 372.81 1092.82 367.57 1085.73 367.26 1092.82 366.94 1088.03 361.71 1093.26 366.5 1093.58 359.41"/><polygon class="cls-4" points="590.19 388.99 590.5 396.08 595.74 391.29 590.95 396.53 598.04 396.84 590.95 397.16 595.74 402.39 590.5 397.6 590.19 404.69 589.87 397.6 584.64 402.39 589.43 397.16 582.34 396.84 589.43 396.53 584.64 391.29 589.87 396.08 590.19 388.99"/><polygon class="cls-4" points="785.14 406.31 785.46 413.39 790.69 408.6 785.9 413.84 792.99 414.15 785.9 414.47 790.69 419.7 785.46 414.91 785.14 422 784.83 414.91 779.59 419.7 784.38 414.47 777.29 414.15 784.38 413.84 779.59 408.6 784.83 413.39 785.14 406.31"/><polygon class="cls-4" points="1015.88 383.51 1016.2 390.6 1021.43 385.81 1016.64 391.05 1023.73 391.36 1016.64 391.68 1021.43 396.91 1016.2 392.12 1015.88 399.21 1015.57 392.12 1010.34 396.91 1015.12 391.68 1008.04 391.36 1015.12 391.05 1010.34 385.81 1015.57 390.6 1015.88 383.51"/><polygon class="cls-4" points="1329.25 510.84 1329.57 517.93 1334.8 513.14 1330.01 518.38 1337.1 518.69 1330.01 519.01 1334.8 524.24 1329.57 519.45 1329.25 526.54 1328.94 519.45 1323.7 524.24 1328.49 519.01 1321.4 518.69 1328.49 518.38 1323.7 513.14 1328.94 517.93 1329.25 510.84"/><polygon class="cls-4" points="1426.59 267.11 1426.9 274.2 1432.13 269.41 1427.35 274.65 1434.43 274.96 1427.35 275.28 1432.13 280.51 1426.9 275.72 1426.59 282.81 1426.27 275.72 1421.04 280.51 1425.82 275.28 1418.74 274.96 1425.82 274.65 1421.04 269.41 1426.27 274.2 1426.59 267.11"/><polygon class="cls-4" points="710.62 110.53 710.93 117.61 716.17 112.83 711.38 118.06 718.47 118.38 711.38 118.69 716.17 123.92 710.93 119.14 710.62 126.22 710.3 119.14 705.07 123.92 709.86 118.69 702.77 118.38 709.86 118.06 705.07 112.83 710.3 117.61 710.62 110.53"/><polygon class="cls-4" points="137.52 407.39 137.84 414.48 143.07 409.69 138.29 414.93 145.37 415.24 138.29 415.56 143.07 420.79 137.84 416 137.52 423.09 137.21 416 131.97 420.79 136.76 415.56 129.68 415.24 136.76 414.93 131.97 409.69 137.21 414.48 137.52 407.39"/><polygon class="cls-4" points="606.17 882.5 606.49 889.59 611.72 884.8 606.93 890.03 614.02 890.35 606.93 890.66 611.72 895.9 606.49 891.11 606.17 898.19 605.86 891.11 600.62 895.9 605.41 890.66 598.32 890.35 605.41 890.03 600.62 884.8 605.86 889.59 606.17 882.5"/><polygon class="cls-4" points="1484.83 701.78 1485.15 708.87 1490.38 704.08 1485.59 709.31 1492.68 709.63 1485.59 709.94 1490.38 715.17 1485.15 710.39 1484.83 717.47 1484.52 710.39 1479.28 715.17 1484.07 709.94 1476.98 709.63 1484.07 709.31 1479.28 704.08 1484.52 708.87 1484.83 701.78"/><polygon class="cls-4" points="1635.06 226.78 1635.37 233.87 1640.6 229.08 1635.82 234.31 1642.9 234.63 1635.82 234.94 1640.6 240.18 1635.37 235.39 1635.06 242.47 1634.74 235.39 1629.51 240.18 1634.29 234.94 1627.21 234.63 1634.29 234.31 1629.51 229.08 1634.74 233.87 1635.06 226.78"/><polygon class="cls-4" points="1138.18 70.13 1138.5 77.22 1143.73 72.43 1138.94 77.66 1146.03 77.98 1138.94 78.29 1143.73 83.53 1138.5 78.74 1138.18 85.83 1137.87 78.74 1132.63 83.53 1137.42 78.29 1130.33 77.98 1137.42 77.66 1132.63 72.43 1137.87 77.22 1138.18 70.13"/><polygon class="cls-4" points="530.7 157.05 531.02 164.14 536.25 159.35 531.46 164.59 538.55 164.9 531.46 165.22 536.25 170.45 531.02 165.66 530.7 172.75 530.38 165.66 525.15 170.45 529.94 165.22 522.85 164.9 529.94 164.59 525.15 159.35 530.38 164.14 530.7 157.05"/><polygon class="cls-4" points="203.24 371.28 203.56 378.37 208.79 373.58 204 378.82 211.09 379.13 204 379.45 208.79 384.68 203.56 379.89 203.24 386.98 202.93 379.89 197.69 384.68 202.48 379.45 195.4 379.13 202.48 378.82 197.69 373.58 202.93 378.37 203.24 371.28"/><polygon class="cls-4" points="58.45 771.27 58.76 778.36 64 773.57 59.21 778.81 66.3 779.12 59.21 779.44 64 784.67 58.76 779.88 58.45 786.97 58.13 779.88 52.9 784.67 57.69 779.44 50.6 779.12 57.69 778.81 52.9 773.57 58.13 778.36 58.45 771.27"/><polygon class="cls-4" points="328.94 685.12 329.25 692.2 334.49 687.41 329.7 692.65 336.79 692.97 329.7 693.28 334.49 698.51 329.25 693.73 328.94 700.81 328.62 693.73 323.39 698.51 328.18 693.28 321.09 692.97 328.18 692.65 323.39 687.41 328.62 692.2 328.94 685.12"/><polygon class="cls-4" points="534.56 395.26 534.88 402.34 540.11 397.55 535.33 402.79 542.41 403.1 535.33 403.42 540.11 408.65 534.88 403.87 534.56 410.95 534.25 403.87 529.01 408.65 533.8 403.42 526.72 403.1 533.8 402.79 529.01 397.55 534.25 402.34 534.56 395.26"/><polygon class="cls-4" points="975.8 254.38 976.11 261.47 981.35 256.68 976.56 261.91 983.65 262.23 976.56 262.54 981.35 267.78 976.11 262.99 975.8 270.07 975.48 262.99 970.25 267.78 975.04 262.54 967.95 262.23 975.04 261.91 970.25 256.68 975.48 261.47 975.8 254.38"/><polygon class="cls-4" points="1577.38 372.44 1577.7 379.52 1582.93 374.74 1578.14 379.97 1585.23 380.29 1578.14 380.6 1582.93 385.83 1577.7 381.05 1577.38 388.13 1577.07 381.05 1571.83 385.83 1576.62 380.6 1569.53 380.29 1576.62 379.97 1571.83 374.74 1577.07 379.52 1577.38 372.44"/><polygon class="cls-4" points="1853.68 666.75 1853.99 673.83 1859.23 669.04 1854.44 674.28 1861.53 674.6 1854.44 674.91 1859.23 680.14 1853.99 675.36 1853.68 682.44 1853.36 675.36 1848.13 680.14 1852.92 674.91 1845.83 674.6 1852.92 674.28 1848.13 669.04 1853.36 673.83 1853.68 666.75"/><polygon class="cls-4" points="1472.48 870.57 1472.8 877.65 1478.03 872.87 1473.24 878.1 1480.33 878.42 1473.24 878.73 1478.03 883.97 1472.8 879.18 1472.48 886.26 1472.17 879.18 1466.93 883.97 1471.72 878.73 1464.64 878.42 1471.72 878.1 1466.93 872.87 1472.17 877.65 1472.48 870.57"/><polygon class="cls-4" points="1674.93 892.88 1675.25 899.97 1680.48 895.18 1675.69 900.41 1682.78 900.73 1675.69 901.04 1680.48 906.28 1675.25 901.49 1674.93 908.58 1674.62 901.49 1669.38 906.28 1674.17 901.04 1667.08 900.73 1674.17 900.41 1669.38 895.18 1674.62 899.97 1674.93 892.88"/></svg>