<svg id="Calque_1" data-name="Calque 1" xmlns="http://www.w3.org/2000/svg" xmlns:xlink="http://www.w3.org/1999/xlink" viewBox="0 0 180 180"><defs><style>.cls-1,.cls-16,.cls-2,.cls-3,.cls-35,.cls-52{fill:none;}.cls-10,.cls-11,.cls-12,.cls-13,.cls-14,.cls-16,.cls-2,.cls-20,.cls-21,.cls-24,.cls-25,.cls-26,.cls-27,.cls-3,.cls-31,.cls-32,.cls-33,.cls-35,.cls-36,.cls-38,.cls-4,.cls-40,.cls-41,.cls-42,.cls-43,.cls-44,.cls-45,.cls-46,.cls-47,.cls-48,.cls-5,.cls-52,.cls-53,.cls-54,.cls-6,.cls-7,.cls-8,.cls-9{stroke:#000;}.cls-16,.cls-2,.cls-20,.cls-21,.cls-25,.cls-26,.cls-3,.cls-38,.cls-4,.cls-40,.cls-42,.cls-43,.cls-44,.cls-5,.cls-53,.cls-54,.cls-6,.cls-7,.cls-8,.cls-9{stroke-miterlimit:10;}.cls-2{stroke-width:5px;}.cls-3{stroke-width:2px;}.cls-10,.cls-11,.cls-12,.cls-13,.cls-14,.cls-16,.cls-20,.cls-21,.cls-24,.cls-25,.cls-26,.cls-27,.cls-31,.cls-32,.cls-33,.cls-35,.cls-36,.cls-38,.cls-4,.cls-40,.cls-41,.cls-42,.cls-43,.cls-44,.cls-45,.cls-46,.cls-5,.cls-6,.cls-7,.cls-8,.cls-9{stroke-width:0.31px;}.cls-12,.cls-17,.cls-5{fill:#fff;}.cls-6{fill:url(#Nouvelle_nuance_de_motif_4);}.cls-13,.cls-7{fill:#ff931e;}.cls-18,.cls-8{fill:#ff0;}.cls-36,.cls-48,.cls-9{fill:#ffc4ff;}.cls-10,.cls-28{fill:#dbc2f2;}.cls-10,.cls-11,.cls-12,.cls-13,.cls-14,.cls-24,.cls-27,.cls-31,.cls-32,.cls-33,.cls-35,.cls-36,.cls-41,.cls-45,.cls-46,.cls-48,.cls-52{stroke-linejoin:bevel;}.cls-14,.cls-29{fill:#7ac943;}.cls-15{fill:#6279bf;}.cls-19,.cls-41{fill:#5adbff;}.cls-20,.cls-46{fill:#1643fe;}.cls-21,.cls-45,.cls-50{fill:#fa5fe7;}.cls-22,.cls-31{fill:#ffcfde;}.cls-23,.cls-43{fill:#7017fc;}.cls-24{fill:#1b1464;}.cls-25,.cls-32,.cls-47{fill:#ffc000;}.cls-26{fill:aqua;}.cls-27,.cls-39,.cls-40{fill:#3fa9f5;}.cls-30{clip-path:url(#clip-path);}.cls-33{fill:url(#Nouvelle_nuance_de_motif_3);}.cls-34{fill:#fc65a2;}.cls-37{fill:url(#Nouvelle_nuance_de_motif_2);}.cls-38{fill:#00b0f0;}.cls-42{fill:#fcee21;}.cls-44{fill:#9de3ea;}.cls-47{stroke-linejoin:round;stroke-width:0.31px;}.cls-48{stroke-width:0.36px;}.cls-49{fill:#73e0ff;}.cls-51{fill:#325afe;}.cls-52{stroke-width:0.19px;}.cls-53{stroke-width:0.27px;}.cls-54{stroke-width:0.19px;}</style><pattern id="Nouvelle_nuance_de_motif_4" data-name="Nouvelle nuance de motif 4" width="18.99" height="18" patternTransform="translate(48.03 -20.55) scale(0.11)" patternUnits="userSpaceOnUse" viewBox="0 0 18.99 18"><rect class="cls-1" width="18.99" height="18"/><line class="cls-3" x1="8.99" y1="32.37" x2="8.99" y2="16.86"/><line class="cls-3" x1="17.99" y1="34.86" x2="17.99" y2="16.86"/><polygon points="0 4.86 8.99 14.37 17.99 4.87 17.99 9.64 8.99 19.14 0 9.64 0 4.86"/><line class="cls-3" x1="8.99" y1="14.37" x2="8.99" y2="-1.14"/><line class="cls-3" x1="17.99" y1="16.86" x2="17.99" y2="-1.14"/><polygon points="0 -13.14 8.99 -3.63 17.99 -13.13 17.99 -8.36 8.99 1.15 0 -8.36 0 -13.14"/></pattern><clipPath id="clip-path"><path class="cls-1" d="M78,99.52c0-4.6.91-8.33,2-8.33s2,3.73,2,8.33-.9,8.33-2,8.33S78,104.12,78,99.52Z"/></clipPath><pattern id="Nouvelle_nuance_de_motif_3" data-name="Nouvelle nuance de motif 3" width="95.4" height="35.33" patternTransform="translate(31.09 -43.68) scale(0.04)" patternUnits="userSpaceOnUse" viewBox="0 0 95.4 35.33"><rect class="cls-1" width="95.4" height="35.33"/><path d="M47.7,8.11s.2,6.5,1.63,7.93,7.93,1.63,7.93,1.63-6.5.19-7.93,1.62-1.63,7.93-1.63,7.93-.2-6.49-1.63-7.93-7.93-1.62-7.93-1.62,6.5-.2,7.93-1.63S47.7,8.11,47.7,8.11Z"/><polygon class="cls-2" points="47.7 32.67 7.2 17.67 47.7 2.67 88.2 17.67 47.7 32.67"/></pattern><pattern id="Nouvelle_nuance_de_motif_2" data-name="Nouvelle nuance de motif 2" width="17.99" height="24.28" patternTransform="translate(37.17 -17.74) scale(0.09)" patternUnits="userSpaceOnUse" viewBox="0 0 17.99 24.28"><rect class="cls-1" width="17.99" height="24.28"/><polygon points="4.5 0 13.49 19.5 22.48 0 22.48 4.78 13.49 24.28 4.5 4.78 4.5 0"/><polygon points="-13.49 0 -4.5 19.5 4.5 0 4.5 4.78 -4.5 24.28 -13.49 4.78 -13.49 0"/></pattern></defs><path class="cls-4" d="M116.64,136.29s-11.58,17.07-11.58,11.5,9.44-6.4,2.41-11.5S116.64,136.29,116.64,136.29Z"/><polygon class="cls-5" points="115.12 65.7 112.83 61.27 112.83 55 115.12 50.57 118.36 50.57 120.65 55 120.65 61.27 118.36 65.7 115.12 65.7"/><polygon class="cls-6" points="115.12 65.7 112.83 61.27 112.83 55 115.12 50.57 118.36 50.57 120.65 55 120.65 61.27 118.36 65.7 115.12 65.7"/><rect class="cls-7" x="112.66" y="71.52" width="8.16" height="56.66"/><path class="cls-8" d="M114.79,123.91c0,.46-.16.83-.37.83h0c-.2,0-.36-.37-.36-.83V73c0-.46.16-.83.36-.83h0c.21,0,.37.37.37.83Z"/><path class="cls-8" d="M119.42,123.91c0,.46-.16.83-.36.83h0c-.2,0-.37-.37-.37-.83V73c0-.46.17-.83.37-.83h0c.2,0,.36.37.36.83Z"/><path class="cls-8" d="M117.11,123.91c0,.46-.17.83-.37.83h0c-.2,0-.36-.37-.36-.83V73c0-.46.16-.83.36-.83h0c.2,0,.37.37.37.83Z"/><rect class="cls-5" x="112.23" y="70.7" width="9.02" height="0.82"/><polygon class="cls-4" points="113.38 65.7 120.1 65.7 121.25 70.7 112.23 70.7 113.38 65.7"/><path class="cls-5" d="M112.66,64.88a.62.62,0,1,1,1.2,0"/><path class="cls-5" d="M113.82,64.88a.62.62,0,1,1,1.2,0"/><path class="cls-5" d="M115,64.88a.62.62,0,1,1,1.2,0"/><path class="cls-5" d="M116.14,64.88a.62.62,0,1,1,1.2,0"/><path class="cls-5" d="M117.3,64.88a.62.62,0,1,1,1.2,0"/><path class="cls-5" d="M118.47,64.88c0-.44.26-.79.59-.79a.71.71,0,0,1,.6.79"/><path class="cls-5" d="M119.63,64.88c0-.44.26-.79.59-.79a.71.71,0,0,1,.6.79"/><path class="cls-9" d="M120.29,47.5c0,3.28-2.86,3.07-3.55,3.07s-3.54.21-3.54-3.07,3.54-8.25,3.54-8.25S120.29,44.21,120.29,47.5Z"/><path class="cls-4" d="M117.72,36.89c0,2.4-.83,2.47-1,2.47s-1-.07-1-2.47a26.31,26.31,0,0,1,1-5.8A26.31,26.31,0,0,1,117.72,36.89Z"/><path class="cls-5" d="M117.23,39.74c0-.11,0-.2-.08-.2h-.82s-.07.09-.07.2h0c0,.11,0,.2.07.2h.82s.08-.09.08-.2Z"/><path class="cls-5" d="M117.23,39.34c0-.11,0-.2-.08-.2h-.82s-.07.09-.07.2h0c0,.11,0,.2.07.2h.82s.08-.09.08-.2Z"/><rect class="cls-5" x="112.23" y="64.88" width="9.02" height="0.82"/><rect class="cls-5" x="114.35" y="50.16" width="4.79" height="0.82"/><path class="cls-10" d="M116,63.16s-2.24-5.92-4-5.92-4,5.92-4,5.92l.65.93h6.75Z"/><polygon class="cls-11" points="116.02 70.61 107.95 70.61 108.61 71.54 115.36 71.54 116.02 70.61"/><polygon class="cls-8" points="116.02 70.61 107.95 70.61 108.61 69.68 115.36 69.68 116.02 70.61"/><polygon class="cls-11" points="116.02 68.75 107.95 68.75 108.61 69.68 115.36 69.68 116.02 68.75"/><polygon class="cls-12" points="116.02 68.75 107.95 68.75 108.61 67.81 115.36 67.81 116.02 68.75"/><polygon class="cls-11" points="116.02 66.88 107.95 66.88 108.61 67.81 115.36 67.81 116.02 66.88"/><polygon class="cls-8" points="116.02 66.88 107.95 66.88 108.61 65.95 115.36 65.95 116.02 66.88"/><polygon class="cls-11" points="116.02 65.02 107.95 65.02 108.61 65.95 115.36 65.95 116.02 65.02"/><polygon class="cls-13" points="116.02 63.16 111.99 59.88 107.95 63.16 108.61 64.09 115.36 64.09 116.02 63.16"/><polygon class="cls-12" points="116.02 65.02 107.95 65.02 108.61 64.09 115.36 64.09 116.02 65.02"/><polygon class="cls-11" points="116.02 78.05 107.95 78.05 108.61 78.98 115.36 78.98 116.02 78.05"/><polygon class="cls-8" points="116.02 78.05 107.95 78.05 108.61 77.12 115.36 77.12 116.02 78.05"/><polygon class="cls-11" points="116.02 76.19 107.95 76.19 108.61 77.12 115.36 77.12 116.02 76.19"/><polygon class="cls-5" points="116.02 76.19 107.95 76.19 108.61 75.26 115.36 75.26 116.02 76.19"/><polygon class="cls-11" points="116.02 74.33 107.95 74.33 108.61 75.26 115.36 75.26 116.02 74.33"/><polygon class="cls-8" points="116.02 74.33 107.95 74.33 108.61 73.4 115.36 73.4 116.02 74.33"/><polygon class="cls-11" points="116.02 72.47 107.95 72.47 108.61 73.4 115.36 73.4 116.02 72.47"/><polygon class="cls-12" points="116.02 72.47 107.95 72.47 108.61 71.54 115.36 71.54 116.02 72.47"/><rect class="cls-14" x="108.61" y="78.99" width="6.75" height="41.91"/><path class="cls-4" d="M72.83,117.16c0-1.16,17.76-2.1,39.66-2.1s15.33,8.43,38.56,10.79c1.28,0-78.22.26-78.22.26Z"/><path class="cls-5" d="M149.87,121.38,106.67,124l5.82,0C125.68,124,140.31,122.4,149.87,121.38Z"/><path class="cls-4" d="M149.87,121.38l10.41-.64C160.28,120.28,156.18,120.7,149.87,121.38Z"/><path class="cls-4" d="M72.83,126.11h0L106.67,124C87.52,124.18,72.83,125.05,72.83,126.11Z"/><path class="cls-4" d="M112.49,128.21c21.91,0,47.79-6.31,47.79-7.47l-10.41.64c-9.56,1-24.19,2.63-37.38,2.63l-5.82,0-33.84,2.08C72.84,127.27,90.59,128.21,112.49,128.21Z"/><path class="cls-15" d="M101.27,78.21a2.19,2.19,0,1,0,4.37,0V74.07a2.19,2.19,0,0,0-4.37,0Z"/><path class="cls-16" d="M101.27,78.21a2.19,2.19,0,1,0,4.37,0V74.07a2.19,2.19,0,0,0-4.37,0Z"/><path class="cls-17" d="M102.36,71.76a.13.13,0,0,0,.13.13h1.93a.13.13,0,1,0,0-.26h-1.93a.13.13,0,0,0-.13.13Z"/><path class="cls-16" d="M102.36,71.76a.13.13,0,0,0,.13.13h1.93a.13.13,0,1,0,0-.26h-1.93a.13.13,0,0,0-.13.13Z"/><path class="cls-17" d="M102.36,71.5a.13.13,0,0,0,.13.13h1.93a.13.13,0,1,0,0-.26h-1.93a.13.13,0,0,0-.13.13Z"/><path class="cls-16" d="M102.36,71.5a.13.13,0,0,0,.13.13h1.93a.13.13,0,1,0,0-.26h-1.93a.13.13,0,0,0-.13.13Z"/><path class="cls-17" d="M102.36,71.24a.13.13,0,0,0,.13.13h1.93a.13.13,0,0,0,0-.26h-1.93a.13.13,0,0,0-.13.13Z"/><path class="cls-16" d="M102.36,71.24a.13.13,0,0,0,.13.13h1.93a.13.13,0,0,0,0-.26h-1.93a.13.13,0,0,0-.13.13Z"/><path class="cls-17" d="M102.36,62.46a.13.13,0,0,0,.13.13h1.93a.13.13,0,0,0,.13-.13.13.13,0,0,0-.13-.13h-1.93a.13.13,0,0,0-.13.13Z"/><path class="cls-16" d="M102.36,62.46a.13.13,0,0,0,.13.13h1.93a.13.13,0,0,0,.13-.13.13.13,0,0,0-.13-.13h-1.93a.13.13,0,0,0-.13.13Z"/><path class="cls-17" d="M102.36,62.2a.13.13,0,0,0,.13.13h1.93a.13.13,0,0,0,.13-.13.12.12,0,0,0-.13-.12h-1.93a.12.12,0,0,0-.13.12Z"/><path class="cls-16" d="M102.36,62.2a.13.13,0,0,0,.13.13h1.93a.13.13,0,0,0,.13-.13.12.12,0,0,0-.13-.12h-1.93a.12.12,0,0,0-.13.12Z"/><path class="cls-17" d="M102.36,62a.13.13,0,0,0,.13.13h1.93a.13.13,0,0,0,.13-.13.13.13,0,0,0-.13-.13h-1.93a.13.13,0,0,0-.13.13Z"/><path class="cls-16" d="M102.36,62a.13.13,0,0,0,.13.13h1.93a.13.13,0,0,0,.13-.13.13.13,0,0,0-.13-.13h-1.93a.13.13,0,0,0-.13.13Z"/><path class="cls-17" d="M102.64,50.4a.11.11,0,0,0,.11.11h1.42a.11.11,0,0,0,0-.22h-1.42a.11.11,0,0,0-.11.11Z"/><path class="cls-16" d="M102.64,50.4a.11.11,0,0,0,.11.11h1.42a.11.11,0,0,0,0-.22h-1.42a.11.11,0,0,0-.11.11Z"/><path class="cls-17" d="M102.64,50.19a.1.1,0,0,0,.11.1h1.42a.09.09,0,0,0,.1-.1.1.1,0,0,0-.1-.11h-1.42a.11.11,0,0,0-.11.11Z"/><path class="cls-16" d="M102.64,50.19a.1.1,0,0,0,.11.1h1.42a.09.09,0,0,0,.1-.1.1.1,0,0,0-.1-.11h-1.42a.11.11,0,0,0-.11.11Z"/><path class="cls-17" d="M102.64,50a.11.11,0,0,0,.11.11h1.42a.11.11,0,0,0,0-.22h-1.42a.11.11,0,0,0-.11.11Z"/><path class="cls-16" d="M102.64,50a.11.11,0,0,0,.11.11h1.42a.11.11,0,0,0,0-.22h-1.42a.11.11,0,0,0-.11.11Z"/><polygon class="cls-14" points="107.24 80.4 99.67 80.4 98.76 81.77 108.15 81.77 107.24 80.4"/><polygon class="cls-7" points="108.15 78.87 98.76 78.87 99.67 80.4 107.24 80.4 108.15 78.87"/><rect class="cls-5" x="99.67" y="78.41" width="7.56" height="0.46"/><rect class="cls-5" x="103.23" y="71.89" width="0.46" height="6.53"/><rect class="cls-18" x="106.57" y="119.05" width="1.56" height="7.46"/><rect class="cls-17" x="106.57" y="111.6" width="1.56" height="7.45"/><rect class="cls-18" x="106.57" y="104.14" width="1.56" height="7.46"/><rect class="cls-17" x="106.57" y="96.68" width="1.56" height="7.46"/><rect class="cls-18" x="106.57" y="89.23" width="1.56" height="7.45"/><rect class="cls-17" x="106.57" y="81.77" width="1.56" height="7.46"/><rect class="cls-17" x="105.01" y="119.05" width="1.55" height="7.46"/><rect class="cls-18" x="105.01" y="111.6" width="1.55" height="7.45"/><rect class="cls-19" x="105.01" y="104.14" width="1.55" height="7.46"/><rect class="cls-18" x="105.01" y="96.68" width="1.55" height="7.46"/><rect class="cls-19" x="105.01" y="89.23" width="1.55" height="7.45"/><rect class="cls-18" x="105.01" y="81.77" width="1.55" height="7.46"/><rect class="cls-18" x="103.46" y="119.05" width="1.56" height="7.46"/><rect class="cls-17" x="103.46" y="111.6" width="1.56" height="7.45"/><rect class="cls-18" x="103.46" y="104.14" width="1.56" height="7.46"/><rect class="cls-19" x="103.46" y="96.68" width="1.56" height="7.46"/><rect class="cls-18" x="103.46" y="89.23" width="1.56" height="7.45"/><rect class="cls-19" x="103.46" y="81.77" width="1.56" height="7.46"/><rect class="cls-17" x="101.9" y="119.05" width="1.56" height="7.46"/><rect class="cls-18" x="101.9" y="111.6" width="1.56" height="7.45"/><rect class="cls-19" x="101.9" y="104.14" width="1.56" height="7.46"/><rect class="cls-18" x="101.9" y="96.68" width="1.56" height="7.46"/><rect class="cls-19" x="101.9" y="89.23" width="1.56" height="7.45"/><rect class="cls-18" x="101.9" y="81.77" width="1.56" height="7.46"/><rect class="cls-18" x="100.35" y="119.05" width="1.55" height="7.46"/><rect class="cls-17" x="100.35" y="111.6" width="1.55" height="7.45"/><rect class="cls-18" x="100.35" y="104.14" width="1.55" height="7.46"/><rect class="cls-19" x="100.35" y="96.68" width="1.55" height="7.46"/><rect class="cls-18" x="100.35" y="89.23" width="1.55" height="7.45"/><rect class="cls-19" x="100.35" y="81.77" width="1.55" height="7.46"/><rect class="cls-17" x="98.79" y="119.05" width="1.56" height="7.46"/><rect class="cls-18" x="98.79" y="111.6" width="1.56" height="7.45"/><rect class="cls-17" x="98.79" y="104.14" width="1.56" height="7.46"/><rect class="cls-18" x="98.79" y="96.68" width="1.56" height="7.46"/><rect class="cls-17" x="98.79" y="89.23" width="1.56" height="7.45"/><rect class="cls-18" x="98.79" y="81.77" width="1.56" height="7.46"/><polygon class="cls-16" points="98.79 119.05 98.79 126.51 100.35 126.51 101.9 126.51 103.46 126.51 105.01 126.51 106.57 126.51 108.12 126.51 108.12 119.05 108.12 111.6 108.12 104.14 108.12 96.68 108.12 89.23 108.12 81.78 106.57 81.78 105.01 81.78 103.46 81.78 101.9 81.78 100.35 81.78 98.79 81.78 98.79 89.23 98.79 96.68 98.79 104.14 98.79 111.6 98.79 119.05"/><polyline class="cls-16" points="98.79 89.23 100.35 89.23 101.9 89.23 103.46 89.23 105.01 89.23 106.57 89.23 108.12 89.23"/><polyline class="cls-16" points="98.79 96.68 100.35 96.68 101.9 96.68 103.46 96.68 105.01 96.68 106.57 96.68 108.12 96.68"/><polyline class="cls-16" points="98.79 104.14 100.35 104.14 101.9 104.14 103.46 104.14 105.01 104.14 106.57 104.14 108.12 104.14"/><polyline class="cls-16" points="98.79 111.6 100.35 111.6 101.9 111.6 103.46 111.6 105.01 111.6 106.57 111.6 108.12 111.6"/><polyline class="cls-16" points="98.79 119.05 100.35 119.05 101.9 119.05 103.46 119.05 105.01 119.05 106.57 119.05 108.12 119.05"/><polyline class="cls-16" points="106.57 126.51 106.57 119.05 106.57 111.6 106.57 104.14 106.57 96.68 106.57 89.23 106.57 81.78"/><polyline class="cls-16" points="105.01 126.51 105.01 119.05 105.01 111.6 105.01 104.14 105.01 96.68 105.01 89.23 105.01 81.78"/><polyline class="cls-16" points="103.46 126.51 103.46 119.05 103.46 111.6 103.46 104.14 103.46 96.68 103.46 89.23 103.46 81.78"/><polyline class="cls-16" points="101.9 126.51 101.9 119.05 101.9 111.6 101.9 104.14 101.9 96.68 101.9 89.23 101.9 81.78"/><polyline class="cls-16" points="100.35 126.51 100.35 119.05 100.35 111.6 100.35 104.14 100.35 96.68 100.35 89.23 100.35 81.78"/><polygon class="cls-20" points="103.46 39.8 103.74 45.62 104.54 49.86 102.37 49.86 103.17 45.62 103.46 39.8"/><polygon class="cls-20" points="102.15 71.11 100.85 66.85 102.15 62.59 104.76 62.59 106.07 66.85 104.76 71.11 102.15 71.11"/><polygon class="cls-21" points="102.15 61.82 103.04 56.16 102.15 50.51 104.76 50.51 103.87 56.16 104.76 61.82 102.15 61.82"/><polygon class="cls-5" points="100.35 79.29 99.7 80.4 100.99 80.4 100.35 79.29 99.7 80.4 100.99 80.4 100.35 79.29"/><polygon class="cls-5" points="102.42 79.29 101.78 80.4 103.06 80.4 102.42 79.29 101.78 80.4 103.06 80.4 102.42 79.29"/><polygon class="cls-5" points="104.49 79.29 103.85 80.4 105.14 80.4 104.49 79.29 103.85 80.4 105.14 80.4 104.49 79.29"/><polygon class="cls-5" points="106.57 79.29 105.92 80.4 107.21 80.4 106.57 79.29 105.92 80.4 107.21 80.4 106.57 79.29"/><path class="cls-22" d="M117.74,122.34a2.75,2.75,0,0,0,5.49,0V91a2.75,2.75,0,0,0-5.49,0Z"/><path class="cls-16" d="M117.74,122.34a2.75,2.75,0,0,0,5.49,0V91a2.75,2.75,0,0,0-5.49,0Z"/><path class="cls-17" d="M117.74,121.76a.69.69,0,0,0,.69.69.68.68,0,0,0,.68-.69v-26a.68.68,0,0,0-.68-.68.69.69,0,0,0-.69.68Z"/><path class="cls-16" d="M117.74,121.76a.69.69,0,0,0,.69.69.68.68,0,0,0,.68-.69v-26a.68.68,0,0,0-.68-.68.69.69,0,0,0-.69.68Z"/><path class="cls-17" d="M119.11,121.76a.69.69,0,0,0,.69.69.68.68,0,0,0,.68-.69v-26a.68.68,0,0,0-.68-.68.69.69,0,0,0-.69.68Z"/><path class="cls-16" d="M119.11,121.76a.69.69,0,0,0,.69.69.68.68,0,0,0,.68-.69v-26a.68.68,0,0,0-.68-.68.69.69,0,0,0-.69.68Z"/><path class="cls-23" d="M120.48,121.76a.69.69,0,0,0,1.38,0v-26a.69.69,0,0,0-1.38,0Z"/><path class="cls-16" d="M120.48,121.76a.69.69,0,0,0,1.38,0v-26a.69.69,0,0,0-1.38,0Z"/><path class="cls-17" d="M121.86,121.76a.68.68,0,0,0,.68.69.69.69,0,0,0,.69-.69v-26a.69.69,0,0,0-.69-.68.68.68,0,0,0-.68.68Z"/><path class="cls-16" d="M121.86,121.76a.68.68,0,0,0,.68.69.69.69,0,0,0,.69-.69v-26a.69.69,0,0,0-.69-.68.68.68,0,0,0-.68.68Z"/><path class="cls-5" d="M123.23,127c0,.18-1.23.33-2.75.33s-2.74-.15-2.74-.33,1.23-.34,2.74-.34S123.23,126.84,123.23,127Z"/><path class="cls-17" d="M85.76,99.39a.14.14,0,0,0,.14.14h5.89a.14.14,0,0,0,0-.28H85.9a.14.14,0,0,0-.14.14Z"/><path class="cls-16" d="M85.76,99.39a.14.14,0,0,0,.14.14h5.89a.14.14,0,0,0,0-.28H85.9a.14.14,0,0,0-.14.14Z"/><path class="cls-17" d="M85.76,99.1a.15.15,0,0,0,.14.15h5.89a.15.15,0,0,0,.14-.15.14.14,0,0,0-.14-.14H85.9a.15.15,0,0,0-.14.14Z"/><path class="cls-16" d="M85.76,99.1a.15.15,0,0,0,.14.15h5.89a.15.15,0,0,0,.14-.15.14.14,0,0,0-.14-.14H85.9a.15.15,0,0,0-.14.14Z"/><path class="cls-17" d="M85.76,98.82a.14.14,0,0,0,.14.14h5.89a.14.14,0,0,0,.14-.14.14.14,0,0,0-.14-.14H85.9a.15.15,0,0,0-.14.14Z"/><path class="cls-16" d="M85.76,98.82a.14.14,0,0,0,.14.14h5.89a.14.14,0,0,0,.14-.14.14.14,0,0,0-.14-.14H85.9a.15.15,0,0,0-.14.14Z"/><rect class="cls-24" x="85.15" y="101.82" width="7.39" height="23.47"/><polygon class="cls-10" points="91.82 100.73 85.87 100.73 85.15 101.81 92.55 101.81 91.82 100.73"/><polygon class="cls-12" points="91.24 98.14 86.45 98.14 85.87 98.68 91.82 98.68 91.24 98.14"/><rect class="cls-5" x="85.87" y="99.53" width="5.95" height="1.21"/><path class="cls-5" d="M86.23,100.74c0-.49.2-.88.45-.88s.44.39.44.88Z"/><path class="cls-25" d="M87.68,125.28c0-12,.2-21.73.44-21.73s.45,9.73.45,21.73Z"/><path class="cls-5" d="M89.12,125.28c0-12,.2-21.73.45-21.73s.45,9.73.45,21.73Z"/><path class="cls-25" d="M90.57,125.28c0-12,.2-21.73.45-21.73s.44,9.73.44,21.73Z"/><path class="cls-5" d="M86.23,125.28c0-12,.2-21.73.45-21.73s.44,9.73.44,21.73Z"/><path class="cls-5" d="M90.57,100.74c0-.49.2-.88.45-.88s.44.39.44.88Z"/><path class="cls-5" d="M89.12,100.74c0-.49.2-.88.45-.88s.45.39.45.88Z"/><path class="cls-5" d="M87.68,100.74c0-.49.2-.88.44-.88s.45.39.45.88Z"/><polygon class="cls-14" points="88.85 75.51 89.86 86.83 90.88 98.14 88.85 98.14 86.82 98.14 87.83 86.83 88.85 75.51"/><path class="cls-5" d="M143.54,91c0,2.12-.63,3.84-1.4,3.84s-1.41-1.72-1.41-3.84.63-3.85,1.41-3.85S143.54,88.83,143.54,91Z"/><path class="cls-26" d="M143.81,91.93c0-.32-.12-.58-.27-.58h-2.78c-.15,0-.27.26-.27.58v33.73c0,.31.12.57.27.57h2.78c.15,0,.27-.26.27-.57Z"/><path class="cls-5" d="M140.49,91.14a.23.23,0,0,1,.26-.21h2.81a.23.23,0,0,1,.25.21h0a.23.23,0,0,1-.25.21h-2.81a.23.23,0,0,1-.26-.21Z"/><path class="cls-4" d="M142.68,123.63a.52.52,0,0,1-.54.49h0a.53.53,0,0,1-.55-.49V93.33a.53.53,0,0,1,.55-.49h0a.52.52,0,0,1,.54.49Z"/><path class="cls-27" d="M78,99.52c0-4.6.91-8.33,2-8.33s2,3.73,2,8.33-.9,8.33-2,8.33S78,104.12,78,99.52Z"/><path d="M80,108c-1.41,0-2.17-4.37-2.17-8.48S78.63,91,80,91s2.16,4.38,2.16,8.49S81.44,108,80,108Zm0-16.66c-.88,0-1.86,3.36-1.86,8.18s1,8.18,1.86,8.18,1.85-3.36,1.85-8.18S80.92,91.34,80,91.34Z"/><rect class="cls-28" x="77.44" y="100.18" width="5.24" height="26.2" rx="0.43"/><path d="M82.25,126.53H77.87a.58.58,0,0,1-.58-.58V100.61a.59.59,0,0,1,.58-.59h4.38a.6.6,0,0,1,.59.59V126A.59.59,0,0,1,82.25,126.53Zm-4.38-26.2a.28.28,0,0,0-.27.28V126a.27.27,0,0,0,.27.27h4.38a.28.28,0,0,0,.28-.27V100.61a.29.29,0,0,0-.28-.28Z"/><path class="cls-29" d="M77.82,99.85a.34.34,0,0,1,.34-.34h3.75a.34.34,0,0,1,.34.34h0a.34.34,0,0,1-.34.33H78.16a.34.34,0,0,1-.34-.33Z"/><path d="M81.91,100.33H78.16a.49.49,0,1,1,0-1h3.75a.49.49,0,1,1,0,1Zm-3.75-.66a.18.18,0,0,0-.18.17.18.18,0,0,0,.18.18h3.75a.18.18,0,1,0,0-.35Z"/><rect class="cls-17" x="79.83" y="100.18" width="0.42" height="15"/><path d="M80.4,115.33h-.73V100h.73ZM80,115h.11v-14.7H80Z"/><g class="cls-30"><rect class="cls-17" x="78.03" y="98.67" width="4.01" height="0.31"/><rect class="cls-17" x="78.03" y="97.52" width="4.01" height="0.31"/><rect class="cls-17" x="78.03" y="96.38" width="4.01" height="0.31"/><rect class="cls-17" x="78.03" y="95.23" width="4.01" height="0.31"/><rect class="cls-17" x="78.03" y="94.08" width="4.01" height="0.31"/><rect class="cls-17" x="78.03" y="92.94" width="4.01" height="0.31"/><rect class="cls-17" x="78.03" y="91.79" width="4.01" height="0.31"/></g><path class="cls-12" d="M90.17,112.93c0-5.09,7-11.38,7-11.38s7,6.29,7,11.38-3.15,9.22-7,9.22S90.17,118,90.17,112.93Z"/><path class="cls-31" d="M100,99.48c0,2.76-1.24,2.76-2.76,2.76s-2.76,0-2.76-2.76c0-2.08,2.07-4.15,2.76-8.29C97.91,95.33,100,97.4,100,99.48Z"/><path class="cls-32" d="M90.17,112.93c0-5.09,7-11.38,7-11.38s7,6.29,7,11.38-3.15,9.22-7,9.22S90.17,118,90.17,112.93Z"/><path class="cls-33" d="M90.17,112.93c0-5.09,7-11.38,7-11.38s7,6.29,7,11.38-3.15,9.22-7,9.22S90.17,118,90.17,112.93Z"/><path class="cls-33" d="M90.17,112.93c0-5.09,7-11.38,7-11.38s7,6.29,7,11.38-3.15,9.22-7,9.22S90.17,118,90.17,112.93Z"/><rect class="cls-34" x="85.76" y="115.59" width="22.91" height="11.65" rx="5.56"/><rect class="cls-35" x="85.76" y="115.59" width="22.91" height="11.65" rx="5.56"/><path class="cls-17" d="M87.23,123.24a1.1,1.1,0,0,0,2.2,0v-4a1.1,1.1,0,0,0-2.2,0Z"/><path class="cls-16" d="M87.23,123.24a1.1,1.1,0,0,0,2.2,0v-4a1.1,1.1,0,0,0-2.2,0Z"/><path class="cls-17" d="M90.79,123.24a1.1,1.1,0,1,0,2.19,0v-4a1.1,1.1,0,1,0-2.19,0Z"/><path class="cls-16" d="M90.79,123.24a1.1,1.1,0,1,0,2.19,0v-4a1.1,1.1,0,1,0-2.19,0Z"/><path class="cls-17" d="M94.34,123.24a1.1,1.1,0,0,0,2.2,0v-4a1.1,1.1,0,0,0-2.2,0Z"/><path class="cls-16" d="M94.34,123.24a1.1,1.1,0,0,0,2.2,0v-4a1.1,1.1,0,0,0-2.2,0Z"/><path class="cls-17" d="M97.9,123.24a1.1,1.1,0,1,0,2.19,0v-4a1.1,1.1,0,1,0-2.19,0Z"/><path class="cls-16" d="M97.9,123.24a1.1,1.1,0,1,0,2.19,0v-4a1.1,1.1,0,1,0-2.19,0Z"/><path class="cls-17" d="M101.45,123.24a1.1,1.1,0,0,0,2.2,0v-4a1.1,1.1,0,0,0-2.2,0Z"/><path class="cls-16" d="M101.45,123.24a1.1,1.1,0,0,0,2.2,0v-4a1.1,1.1,0,0,0-2.2,0Z"/><path class="cls-17" d="M105,123.24a1.1,1.1,0,1,0,2.19,0v-4a1.1,1.1,0,1,0-2.19,0Z"/><path class="cls-16" d="M105,123.24a1.1,1.1,0,1,0,2.19,0v-4a1.1,1.1,0,1,0-2.19,0Z"/><path class="cls-36" d="M89.89,113.87h14.66c0,.86,1.83,1.72,1.83,1.72H88.05S89.89,114.73,89.89,113.87Z"/><path class="cls-5" d="M99.93,103.43a.4.4,0,0,0-.41-.38h-4.6a.39.39,0,0,0-.41.38h0a.39.39,0,0,0,.41.38h4.6a.4.4,0,0,0,.41-.38Z"/><path class="cls-5" d="M99.93,102.68a.4.4,0,0,0-.41-.38h-4.6a.39.39,0,0,0-.41.38h0a.39.39,0,0,0,.41.37h4.6a.4.4,0,0,0,.41-.37Z"/><path class="cls-5" d="M99.93,101.92a.4.4,0,0,0-.41-.37h-4.6a.39.39,0,0,0-.41.37h0a.39.39,0,0,0,.41.38h4.6a.4.4,0,0,0,.41-.38Z"/><rect class="cls-5" x="89.62" y="113.28" width="15.19" height="0.69"/><path class="cls-5" d="M118.12,83.88c0-2.47-1.19-4.46-2.67-4.46s-2.68,2-2.68,4.46,1.2,4.47,2.68,4.47S118.12,86.35,118.12,83.88Z"/><polygon class="cls-5" points="112.8 83.33 113.01 84 113.22 84.67 112.8 84.67 112.38 84.67 112.59 84 112.8 83.33"/><polygon class="cls-5" points="113.56 83.33 113.77 84 113.98 84.67 113.56 84.67 113.13 84.67 113.34 84 113.56 83.33"/><polygon class="cls-5" points="114.31 83.33 114.52 84 114.74 84.67 114.31 84.67 113.89 84.67 114.1 84 114.31 83.33"/><polygon class="cls-5" points="115.07 83.33 115.28 84 115.49 84.67 115.07 84.67 114.64 84.67 114.86 84 115.07 83.33"/><polygon class="cls-5" points="115.82 83.33 116.04 84 116.25 84.67 115.82 84.67 115.4 84.67 115.61 84 115.82 83.33"/><polygon class="cls-5" points="116.58 83.33 116.79 84 117 84.67 116.58 84.67 116.16 84.67 116.37 84 116.58 83.33"/><polygon class="cls-5" points="117.33 83.33 117.55 84 117.76 84.67 117.33 84.67 116.91 84.67 117.12 84 117.33 83.33"/><polygon class="cls-5" points="118.09 83.33 118.3 84 118.52 84.67 118.09 84.67 117.67 84.67 117.88 84 118.09 83.33"/><polygon class="cls-25" points="118.31 85.22 118.09 84.55 117.88 85.22 117.72 85.75 117.55 85.22 117.34 84.55 117.13 85.22 116.96 85.75 116.79 85.22 116.58 84.55 116.37 85.22 116.2 85.75 116.04 85.22 115.82 84.55 115.61 85.22 115.45 85.75 115.28 85.22 115.07 84.55 114.86 85.22 114.69 85.75 114.52 85.22 114.31 84.55 114.1 85.22 113.93 85.75 113.77 85.22 113.56 84.55 113.34 85.22 113.18 85.75 113.01 85.22 112.8 84.55 112.59 85.22 112.37 85.89 112.37 128.07 118.52 128.07 118.52 85.89 118.31 85.22"/><polygon class="cls-4" points="113.14 105.11 112.38 103.45 113.14 101.79 113.91 103.45 113.14 105.11"/><polygon class="cls-4" points="117.74 105.11 116.98 103.45 117.74 101.79 118.51 103.45 117.74 105.11"/><polygon class="cls-4" points="116.21 105.11 115.44 103.45 116.21 101.79 116.98 103.45 116.21 105.11"/><polygon class="cls-4" points="114.68 105.11 113.91 103.45 114.68 101.79 115.44 103.45 114.68 105.11"/><polygon class="cls-4" points="113.14 105.11 112.38 103.45 113.14 101.79 113.91 103.45 113.14 105.11"/><polygon class="cls-4" points="117.74 105.11 116.98 103.45 117.74 101.79 118.51 103.45 117.74 105.11"/><polygon class="cls-4" points="116.21 105.11 115.44 103.45 116.21 101.79 116.98 103.45 116.21 105.11"/><polygon class="cls-4" points="114.68 105.11 113.91 103.45 114.68 101.79 115.44 103.45 114.68 105.11"/><polygon class="cls-4" points="113.14 111.78 112.38 110.12 113.14 108.45 113.91 110.12 113.14 111.78"/><polygon class="cls-4" points="117.74 111.78 116.98 110.12 117.74 108.45 118.51 110.12 117.74 111.78"/><polygon class="cls-4" points="116.21 111.78 115.44 110.12 116.21 108.45 116.98 110.12 116.21 111.78"/><polygon class="cls-4" points="114.68 111.78 113.91 110.12 114.68 108.45 115.44 110.12 114.68 111.78"/><polygon class="cls-4" points="113.91 108.44 113.14 106.78 113.91 105.11 114.68 106.78 113.91 108.44"/><polygon class="cls-4" points="112.38 108.44 112.38 105.11 113.14 106.78 112.38 108.44"/><polygon class="cls-4" points="118.51 108.44 117.74 106.78 118.51 105.11 118.51 108.44"/><polygon class="cls-4" points="116.98 108.44 116.21 106.78 116.98 105.11 117.74 106.78 116.98 108.44"/><polygon class="cls-4" points="115.44 108.44 114.68 106.78 115.44 105.11 116.21 106.78 115.44 108.44"/><rect class="cls-37" x="112.37" y="87.42" width="6.14" height="12.66"/><path class="cls-17" d="M132.79,120.52a3.43,3.43,0,0,0,6.85,0V101.14a3.43,3.43,0,1,0-6.85,0Z"/><path class="cls-16" d="M132.79,120.52a3.43,3.43,0,0,0,6.85,0V101.14a3.43,3.43,0,1,0-6.85,0Z"/><path class="cls-8" d="M139.61,93.62c0,3.14-2.73,2.94-3.39,2.94s-3.39.2-3.39-2.94,3.39-7.88,3.39-7.88S139.61,90.48,139.61,93.62Z"/><path class="cls-20" d="M137.16,83.48c0,2.3-.8,2.37-.94,2.37s-.94-.07-.94-2.37a24.93,24.93,0,0,1,.94-5.53A24.93,24.93,0,0,1,137.16,83.48Z"/><path class="cls-5" d="M137.48,97.52a.18.18,0,0,0-.19-.19h-2.15a.19.19,0,0,0-.19.19h0a.2.2,0,0,0,.19.19h2.15a.19.19,0,0,0,.19-.19Z"/><path class="cls-5" d="M137.48,97.13a.19.19,0,0,0-.19-.19h-2.15a.2.2,0,0,0-.19.19h0a.2.2,0,0,0,.19.2h2.15a.19.19,0,0,0,.19-.2Z"/><path class="cls-5" d="M137.48,96.75a.18.18,0,0,0-.19-.19h-2.15a.19.19,0,0,0-.19.19h0a.19.19,0,0,0,.19.19h2.15a.18.18,0,0,0,.19-.19Z"/><path class="cls-5" d="M136.68,86.21c0-.11,0-.2-.07-.2h-.78s-.07.09-.07.2h0c0,.1,0,.19.07.19h.78s.07-.09.07-.19Z"/><path class="cls-5" d="M136.68,85.82c0-.1,0-.19-.07-.19h-.78s-.07.09-.07.19h0c0,.11,0,.19.07.19h.78s.07-.08.07-.19Z"/><path class="cls-34" d="M133.89,121.08a.77.77,0,0,0,1.54,0v-20.5a.77.77,0,1,0-1.54,0Z"/><path class="cls-16" d="M133.89,121.08a.77.77,0,0,0,1.54,0v-20.5a.77.77,0,1,0-1.54,0Z"/><path class="cls-23" d="M137,121.08a.77.77,0,1,0,1.54,0v-20.5a.77.77,0,1,0-1.54,0Z"/><path class="cls-16" d="M137,121.08a.77.77,0,1,0,1.54,0v-20.5a.77.77,0,1,0-1.54,0Z"/><path class="cls-38" d="M129.91,69.27c.41,0,.41-.74.85-2.85s-.55-2.21-.85-4.74c-.3,2.53-1.28,2.68-.85,4.74s.44,2.85.85,2.85"/><path class="cls-17" d="M129.06,79.86a.85.85,0,1,0,1.7,0V68.24a.85.85,0,1,0-1.7,0Z"/><path class="cls-16" d="M129.06,79.86a.85.85,0,1,0,1.7,0V68.24a.85.85,0,1,0-1.7,0Z"/><path class="cls-39" d="M127.82,94.49a2.09,2.09,0,1,0,4.18,0V90.54a2.09,2.09,0,1,0-4.18,0Z"/><path class="cls-16" d="M127.82,94.49a2.09,2.09,0,1,0,4.18,0V90.54a2.09,2.09,0,1,0-4.18,0Z"/><path class="cls-34" d="M127.82,85.62a2.09,2.09,0,0,0,4.18,0V81.39a2.09,2.09,0,0,0-4.18,0Z"/><path class="cls-16" d="M127.82,85.62a2.09,2.09,0,0,0,4.18,0V81.39a2.09,2.09,0,0,0-4.18,0Z"/><path class="cls-17" d="M128.86,88.32a.13.13,0,0,0,.13.13h1.84a.12.12,0,0,0,.12-.13.12.12,0,0,0-.12-.12H129a.13.13,0,0,0-.13.12Z"/><path class="cls-16" d="M128.86,88.32a.13.13,0,0,0,.13.13h1.84a.12.12,0,0,0,.12-.13.12.12,0,0,0-.12-.12H129a.13.13,0,0,0-.13.12Z"/><path class="cls-17" d="M128.86,88.08a.13.13,0,0,0,.13.12h1.84a.12.12,0,0,0,.12-.12.12.12,0,0,0-.12-.13H129a.13.13,0,0,0-.13.13Z"/><path class="cls-16" d="M128.86,88.08a.13.13,0,0,0,.13.12h1.84a.12.12,0,0,0,.12-.12.12.12,0,0,0-.12-.13H129a.13.13,0,0,0-.13.13Z"/><path class="cls-17" d="M128.86,87.83A.12.12,0,0,0,129,88h1.84a.12.12,0,0,0,.12-.12.12.12,0,0,0-.12-.13H129a.13.13,0,0,0-.13.13Z"/><path class="cls-16" d="M128.86,87.83A.12.12,0,0,0,129,88h1.84a.12.12,0,0,0,.12-.12.12.12,0,0,0-.12-.13H129a.13.13,0,0,0-.13.13Z"/><path class="cls-17" d="M128.86,79.17a.13.13,0,0,0,.13.13h1.84a.12.12,0,0,0,.12-.13.12.12,0,0,0-.12-.12H129a.13.13,0,0,0-.13.12Z"/><path class="cls-16" d="M128.86,79.17a.13.13,0,0,0,.13.13h1.84a.12.12,0,0,0,.12-.13.12.12,0,0,0-.12-.12H129a.13.13,0,0,0-.13.12Z"/><path class="cls-17" d="M128.86,78.93a.13.13,0,0,0,.13.12h1.84a.12.12,0,0,0,.12-.12.12.12,0,0,0-.12-.13H129a.13.13,0,0,0-.13.13Z"/><path class="cls-16" d="M128.86,78.93a.13.13,0,0,0,.13.12h1.84a.12.12,0,0,0,.12-.12.12.12,0,0,0-.12-.13H129a.13.13,0,0,0-.13.13Z"/><path class="cls-17" d="M128.86,78.68a.12.12,0,0,0,.13.12h1.84a.12.12,0,0,0,0-.24H129a.12.12,0,0,0-.13.12Z"/><path class="cls-16" d="M128.86,78.68a.12.12,0,0,0,.13.12h1.84a.12.12,0,0,0,0-.24H129a.12.12,0,0,0-.13.12Z"/><path class="cls-17" d="M129.13,67.66a.09.09,0,0,0,.1.1h1.35a.1.1,0,1,0,0-.2h-1.35a.09.09,0,0,0-.1.1Z"/><path class="cls-16" d="M129.13,67.66a.09.09,0,0,0,.1.1h1.35a.1.1,0,1,0,0-.2h-1.35a.09.09,0,0,0-.1.1Z"/><path class="cls-17" d="M129.13,67.45a.1.1,0,0,0,.1.11h1.35a.11.11,0,0,0,.11-.11.11.11,0,0,0-.11-.1h-1.35a.1.1,0,0,0-.1.1Z"/><path class="cls-16" d="M129.13,67.45a.1.1,0,0,0,.1.11h1.35a.11.11,0,0,0,.11-.11.11.11,0,0,0-.11-.1h-1.35a.1.1,0,0,0-.1.1Z"/><path class="cls-17" d="M129.13,67.25a.1.1,0,0,0,.1.1h1.35a.11.11,0,0,0,.11-.1.11.11,0,0,0-.11-.11h-1.35a.1.1,0,0,0-.1.11Z"/><path class="cls-16" d="M129.13,67.25a.1.1,0,0,0,.1.1h1.35a.11.11,0,0,0,.11-.1.11.11,0,0,0-.11-.11h-1.35a.1.1,0,0,0-.1.11Z"/><path class="cls-17" d="M126.31,121.52a3.61,3.61,0,1,0,7.21,0V96.88a3.61,3.61,0,1,0-7.21,0Z"/><path class="cls-16" d="M126.31,121.52a3.61,3.61,0,1,0,7.21,0V96.88a3.61,3.61,0,1,0-7.21,0Z"/><rect class="cls-27" x="125.42" y="97.89" width="8.97" height="28.46"/><polygon class="cls-12" points="133.52 96.58 126.3 96.58 125.42 97.89 134.39 97.89 133.52 96.58"/><rect class="cls-40" x="126.3" y="95.11" width="7.22" height="1.46"/><rect class="cls-5" x="126.3" y="94.68" width="7.22" height="0.44"/><rect class="cls-5" x="127.82" y="92.84" width="4.18" height="0.44"/><path class="cls-5" d="M126.73,96.58c0-.59.25-1.07.55-1.07s.54.48.54,1.07Z"/><path class="cls-5" d="M128.49,126.35c0-14.55.24-26.35.54-26.35s.54,11.8.54,26.35Z"/><path class="cls-5" d="M130.24,126.35c0-14.55.24-26.35.54-26.35s.55,11.8.55,26.35Z"/><path class="cls-5" d="M132,126.35c0-14.55.24-26.35.54-26.35s.54,11.8.54,26.35Z"/><path class="cls-5" d="M126.73,126.35c0-14.55.25-26.35.55-26.35s.54,11.8.54,26.35Z"/><path class="cls-5" d="M132,96.58c0-.59.24-1.07.54-1.07s.54.48.54,1.07Z"/><path class="cls-5" d="M130.24,96.58c0-.59.24-1.07.54-1.07s.55.48.55,1.07Z"/><path class="cls-5" d="M128.49,96.58c0-.59.24-1.07.54-1.07s.54.48.54,1.07Z"/><path d="M129.91,83.53s0,1.42.35,1.73,1.74.36,1.74.36-1.42,0-1.74.35-.35,1.73-.35,1.73,0-1.42-.36-1.73-1.73-.35-1.73-.35,1.42-.05,1.73-.36S129.91,83.53,129.91,83.53Z"/><path d="M129.91,79.35s0,1.42.35,1.73,1.74.36,1.74.36-1.42,0-1.74.35-.35,1.74-.35,1.74,0-1.42-.36-1.74-1.73-.35-1.73-.35,1.42,0,1.73-.36S129.91,79.35,129.91,79.35Z"/><path d="M132,81.44s0,1.42.35,1.73,1.74.36,1.74.36-1.43,0-1.74.35-.35,1.74-.35,1.74-.05-1.42-.36-1.74-1.73-.35-1.73-.35,1.42,0,1.73-.36S132,81.44,132,81.44Z"/><path d="M127.82,81.44s0,1.42.35,1.73,1.74.36,1.74.36-1.42,0-1.74.35-.35,1.74-.35,1.74,0-1.42-.36-1.74-1.73-.35-1.73-.35,1.42,0,1.73-.36S127.82,81.44,127.82,81.44Z"/><path class="cls-17" d="M107.85,106.71a.12.12,0,0,0,.12.12h4.94a.12.12,0,0,0,.12-.12.13.13,0,0,0-.12-.12H108a.12.12,0,0,0-.12.12Z"/><path class="cls-16" d="M107.85,106.71a.12.12,0,0,0,.12.12h4.94a.12.12,0,0,0,.12-.12.13.13,0,0,0-.12-.12H108a.12.12,0,0,0-.12.12Z"/><path class="cls-17" d="M107.85,106.48a.11.11,0,0,0,.12.11h4.94a.12.12,0,0,0,.12-.11.12.12,0,0,0-.12-.12H108a.12.12,0,0,0-.12.12Z"/><path class="cls-16" d="M107.85,106.48a.11.11,0,0,0,.12.11h4.94a.12.12,0,0,0,.12-.11.12.12,0,0,0-.12-.12H108a.12.12,0,0,0-.12.12Z"/><path class="cls-17" d="M107.85,106.24a.12.12,0,0,0,.12.12h4.94a.13.13,0,0,0,.12-.12.12.12,0,0,0-.12-.12H108a.12.12,0,0,0-.12.12Z"/><path class="cls-16" d="M107.85,106.24a.12.12,0,0,0,.12.12h4.94a.13.13,0,0,0,.12-.12.12.12,0,0,0-.12-.12H108a.12.12,0,0,0-.12.12Z"/><rect class="cls-41" x="107.34" y="108.75" width="6.2" height="19.69"/><polygon class="cls-12" points="112.94 107.84 107.94 107.84 107.34 108.75 113.54 108.75 112.94 107.84"/><polygon class="cls-12" points="112.44 105.67 108.43 105.67 107.94 106.12 112.93 106.12 112.44 105.67"/><rect class="cls-5" x="107.94" y="106.83" width="5" height="1.01"/><polygon class="cls-42" points="110.44 86.68 111.29 96.17 112.14 105.67 110.44 105.67 108.73 105.67 109.59 96.17 110.44 86.68"/><polygon class="cls-43" points="110.44 92.26 110.91 97.52 111.38 102.79 110.44 102.79 109.49 102.79 109.97 97.52 110.44 92.26"/><line class="cls-16" x1="110.44" y1="102.79" x2="110.44" y2="105.67"/><path class="cls-4" d="M110.86,111c0,.3-.27.32-.42.32s-.43,0-.43-.32a6.14,6.14,0,0,1,.43-1.29A6.24,6.24,0,0,1,110.86,111Z"/><path class="cls-4" d="M111.19,114.75c0,.53-.48.57-.75.57s-.75,0-.75-.57a10.86,10.86,0,0,1,.75-2.26A10.86,10.86,0,0,1,111.19,114.75Z"/><path class="cls-4" d="M111.52,119.72c0,.77-.69.83-1.08.83s-1.09-.06-1.09-.83a15.9,15.9,0,0,1,1.09-3.27A16,16,0,0,1,111.52,119.72Z"/><path class="cls-4" d="M111.89,126.06c0,1-.93,1.12-1.45,1.12s-1.46-.08-1.46-1.12a21.46,21.46,0,0,1,1.46-4.39A21.56,21.56,0,0,1,111.89,126.06Z"/><path class="cls-4" d="M150.51,87.15c0-2.18-1.2-3.94-2.67-3.94s-2.67,1.76-2.67,3.94,1.19,3.93,2.67,3.93S150.51,89.32,150.51,87.15Z"/><path class="cls-27" d="M150.5,89c0-.36-.18-.65-.38-.65s-.34.23-.38.54c-.05-.31-.2-.54-.38-.54s-.34.23-.38.54c0-.31-.2-.54-.38-.54s-.34.23-.38.54c0-.31-.2-.54-.38-.54s-.34.23-.38.54c0-.31-.2-.54-.38-.54s-.34.23-.38.54c0-.31-.2-.54-.38-.54s-.34.23-.38.54c0-.31-.2-.54-.38-.54s-.38.29-.39.65h0v37.07h5.34V89Z"/><path class="cls-17" d="M147.14,83.15a.26.26,0,0,0,.26.26h.87a.26.26,0,0,0,.26-.26.25.25,0,0,0-.26-.26h-.87a.26.26,0,0,0-.26.26Z"/><path class="cls-16" d="M147.14,83.15a.26.26,0,0,0,.26.26h.87a.26.26,0,0,0,.26-.26.25.25,0,0,0-.26-.26h-.87a.26.26,0,0,0-.26.26Z"/><path class="cls-17" d="M147.14,82.61a.26.26,0,0,0,.26.26h.87a.25.25,0,0,0,.26-.26.26.26,0,0,0-.26-.26h-.87a.26.26,0,0,0-.26.26Z"/><path class="cls-16" d="M147.14,82.61a.26.26,0,0,0,.26.26h.87a.25.25,0,0,0,.26-.26.26.26,0,0,0-.26-.26h-.87a.26.26,0,0,0-.26.26Z"/><path class="cls-17" d="M147.14,82.08a.26.26,0,0,0,.26.26h.87a.26.26,0,0,0,.26-.26.25.25,0,0,0-.26-.26h-.87a.26.26,0,0,0-.26.26Z"/><path class="cls-16" d="M147.14,82.08a.26.26,0,0,0,.26.26h.87a.26.26,0,0,0,.26-.26.25.25,0,0,0-.26-.26h-.87a.26.26,0,0,0-.26.26Z"/><path class="cls-17" d="M147.14,81.54a.26.26,0,0,0,.26.26h.87a.26.26,0,1,0,0-.52h-.87a.26.26,0,0,0-.26.26Z"/><path class="cls-16" d="M147.14,81.54a.26.26,0,0,0,.26.26h.87a.26.26,0,1,0,0-.52h-.87a.26.26,0,0,0-.26.26Z"/><path class="cls-17" d="M147.14,81a.26.26,0,0,0,.26.26h.87a.25.25,0,0,0,.26-.26.26.26,0,0,0-.26-.26h-.87a.26.26,0,0,0-.26.26Z"/><path class="cls-16" d="M147.14,81a.26.26,0,0,0,.26.26h.87a.25.25,0,0,0,.26-.26.26.26,0,0,0-.26-.26h-.87a.26.26,0,0,0-.26.26Z"/><path class="cls-17" d="M147.14,80.47a.26.26,0,0,0,.26.26h.87a.26.26,0,0,0,.26-.26.25.25,0,0,0-.26-.26h-.87a.26.26,0,0,0-.26.26Z"/><path class="cls-16" d="M147.14,80.47a.26.26,0,0,0,.26.26h.87a.26.26,0,0,0,.26-.26.25.25,0,0,0-.26-.26h-.87a.26.26,0,0,0-.26.26Z"/><path class="cls-17" d="M147.14,79.93a.26.26,0,0,0,.26.26h.87a.26.26,0,1,0,0-.52h-.87a.26.26,0,0,0-.26.26Z"/><path class="cls-16" d="M147.14,79.93a.26.26,0,0,0,.26.26h.87a.26.26,0,1,0,0-.52h-.87a.26.26,0,0,0-.26.26Z"/><path class="cls-17" d="M147.14,79.39a.27.27,0,0,0,.26.27h.87a.27.27,0,0,0,0-.53h-.87a.26.26,0,0,0-.26.26Z"/><path class="cls-16" d="M147.14,79.39a.27.27,0,0,0,.26.27h.87a.27.27,0,0,0,0-.53h-.87a.26.26,0,0,0-.26.26Z"/><path class="cls-17" d="M147.14,78.86a.26.26,0,0,0,.26.26h.87a.26.26,0,1,0,0-.52h-.87a.26.26,0,0,0-.26.26Z"/><path class="cls-16" d="M147.14,78.86a.26.26,0,0,0,.26.26h.87a.26.26,0,1,0,0-.52h-.87a.26.26,0,0,0-.26.26Z"/><path class="cls-17" d="M147.14,78.32a.26.26,0,0,0,.26.26h.87a.25.25,0,0,0,.26-.26.26.26,0,0,0-.26-.26h-.87a.26.26,0,0,0-.26.26Z"/><path class="cls-16" d="M147.14,78.32a.26.26,0,0,0,.26.26h.87a.25.25,0,0,0,.26-.26.26.26,0,0,0-.26-.26h-.87a.26.26,0,0,0-.26.26Z"/><path class="cls-17" d="M147.14,77.79a.26.26,0,0,0,.26.26h.87a.26.26,0,0,0,.26-.26.25.25,0,0,0-.26-.26h-.87a.26.26,0,0,0-.26.26Z"/><path class="cls-16" d="M147.14,77.79a.26.26,0,0,0,.26.26h.87a.26.26,0,0,0,.26-.26.25.25,0,0,0-.26-.26h-.87a.26.26,0,0,0-.26.26Z"/><path class="cls-17" d="M147.14,77.25a.26.26,0,0,0,.26.26h.87a.26.26,0,1,0,0-.52h-.87a.26.26,0,0,0-.26.26Z"/><path class="cls-16" d="M147.14,77.25a.26.26,0,0,0,.26.26h.87a.26.26,0,1,0,0-.52h-.87a.26.26,0,0,0-.26.26Z"/><path class="cls-17" d="M147.14,76.71a.26.26,0,0,0,.26.26h.87a.25.25,0,0,0,.26-.26.26.26,0,0,0-.26-.26h-.87a.26.26,0,0,0-.26.26Z"/><path class="cls-16" d="M147.14,76.71a.26.26,0,0,0,.26.26h.87a.25.25,0,0,0,.26-.26.26.26,0,0,0-.26-.26h-.87a.26.26,0,0,0-.26.26Z"/><path class="cls-17" d="M147.14,76.18a.26.26,0,0,0,.26.26h.87a.26.26,0,0,0,.26-.26.25.25,0,0,0-.26-.26h-.87a.26.26,0,0,0-.26.26Z"/><path class="cls-16" d="M147.14,76.18a.26.26,0,0,0,.26.26h.87a.26.26,0,0,0,.26-.26.25.25,0,0,0-.26-.26h-.87a.26.26,0,0,0-.26.26Z"/><path class="cls-9" d="M148.64,75.22a.81.81,0,0,1-1.61,0,4.47,4.47,0,0,1,.81-1.88A4.5,4.5,0,0,1,148.64,75.22Z"/><path class="cls-17" d="M122.89,127.16a.84.84,0,0,0,.84.83h2.81a.83.83,0,0,0,.83-.83.84.84,0,0,0-.83-.84h-2.81a.85.85,0,0,0-.84.84Z"/><path class="cls-16" d="M122.89,127.16a.84.84,0,0,0,.84.83h2.81a.83.83,0,0,0,.83-.83.84.84,0,0,0-.83-.84h-2.81a.85.85,0,0,0-.84.84Z"/><path d="M122.89,125.44a.84.84,0,0,0,.84.83h2.81a.83.83,0,0,0,.83-.83.84.84,0,0,0-.83-.84h-2.81a.85.85,0,0,0-.84.84Z"/><path class="cls-16" d="M122.89,125.44a.84.84,0,0,0,.84.83h2.81a.83.83,0,0,0,.83-.83.84.84,0,0,0-.83-.84h-2.81a.85.85,0,0,0-.84.84Z"/><path class="cls-17" d="M122.89,123.72a.84.84,0,0,0,.84.83h2.8a.84.84,0,1,0,0-1.67h-2.8a.84.84,0,0,0-.84.84Z"/><path class="cls-16" d="M122.89,123.72a.84.84,0,0,0,.84.83h2.8a.84.84,0,1,0,0-1.67h-2.8a.84.84,0,0,0-.84.84Z"/><path d="M122.89,122a.84.84,0,0,0,.84.83h2.8a.84.84,0,1,0,0-1.67h-2.8a.84.84,0,0,0-.84.84Z"/><path class="cls-16" d="M122.89,122a.84.84,0,0,0,.84.83h2.8a.84.84,0,1,0,0-1.67h-2.8a.84.84,0,0,0-.84.84Z"/><path class="cls-17" d="M122.89,120.27a.85.85,0,0,0,.84.84h2.81a.84.84,0,0,0,.83-.84.83.83,0,0,0-.83-.83h-2.81a.84.84,0,0,0-.84.83Z"/><path class="cls-16" d="M122.89,120.27a.85.85,0,0,0,.84.84h2.81a.84.84,0,0,0,.83-.84.83.83,0,0,0-.83-.83h-2.81a.84.84,0,0,0-.84.83Z"/><path d="M122.89,118.55a.85.85,0,0,0,.84.84h2.81a.84.84,0,0,0,.83-.84.83.83,0,0,0-.83-.83h-2.81a.84.84,0,0,0-.84.83Z"/><path class="cls-16" d="M122.89,118.55a.85.85,0,0,0,.84.84h2.81a.84.84,0,0,0,.83-.84.83.83,0,0,0-.83-.83h-2.81a.84.84,0,0,0-.84.83Z"/><path class="cls-17" d="M122.89,116.83a.85.85,0,0,0,.84.84h2.81a.84.84,0,0,0,.83-.84.83.83,0,0,0-.83-.83h-2.81a.84.84,0,0,0-.84.83Z"/><path class="cls-16" d="M122.89,116.83a.85.85,0,0,0,.84.84h2.81a.84.84,0,0,0,.83-.84.83.83,0,0,0-.83-.83h-2.81a.84.84,0,0,0-.84.83Z"/><path d="M122.89,115.11a.85.85,0,0,0,.84.84h2.8a.84.84,0,0,0,.84-.84.83.83,0,0,0-.84-.83h-2.8a.84.84,0,0,0-.84.83Z"/><path class="cls-16" d="M122.89,115.11a.85.85,0,0,0,.84.84h2.8a.84.84,0,0,0,.84-.84.83.83,0,0,0-.84-.83h-2.8a.84.84,0,0,0-.84.83Z"/><path class="cls-17" d="M122.89,113.39a.84.84,0,0,0,.84.83h2.8a.83.83,0,1,0,0-1.66h-2.8a.84.84,0,0,0-.84.83Z"/><path class="cls-16" d="M122.89,113.39a.84.84,0,0,0,.84.83h2.8a.83.83,0,1,0,0-1.66h-2.8a.84.84,0,0,0-.84.83Z"/><path d="M122.89,111.67a.84.84,0,0,0,.84.83h2.8a.83.83,0,0,0,.84-.83.84.84,0,0,0-.84-.84h-2.8a.85.85,0,0,0-.84.84Z"/><path class="cls-16" d="M122.89,111.67a.84.84,0,0,0,.84.83h2.8a.83.83,0,0,0,.84-.83.84.84,0,0,0-.84-.84h-2.8a.85.85,0,0,0-.84.84Z"/><path class="cls-17" d="M122.89,110a.84.84,0,0,0,.84.83h2.8a.83.83,0,0,0,.84-.83.84.84,0,0,0-.84-.84h-2.8a.85.85,0,0,0-.84.84Z"/><path class="cls-16" d="M122.89,110a.84.84,0,0,0,.84.83h2.8a.83.83,0,0,0,.84-.83.84.84,0,0,0-.84-.84h-2.8a.85.85,0,0,0-.84.84Z"/><path d="M122.89,108.23a.84.84,0,0,0,.84.83h2.81a.83.83,0,0,0,.83-.83.84.84,0,0,0-.83-.84h-2.81a.85.85,0,0,0-.84.84Z"/><path class="cls-16" d="M122.89,108.23a.84.84,0,0,0,.84.83h2.81a.83.83,0,0,0,.83-.83.84.84,0,0,0-.83-.84h-2.81a.85.85,0,0,0-.84.84Z"/><path class="cls-17" d="M122.89,106.51a.84.84,0,0,0,.84.83h2.8a.84.84,0,1,0,0-1.67h-2.8a.84.84,0,0,0-.84.84Z"/><path class="cls-16" d="M122.89,106.51a.84.84,0,0,0,.84.83h2.8a.84.84,0,1,0,0-1.67h-2.8a.84.84,0,0,0-.84.84Z"/><path d="M122.89,104.78a.84.84,0,0,0,.84.84h2.8a.84.84,0,1,0,0-1.67h-2.8a.84.84,0,0,0-.84.83Z"/><path class="cls-16" d="M122.89,104.78a.84.84,0,0,0,.84.84h2.8a.84.84,0,1,0,0-1.67h-2.8a.84.84,0,0,0-.84.83Z"/><path class="cls-44" d="M127.72,101.7a2.62,2.62,0,0,1-5.18,0c0-2.4,2.59-6,2.59-6S127.72,99.3,127.72,101.7Z"/><path class="cls-45" d="M112.49,128.21c-21.9,0-39.65-.94-39.66-2.1h0c0,6,17.76,10.89,39.66,10.89s47.79-10.25,47.79-16.26C160.28,121.9,134.4,128.21,112.49,128.21Z"/><path class="cls-46" d="M112.49,137c-21.9,0-39.66-4.88-39.66-10.89v-9c0,.49,3.16.94,8.46,1.29,3.29.23,4.14,2.84,7.56,2.84,2.17,0,3.69-4.65,8.37-4.65,5.75,0,5.35,9.47,9.17,9.47,3.49,0,4,2.1,6.1,2.1"/><path class="cls-4" d="M72.88,125c.42.25.92.11,1.32-.68a4.25,4.25,0,0,0,.38-1.5c.12-.89.1-4.51-1.58-4.33-1,.11-1.07,2-1.12,2.75a9.53,9.53,0,0,0,.25,2.49A1.85,1.85,0,0,0,72.88,125Z"/><path class="cls-47" d="M100.18,123.34a3.29,3.29,0,1,1-3.28-3.29A3.28,3.28,0,0,1,100.18,123.34Z"/><circle class="cls-27" cx="119.54" cy="131.85" r="1.42"/><path class="cls-48" d="M90.77,129.68a2.44,2.44,0,1,1-2.44-2.44A2.44,2.44,0,0,1,90.77,129.68Z"/><path class="cls-8" d="M83.66,124.34a3.29,3.29,0,1,1-3.28-3.29A3.28,3.28,0,0,1,83.66,124.34Z"/><path class="cls-22" d="M19.72,122h.12c7.76,0,32.61,4.62,34.81,0C52.44,129.74,27.33,122,19.72,122Z"/><path class="cls-49" d="M19.78,122h-.06c7.61,0,32.72-7.75,34.93,0-2.2-4.63-27,0-34.81,0Z"/><path class="cls-50" d="M19.78,122h.06c7.76,0,32.61-1.55,34.81,0-2.2,1.54-27,0-34.81,0Z"/><path d="M54.65,122c-2.2,4.62-27,0-34.81,0C27.6,122,52.45,123.54,54.65,122Z"/><path class="cls-51" d="M54.65,122c-2.2-1.55-27,0-34.81,0C27.6,122,52.45,117.37,54.65,122Z"/><path class="cls-52" d="M19.72,122c7.61,0,32.72,7.74,34.93,0"/><path class="cls-52" d="M19.84,122c7.76,0,32.61,4.62,34.81,0"/><path class="cls-52" d="M19.78,122h.06c7.76,0,32.61,1.54,34.81,0"/><path class="cls-52" d="M19.84,122c7.76,0,32.61-1.55,34.81,0"/><path class="cls-52" d="M19.72,122h.12c7.76,0,32.61-4.63,34.81,0"/><path class="cls-52" d="M19.72,122c7.61,0,32.72-7.75,34.93,0"/><path class="cls-9" d="M66.71,117.64c-2.75.21-10.89,1.71-10.89,1.71-1.45,0-2,1.25-2,2.74s.53,2.8,2,2.82h.06s8,1.16,10.75,1.32c3.07.19,5.48-1.27,5.48-4.29S69.76,117.42,66.71,117.64Zm-10,5.27a9.66,9.66,0,0,1-2-.68,9.76,9.76,0,0,1,2-.67c.47,0,.51.43.51.67S57.14,122.91,56.67,122.91Zm5.76.27a13.88,13.88,0,0,1-2.85-1,14,14,0,0,1,2.85-.94c.67,0,.73.6.73.94S63.1,123.18,62.43,123.18Zm6.13.14a15.77,15.77,0,0,1-3.26-1.09,15.87,15.87,0,0,1,3.26-1.08c.77,0,.83.69.83,1.08S69.33,123.32,68.56,123.32Z"/><path class="cls-4" d="M68.56,121.15a15.87,15.87,0,0,0-3.26,1.08,15.77,15.77,0,0,0,3.26,1.09c.77,0,.83-.69.83-1.09S69.33,121.15,68.56,121.15Z"/><path class="cls-53" d="M62.43,121.29a14,14,0,0,0-2.85.94,13.88,13.88,0,0,0,2.85,1c.67,0,.73-.6.73-1S63.1,121.29,62.43,121.29Z"/><path class="cls-54" d="M56.67,121.56a9.76,9.76,0,0,0-2,.67,9.66,9.66,0,0,0,2,.68c.47,0,.51-.43.51-.68S57.14,121.56,56.67,121.56Z"/><path class="cls-27" d="M109.22,129.89a1.9,1.9,0,1,1-1.9-1.9A1.9,1.9,0,0,1,109.22,129.89Z"/><line class="cls-45" x1="112.66" y1="128.18" x2="112.49" y2="137"/></svg>