<?xml version="1.0" encoding="utf-8"?>
<!-- Generator: Adobe Illustrator 25.0.1, SVG Export Plug-In . SVG Version: 6.00 Build 0)  -->
<svg version="1.1" id="Calque_1" xmlns="http://www.w3.org/2000/svg" xmlns:xlink="http://www.w3.org/1999/xlink" x="0px" y="0px"
	 viewBox="0 0 64 64" style="enable-background:new 0 0 64 64;" xml:space="preserve">
<style type="text/css">
	.st0{fill:#FFFFFF;}
</style>
<g>
	<path class="st0" d="M25.8,22.5c0-0.5,0.2-1.4-0.6-1.4c-0.4,0-0.8,0.1-1.2,0.3c-2.1,0.9-9.8,6.2-9.8,6.2c-0.1,0-0.1,0-0.2,0h-6v9.2
		h6.1c0,0,7.6,5.3,9.8,6.2c2.3,0.9,1.8-0.5,1.8-1.1V22.5z"/>
	<path class="st0" d="M42.4,16.4L42.4,16.4l-2,1.2c1.5,1,2.7,2.2,3.8,3.5c2.5,3.1,3.9,7.1,3.8,11.1c0.1,4-1.3,7.8-3.8,10.9
		c-1.1,1.3-2.3,2.5-3.8,3.4l2.1,1.2c5.5-3.1,9.1-9.1,8.9-15.4C51.6,25.8,47.9,19.7,42.4,16.4z"/>
	<path class="st0" d="M31.6,24.4L31.6,24.4c-0.6-0.4-1.2-0.8-1.9-1.2l-2.3,1.3c7,3.2,7.3,11.7,0,14.9l2.2,1.5
		C37.6,36.7,38.4,29.3,31.6,24.4z"/>
	<path class="st0" d="M43.6,32.2c0.1-5.1-2.9-9.7-7.1-12.3v0l-2.2,1.2c1.1,0.7,2.1,1.6,3,2.7c2,2.4,3.1,5.3,3,8.4c0,3-1,6-3,8.3
		c-0.8,1-1.8,1.9-2.9,2.5l2,1.2c1.5-0.9,2.9-2,4.1-3.3C42.5,38.5,43.6,35.4,43.6,32.2z"/>
	<polygon class="st0" points="43.6,32.2 43.6,32.2 43.6,32.2 	"/>
</g>
</svg>
