<?xml version="1.0" encoding="utf-8"?>
<!-- Generator: Adobe Illustrator 25.0.1, SVG Export Plug-In . SVG Version: 6.00 Build 0)  -->
<svg version="1.1" id="Calque_1" xmlns="http://www.w3.org/2000/svg" xmlns:xlink="http://www.w3.org/1999/xlink" x="0px" y="0px"
	 viewBox="0 0 64 64" style="enable-background:new 0 0 64 64;" xml:space="preserve">
<style type="text/css">
	.st0{fill:#FFFFFF;}
</style>
<path class="st0" d="M52,29c-0.5-0.9-1.2-1.6-2.1-2.1L11.8,4.4C9,2.7,5.3,3.6,3.6,6.4c-0.6,0.9-0.9,2-0.9,3.1v45
	c0,1.6,0.6,3.1,1.8,4.2c1.1,1.1,2.6,1.8,4.2,1.8c0,0,0,0,0,0c1.1,0,2.1-0.3,3.1-0.8l38.1-22.5C52.7,35.5,53.7,31.8,52,29z
	 M49.1,35.8L11,58.3c-0.7,0.4-1.4,0.6-2.2,0.6c0,0,0,0,0,0c-1.2,0-2.3-0.5-3.1-1.3c-0.8-0.8-1.3-1.9-1.3-3.1v-45
	c0-0.8,0.2-1.6,0.6-2.3c0.8-1.3,2.3-2.1,3.7-2.1c0.8,0,1.5,0.2,2.3,0.6l38.1,22.5c0.6,0.4,1.2,0.9,1.5,1.5
	C51.8,31.9,51.2,34.6,49.1,35.8z"/>
</svg>
