<?xml version="1.0" encoding="utf-8"?>
<!-- Generator: Adobe Illustrator 25.0.1, SVG Export Plug-In . SVG Version: 6.00 Build 0)  -->
<svg version="1.1" id="Calque_1" xmlns="http://www.w3.org/2000/svg" xmlns:xlink="http://www.w3.org/1999/xlink" x="0px" y="0px"
	 viewBox="0 0 64 64" style="enable-background:new 0 0 64 64;" xml:space="preserve">
<style type="text/css">
	.st0{fill:#FFFFFF;}
</style>
<g>
	<g>
		<path class="st0" d="M22.7,60.6c-2.8,0-5-2.3-5-5.1v-47c0-2.8,2.3-5,5-5s5.1,2.3,5.1,5v47C27.7,58.3,25.5,60.6,22.7,60.6z
			 M22.7,5.2c-1.8,0-3.3,1.5-3.3,3.3v47c0,1.8,1.5,3.3,3.3,3.3c1.8,0,3.3-1.5,3.3-3.3v-47C26,6.7,24.5,5.2,22.7,5.2z"/>
	</g>
	<g>
		<path class="st0" d="M41.3,60.6c-2.8,0-5.1-2.3-5.1-5.1v-47c0-2.8,2.3-5,5.1-5s5,2.3,5,5v47C46.4,58.3,44.1,60.6,41.3,60.6z
			 M41.3,5.2c-1.8,0-3.3,1.5-3.3,3.3v47c0,1.8,1.5,3.3,3.3,3.3c1.8,0,3.3-1.5,3.3-3.3v-47C44.7,6.7,43.2,5.2,41.3,5.2z"/>
	</g>
</g>
</svg>
