<?xml version="1.0" encoding="utf-8"?>
<!-- Generator: Adobe Illustrator 25.0.1, SVG Export Plug-In . SVG Version: 6.00 Build 0)  -->
<svg version="1.1" id="Calque_1" xmlns="http://www.w3.org/2000/svg" xmlns:xlink="http://www.w3.org/1999/xlink" x="0px" y="0px"
	 viewBox="0 0 64 64" style="enable-background:new 0 0 64 64;" xml:space="preserve">
<style type="text/css">
	.st0{fill:#FFFFFF;}
</style>
<path class="st0" d="M55.7,12.9c-0.2-0.2-0.4-0.4-0.6-0.6l0,0c-6.4-5.2-15.9-4.5-21.5,1.6L32,15.5l-1.6-1.6
	c-5.6-6.1-15.1-6.8-21.5-1.6c-6.9,6-7.7,16.4-1.7,23.3c0.2,0.2,0.4,0.4,0.6,0.6l21.2,21.8c0.8,0.9,2,1.3,3.1,1.3
	c1.1,0,2.1-0.4,2.9-1.2l21.3-22C62.5,29.7,62.3,19.2,55.7,12.9z"/>
</svg>
