<?xml version="1.0" encoding="utf-8"?>
<!-- Generator: Adobe Illustrator 25.0.1, SVG Export Plug-In . SVG Version: 6.00 Build 0)  -->
<svg version="1.1" id="Calque_1" xmlns="http://www.w3.org/2000/svg" xmlns:xlink="http://www.w3.org/1999/xlink" x="0px" y="0px"
	 viewBox="0 0 64 64" style="enable-background:new 0 0 64 64;" xml:space="preserve">
<style type="text/css">
	.st0{fill:#FFFFFF;}
</style>
<path class="st0" d="M58.7,12h-4.4c-1.2,0-2.1,1-2.1,2.1v14.6L34.8,13C34,12.3,33,12,32,12c0,0,0,0,0,0c-2.4,0-4.3,1.9-4.3,4.3v12.5
	L10.3,13c-0.8-0.6-1.7-1-2.7-1c0,0,0,0,0,0c-1.2,0-2.2,0.4-3,1.3c-0.8,0.8-1.3,1.9-1.3,3.1v35c0,1,0.4,2,1,2.8
	c0.7,0.9,1.8,1.4,2.9,1.5c1.2,0.1,2.3-0.2,3.2-1l17.4-15.9v12.6c0,1,0.4,2,1,2.8c0.7,0.9,1.8,1.4,2.9,1.5c0.1,0,0.3,0,0.4,0
	c1,0,2-0.3,2.8-1l17.4-15.9v14.7c0,1.2,1,2.1,2.1,2.1h4.4c1.2,0,2.1-1,2.1-2.1V14.1C60.8,12.9,59.8,12,58.7,12z"/>
</svg>
