<?xml version="1.0" encoding="utf-8"?>
<!-- Generator: Adobe Illustrator 25.0.1, SVG Export Plug-In . SVG Version: 6.00 Build 0)  -->
<svg version="1.1" id="Calque_1" xmlns="http://www.w3.org/2000/svg" xmlns:xlink="http://www.w3.org/1999/xlink" x="0px" y="0px"
	 viewBox="0 0 64 64" style="enable-background:new 0 0 64 64;" xml:space="preserve">
<style type="text/css">
	.st0{fill:#FFFFFF;}
</style>
<path class="st0" d="M59.2,13.7c-0.7-0.9-1.8-1.4-2.9-1.5c-1.1-0.1-2.2,0.2-3.2,1L35.9,28.9V16.5c0-1-0.4-2-1-2.7
	c-0.7-0.9-1.8-1.4-2.9-1.5c-1.1-0.1-2.2,0.2-3.2,1L11.7,28.9V14.3c0-1.2-0.9-2.1-2.1-2.1H5.3c-1.2,0-2.1,0.9-2.1,2.1v38.9
	c0,1.2,0.9,2.1,2.1,2.1h4.3c1.2,0,2.1-0.9,2.1-2.1V38.8l17.2,15.6c0.8,0.6,1.7,1,2.7,1c0,0,0,0,0,0c1.1,0,2.2-0.4,3-1.2
	c0.8-0.8,1.3-1.9,1.3-3V38.8l17.2,15.6c0.8,0.6,1.7,1,2.7,1c0,0,0,0,0,0c2.4,0,4.3-1.9,4.3-4.3V16.5C60.2,15.5,59.8,14.5,59.2,13.7z
	"/>
</svg>
