<?xml version="1.0" encoding="utf-8"?>
<!-- Generator: Adobe Illustrator 25.0.1, SVG Export Plug-In . SVG Version: 6.00 Build 0)  -->
<svg version="1.1" id="Calque_1" xmlns="http://www.w3.org/2000/svg" xmlns:xlink="http://www.w3.org/1999/xlink" x="0px" y="0px"
	 viewBox="0 0 64 64" style="enable-background:new 0 0 64 64;" xml:space="preserve">
<style type="text/css">
	.st0{fill:#FFFFFF;}
</style>
<g id="Groupe_128" transform="translate(0 0)">
	<g>
		<g id="Groupe_127">
			<path id="Tracé_1095" class="st0" d="M40.9,32.4L40.9,32.4l3.4,1.7c0.1-0.6,0.1-1.1,0.1-1.7c0-3.3-1.1-6.5-3.3-9
				c-1.2-1.4-2.5-2.5-4-3.5h0v0l-2.2,1.2c1.2,0.7,2.2,1.7,3,2.7C39.8,26.2,40.9,29.3,40.9,32.4"/>
			<path id="Tracé_1096" class="st0" d="M32.2,28.4l4.4,2.1c-0.7-2.4-2.3-4.6-4.4-6c-0.6-0.4-1.3-0.8-1.9-1.2l-2.3,1.4
				C29.6,25.5,31.1,26.8,32.2,28.4"/>
			<path id="Tracé_1097" class="st0" d="M26.2,22.5c0-0.5,0.2-1.4-0.6-1.4c-0.4,0-0.8,0.1-1.2,0.3c-1.1,0.5-2.2,1.1-3.2,1.8l5,2.4
				V22.5z"/>
			<path id="Tracé_1098" class="st0" d="M48.9,32.5c0,1.2-0.1,2.4-0.3,3.6l3.1,1.5c0.5-1.6,0.7-3.4,0.7-5.1c0-4.3-1.4-8.4-4.1-11.8
				c-1.5-1.7-3.2-3.2-5.1-4.4l0,0l-2.1,1.3c1.5,1,2.8,2.2,3.9,3.6C47.5,24.3,48.9,28.3,48.9,32.5"/>
			<path id="Tracé_1099" class="st0" d="M33,34.5c-1.2,3.7-5.1,5.4-5.1,5.4l2.3,1.5c2.4-1.2,4.5-3.1,5.8-5.5L33,34.5z"/>
			<path id="Tracé_1100" class="st0" d="M26.2,31.3L16,26.5c-1,0.7-1.7,1.2-1.7,1.2l-0.2,0H8.1v9.4h6.3c0,0,7.7,5.4,10,6.3
				s1.8-0.5,1.8-1.1L26.2,31.3z"/>
			<path id="Tracé_1101" class="st0" d="M42.6,39l-2.8-1.3c-0.5,1.1-1.2,2.2-2,3.1c-0.8,1-1.9,1.9-3,2.6l2.1,1.2
				c1.6-0.9,3-2,4.2-3.4C41.7,40.6,42.2,39.8,42.6,39"/>
			<path id="Tracé_1102" class="st0" d="M44.9,43.6c-1.1,1.4-2.4,2.5-3.8,3.5l2.1,1.2c1.9-1.1,3.6-2.5,5-4.2
				c0.5-0.6,0.9-1.2,1.3-1.8l-2.8-1.3C46.2,41.9,45.6,42.8,44.9,43.6"/>
			<path id="Tracé_1103" class="st0" d="M48.2,37.6l-4.2-2l-3.2-1.5l-4-1.9l-3.7-1.7l-6.9-3.2l-6.5-3.1L1.9,15.8L0,17.3l17.5,8.2
				l8.7,4.1l7.1,3.3l3.2,1.5l3.9,1.8l3,1.4l4.1,1.9l2.9,1.4l12.5,5.9l1.9-1.5L51.2,39L48.2,37.6z"/>
		</g>
	</g>
</g>
</svg>
