<?xml version="1.0" encoding="utf-8"?>
<!-- Generator: Adobe Illustrator 25.0.1, SVG Export Plug-In . SVG Version: 6.00 Build 0)  -->
<svg version="1.1" id="Calque_1" xmlns="http://www.w3.org/2000/svg" xmlns:xlink="http://www.w3.org/1999/xlink" x="0px" y="0px"
	 viewBox="0 0 158 96" style="enable-background:new 0 0 158 96;" xml:space="preserve">
<style type="text/css">
	.st0{fill:#FFFFFF;}
	.st1{fill:#FFFF00;}
	.st2{fill:none;}
	.st3{opacity:0.44;fill:url(#SVGID_1_);}
	.st4{filter:url(#Adobe_OpacityMaskFilter);}
	.st5{fill:#FC65A2;}
	.st6{fill:#FA5FE7;stroke:#000000;stroke-miterlimit:10;}
	.st7{opacity:0.78;}
	.st8{fill:none;stroke:#707070;}
	.st9{fill:#FF0000;}
	.st10{fill:#FFFFFF;stroke:#000000;stroke-width:0.8725;stroke-linejoin:round;stroke-miterlimit:10;}
	.st11{stroke:#000000;stroke-width:0.8725;stroke-linejoin:round;stroke-miterlimit:10;}
	.st12{fill:#FFCFDE;stroke:#000000;stroke-width:0.8725;stroke-linejoin:round;stroke-miterlimit:10;}
	.st13{fill:#FFFF00;stroke:#000000;stroke-width:0.8725;stroke-linejoin:round;stroke-miterlimit:10;}
	.st14{fill:#7017FC;stroke:#000000;stroke-width:0.8725;stroke-linejoin:round;stroke-miterlimit:10;}
	.st15{fill:#FFC000;stroke:#000000;stroke-width:0.8725;stroke-linejoin:round;stroke-miterlimit:10;}
	.st16{fill:#3FA9F5;stroke:#000000;stroke-width:0.8725;stroke-linejoin:round;stroke-miterlimit:10;}
	.st17{fill:#1643FE;stroke:#000000;stroke-width:0.8725;stroke-linejoin:round;stroke-miterlimit:10;}
	.st18{fill:#FF7BAC;stroke:#000000;stroke-width:0.8725;stroke-linejoin:round;stroke-miterlimit:10;}
	.st19{fill:none;stroke:#000000;stroke-width:0.8725;stroke-linejoin:round;stroke-miterlimit:10;}
	.st20{fill:#FA5FE7;stroke:#000000;stroke-width:0.8725;stroke-linejoin:round;stroke-miterlimit:10;}
	.st21{fill:#FC65A2;stroke:#000000;stroke-width:0.8725;stroke-linejoin:round;stroke-miterlimit:10;}
	.st22{fill:#5ADBFF;stroke:#000000;stroke-width:0.8725;stroke-linejoin:round;stroke-miterlimit:10;}
	.st23{fill:#C97DFF;stroke:#000000;stroke-width:0.8725;stroke-linejoin:round;stroke-miterlimit:10;}
	.st24{fill:none;stroke:#FFFFFF;stroke-width:1.5183;stroke-miterlimit:10;}
	.st25{opacity:0.27;}
	.st26{fill:none;stroke:#FFFFFF;stroke-width:1.8674;stroke-miterlimit:10;}
	.st27{fill:none;stroke:#FFFFFF;stroke-width:0.9337;stroke-miterlimit:10;}
	.st28{fill:url(#SVGID_3_);}
	.st29{fill:url(#SVGID_4_);}
	.st30{fill:none;stroke:#00FFFF;stroke-width:0.3969;stroke-miterlimit:10;}
	.st31{fill:none;stroke:#FFFFFF;stroke-width:0.7935;stroke-miterlimit:10;}
	.st32{fill:none;stroke:#FFFFFF;stroke-width:0.5979;stroke-miterlimit:10;}
	.st33{fill:none;stroke:#FFFFFF;stroke-width:0.7889;stroke-miterlimit:10;}
	.st34{opacity:0.87;}
	.st35{fill:none;stroke:#FFFFFF;stroke-width:1.4788;stroke-miterlimit:10;}
	.st36{fill:none;stroke:#FF0000;stroke-width:6.2403;stroke-miterlimit:10;}
	.st37{fill:none;stroke:#00FFFF;stroke-width:0.2498;stroke-miterlimit:10;}
	.st38{fill:none;stroke:#FFFFFF;stroke-width:0.4994;stroke-miterlimit:10;}
	.st39{fill:none;stroke:#FFFFFF;stroke-width:1.9994;stroke-miterlimit:10;}
	.st40{fill-rule:evenodd;clip-rule:evenodd;fill:#393536;}
	.st41{fill:#4F4C4D;}
	.st42{fill-rule:evenodd;clip-rule:evenodd;fill:#0F0E0C;}
	.st43{fill-rule:evenodd;clip-rule:evenodd;fill:#FFFFFF;stroke:#231F20;stroke-width:0.2035;stroke-miterlimit:4.2146;}
	.st44{fill:#0F0E0C;stroke:#231F20;stroke-width:0.2035;stroke-miterlimit:4.2146;}
	.st45{fill:none;stroke:#FFFFFF;stroke-width:0.2659;stroke-miterlimit:10;}
	.st46{fill:none;stroke:#FF0000;stroke-width:5;stroke-miterlimit:10;}
	.st47{fill:none;stroke:#FFFFFF;stroke-width:0.8068;stroke-miterlimit:10;}
	.st48{fill:none;stroke:#FF0000;stroke-width:15.1704;stroke-miterlimit:10;}
	.st49{fill:none;stroke:#FF0000;stroke-width:21.3626;stroke-miterlimit:10;}
	.st50{fill:none;stroke:#FFFFFF;stroke-width:4.2278;stroke-miterlimit:10;}
	.st51{opacity:0;}
	.st52{opacity:0.244;enable-background:new    ;}
	.st53{fill:#00B0F0;}
	.st54{fill:none;stroke:#000000;stroke-width:1.2188;stroke-miterlimit:10;}
	.st55{fill:none;stroke:#000000;stroke-miterlimit:10;}
	.st56{opacity:0.2;}
	.st57{fill:none;stroke:#8AACDA;stroke-width:7;stroke-linecap:round;stroke-linejoin:round;}
	.st58{opacity:0.25;}
	.st59{fill:none;stroke:#709CD2;stroke-width:6;stroke-linecap:round;stroke-linejoin:round;}
	.st60{opacity:0.3;}
	.st61{fill:none;stroke:#5E93CD;stroke-width:5;stroke-linecap:round;stroke-linejoin:round;}
	.st62{fill:none;stroke:#0073BC;stroke-width:4;stroke-linecap:round;stroke-linejoin:round;}
	.st63{fill:none;stroke:#3081C4;stroke-width:3.25;stroke-linecap:round;stroke-linejoin:round;}
	.st64{fill:none;stroke:#578FCB;stroke-width:2.5;stroke-linecap:round;stroke-linejoin:round;}
	.st65{fill:none;stroke:#7EA4D6;stroke-width:1.65;stroke-linecap:round;stroke-linejoin:round;}
	.st66{fill:none;stroke:#A9C0E4;stroke-width:0.65;stroke-linecap:round;stroke-linejoin:round;}
	.st67{fill:none;stroke:#FFFFFF;stroke-width:0.1522;}
	.st68{clip-path:url(#SVGID_6_);}
	.st69{fill:#8AACDA;}
	.st70{fill:#709CD2;}
	.st71{fill:#5E93CD;}
	.st72{fill:#0073BC;}
	.st73{fill:#3081C4;}
	.st74{fill:#578FCB;}
	.st75{fill:#7EA4D6;}
	.st76{fill:#A9C0E4;}
	.st77{fill:none;stroke:#FFFFFF;stroke-miterlimit:10;}
	.st78{fill-rule:evenodd;clip-rule:evenodd;fill:none;stroke:#FFFFFF;stroke-miterlimit:10;}
	.st79{fill:#6399A8;}
	.st80{fill:#ED1C24;}
	.st81{fill:#F6836C;}
	.st82{fill:#FFF200;}
	.st83{fill:#EC008C;}
	.st84{fill:#F680C5;}
	.st85{fill:#B2DB18;}
	.st86{fill:#D9ED84;}
	.st87{fill:#59CAF5;}
	.st88{fill:#B2E6FA;}
	.st89{fill:none;stroke:#FFFFFF;stroke-width:0.8756;stroke-miterlimit:10;}
	.st90{fill:none;stroke:#FFFFFF;stroke-width:0.5352;stroke-miterlimit:10;}
	.st91{fill:url(#SVGID_7_);}
	.st92{fill:url(#SVGID_8_);}
	.st93{fill:url(#Tracé_11836_1_);}
	.st94{fill:url(#Tracé_11837_1_);}
	.st95{fill:url(#Tracé_11838_1_);}
	.st96{fill:url(#Tracé_11839_1_);}
	.st97{fill:url(#Tracé_11840_1_);}
	.st98{fill:url(#Tracé_11841_1_);}
	.st99{fill:url(#Tracé_11842_1_);}
	.st100{fill:url(#Tracé_11843_1_);}
	.st101{fill:url(#Tracé_11844_1_);}
	.st102{fill:url(#Tracé_11845_1_);}
	.st103{fill:url(#Tracé_11846_1_);}
	.st104{fill:url(#Tracé_11847_1_);}
	.st105{fill:url(#Tracé_11848_1_);}
	.st106{fill:url(#Tracé_11849_1_);}
	.st107{fill:url(#Tracé_11850_1_);}
	.st108{fill:url(#Tracé_11851_1_);}
	.st109{fill:url(#Tracé_11852_1_);}
	.st110{fill:url(#Tracé_11853_1_);}
	.st111{fill:url(#Tracé_11854_1_);}
	.st112{fill:url(#Tracé_11855_1_);}
	.st113{fill:url(#Tracé_11856_1_);}
	.st114{fill:url(#Tracé_11857_1_);}
	.st115{fill:url(#Tracé_11858_1_);}
	.st116{fill:url(#Tracé_11859_1_);}
	.st117{fill:url(#Tracé_11860_1_);}
	.st118{fill:url(#Tracé_11861_1_);}
	.st119{fill:url(#Tracé_11862_1_);}
	.st120{fill:url(#Tracé_11863_1_);}
	.st121{fill:url(#Tracé_11864_1_);}
	.st122{fill:url(#Tracé_11865_1_);}
	.st123{fill:url(#Tracé_11866_1_);}
	.st124{fill:url(#Tracé_11867_1_);}
	.st125{fill:url(#Tracé_11868_1_);}
	.st126{fill:url(#Tracé_11869_1_);}
	.st127{fill:url(#Tracé_11870_1_);}
	.st128{fill:url(#Tracé_11871_1_);}
	.st129{fill:url(#Tracé_11872_1_);}
	.st130{fill:url(#Tracé_11873_1_);}
	.st131{fill:url(#Tracé_11874_1_);}
	.st132{fill:url(#Tracé_11875_1_);}
	.st133{fill:url(#Tracé_11876_1_);}
	.st134{fill:url(#Tracé_11877_1_);}
	.st135{fill:url(#Tracé_11878_1_);}
	.st136{fill:url(#Tracé_11879_1_);}
	.st137{fill:url(#Tracé_11880_1_);}
	.st138{fill:url(#Tracé_11881_1_);}
	.st139{fill:url(#Tracé_11882_1_);}
	.st140{fill:url(#Tracé_11883_1_);}
	.st141{fill:url(#Tracé_11884_1_);}
	.st142{fill:url(#Tracé_11885_1_);}
	.st143{fill:url(#Tracé_11886_1_);}
	.st144{fill:url(#Tracé_11887_1_);}
	.st145{fill:url(#Tracé_11888_1_);}
	.st146{fill:url(#Tracé_11889_1_);}
	.st147{fill:url(#Tracé_11890_1_);}
	.st148{fill:url(#Tracé_11891_1_);}
	.st149{fill:url(#Tracé_11892_1_);}
	.st150{fill:url(#Tracé_11893_1_);}
	.st151{fill:url(#Tracé_11894_1_);}
	.st152{fill:url(#Tracé_11895_1_);}
	.st153{fill:url(#Tracé_11896_1_);}
	.st154{fill:url(#Tracé_11897_1_);}
	.st155{fill:url(#Tracé_11898_1_);}
	.st156{fill:url(#Tracé_11899_1_);}
	.st157{fill:url(#Tracé_11900_1_);}
	.st158{fill:url(#Tracé_11901_1_);}
	.st159{fill:url(#Tracé_11902_1_);}
	.st160{fill:url(#Tracé_11903_1_);}
	.st161{fill:url(#Tracé_11904_1_);}
	.st162{fill:url(#Tracé_11905_1_);}
	.st163{fill:url(#Tracé_11906_1_);}
	.st164{fill:url(#Tracé_11907_1_);}
	.st165{fill:url(#Tracé_11908_1_);}
	.st166{fill:url(#Tracé_11909_1_);}
	.st167{fill:url(#Tracé_11910_1_);}
	.st168{fill:url(#Tracé_11911_1_);}
	.st169{fill:url(#Tracé_11912_1_);}
	.st170{fill:url(#Tracé_11913_1_);}
	.st171{fill:url(#Tracé_11914_1_);}
	.st172{fill:url(#Tracé_11915_1_);}
	.st173{fill:url(#Tracé_11916_1_);}
	.st174{fill:url(#Tracé_11917_1_);}
	.st175{fill:url(#Tracé_11918_1_);}
	.st176{fill:url(#Tracé_11919_1_);}
	.st177{fill:url(#Tracé_11920_1_);}
	.st178{fill:url(#Tracé_11921_1_);}
	.st179{fill:url(#Tracé_11922_1_);}
	.st180{fill:url(#Tracé_11923_1_);}
	.st181{fill:url(#Tracé_11924_1_);}
	.st182{fill:url(#Tracé_11925_1_);}
	.st183{fill:url(#Tracé_11926_1_);}
	.st184{fill:url(#Tracé_11927_1_);}
	.st185{fill:url(#Tracé_11928_1_);}
	.st186{fill:url(#Tracé_11929_1_);}
	.st187{fill:url(#Tracé_11930_1_);}
	.st188{fill:url(#Tracé_11931_1_);}
	.st189{fill:url(#Tracé_11932_1_);}
	.st190{fill:url(#Tracé_11933_1_);}
	.st191{fill:url(#Tracé_11934_1_);}
	.st192{fill:url(#Tracé_11935_1_);}
	.st193{fill:url(#Tracé_11936_1_);}
	.st194{fill:url(#Tracé_11937_1_);}
	.st195{fill:url(#Tracé_11938_1_);}
	.st196{fill:url(#Tracé_11939_1_);}
	.st197{fill:url(#Tracé_11940_1_);}
	.st198{fill:url(#Tracé_11941_1_);}
	.st199{fill:url(#Tracé_11942_1_);}
	.st200{fill:url(#Tracé_11943_1_);}
	.st201{fill:url(#Tracé_11944_1_);}
	.st202{fill:url(#Tracé_11945_1_);}
	.st203{fill:url(#Tracé_11946_1_);}
	.st204{fill:url(#Tracé_11947_1_);}
	.st205{fill:url(#Tracé_11948_1_);}
	.st206{fill:url(#Tracé_11949_1_);}
	.st207{fill:url(#Tracé_11950_1_);}
	.st208{fill:url(#Tracé_11951_1_);}
	.st209{fill:url(#Tracé_11952_1_);}
	.st210{fill:url(#Tracé_11953_1_);}
	.st211{fill:url(#Tracé_11954_1_);}
	.st212{fill:url(#Tracé_11955_1_);}
	.st213{fill:url(#Tracé_11956_1_);}
	.st214{fill:url(#Tracé_11957_1_);}
	.st215{fill:url(#Tracé_11958_1_);}
	.st216{fill:url(#Tracé_11959_1_);}
	.st217{fill:url(#Tracé_11960_1_);}
	.st218{fill:url(#Tracé_11961_1_);}
	.st219{fill:url(#Tracé_11962_1_);}
	.st220{fill:url(#Tracé_11963_1_);}
	.st221{fill:url(#Tracé_11964_1_);}
	.st222{fill:url(#Tracé_11965_1_);}
	.st223{fill:url(#Tracé_11966_1_);}
	.st224{fill:url(#Tracé_11967_1_);}
	.st225{fill:url(#Tracé_11968_1_);}
	.st226{fill:url(#Tracé_11969_1_);}
	.st227{fill:url(#Tracé_11970_1_);}
	.st228{fill:url(#Tracé_11971_1_);}
	.st229{fill:url(#Tracé_11972_1_);}
	.st230{fill:url(#Tracé_11973_1_);}
	.st231{fill:url(#Tracé_11974_1_);}
	.st232{fill:url(#Tracé_11975_1_);}
	.st233{fill:url(#Tracé_11976_1_);}
	.st234{fill:url(#Tracé_11977_1_);}
	.st235{fill:url(#Tracé_11978_1_);}
	.st236{fill:url(#Tracé_11979_1_);}
	.st237{fill:url(#Tracé_11980_1_);}
	.st238{fill:url(#Tracé_11981_1_);}
	.st239{fill:url(#Tracé_11982_1_);}
	.st240{fill:url(#Tracé_11983_1_);}
	.st241{fill:url(#Tracé_11984_1_);}
	.st242{fill:url(#Tracé_11985_1_);}
	.st243{fill:url(#Tracé_11986_1_);}
	.st244{fill:url(#Tracé_11987_1_);}
	.st245{fill:url(#Tracé_11988_1_);}
	.st246{fill:url(#Tracé_11989_1_);}
	.st247{fill:url(#Tracé_11990_1_);}
	.st248{fill:url(#Tracé_11991_1_);}
	.st249{fill:url(#Tracé_11992_1_);}
	.st250{fill:url(#Tracé_11993_1_);}
	.st251{fill:url(#Tracé_11994_1_);}
	.st252{fill:url(#Tracé_11995_1_);}
	.st253{fill:url(#Tracé_11996_1_);}
	.st254{fill:url(#Tracé_11997_1_);}
	.st255{fill:url(#Tracé_11998_1_);}
	.st256{fill:url(#Tracé_11999_1_);}
	.st257{fill:url(#Tracé_12000_1_);}
	.st258{fill:url(#Tracé_12001_1_);}
	.st259{fill:url(#Tracé_12002_1_);}
	.st260{fill:url(#Tracé_12003_1_);}
	.st261{fill:url(#Tracé_12004_1_);}
	.st262{fill:url(#Tracé_12005_1_);}
	.st263{fill:url(#Tracé_12006_1_);}
	.st264{fill:url(#Tracé_12007_1_);}
	.st265{fill:url(#Tracé_12008_1_);}
	.st266{fill:url(#Tracé_12009_1_);}
	.st267{fill:url(#Tracé_12010_1_);}
	.st268{fill:url(#Tracé_12011_1_);}
</style>
<symbol  id="pt1" viewBox="-1.2 -1.2 2.5 2.5">
	<path class="st0" d="M1.2,0c0-0.7-0.6-1.2-1.2-1.2c-0.7,0-1.2,0.6-1.2,1.2c0,0.7,0.6,1.2,1.2,1.2C0.7,1.2,1.2,0.7,1.2,0z"/>
</symbol>
<symbol  id="pt2_2" viewBox="-2.2 -2.2 4.5 4.5">
	<circle class="st1" cx="0" cy="0" r="2.2"/>
</symbol>
<rect x="-776.1" y="-256.3" class="st36" width="1781.3" height="913.2"/>
<path class="st0" d="M18.4,44.9c-0.3,0-0.5,0.2-0.5,0.5L17,52.2l0.9,6.8c0,0.3,0.2,0.5,0.5,0.5c0.3,0,0.5-0.2,0.5-0.5v0v0l1.1-6.8
	l-1.1-6.9C18.8,45.1,18.6,44.9,18.4,44.9L18.4,44.9z M23.5,41.1c0-0.3-0.3-0.5-0.5-0.5c-0.3,0-0.5,0.2-0.5,0.5
	c0,0-1.2,11.1-1.2,11.1l1.2,10.9c0,0.3,0.3,0.5,0.5,0.5c0.3,0,0.5-0.2,0.5-0.5l1.4-10.9L23.5,41.1L23.5,41.1z M42.7,30.8
	c-0.5,0-0.9,0.4-0.9,0.9l-1,20.5l1,13.2c0,0.5,0.4,0.9,0.9,0.9c0.5,0,0.9-0.4,0.9-0.9v0l1.1-13.2l-1.1-20.5
	C43.6,31.2,43.2,30.8,42.7,30.8z M32.8,37.9c-0.4,0-0.7,0.3-0.7,0.7l-1.1,13.6L32,65.4c0,0.4,0.3,0.7,0.7,0.7c0.4,0,0.7-0.3,0.7-0.7
	l1.2-13.1l-1.2-13.6C33.4,38.3,33.1,37.9,32.8,37.9z M52.8,66.4c0.6,0,1.1-0.5,1.1-1.1l1-13L54,25c0-0.6-0.5-1.1-1.1-1.1
	c-0.6,0-1.1,0.5-1.2,1.1l-0.8,27.3l0.8,13C51.7,65.9,52.2,66.4,52.8,66.4z M73.5,66.5c0.9,0,1.6-0.7,1.6-1.6v0v0l0.7-12.6l-0.7-31.5
	c0-0.9-0.7-1.6-1.6-1.6c-0.9,0-1.6,0.7-1.6,1.6l-0.6,31.5c0,0,0.6,12.7,0.6,12.7C71.9,65.8,72.6,66.5,73.5,66.5z M63.1,66.4
	c0.7,0,1.3-0.6,1.4-1.4v0l0.8-12.8l-0.8-27.5c0-0.8-0.6-1.4-1.4-1.4c-0.7,0-1.3,0.6-1.4,1.4L61,52.3l0.7,12.8
	C61.7,65.8,62.3,66.4,63.1,66.4L63.1,66.4z M37.7,66.3c0.4,0,0.8-0.4,0.8-0.8l1.2-13.2l-1.2-12.6c0-0.5-0.4-0.8-0.8-0.8
	c-0.4,0-0.8,0.4-0.8,0.8l-1,12.6l1,13.2C36.9,66,37.3,66.3,37.7,66.3z M27.8,65.6c0.3,0,0.6-0.3,0.6-0.6l1.3-12.7L28.5,39
	c0-0.4-0.3-0.6-0.6-0.6c-0.3,0-0.6,0.3-0.6,0.6l-1.2,13.2L27.2,65C27.3,65.3,27.5,65.6,27.8,65.6L27.8,65.6z M68.3,24.3
	c-0.8,0-1.5,0.6-1.5,1.5l-0.7,26.5L66.8,65c0,0.8,0.7,1.5,1.5,1.5c0.8,0,1.4-0.6,1.5-1.5v0l0.7-12.7l-0.7-26.5
	C69.7,25,69.1,24.3,68.3,24.3L68.3,24.3z M47.7,66.4c0.6,0,1-0.5,1-1l1-13.2l-1-25.2c0-0.6-0.5-1-1-1c-0.6,0-1,0.5-1,1l-0.9,25.2
	l0.9,13.2C46.7,66,47.2,66.4,47.7,66.4z M59.2,65.2L59.2,65.2l0.9-12.9L59.2,24c0-0.7-0.6-1.2-1.3-1.2c-0.7,0-1.2,0.5-1.3,1.2
	l-0.8,28.2l0.8,12.9c0,0.7,0.6,1.2,1.3,1.2C58.6,66.4,59.2,65.9,59.2,65.2L59.2,65.2L59.2,65.2z M125.8,36c-2.1,0-4.1,0.4-5.9,1.2
	c-1.2-13.8-12.7-24.5-26.8-24.5c-3.4,0-6.8,0.7-9.8,1.8c-1.2,0.4-1.5,0.9-1.5,1.8v48.4c0,0.9,0.7,1.7,1.6,1.8c0,0,42,0,42.3,0
	c8.4,0,15.3-6.8,15.3-15.3C141,42.8,134.2,36,125.8,36L125.8,36z M78.7,16.2c-0.9,0-1.7,0.8-1.7,1.7l-0.7,34.4L77,64.7
	c0,0.9,0.8,1.7,1.7,1.7c0.9,0,1.7-0.8,1.7-1.7v0l0.7-12.5l-0.7-34.4C80.4,17,79.6,16.2,78.7,16.2L78.7,16.2z M29.3,76.2
	c-1.8-0.4-2.3-0.7-2.3-1.4c0-0.5,0.4-1,1.6-1c1,0,1.9,0.4,2.6,1.2l1.6-1.6c-1.1-1.1-2.4-1.8-4.1-1.8c-2.2,0-4.1,1.3-4.1,3.3
	c0,2.2,1.5,2.9,3.6,3.4c2.1,0.5,2.5,0.8,2.5,1.5c0,0.9-0.6,1.2-2,1.2c-1.1,0-2.1-0.4-2.9-1.3l-1.6,1.5c0.9,1.3,2.5,2.1,4.4,2.1
	c3.1,0,4.5-1.5,4.5-3.6C33.1,77.3,31.1,76.6,29.3,76.2L29.3,76.2z M39.8,71.6c-3.1,0-4.9,2.4-4.9,5.9c0,3.5,1.8,5.9,4.9,5.9
	s4.9-2.4,4.9-5.9C44.7,74,42.9,71.6,39.8,71.6z M39.8,81.1c-1.8,0-2.6-1.6-2.6-3.6c0-2,0.8-3.6,2.6-3.6c1.8,0,2.6,1.6,2.6,3.6
	C42.4,79.5,41.6,81.1,39.8,81.1z M53.9,78.2c0,1.8-0.9,2.9-2.3,2.9c-1.4,0-2.3-1.2-2.3-3v-6.4H47v6.4c0,3.3,1.9,5.2,4.6,5.2
	c2.9,0,4.6-1.9,4.6-5.2v-6.4h-2.3V78.2z M66,76.6c0,0.6,0,2.1,0,2.5c-0.1-0.3-0.5-0.9-0.8-1.3l-4-6H59v11.4h2.2v-5
	c0-0.6,0-2.1,0-2.5c0.1,0.3,0.5,0.9,0.8,1.3l4.2,6.2h2V71.8H66L66,76.6L66,76.6L66,76.6z M74.7,71.8h-3.6v11.4h3.4
	c2.9,0,5.8-1.7,5.8-5.7C80.4,73.3,78,71.8,74.7,71.8z M74.6,81h-1.1v-7h1.2c2.4,0,3.4,1.2,3.4,3.5C78.1,79.6,77,81,74.6,81z
	 M87.4,73.9c1,0,1.7,0.5,2.1,1.2l2.1-1c-0.7-1.5-2-2.5-4.2-2.5c-3,0-5.1,2.4-5.1,5.9c0,3.6,2,5.9,5,5.9c2.1,0,3.4-1,4.2-2.6
	l-1.9-1.1c-0.6,1-1.2,1.4-2.2,1.4c-1.7,0-2.7-1.6-2.7-3.6C84.8,75.4,85.7,73.9,87.4,73.9L87.4,73.9z M95.9,71.8h-2.3v11.4h6.8v-2.2
	h-4.6V71.8L95.9,71.8z M106.5,71.6c-3.1,0-4.9,2.4-4.9,5.9c0,3.5,1.8,5.9,4.9,5.9c3.1,0,4.9-2.4,4.9-5.9
	C111.4,74,109.6,71.6,106.5,71.6L106.5,71.6z M106.5,81.1c-1.8,0-2.6-1.6-2.6-3.6c0-2,0.8-3.6,2.6-3.6c1.8,0,2.6,1.6,2.6,3.6
	C109.1,79.5,108.3,81.1,106.5,81.1z M120.6,78.2c0,1.8-0.9,2.9-2.3,2.9c-1.5,0-2.3-1.2-2.3-3v-6.4h-2.3v6.4c0,3.3,1.9,5.2,4.6,5.2
	c2.9,0,4.6-1.9,4.6-5.2v-6.4h-2.3L120.6,78.2L120.6,78.2z M129.3,71.8h-3.6v11.4h3.4c2.9,0,5.8-1.7,5.8-5.7
	C134.9,73.3,132.5,71.8,129.3,71.8L129.3,71.8z M129.1,81H128v-7h1.2c2.4,0,3.4,1.2,3.4,3.5C132.6,79.6,131.5,81,129.1,81z"/>
</svg>
