<?xml version="1.0" encoding="utf-8"?>
<!-- Generator: Adobe Illustrator 25.0.1, SVG Export Plug-In . SVG Version: 6.00 Build 0)  -->
<svg version="1.1" id="Calque_1" xmlns="http://www.w3.org/2000/svg" xmlns:xlink="http://www.w3.org/1999/xlink" x="0px" y="0px"
	 viewBox="0 0 96 96" style="enable-background:new 0 0 96 96;" xml:space="preserve">
<style type="text/css">
	.st0{fill:#FFFFFF;}
	.st1{fill:#FFFF00;}
	.st2{fill:none;}
	.st3{opacity:0.44;fill:url(#SVGID_1_);}
	.st4{filter:url(#Adobe_OpacityMaskFilter);}
	.st5{fill:#FC65A2;}
	.st6{fill:#FA5FE7;stroke:#000000;stroke-miterlimit:10;}
	.st7{opacity:0.78;}
	.st8{fill:none;stroke:#707070;}
	.st9{fill:#FF0000;}
	.st10{fill:#FFFFFF;stroke:#000000;stroke-width:0.8725;stroke-linejoin:round;stroke-miterlimit:10;}
	.st11{stroke:#000000;stroke-width:0.8725;stroke-linejoin:round;stroke-miterlimit:10;}
	.st12{fill:#FFCFDE;stroke:#000000;stroke-width:0.8725;stroke-linejoin:round;stroke-miterlimit:10;}
	.st13{fill:#FFFF00;stroke:#000000;stroke-width:0.8725;stroke-linejoin:round;stroke-miterlimit:10;}
	.st14{fill:#7017FC;stroke:#000000;stroke-width:0.8725;stroke-linejoin:round;stroke-miterlimit:10;}
	.st15{fill:#FFC000;stroke:#000000;stroke-width:0.8725;stroke-linejoin:round;stroke-miterlimit:10;}
	.st16{fill:#3FA9F5;stroke:#000000;stroke-width:0.8725;stroke-linejoin:round;stroke-miterlimit:10;}
	.st17{fill:#1643FE;stroke:#000000;stroke-width:0.8725;stroke-linejoin:round;stroke-miterlimit:10;}
	.st18{fill:#FF7BAC;stroke:#000000;stroke-width:0.8725;stroke-linejoin:round;stroke-miterlimit:10;}
	.st19{fill:none;stroke:#000000;stroke-width:0.8725;stroke-linejoin:round;stroke-miterlimit:10;}
	.st20{fill:#FA5FE7;stroke:#000000;stroke-width:0.8725;stroke-linejoin:round;stroke-miterlimit:10;}
	.st21{fill:#FC65A2;stroke:#000000;stroke-width:0.8725;stroke-linejoin:round;stroke-miterlimit:10;}
	.st22{fill:#5ADBFF;stroke:#000000;stroke-width:0.8725;stroke-linejoin:round;stroke-miterlimit:10;}
	.st23{fill:#C97DFF;stroke:#000000;stroke-width:0.8725;stroke-linejoin:round;stroke-miterlimit:10;}
	.st24{fill:none;stroke:#FFFFFF;stroke-width:1.5183;stroke-miterlimit:10;}
	.st25{opacity:0.27;}
	.st26{fill:none;stroke:#FFFFFF;stroke-width:1.8674;stroke-miterlimit:10;}
	.st27{fill:none;stroke:#FFFFFF;stroke-width:0.9337;stroke-miterlimit:10;}
	.st28{fill:url(#SVGID_3_);}
	.st29{fill:url(#SVGID_4_);}
	.st30{fill:none;stroke:#00FFFF;stroke-width:0.3969;stroke-miterlimit:10;}
	.st31{fill:none;stroke:#FFFFFF;stroke-width:0.7935;stroke-miterlimit:10;}
	.st32{fill:none;stroke:#FFFFFF;stroke-width:0.5979;stroke-miterlimit:10;}
	.st33{fill:none;stroke:#FFFFFF;stroke-width:0.7889;stroke-miterlimit:10;}
	.st34{opacity:0.87;}
	.st35{fill:none;stroke:#FFFFFF;stroke-width:1.4788;stroke-miterlimit:10;}
	.st36{fill:none;stroke:#FF0000;stroke-width:6.2403;stroke-miterlimit:10;}
	.st37{fill:none;stroke:#00FFFF;stroke-width:0.2498;stroke-miterlimit:10;}
	.st38{fill:none;stroke:#FFFFFF;stroke-width:0.4994;stroke-miterlimit:10;}
	.st39{fill:none;stroke:#FFFFFF;stroke-width:1.9994;stroke-miterlimit:10;}
	.st40{fill-rule:evenodd;clip-rule:evenodd;fill:#393536;}
	.st41{fill:#4F4C4D;}
	.st42{fill-rule:evenodd;clip-rule:evenodd;fill:#0F0E0C;}
	.st43{fill-rule:evenodd;clip-rule:evenodd;fill:#FFFFFF;stroke:#231F20;stroke-width:0.2035;stroke-miterlimit:4.2146;}
	.st44{fill:#0F0E0C;stroke:#231F20;stroke-width:0.2035;stroke-miterlimit:4.2146;}
	.st45{fill:none;stroke:#FFFFFF;stroke-width:0.2659;stroke-miterlimit:10;}
	.st46{fill:none;stroke:#FF0000;stroke-width:5;stroke-miterlimit:10;}
	.st47{fill:none;stroke:#FFFFFF;stroke-width:0.8068;stroke-miterlimit:10;}
	.st48{fill:none;stroke:#FF0000;stroke-width:15.1704;stroke-miterlimit:10;}
	.st49{fill:none;stroke:#FF0000;stroke-width:21.3626;stroke-miterlimit:10;}
	.st50{fill:none;stroke:#FFFFFF;stroke-width:4.2278;stroke-miterlimit:10;}
	.st51{opacity:0;}
	.st52{opacity:0.244;enable-background:new    ;}
	.st53{fill:#00B0F0;}
	.st54{fill:none;stroke:#000000;stroke-width:1.2188;stroke-miterlimit:10;}
	.st55{fill:none;stroke:#000000;stroke-miterlimit:10;}
	.st56{opacity:0.2;}
	.st57{fill:none;stroke:#8AACDA;stroke-width:7;stroke-linecap:round;stroke-linejoin:round;}
	.st58{opacity:0.25;}
	.st59{fill:none;stroke:#709CD2;stroke-width:6;stroke-linecap:round;stroke-linejoin:round;}
	.st60{opacity:0.3;}
	.st61{fill:none;stroke:#5E93CD;stroke-width:5;stroke-linecap:round;stroke-linejoin:round;}
	.st62{fill:none;stroke:#0073BC;stroke-width:4;stroke-linecap:round;stroke-linejoin:round;}
	.st63{fill:none;stroke:#3081C4;stroke-width:3.25;stroke-linecap:round;stroke-linejoin:round;}
	.st64{fill:none;stroke:#578FCB;stroke-width:2.5;stroke-linecap:round;stroke-linejoin:round;}
	.st65{fill:none;stroke:#7EA4D6;stroke-width:1.65;stroke-linecap:round;stroke-linejoin:round;}
	.st66{fill:none;stroke:#A9C0E4;stroke-width:0.65;stroke-linecap:round;stroke-linejoin:round;}
	.st67{fill:none;stroke:#FFFFFF;stroke-width:0.1522;}
	.st68{clip-path:url(#SVGID_6_);}
	.st69{fill:#8AACDA;}
	.st70{fill:#709CD2;}
	.st71{fill:#5E93CD;}
	.st72{fill:#0073BC;}
	.st73{fill:#3081C4;}
	.st74{fill:#578FCB;}
	.st75{fill:#7EA4D6;}
	.st76{fill:#A9C0E4;}
	.st77{fill:none;stroke:#FFFFFF;stroke-miterlimit:10;}
	.st78{fill-rule:evenodd;clip-rule:evenodd;fill:none;stroke:#FFFFFF;stroke-miterlimit:10;}
	.st79{fill:#6399A8;}
	.st80{fill:#ED1C24;}
	.st81{fill:#F6836C;}
	.st82{fill:#FFF200;}
	.st83{fill:#EC008C;}
	.st84{fill:#F680C5;}
	.st85{fill:#B2DB18;}
	.st86{fill:#D9ED84;}
	.st87{fill:#59CAF5;}
	.st88{fill:#B2E6FA;}
	.st89{fill:none;stroke:#FFFFFF;stroke-width:0.8756;stroke-miterlimit:10;}
	.st90{fill:none;stroke:#FFFFFF;stroke-width:0.5352;stroke-miterlimit:10;}
	.st91{fill:url(#SVGID_7_);}
	.st92{fill:url(#SVGID_8_);}
	.st93{fill:url(#Tracé_11836_1_);}
	.st94{fill:url(#Tracé_11837_1_);}
	.st95{fill:url(#Tracé_11838_1_);}
	.st96{fill:url(#Tracé_11839_1_);}
	.st97{fill:url(#Tracé_11840_1_);}
	.st98{fill:url(#Tracé_11841_1_);}
	.st99{fill:url(#Tracé_11842_1_);}
	.st100{fill:url(#Tracé_11843_1_);}
	.st101{fill:url(#Tracé_11844_1_);}
	.st102{fill:url(#Tracé_11845_1_);}
	.st103{fill:url(#Tracé_11846_1_);}
	.st104{fill:url(#Tracé_11847_1_);}
	.st105{fill:url(#Tracé_11848_1_);}
	.st106{fill:url(#Tracé_11849_1_);}
	.st107{fill:url(#Tracé_11850_1_);}
	.st108{fill:url(#Tracé_11851_1_);}
	.st109{fill:url(#Tracé_11852_1_);}
	.st110{fill:url(#Tracé_11853_1_);}
	.st111{fill:url(#Tracé_11854_1_);}
	.st112{fill:url(#Tracé_11855_1_);}
	.st113{fill:url(#Tracé_11856_1_);}
	.st114{fill:url(#Tracé_11857_1_);}
	.st115{fill:url(#Tracé_11858_1_);}
	.st116{fill:url(#Tracé_11859_1_);}
	.st117{fill:url(#Tracé_11860_1_);}
	.st118{fill:url(#Tracé_11861_1_);}
	.st119{fill:url(#Tracé_11862_1_);}
	.st120{fill:url(#Tracé_11863_1_);}
	.st121{fill:url(#Tracé_11864_1_);}
	.st122{fill:url(#Tracé_11865_1_);}
	.st123{fill:url(#Tracé_11866_1_);}
	.st124{fill:url(#Tracé_11867_1_);}
	.st125{fill:url(#Tracé_11868_1_);}
	.st126{fill:url(#Tracé_11869_1_);}
	.st127{fill:url(#Tracé_11870_1_);}
	.st128{fill:url(#Tracé_11871_1_);}
	.st129{fill:url(#Tracé_11872_1_);}
	.st130{fill:url(#Tracé_11873_1_);}
	.st131{fill:url(#Tracé_11874_1_);}
	.st132{fill:url(#Tracé_11875_1_);}
	.st133{fill:url(#Tracé_11876_1_);}
	.st134{fill:url(#Tracé_11877_1_);}
	.st135{fill:url(#Tracé_11878_1_);}
	.st136{fill:url(#Tracé_11879_1_);}
	.st137{fill:url(#Tracé_11880_1_);}
	.st138{fill:url(#Tracé_11881_1_);}
	.st139{fill:url(#Tracé_11882_1_);}
	.st140{fill:url(#Tracé_11883_1_);}
	.st141{fill:url(#Tracé_11884_1_);}
	.st142{fill:url(#Tracé_11885_1_);}
	.st143{fill:url(#Tracé_11886_1_);}
	.st144{fill:url(#Tracé_11887_1_);}
	.st145{fill:url(#Tracé_11888_1_);}
	.st146{fill:url(#Tracé_11889_1_);}
	.st147{fill:url(#Tracé_11890_1_);}
	.st148{fill:url(#Tracé_11891_1_);}
	.st149{fill:url(#Tracé_11892_1_);}
	.st150{fill:url(#Tracé_11893_1_);}
	.st151{fill:url(#Tracé_11894_1_);}
	.st152{fill:url(#Tracé_11895_1_);}
	.st153{fill:url(#Tracé_11896_1_);}
	.st154{fill:url(#Tracé_11897_1_);}
	.st155{fill:url(#Tracé_11898_1_);}
	.st156{fill:url(#Tracé_11899_1_);}
	.st157{fill:url(#Tracé_11900_1_);}
	.st158{fill:url(#Tracé_11901_1_);}
	.st159{fill:url(#Tracé_11902_1_);}
	.st160{fill:url(#Tracé_11903_1_);}
	.st161{fill:url(#Tracé_11904_1_);}
	.st162{fill:url(#Tracé_11905_1_);}
	.st163{fill:url(#Tracé_11906_1_);}
	.st164{fill:url(#Tracé_11907_1_);}
	.st165{fill:url(#Tracé_11908_1_);}
	.st166{fill:url(#Tracé_11909_1_);}
	.st167{fill:url(#Tracé_11910_1_);}
	.st168{fill:url(#Tracé_11911_1_);}
	.st169{fill:url(#Tracé_11912_1_);}
	.st170{fill:url(#Tracé_11913_1_);}
	.st171{fill:url(#Tracé_11914_1_);}
	.st172{fill:url(#Tracé_11915_1_);}
	.st173{fill:url(#Tracé_11916_1_);}
	.st174{fill:url(#Tracé_11917_1_);}
	.st175{fill:url(#Tracé_11918_1_);}
	.st176{fill:url(#Tracé_11919_1_);}
	.st177{fill:url(#Tracé_11920_1_);}
	.st178{fill:url(#Tracé_11921_1_);}
	.st179{fill:url(#Tracé_11922_1_);}
	.st180{fill:url(#Tracé_11923_1_);}
	.st181{fill:url(#Tracé_11924_1_);}
	.st182{fill:url(#Tracé_11925_1_);}
	.st183{fill:url(#Tracé_11926_1_);}
	.st184{fill:url(#Tracé_11927_1_);}
	.st185{fill:url(#Tracé_11928_1_);}
	.st186{fill:url(#Tracé_11929_1_);}
	.st187{fill:url(#Tracé_11930_1_);}
	.st188{fill:url(#Tracé_11931_1_);}
	.st189{fill:url(#Tracé_11932_1_);}
	.st190{fill:url(#Tracé_11933_1_);}
	.st191{fill:url(#Tracé_11934_1_);}
	.st192{fill:url(#Tracé_11935_1_);}
	.st193{fill:url(#Tracé_11936_1_);}
	.st194{fill:url(#Tracé_11937_1_);}
	.st195{fill:url(#Tracé_11938_1_);}
	.st196{fill:url(#Tracé_11939_1_);}
	.st197{fill:url(#Tracé_11940_1_);}
	.st198{fill:url(#Tracé_11941_1_);}
	.st199{fill:url(#Tracé_11942_1_);}
	.st200{fill:url(#Tracé_11943_1_);}
	.st201{fill:url(#Tracé_11944_1_);}
	.st202{fill:url(#Tracé_11945_1_);}
	.st203{fill:url(#Tracé_11946_1_);}
	.st204{fill:url(#Tracé_11947_1_);}
	.st205{fill:url(#Tracé_11948_1_);}
	.st206{fill:url(#Tracé_11949_1_);}
	.st207{fill:url(#Tracé_11950_1_);}
	.st208{fill:url(#Tracé_11951_1_);}
	.st209{fill:url(#Tracé_11952_1_);}
	.st210{fill:url(#Tracé_11953_1_);}
	.st211{fill:url(#Tracé_11954_1_);}
	.st212{fill:url(#Tracé_11955_1_);}
	.st213{fill:url(#Tracé_11956_1_);}
	.st214{fill:url(#Tracé_11957_1_);}
	.st215{fill:url(#Tracé_11958_1_);}
	.st216{fill:url(#Tracé_11959_1_);}
	.st217{fill:url(#Tracé_11960_1_);}
	.st218{fill:url(#Tracé_11961_1_);}
	.st219{fill:url(#Tracé_11962_1_);}
	.st220{fill:url(#Tracé_11963_1_);}
	.st221{fill:url(#Tracé_11964_1_);}
	.st222{fill:url(#Tracé_11965_1_);}
	.st223{fill:url(#Tracé_11966_1_);}
	.st224{fill:url(#Tracé_11967_1_);}
	.st225{fill:url(#Tracé_11968_1_);}
	.st226{fill:url(#Tracé_11969_1_);}
	.st227{fill:url(#Tracé_11970_1_);}
	.st228{fill:url(#Tracé_11971_1_);}
	.st229{fill:url(#Tracé_11972_1_);}
	.st230{fill:url(#Tracé_11973_1_);}
	.st231{fill:url(#Tracé_11974_1_);}
	.st232{fill:url(#Tracé_11975_1_);}
	.st233{fill:url(#Tracé_11976_1_);}
	.st234{fill:url(#Tracé_11977_1_);}
	.st235{fill:url(#Tracé_11978_1_);}
	.st236{fill:url(#Tracé_11979_1_);}
	.st237{fill:url(#Tracé_11980_1_);}
	.st238{fill:url(#Tracé_11981_1_);}
	.st239{fill:url(#Tracé_11982_1_);}
	.st240{fill:url(#Tracé_11983_1_);}
	.st241{fill:url(#Tracé_11984_1_);}
	.st242{fill:url(#Tracé_11985_1_);}
	.st243{fill:url(#Tracé_11986_1_);}
	.st244{fill:url(#Tracé_11987_1_);}
	.st245{fill:url(#Tracé_11988_1_);}
	.st246{fill:url(#Tracé_11989_1_);}
	.st247{fill:url(#Tracé_11990_1_);}
	.st248{fill:url(#Tracé_11991_1_);}
	.st249{fill:url(#Tracé_11992_1_);}
	.st250{fill:url(#Tracé_11993_1_);}
	.st251{fill:url(#Tracé_11994_1_);}
	.st252{fill:url(#Tracé_11995_1_);}
	.st253{fill:url(#Tracé_11996_1_);}
	.st254{fill:url(#Tracé_11997_1_);}
	.st255{fill:url(#Tracé_11998_1_);}
	.st256{fill:url(#Tracé_11999_1_);}
	.st257{fill:url(#Tracé_12000_1_);}
	.st258{fill:url(#Tracé_12001_1_);}
	.st259{fill:url(#Tracé_12002_1_);}
	.st260{fill:url(#Tracé_12003_1_);}
	.st261{fill:url(#Tracé_12004_1_);}
	.st262{fill:url(#Tracé_12005_1_);}
	.st263{fill:url(#Tracé_12006_1_);}
	.st264{fill:url(#Tracé_12007_1_);}
	.st265{fill:url(#Tracé_12008_1_);}
	.st266{fill:url(#Tracé_12009_1_);}
	.st267{fill:url(#Tracé_12010_1_);}
	.st268{fill:url(#Tracé_12011_1_);}
</style>
<symbol  id="pt1" viewBox="-1.2 -1.2 2.5 2.5">
	<path class="st0" d="M1.2,0c0-0.7-0.6-1.2-1.2-1.2c-0.7,0-1.2,0.6-1.2,1.2c0,0.7,0.6,1.2,1.2,1.2C0.7,1.2,1.2,0.7,1.2,0z"/>
</symbol>
<symbol  id="pt2_2" viewBox="-2.2 -2.2 4.5 4.5">
	<circle class="st1" cx="0" cy="0" r="2.2"/>
</symbol>
<rect x="-218.3" y="-128.8" class="st36" width="1781.3" height="913.2"/>
<g>
	<g id="XMLID_33_">
		<path id="XMLID_37_" class="st77" d="M48,83.9L48,83.9c-19.8,0-35.9-16.1-35.9-35.9l0,0c0-19.8,16.1-35.9,35.9-35.9h0
			c19.8,0,35.9,16.1,35.9,35.9l0,0C83.9,67.8,67.8,83.9,48,83.9z"/>
	</g>
	<path class="st78" d="M59.1,42c2.8,2,6.2,3.2,9.9,3.2v-7.1c-0.7,0-1.4-0.1-2.1-0.2v5.6c-3.7,0-7.1-1.2-9.9-3.2v14.5
		c0,7.3-5.9,13.1-13.1,13.1c-2.7,0-5.2-0.8-7.3-2.2c2.4,2.4,5.7,4,9.4,4c7.3,0,13.1-5.9,13.1-13.1L59.1,42L59.1,42z M61.7,34.8
		c-1.4-1.6-2.4-3.6-2.6-5.8v-0.9h-2C57.7,30.9,59.4,33.4,61.7,34.8L61.7,34.8z M41.2,60.1c-0.8-1-1.2-2.3-1.2-3.6c0-3.3,2.7-6,6-6
		c0.6,0,1.2,0.1,1.8,0.3v-7.3c-0.7-0.1-1.4-0.1-2.1-0.1V49c-0.6-0.2-1.2-0.3-1.8-0.3c-3.3,0-6,2.7-6,6
		C37.9,57.1,39.2,59.1,41.2,60.1z"/>
	<path class="st78" d="M57.1,40.3c2.8,2,6.2,3.2,9.9,3.2v-5.6c-2.1-0.4-3.9-1.5-5.3-3c-2.3-1.5-4-3.9-4.5-6.7H52v28.4
		c0,3.3-2.7,6-6,6c-2,0-3.7-0.9-4.8-2.4c-2-1-3.3-3-3.3-5.4c0-3.3,2.7-6,6-6c0.6,0,1.2,0.1,1.8,0.3v-5.7c-7.1,0.1-12.9,6-12.9,13.1
		c0,3.6,1.4,6.8,3.7,9.2c2.1,1.4,4.6,2.2,7.3,2.2c7.3,0,13.1-5.9,13.1-13.1L57.1,40.3z"/>
	<path class="st78" d="M67,37.8v-1.5c-1.9,0-3.7-0.5-5.3-1.5C63.1,36.3,64.9,37.4,67,37.8z M57.2,28.1c0-0.3-0.1-0.5-0.1-0.8v-0.9
		h-7.1v28.4c0,3.3-2.7,6-6,6c-1,0-1.9-0.2-2.7-0.6c1.1,1.4,2.8,2.4,4.8,2.4c3.3,0,6-2.7,6-6V28.1H57.2z M45.7,43.4v-1.6
		c-0.6-0.1-1.2-0.1-1.8-0.1c-7.3,0-13.1,5.9-13.1,13.1c0,4.5,2.3,8.6,5.8,10.9c-2.3-2.4-3.7-5.6-3.7-9.2
		C32.9,49.3,38.6,43.5,45.7,43.4L45.7,43.4z"/>
</g>
</svg>
