<svg xmlns="http://www.w3.org/2000/svg" viewBox="0 0 1920 105.05"><defs><style>.cls-1{fill:none;}</style></defs><g id="Calque_2" data-name="Calque 2"><g id="Calque_1-2" data-name="Calque 1"><path class="cls-1" d="M105,70H874.36A128,128,0,0,0,964.9,32.5h0a89.32,89.32,0,0,1,63.15-26.16h396.66a89.32,89.32,0,0,1,63.15,26.16h0A128,128,0,0,0,1578.4,70h236.23a70,70,0,0,0,70-70H35A70,70,0,0,0,105,70Z"/><path d="M1814.63,70H1578.4a128,128,0,0,1-90.54-37.5h0a89.32,89.32,0,0,0-63.15-26.16H1028.05A89.32,89.32,0,0,0,964.9,32.5h0A128,128,0,0,1,874.36,70H105A70,70,0,0,1,35,0H0V105.05H1920V0h-35.38A70,70,0,0,1,1814.63,70Z"/></g></g></svg>