<svg xmlns="http://www.w3.org/2000/svg" viewBox="0 0 1920 229.72"><defs><style>.cls-1{fill:none;}</style></defs><g id="Calque_2" data-name="Calque 2"><g id="Calque_1-2" data-name="Calque 1"><path class="cls-1" d="M1814.9,106.78H493.37A205,205,0,0,0,382,139.71h0a123.26,123.26,0,0,1-67,19.8H105.15a70,70,0,0,0-70,70.21H1885c0-18.89,0-36.67-.08-53.11A70.24,70.24,0,0,0,1814.9,106.78Z"/><path d="M0,0V229.72H35.15a70,70,0,0,1,70-70.21H315a123.26,123.26,0,0,0,67-19.8h0a205,205,0,0,1,111.42-32.93H1814.9a70.24,70.24,0,0,1,70,69.83c0,16.44.07,34.22.08,53.11h35V0Z"/></g></g></svg>